<?xml version="1.0" encoding="UTF-8" standalone="no"?>
<!-- Created with Inkscape (http://www.inkscape.org/) -->

<svg
   version="1.1"
   id="svg2"
   width="491.33334"
   height="392.92001"
   viewBox="0 0 491.33334 392.92001"
   sodipodi:docname="Emblema Universidad de Oviedo Vertical Verde Inglés.eps"
   xmlns:inkscape="http://www.inkscape.org/namespaces/inkscape"
   xmlns:sodipodi="http://sodipodi.sourceforge.net/DTD/sodipodi-0.dtd"
   xmlns="http://www.w3.org/2000/svg"
   xmlns:svg="http://www.w3.org/2000/svg">
  <defs
     id="defs6" />
  <sodipodi:namedview
     id="namedview4"
     pagecolor="#ffffff"
     bordercolor="#000000"
     borderopacity="0.25"
     inkscape:showpageshadow="2"
     inkscape:pageopacity="0.0"
     inkscape:pagecheckerboard="0"
     inkscape:deskcolor="#d1d1d1" />
  <g
     id="g8"
     inkscape:groupmode="layer"
     inkscape:label="ink_ext_XXXXXX"
     transform="matrix(1.3333333,0,0,-1.3333333,0,392.92)">
    <g
       id="g10"
       transform="scale(0.1)">
      <path
         d="m 291.723,358.32 c -3.735,-0.129 -9.2,-0.941 -16.403,-2.41 -7.203,-1.449 -13.062,-3.66 -17.582,-6.601 -4.547,-3.047 -7.675,-9.379 -9.41,-18.977 -1.734,-9.594 -2.601,-21.344 -2.601,-35.191 V 171.762 c 0,-15.711 -3.262,-29.383 -9.778,-40.973 -6.547,-11.617 -15.14,-21.129 -25.812,-28.598 -10.512,-7.2027 -21.629,-12.3824 -33.274,-15.5113 -11.672,-3.1211 -22.84,-4.6992 -33.511,-4.6992 -17.059,0 -32.25,2.2304 -45.5786,6.6992 C 84.4492,93.1484 73.2539,99.1914 64.1836,106.789 55.25,114.391 48.5195,123.09 44,132.859 c -4.5469,9.813 -6.8086,20.032 -6.8086,30.7 v 167.773 c 0,4.648 -0.7617,8.566 -2.3125,11.699 -1.5234,3.129 -4.625,6.02 -9.2773,8.699 -3.3399,1.86 -7.5977,3.36 -12.8008,4.489 C 7.59766,357.352 3.33984,358.039 0,358.32 v 14.2 h 118.172 v -14.2 c -3.734,-0.129 -8.438,-0.73 -14.09,-1.808 -5.6757,-1.051 -9.8554,-2.051 -12.5117,-3 -4.5195,-1.602 -7.5664,-4.25 -9.0937,-7.992 -1.5235,-3.731 -2.3125,-7.782 -2.3125,-12.192 V 176.711 c 0,-7.602 0.8437,-15.563 2.5234,-23.871 1.6563,-8.328 4.9414,-16.09 9.8828,-23.289 5.2031,-7.332 12.2737,-13.321 21.2107,-17.981 8.91,-4.648 21.184,-6.992 36.77,-6.992 14.668,0 26.969,2.344 36.902,6.992 9.938,4.66 17.77,10.782 23.5,18.379 5.465,7.199 9.328,14.723 11.59,22.571 2.262,7.859 3.391,15.8 3.391,23.789 V 292.59 c 0,14.769 -1.051,26.859 -3.18,36.242 -2.156,9.406 -5.285,15.559 -9.41,18.508 -4.68,3.308 -11.039,5.91 -19.11,7.781 -8.043,1.859 -14.218,2.918 -18.476,3.199 v 14.2 h 115.965 v -14.2"
         style="fill:#088e86;fill-opacity:1;fill-rule:nonzero;stroke:none"
         id="path12" />
      <path
         d="M 527.066,88.7891 H 430.684 V 101.98 c 3.074,0.258 6.437,0.532 10.117,0.821 3.656,0.258 6.676,0.777 9.094,1.57 3.734,1.207 6.492,3.309 8.281,6.309 1.812,3 2.707,6.89 2.707,11.699 V 223.75 c 0,13.988 -3.313,24.789 -9.91,32.379 -6.621,7.601 -14.664,11.41 -24.153,11.41 -7.097,0 -13.562,-1.098 -19.453,-3.309 -5.887,-2.179 -11.09,-4.89 -15.637,-8.101 -4.39,-3.039 -7.91,-6.359 -10.511,-9.879 -2.606,-3.551 -4.524,-6.359 -5.703,-8.512 V 124.371 c 0,-4.519 0.918,-8.25 2.785,-11.191 1.867,-2.95 4.676,-5.211 8.41,-6.809 2.785,-1.312 5.836,-2.312 9.094,-3 3.258,-0.652 6.625,-1.133 10.093,-1.391 V 88.7891 H 309.332 V 101.98 c 3.051,0.258 6.231,0.532 9.488,0.821 3.258,0.258 6.098,0.777 8.489,1.57 3.734,1.207 6.519,3.309 8.304,6.309 1.817,3 2.707,6.89 2.707,11.672 v 121.609 c 0,4.551 -0.968,8.699 -2.914,12.488 -1.922,3.813 -4.629,6.891 -8.097,9.301 -2.524,1.578 -5.52,2.762 -8.989,3.5 -3.468,0.711 -7.203,1.211 -11.195,1.5 v 13.191 l 65.574,4.387 2.817,-2.777 v -27.813 h 0.996 c 3.207,3.203 7.203,7.043 11.984,11.512 4.813,4.441 9.332,8.102 13.617,10.879 4.914,3.211 10.778,5.859 17.582,8.019 6.809,2.133 14.457,3.184 23,3.184 18.922,0 32.957,-5.891 42.078,-17.691 9.122,-11.801 13.696,-27.493 13.696,-47.102 V 123.98 c 0,-4.679 0.812,-8.441 2.418,-11.3 1.578,-2.871 4.308,-5.098 8.176,-6.7 3.203,-1.339 5.964,-2.261 8.304,-2.789 2.34,-0.55 5.571,-0.953 9.699,-1.211 V 88.7891"
         style="fill:#088e86;fill-opacity:1;fill-rule:nonzero;stroke:none"
         id="path14" />
      <path
         d="m 621.844,366.102 c 0,-7.59 -2.496,-14.211 -7.492,-19.891 -4.993,-5.652 -11.168,-8.492 -18.504,-8.492 -6.782,0 -12.696,2.711 -17.688,8.09 -4.992,5.421 -7.492,11.57 -7.492,18.511 0,7.328 2.5,13.719 7.492,19.18 4.992,5.469 10.906,8.211 17.688,8.211 7.597,0 13.828,-2.582 18.687,-7.711 4.891,-5.121 7.309,-11.09 7.309,-17.898 z M 646.84,88.7891 H 551.668 V 101.98 c 3.074,0.258 6.227,0.532 9.488,0.821 3.285,0.258 6.098,0.777 8.516,1.57 3.73,1.207 6.492,3.309 8.277,6.309 1.817,3 2.707,6.89 2.707,11.672 v 121.609 c 0,4.289 -0.972,8.18 -2.89,11.699 -1.946,3.52 -4.653,6.488 -8.094,8.879 -2.551,1.609 -6.203,2.981 -11.016,4.109 -4.781,1.133 -9.195,1.813 -13.191,2.102 v 13.191 l 69.57,4.387 2.813,-2.777 V 124.77 c 0,-4.649 0.894,-8.52 2.679,-11.59 1.789,-3.078 4.602,-5.34 8.442,-6.809 2.914,-1.18 5.754,-2.16 8.539,-2.891 2.789,-0.742 5.887,-1.242 9.332,-1.5 V 88.7891"
         style="fill:#088e86;fill-opacity:1;fill-rule:nonzero;stroke:none"
         id="path16" />
      <path
         d="m 865.965,273.738 c -5.992,-1.066 -11.695,-3.226 -17.082,-6.488 -5.414,-3.281 -10.043,-9.039 -13.906,-17.289 -7.86,-17.883 -15.981,-36.512 -24.391,-55.91 -8.383,-19.403 -17.137,-39.742 -26.203,-61.082 -2.656,-6.117 -5.496,-13.379 -8.492,-21.789 -2.996,-8.379 -5.754,-16.4495 -8.305,-24.18 L 752,87 c -12.668,31.301 -24.34,59.871 -34.984,85.66 -10.672,25.809 -21.735,52.219 -33.196,79.301 -2.679,6.117 -6.965,10.879 -12.906,14.289 -5.914,3.391 -11.879,5.551 -17.898,6.5 v 13.191 h 91.257 V 271.93 c -3.996,-0.129 -9.015,-0.95 -15.007,-2.5 -5.993,-1.52 -8.989,-3.621 -8.989,-6.282 0,-0.386 0.34,-1.418 0.996,-3.097 0.661,-1.66 1.34,-3.551 2,-5.68 5.442,-13.59 13.168,-32.562 23.129,-56.93 9.961,-24.363 18.082,-44 24.336,-58.921 4.785,11.449 10.832,25.699 18.086,42.73 7.281,17.059 15.114,36.09 23.496,57.141 1.34,3.597 2.602,6.941 3.813,10.097 1.183,3.121 1.785,6.282 1.785,9.481 0,2.261 -1.102,4.293 -3.285,6.082 -2.207,1.808 -4.836,3.359 -7.91,4.699 -3.075,1.309 -6.071,2.309 -8.989,3 -2.945,0.648 -5.336,1.129 -7.203,1.391 v 12.8 h 75.434 v -12.203"
         style="fill:#088e86;fill-opacity:1;fill-rule:nonzero;stroke:none"
         id="path18" />
      <path
         d="m 1005.56,210.352 c 0,7.437 -0.66,15.429 -1.92,23.918 -1.26,8.511 -3.29,15.609 -6.101,21.339 -3.047,6.102 -7.254,11.09 -12.586,14.95 -5.336,3.839 -12.195,5.793 -20.609,5.793 -13.981,0 -25.625,-5.84 -34.875,-17.461 -9.281,-11.61 -14.301,-27.801 -15.09,-48.539 z m 44.18,-75.172 c -8.28,-15.75 -19.34,-28.258 -33.2,-37.5902 -13.87,-9.3281 -29.802,-14.0117 -47.778,-14.0117 -15.875,0 -29.782,2.8125 -41.688,8.4102 -11.933,5.6015 -21.761,13.2027 -29.488,22.7927 -7.754,9.59 -13.512,20.789 -17.297,33.59 -3.809,12.801 -5.703,26.34 -5.703,40.578 0,12.801 2.023,25.371 6.098,37.692 4.046,12.328 10.015,23.449 17.902,33.308 7.594,9.461 17.004,17.082 28.277,22.891 11.278,5.808 23.895,8.699 37.903,8.699 14.379,0 26.703,-2.258 36.984,-6.809 10.25,-4.519 18.58,-10.718 24.99,-18.582 6.13,-7.468 10.7,-16.269 13.7,-26.386 2.99,-10.153 4.49,-21.133 4.49,-33.012 V 193.551 H 914.379 c 0,-12.949 1.211,-24.699 3.68,-35.27 2.472,-10.543 6.363,-19.84 11.699,-27.859 5.203,-7.731 12.012,-13.852 20.394,-18.32 8.411,-4.473 18.399,-6.731 29.989,-6.731 11.882,0 22.109,2.789 30.699,8.359 8.6,5.551 16.9,15.559 24.89,30.04 l 14.01,-8.59"
         style="fill:#088e86;fill-opacity:1;fill-rule:nonzero;stroke:none"
         id="path20" />
      <path
         d="m 1223.48,260.551 c 0,-6.813 -1.66,-12.832 -5,-18.11 -3.34,-5.261 -8.46,-7.882 -15.4,-7.882 -7.47,0 -13.17,1.91 -17.09,5.781 -3.94,3.859 -5.91,8.148 -5.91,12.801 0,2.937 0.24,5.597 0.71,8.007 0.47,2.403 0.89,4.793 1.31,7.18 -6.28,0 -13.61,-2.519 -21.99,-7.598 -8.42,-5.039 -15.54,-12.242 -21.4,-21.582 V 124.371 c 0,-4.652 0.89,-8.461 2.68,-11.402 1.82,-2.918 4.65,-5.129 8.52,-6.598 3.31,-1.312 7.62,-2.312 12.88,-3 5.28,-0.652 9.83,-1.133 13.72,-1.391 V 88.7891 H 1072.53 V 101.98 c 3.05,0.258 6.23,0.532 9.49,0.821 3.26,0.258 6.09,0.777 8.49,1.57 3.73,1.207 6.51,3.309 8.3,6.309 1.82,3 2.71,6.89 2.71,11.672 v 121.609 c 0,4.16 -0.97,8.211 -2.92,12.199 -1.92,4 -4.62,7.18 -8.09,9.59 -2.53,1.578 -5.52,2.762 -8.99,3.5 -3.47,0.711 -7.2,1.211 -11.2,1.5 v 13.191 l 65.58,4.387 2.81,-2.777 v -27.813 h 1 c 8.25,10.801 17.45,19 27.6,24.602 10.12,5.601 19.39,8.379 27.78,8.379 8.41,0 15.22,-2.731 20.5,-8.168 5.26,-5.492 7.89,-12.801 7.89,-22"
         style="fill:#088e86;fill-opacity:1;fill-rule:nonzero;stroke:none"
         id="path22" />
      <path
         d="m 1370.43,185.352 c 5.46,-4.782 9.67,-10.332 12.59,-16.582 2.94,-6.282 4.41,-13.93 4.41,-23 0,-18.27 -6.83,-33.2 -20.5,-44.79 -13.67,-11.5894 -31.36,-17.4019 -53.09,-17.4019 -11.46,0 -22.03,2.0821 -31.7,6.211 -9.65,4.1211 -16.56,7.9297 -20.68,11.4019 l -4,-13.0113 h -15.01 l -2,68.5823 h 13.8 c 1.08,-5.211 3.34,-11.313 6.81,-18.242 3.47,-6.969 7.65,-13.25 12.59,-18.879 5.2,-5.879 11.43,-10.832 18.69,-14.852 7.28,-3.988 15.43,-6.0195 24.49,-6.0195 12.8,0 22.66,2.9215 29.6,8.7615 6.94,5.828 10.41,14.188 10.41,25.039 0,5.602 -1.11,10.442 -3.31,14.508 -2.19,4.051 -5.42,7.633 -9.7,10.703 -4.39,3.047 -9.78,5.809 -16.19,8.278 -6.39,2.472 -13.54,4.921 -21.4,7.312 -6.25,1.859 -13.22,4.41 -20.89,7.699 -7.68,3.258 -14.22,7.09 -19.69,11.481 -5.86,4.679 -10.67,10.41 -14.4,17.187 -3.74,6.813 -5.6,14.801 -5.6,24 0,16.141 5.99,29.813 18,41 11.99,11.203 28.05,16.801 48.18,16.801 7.73,0 15.64,-1 23.71,-3 8.04,-2 14.61,-4.41 19.68,-7.199 l 4.6,10.379 h 14.41 l 2.99,-63.367 h -13.79 c -2.82,14.199 -8.84,25.73 -18.11,34.636 -9.26,8.891 -20.56,13.364 -33.88,13.364 -10.94,0 -19.53,-2.762 -25.79,-8.262 -6.28,-5.52 -9.41,-12.168 -9.41,-19.949 0,-5.993 1.03,-10.981 3.1,-15 2.08,-4 5.16,-7.391 9.31,-10.18 3.99,-2.68 9.01,-5.172 15.09,-7.512 6.07,-2.34 13.56,-4.969 22.49,-7.89 8.81,-2.809 17.09,-6.071 24.89,-9.797 7.81,-3.731 14.22,-7.864 19.3,-12.41"
         style="fill:#088e86;fill-opacity:1;fill-rule:nonzero;stroke:none"
         id="path24" />
      <path
         d="m 1487.81,366.102 c 0,-7.59 -2.5,-14.211 -7.49,-19.891 -5,-5.652 -11.17,-8.492 -18.51,-8.492 -6.78,0 -12.69,2.711 -17.68,8.09 -5,5.421 -7.49,11.57 -7.49,18.511 0,7.328 2.49,13.719 7.49,19.18 4.99,5.469 10.9,8.211 17.68,8.211 7.6,0 13.83,-2.582 18.69,-7.711 4.89,-5.121 7.31,-11.09 7.31,-17.898 z m 25,-277.3129 h -95.18 V 101.98 c 3.08,0.258 6.23,0.532 9.49,0.821 3.29,0.258 6.1,0.777 8.52,1.57 3.73,1.207 6.49,3.309 8.28,6.309 1.81,3 2.7,6.89 2.7,11.672 v 121.609 c 0,4.289 -0.97,8.18 -2.89,11.699 -1.94,3.52 -4.65,6.488 -8.09,8.879 -2.55,1.609 -6.21,2.981 -11.02,4.109 -4.78,1.133 -9.2,1.813 -13.19,2.102 v 13.191 l 69.57,4.387 2.81,-2.777 V 124.77 c 0,-4.649 0.9,-8.52 2.69,-11.59 1.78,-3.078 4.59,-5.34 8.43,-6.809 2.92,-1.18 5.76,-2.16 8.54,-2.891 2.79,-0.742 5.89,-1.242 9.34,-1.5 V 88.7891"
         style="fill:#088e86;fill-opacity:1;fill-rule:nonzero;stroke:none"
         id="path26" />
      <path
         d="m 1658.97,97.3789 c -8.68,-3.5976 -16.88,-6.6172 -24.6,-9.0898 -7.73,-2.4688 -17.19,-3.711 -28.39,-3.711 -16.53,0 -28.18,4.1836 -34.9,12.5117 -6.73,8.3322 -10.1,20.0822 -10.1,35.2692 v 133.582 h -35.59 v 19.18 h 36.38 v 61.399 h 36.4 v -61.399 h 56.59 v -19.18 h -56.19 V 155.762 c 0,-8.262 0.31,-15.172 0.89,-20.692 0.61,-5.519 2.05,-10.351 4.31,-14.48 2.13,-3.891 5.34,-6.809 9.6,-8.809 4.25,-1.992 9.98,-2.992 17.19,-2.992 3.33,0 8.22,0.293 14.69,0.891 6.46,0.609 11.04,1.371 13.72,2.289 V 97.3789"
         style="fill:#088e86;fill-opacity:1;fill-rule:nonzero;stroke:none"
         id="path28" />
      <path
         d="m 1663.57,24.3906 c 0,6.6797 1.84,12.1211 5.49,16.3008 3.68,4.1992 8.23,6.3086 13.69,6.3086 4.26,0 7.94,-0.7891 11.02,-2.3984 3.05,-1.5703 5.78,-3.6211 8.2,-6.1211 2,-2 4.12,-4.711 6.39,-8.1485 2.26,-3.4414 4.07,-6.2812 5.38,-8.5117 6.68,3.5703 14.64,12.9492 23.9,28.1211 9.25,15.1602 15.95,28.457 20.1,39.8984 -12.67,31.5582 -24.13,59.8202 -34.4,84.7382 -10.25,24.91 -20.98,50.723 -32.17,77.383 -2.53,6.117 -6.81,10.879 -12.8,14.289 -6,3.391 -11.99,5.551 -18.01,6.5 v 13.191 h 90.02 V 271.93 c -3.99,-0.129 -8.8,-0.969 -14.4,-2.5 -5.6,-1.52 -8.39,-3.282 -8.39,-5.282 0,-0.808 0.29,-2.128 0.9,-3.988 0.6,-1.871 1.31,-3.82 2.1,-5.808 5.05,-13.172 12.77,-32.204 23.13,-57.043 10.38,-24.84 18.4,-44.707 24.13,-59.637 5.99,14.25 12.25,29.019 18.71,44.269 6.47,15.239 13.72,33.27 21.71,54.028 0.95,2.531 2.29,6.019 4.02,10.492 1.74,4.469 2.61,8.309 2.61,11.488 0,3.473 -3.05,6.699 -9.1,9.699 -6.07,2.993 -11.83,4.832 -17.29,5.493 v 12.8 h 73.2 v -12.41 c -4,-0.652 -9.25,-2.972 -15.8,-6.883 -6.52,-3.949 -11.38,-9.519 -14.59,-16.687 -15.85,-36.801 -29.96,-70.34 -42.29,-100.59 -12.32,-30.25 -21.68,-52.5116 -28.09,-66.789 -8.39,-18.6601 -15.88,-33.2226 -22.5,-43.6836 -6.6,-10.457 -13.01,-18.6875 -19.29,-24.707 -6.13,-5.58984 -11.7,-9.35156 -16.69,-11.26952 C 1707.46,0.96875 1702.28,0 1696.97,0 c -10.4,0 -18.58,2.46875 -24.49,7.41016 -5.94,4.94144 -8.91,10.58984 -8.91,16.98044"
         style="fill:#088e86;fill-opacity:1;fill-rule:nonzero;stroke:none"
         id="path30" />
      <path
         d="m 2129.84,188.949 c 0,10.02 -1,20.582 -3,31.699 -2,11.122 -5.02,20.551 -9.01,28.282 -4.29,8.281 -9.89,14.91 -16.82,19.902 -6.94,5.02 -15.43,7.52 -25.45,7.52 -10.27,0 -19.05,-2.551 -26.33,-7.602 -7.28,-5.07 -13.2,-12.012 -17.74,-20.82 -4.26,-8.121 -7.28,-17.371 -9.02,-27.782 -1.73,-10.41 -2.6,-20.468 -2.6,-30.199 0,-12.801 1.05,-24.629 3.1,-35.48 2.08,-10.86 5.39,-20.547 9.93,-29.098 4.53,-8.512 10.26,-15.211 17.12,-20.082 6.88,-4.891 15.4,-7.3007 25.54,-7.3007 16.69,0 29.91,8.0627 39.67,24.1837 9.75,16.129 14.61,38.398 14.61,66.777 z m 41.4,0.403 c 0,-13.852 -2.21,-27.5 -6.6,-40.872 -4.42,-13.41 -10.67,-24.761 -18.82,-34.089 -9.23,-10.672 -19.9,-18.6097 -32.04,-23.8207 -12.14,-5.1719 -25.73,-7.7812 -40.82,-7.7812 -12.54,0 -24.5,2.3711 -35.82,7.1015 -11.36,4.7305 -21.42,11.6214 -30.23,20.6874 -8.67,8.934 -15.59,19.844 -20.71,32.692 -5.15,12.859 -7.7,27.281 -7.7,43.289 0,30.812 8.96,55.992 26.91,75.589 17.95,19.582 41.45,29.391 70.55,29.391 27.62,0 50.41,-9.309 68.36,-27.891 17.93,-18.609 26.92,-43.367 26.92,-74.296"
         style="fill:#088e86;fill-opacity:1;fill-rule:nonzero;stroke:none"
         id="path32" />
      <path
         d="m 2346.39,374.309 c 0,-6 -1.6,-11.071 -4.81,-15.2 -3.21,-4.121 -8.07,-6.199 -14.59,-6.199 -4.15,0 -7.78,0.871 -10.91,2.602 -3.12,1.738 -6.04,4.078 -8.7,6.988 -2.65,2.949 -5.12,6.289 -7.38,10.02 -2.29,3.73 -4.21,6.73 -5.81,8.992 -8.94,-0.403 -15.82,-6.633 -20.69,-18.66 -4.88,-12.043 -7.3,-31.231 -7.3,-57.571 v -20.16 h 50.78 v -19.18 h -50.78 v -141.57 c 0,-4.652 0.89,-8.461 2.71,-11.402 1.78,-2.918 4.62,-5.129 8.49,-6.598 3.2,-1.18 7.46,-2.16 12.8,-2.891 5.33,-0.742 9.93,-1.242 13.79,-1.5 V 88.7891 H 2200.02 V 101.98 c 3.07,0.258 6.23,0.532 9.48,0.821 3.29,0.258 6.1,0.777 8.52,1.57 3.73,1.207 6.49,3.309 8.28,6.309 1.81,3 2.71,6.89 2.71,11.699 v 143.562 h -38.98 v 19.18 h 38.98 v 12.59 c 0,29.937 7.75,54.18 23.28,72.758 15.54,18.551 34.96,27.832 58.3,27.832 11.86,0 20.79,-2.34 26.78,-6.992 6,-4.68 9.02,-10.329 9.02,-17"
         style="fill:#088e86;fill-opacity:1;fill-rule:nonzero;stroke:none"
         id="path34" />
      <path
         d="m 2636.11,137.781 c 7.47,12.117 12.91,25.86 16.3,41.188 3.39,15.32 5.1,32.461 5.1,51.383 0,19.449 -1.89,37.32 -5.71,53.589 -3.78,16.25 -9.35,30.118 -16.69,41.579 -7.33,11.332 -16.53,20.16 -27.59,26.5 -11.07,6.332 -23.74,9.48 -37.98,9.48 -16.01,0 -29.6,-3.648 -40.8,-10.98 -11.19,-7.329 -20.34,-17.141 -27.38,-29.391 -6.68,-11.75 -11.65,-25.469 -14.91,-41.18 -3.25,-15.75 -4.88,-32.277 -4.88,-49.597 0,-19.192 1.7,-36.532 5.17,-51.993 3.47,-15.449 8.94,-29.199 16.4,-41.187 7.21,-11.723 16.27,-20.891 27.21,-27.492 10.93,-6.602 24,-9.9105 39.19,-9.9105 14.24,0 27.12,3.3395 38.58,10.0195 11.46,6.652 20.79,15.981 27.99,27.992 z m 29.81,201.149 c 12.51,-13.071 22.31,-28.84 29.38,-47.289 7.07,-18.469 10.6,-38.903 10.6,-61.289 0,-22.532 -3.6,-43 -10.81,-61.372 -7.2,-18.402 -17.19,-34.07 -29.99,-47 -12.4,-12.8 -26.78,-22.6519 -43.18,-29.5894 -16.4,-6.9414 -33.85,-10.4101 -52.38,-10.4101 -19.74,0 -37.96,3.6992 -54.7,11.1211 -16.72,7.3784 -31.09,17.6874 -43.08,30.8784 -12.01,12.93 -21.42,28.622 -28.31,47.071 -6.86,18.48 -10.27,38.25 -10.27,59.301 0,23.046 3.6,43.628 10.77,61.687 7.21,18.051 17.14,33.691 29.81,46.891 12.54,13.058 27.1,23.05 43.68,29.992 16.59,6.937 33.96,10.379 52.1,10.379 18.79,0 36.51,-3.52 53.17,-10.59 16.66,-7.07 31.07,-16.981 43.21,-29.781"
         style="fill:#088e86;fill-opacity:1;fill-rule:nonzero;stroke:none"
         id="path36" />
      <path
         d="m 2931.04,273.738 c -5.99,-1.066 -11.69,-3.226 -17.08,-6.488 -5.42,-3.281 -10.04,-9.039 -13.91,-17.289 -7.86,-17.883 -15.98,-36.512 -24.39,-55.91 -8.38,-19.403 -17.13,-39.742 -26.2,-61.082 -2.66,-6.117 -5.5,-13.379 -8.49,-21.789 -3,-8.379 -5.76,-16.4495 -8.31,-24.18 h -15.58 c -12.67,31.301 -24.34,59.871 -34.99,85.66 -10.67,25.809 -21.73,52.219 -33.19,79.301 -2.68,6.117 -6.97,10.879 -12.91,14.289 -5.91,3.391 -11.88,5.551 -17.9,6.5 v 13.191 h 91.26 V 271.93 c -4,-0.129 -9.02,-0.95 -15.01,-2.5 -5.99,-1.52 -8.99,-3.621 -8.99,-6.282 0,-0.386 0.34,-1.418 1,-3.097 0.66,-1.66 1.34,-3.551 2,-5.68 5.44,-13.59 13.17,-32.562 23.13,-56.93 9.96,-24.363 18.08,-44 24.34,-58.921 4.78,11.449 10.83,25.699 18.08,42.73 7.28,17.059 15.11,36.09 23.5,57.141 1.34,3.597 2.6,6.941 3.81,10.097 1.18,3.121 1.79,6.282 1.79,9.481 0,2.261 -1.11,4.293 -3.29,6.082 -2.21,1.808 -4.84,3.359 -7.91,4.699 -3.08,1.309 -6.07,2.309 -8.99,3 -2.94,0.648 -5.34,1.129 -7.2,1.391 v 12.8 h 75.43 v -12.203"
         style="fill:#088e86;fill-opacity:1;fill-rule:nonzero;stroke:none"
         id="path38" />
      <path
         d="m 3010.21,366.102 c 0,-7.59 -2.5,-14.211 -7.49,-19.891 -5,-5.652 -11.17,-8.492 -18.51,-8.492 -6.78,0 -12.69,2.711 -17.69,8.09 -4.99,5.421 -7.49,11.57 -7.49,18.511 0,7.328 2.5,13.719 7.49,19.18 5,5.469 10.91,8.211 17.69,8.211 7.6,0 13.83,-2.582 18.69,-7.711 4.89,-5.121 7.31,-11.09 7.31,-17.898 z M 3035.2,88.7891 h -95.17 V 101.98 c 3.08,0.258 6.23,0.532 9.49,0.821 3.28,0.258 6.1,0.777 8.51,1.57 3.74,1.207 6.5,3.309 8.28,6.309 1.82,3 2.71,6.89 2.71,11.672 v 121.609 c 0,4.289 -0.97,8.18 -2.89,11.699 -1.94,3.52 -4.65,6.488 -8.1,8.879 -2.54,1.609 -6.2,2.981 -11.01,4.109 -4.78,1.133 -9.2,1.813 -13.19,2.102 v 13.191 l 69.57,4.387 2.81,-2.777 V 124.77 c 0,-4.649 0.9,-8.52 2.68,-11.59 1.79,-3.078 4.6,-5.34 8.44,-6.809 2.92,-1.18 5.76,-2.16 8.54,-2.891 2.79,-0.742 5.89,-1.242 9.33,-1.5 V 88.7891"
         style="fill:#088e86;fill-opacity:1;fill-rule:nonzero;stroke:none"
         id="path40" />
      <path
         d="m 3190.59,210.352 c 0,7.437 -0.65,15.429 -1.92,23.918 -1.26,8.511 -3.28,15.609 -6.09,21.339 -3.05,6.102 -7.26,11.09 -12.59,14.95 -5.34,3.839 -12.2,5.793 -20.61,5.793 -13.98,0 -25.63,-5.84 -34.88,-17.461 -9.28,-11.61 -14.3,-27.801 -15.09,-48.539 z m 44.19,-75.172 c -8.28,-15.75 -19.35,-28.258 -33.2,-37.5902 -13.88,-9.3281 -29.81,-14.0117 -47.78,-14.0117 -15.88,0 -29.78,2.8125 -41.69,8.4102 -11.93,5.6015 -21.76,13.2027 -29.49,22.7927 -7.75,9.59 -13.51,20.789 -17.3,33.59 -3.81,12.801 -5.7,26.34 -5.7,40.578 0,12.801 2.02,25.371 6.1,37.692 4.05,12.328 10.01,23.449 17.9,33.308 7.59,9.461 17,17.082 28.28,22.891 11.27,5.808 23.89,8.699 37.9,8.699 14.38,0 26.7,-2.258 36.98,-6.809 10.25,-4.519 18.58,-10.718 25,-18.582 6.12,-7.468 10.69,-16.269 13.69,-26.386 3,-10.153 4.5,-21.133 4.5,-33.012 v -13.199 h -130.56 c 0,-12.949 1.21,-24.699 3.68,-35.27 2.47,-10.543 6.36,-19.84 11.7,-27.859 5.2,-7.731 12.01,-13.852 20.4,-18.32 8.41,-4.473 18.39,-6.731 29.99,-6.731 11.88,0 22.1,2.789 30.7,8.359 8.59,5.551 16.9,15.559 24.89,30.04 l 14.01,-8.59"
         style="fill:#088e86;fill-opacity:1;fill-rule:nonzero;stroke:none"
         id="path42" />
      <path
         d="m 3401.12,126.98 v 115.36 c -1.07,3.461 -2.81,7.199 -5.2,11.191 -2.39,4.02 -5.39,7.68 -8.96,11.008 -3.87,3.34 -8.39,6.102 -13.59,8.313 -5.18,2.179 -11.22,3.289 -18.14,3.289 -7.99,0 -15.35,-2.082 -22.08,-6.211 -6.7,-4.121 -12.66,-10.059 -17.84,-17.789 -4.92,-7.469 -8.81,-16.95 -11.67,-28.493 -2.87,-11.539 -4.29,-24.289 -4.29,-38.296 0,-11.192 1.06,-21.34 3.18,-30.493 2.13,-9.121 5.73,-17.629 10.78,-25.488 4.65,-7.473 10.62,-13.461 17.87,-17.98 7.23,-4.551 15.85,-6.813 25.84,-6.813 10.64,0 19.45,2.344 26.44,6.992 6.99,4.68 12.88,9.809 17.66,15.41 z m 72.39,-34.5894 -69,-4.3906 -2.99,2.7813 V 109.18 l -1.61,0.398 c -6.91,-7.726 -15.48,-14.0663 -25.65,-19.0077 -10.17,-4.9101 -20.66,-7.3789 -31.43,-7.3789 -11.2,0 -22,2.4883 -32.46,7.4883 -10.46,4.9922 -19.53,12.0393 -27.26,21.1013 -7.86,9.199 -14.06,20.27 -18.66,33.199 -4.6,12.93 -6.89,27.18 -6.89,42.79 0,14.25 2.45,27.781 7.39,40.582 4.91,12.796 11.69,24 20.37,33.589 8.12,8.938 18.06,16.059 29.83,21.399 11.78,5.332 23.81,7.992 36.06,7.992 9.17,0 18.19,-1.16 27.05,-3.5 8.85,-2.344 16.48,-5.281 22.86,-8.883 v 68.699 c 0,5.602 -0.94,10.731 -2.81,15.332 -1.86,4.602 -4.47,8.122 -7.78,10.508 -3.73,2.551 -8.78,4.391 -15.11,5.524 -6.34,1.129 -13.17,1.968 -20.48,2.5 v 12.398 l 80.77,4.391 3,-2.992 V 129.551 c 0,-4.653 0.89,-8.621 2.71,-11.879 1.78,-3.262 4.41,-6.043 7.88,-8.301 2.52,-1.582 6.2,-2.582 11.01,-3 4.79,-0.391 9.2,-0.66 13.2,-0.793 V 92.3906"
         style="fill:#088e86;fill-opacity:1;fill-rule:nonzero;stroke:none"
         id="path44" />
      <path
         d="m 3643.64,188.949 c 0,10.02 -1,20.582 -2.99,31.699 -2,11.122 -5.02,20.551 -9.02,28.282 -4.28,8.281 -9.88,14.91 -16.82,19.902 -6.94,5.02 -15.43,7.52 -25.44,7.52 -10.28,0 -19.06,-2.551 -26.34,-7.602 -7.28,-5.07 -13.19,-12.012 -17.74,-20.82 -4.26,-8.121 -7.28,-17.371 -9.02,-27.782 -1.73,-10.41 -2.6,-20.468 -2.6,-30.199 0,-12.801 1.05,-24.629 3.1,-35.48 2.08,-10.86 5.39,-20.547 9.94,-29.098 4.52,-8.512 10.25,-15.211 17.11,-20.082 6.89,-4.891 15.4,-7.3007 25.55,-7.3007 16.69,0 29.91,8.0627 39.66,24.1837 9.75,16.129 14.61,38.398 14.61,66.777 z m 41.4,0.403 c 0,-13.852 -2.21,-27.5 -6.6,-40.872 -4.41,-13.41 -10.67,-24.761 -18.82,-34.089 -9.22,-10.672 -19.89,-18.6097 -32.04,-23.8207 -12.14,-5.1719 -25.73,-7.7812 -40.81,-7.7812 -12.54,0 -24.5,2.3711 -35.83,7.1015 -11.35,4.7305 -21.42,11.6214 -30.23,20.6874 -8.67,8.934 -15.58,19.844 -20.71,32.692 -5.15,12.859 -7.7,27.281 -7.7,43.289 0,30.812 8.96,55.992 26.92,75.589 17.95,19.582 41.45,29.391 70.54,29.391 27.63,0 50.41,-9.309 68.37,-27.891 17.92,-18.609 26.91,-43.367 26.91,-74.296"
         style="fill:#088e86;fill-opacity:1;fill-rule:nonzero;stroke:none"
         id="path46" />
      <path
         d="m 2046.83,2869.41 c -13.03,13.41 -32.31,23.29 -68.71,26.87 -4.2,5.6 -9.34,11.03 -15.36,16.22 -24.28,20.76 -58.68,34.42 -121.96,34.42 -63.16,0 -97.44,-13.97 -121.62,-34.73 -6.13,-5.09 -11.18,-10.49 -15.47,-16.08 -36.86,-3.48 -56.35,-13.42 -69.52,-26.92 -13.03,-13.4 -17.5,-27.12 -16.14,-41.87 0,0 43.59,7.47 76.53,12.66 44.65,5.79 94.5,10.41 146.22,10.41 52.87,0 103.63,-4.78 149.01,-10.73 32.31,-5.27 72.57,-12.59 72.57,-12.59 l 0.4,1.46 c 1.35,14.74 -2.87,27.49 -15.95,40.88"
         style="fill:#088e86;fill-opacity:1;fill-rule:nonzero;stroke:none"
         id="path48" />
      <path
         d="m 976.871,2365.66 c -1.113,47.57 4.723,163.29 83.169,209.53 40.13,23.69 100.08,36.12 148.12,0.22 9.47,-7.07 19.83,-17 28.99,-28.69 0.99,0.12 2.04,0.24 3.05,0.33 40.08,4.04 68.41,-14.43 95.91,-32.36 13.31,-8.69 25.86,-16.9 39.8,-22.7 31.31,-13.1 58.27,-15.33 82.36,-6.88 43.16,15.12 69.78,57.84 67.85,108.89 l 29.42,1.09 c 2.41,-64.05 -31.89,-118.04 -87.48,-137.53 -31.31,-10.98 -65.18,-8.55 -103.56,7.46 -16.44,6.89 -30.76,16.23 -44.58,25.25 -21.94,14.3 -41.34,26.92 -65.4,28.07 9.8,-21.63 12.68,-45.61 0.56,-67.66 -11.91,-21.65 -38.75,-34.64 -63.86,-30.9 -21.54,3.24 -36.96,17.98 -41.38,39.53 -3.33,16.54 0.41,32.74 10.92,46.85 10.83,14.57 27.55,25.32 44.89,32.23 -5,5.28 -10.24,9.93 -15.24,13.73 -36.43,27.18 -83.45,16.77 -115.29,-2.01 -65.08,-38.4 -69.84,-141.29 -68.78,-183.77 z m 247.019,148.21 c -15.31,-4.88 -30.85,-13.55 -39.43,-25.06 -5.59,-7.47 -7.41,-15.24 -5.71,-23.72 1.95,-9.5 7.62,-15.03 16.88,-16.42 11.29,-1.66 26.89,3.85 33.59,16.01 8.05,14.68 3.95,32.68 -5.33,49.19"
         style="fill:#088e86;fill-opacity:1;fill-rule:nonzero;stroke:none"
         id="path50" />
      <path
         d="m 2709.47,2365.66 -29.47,0.68 c 1,42.48 -3.72,145.37 -68.82,183.77 -31.86,18.78 -78.92,29.19 -115.28,2.01 -4.96,-3.8 -10.2,-8.45 -15.21,-13.73 17.3,-6.91 34.06,-17.66 44.88,-32.23 10.47,-14.11 14.23,-30.31 10.92,-46.85 -4.42,-21.55 -19.89,-36.29 -41.36,-39.53 -25.11,-3.74 -51.95,9.25 -63.87,30.86 -12.12,22.09 -9.25,46.07 0.56,67.7 -24.09,-1.15 -43.46,-13.77 -65.39,-28.07 -13.83,-9.02 -28.14,-18.36 -44.62,-25.25 -38.37,-16.01 -72.27,-18.44 -103.53,-7.46 -55.59,19.49 -89.92,73.48 -87.5,137.53 l 29.46,-1.09 c -1.96,-51.05 24.68,-93.77 67.86,-108.89 24.06,-8.45 51.02,-6.22 82.3,6.88 13.97,5.8 26.53,14.01 39.84,22.7 27.48,17.93 55.91,36.44 95.87,32.36 1.04,-0.09 2.07,-0.21 3.08,-0.33 9.17,11.69 19.54,21.62 29,28.69 48.03,35.9 107.97,23.47 148.01,-0.22 78.52,-46.24 84.38,-161.96 83.27,-209.53 m -247.07,148.21 c -9.25,-16.51 -13.33,-34.55 -5.28,-49.19 6.67,-12.16 22.22,-17.67 33.54,-16.01 9.28,1.39 14.98,6.92 16.9,16.42 1.73,8.48 -0.17,16.25 -5.68,23.72 -8.58,11.48 -24.15,20.18 -39.48,25.06"
         style="fill:#088e86;fill-opacity:1;fill-rule:nonzero;stroke:none"
         id="path52" />
      <path
         d="m 2768.3,2245.63 c -2.81,3.75 -13.39,16.67 -28.44,55.62 -4.69,12.18 -9.44,21.28 -13.69,28.04 -0.47,-0.28 -1.03,-0.5 -1.58,-0.5 h -60.63 c -0.59,0 -1.1,0.18 -1.53,0.5 -4.25,-6.76 -8.95,-15.89 -13.7,-28.04 -15.15,-38.95 -25.64,-51.87 -28.45,-55.62 -2.77,-3.85 -4.91,-6.65 -2.12,-11.86 2.86,-5.21 20.29,-30.47 76.13,-31.31 55.84,0.84 73.27,26.1 76.05,31.31 2.83,5.21 0.73,8.01 -2.04,11.86"
         style="fill:#088e86;fill-opacity:1;fill-rule:nonzero;stroke:none"
         id="path54" />
      <path
         d="m 2693.89,2202.49 h 0.74 -0.74"
         style="fill:#088e86;fill-opacity:1;fill-rule:nonzero;stroke:none"
         id="path56" />
      <path
         d="m 2663.96,2336.34 h 60.67 c 1.16,3.75 1.07,8.93 1.07,13.46 0,8.45 -5.1,17.1 -13.58,17.1 h -35.71 c -8.49,0 -13.55,-8.65 -13.55,-17.1 0,-4.53 -0.15,-9.71 1.05,-13.46 h 0.05"
         style="fill:#088e86;fill-opacity:1;fill-rule:nonzero;stroke:none"
         id="path58" />
      <path
         d="m 2714.89,1907.78 c -2.79,3.79 -13.34,16.71 -28.38,55.61 -4.75,12.19 -9.49,21.32 -13.75,28.08 -0.43,-0.31 -0.99,-0.5 -1.55,-0.5 h -60.65 c -0.55,0 -1.08,0.19 -1.54,0.5 -4.26,-6.79 -8.92,-15.92 -13.67,-28.08 -15.11,-38.9 -25.6,-51.82 -28.43,-55.61 -2.81,-3.84 -4.91,-6.61 -2.11,-11.83 2.87,-5.21 20.24,-30.51 76.08,-31.31 55.88,0.8 73.33,26.1 76.1,31.31 2.85,5.22 0.71,7.99 -2.1,11.83"
         style="fill:#088e86;fill-opacity:1;fill-rule:nonzero;stroke:none"
         id="path60" />
      <path
         d="m 2641.27,1864.61 c -0.1,0.03 -0.25,0.03 -0.25,0.03 -0.29,0 -0.37,0 -0.54,-0.03 h 0.79"
         style="fill:#088e86;fill-opacity:1;fill-rule:nonzero;stroke:none"
         id="path62" />
      <path
         d="m 2610.6,1998.5 h 60.71 c 1.18,3.77 1.02,8.91 1.02,13.48 0,8.45 -5.03,17.09 -13.54,17.09 h -35.73 c -8.55,0 -13.58,-8.64 -13.58,-17.09 0,-4.57 -0.15,-9.71 1.05,-13.48 h 0.07"
         style="fill:#088e86;fill-opacity:1;fill-rule:nonzero;stroke:none"
         id="path64" />
      <path
         d="m 2943.68,1954.41 c -3.92,2.63 -18.24,11.27 -45.69,42.83 -8.64,9.89 -16.16,16.87 -22.52,21.84 -0.28,-0.44 -0.78,-0.85 -1.23,-1.03 l -57.06,-20.32 c -0.57,-0.22 -1.13,-0.22 -1.67,-0.06 -1.68,-7.81 -2.96,-17.96 -3.28,-31 -0.96,-41.72 -6.42,-57.35 -7.81,-61.86 -1.35,-4.57 -2.32,-7.87 2.03,-11.88 4.52,-3.95 29.47,-21.9 82.32,-3.89 52.31,19.47 60.06,49.12 60.93,54.97 0.86,5.84 -2.07,7.78 -6.02,10.4"
         style="fill:#088e86;fill-opacity:1;fill-rule:nonzero;stroke:none"
         id="path66" />
      <path
         d="m 2889.16,1889.1 c -0.18,-0.02 -0.27,-0.06 -0.42,-0.06 -0.07,-0.06 -0.19,-0.1 -0.31,-0.14 l 0.73,0.2"
         style="fill:#088e86;fill-opacity:1;fill-rule:nonzero;stroke:none"
         id="path68" />
      <path
         d="m 2814.6,2004.82 57.04,20.34 c -0.12,3.98 -2.01,8.79 -3.57,13.04 -2.84,7.93 -10.59,14.4 -18.6,11.57 l -33.63,-12 c -8.02,-2.88 -9.78,-12.75 -6.88,-20.64 1.52,-4.32 3.18,-9.16 5.59,-12.37 0,0 0,0.03 0.05,0.06"
         style="fill:#088e86;fill-opacity:1;fill-rule:nonzero;stroke:none"
         id="path70" />
      <path
         d="m 3151.85,1571.91 c -3.95,2.6 -18.3,11.23 -45.72,42.82 -8.57,9.83 -16.13,16.87 -22.48,21.78 -0.32,-0.44 -0.75,-0.77 -1.35,-0.99 l -56.99,-20.33 c -0.56,-0.21 -1.11,-0.21 -1.63,-0.06 -1.67,-7.77 -3.03,-17.95 -3.31,-31 -0.96,-41.67 -6.41,-57.35 -7.83,-61.85 -1.3,-4.54 -2.3,-7.87 2.1,-11.86 4.5,-3.91 29.45,-21.9 82.27,-3.91 52.31,19.5 60.1,49.15 60.96,54.97 0.79,5.86 -2.11,7.78 -6.02,10.43"
         style="fill:#088e86;fill-opacity:1;fill-rule:nonzero;stroke:none"
         id="path72" />
      <path
         d="m 3097.3,1506.64 c -0.15,-0.04 -0.24,-0.09 -0.39,-0.13 -0.13,-0.03 -0.22,-0.13 -0.28,-0.13 l 0.67,0.26"
         style="fill:#088e86;fill-opacity:1;fill-rule:nonzero;stroke:none"
         id="path74" />
      <path
         d="m 3022.74,1622.29 57.04,20.33 v 0 c -0.15,3.96 -2,8.76 -3.57,13.05 -2.87,7.96 -10.62,14.43 -18.59,11.54 l -33.61,-11.98 c -8.02,-2.83 -9.84,-12.7 -6.94,-20.67 1.55,-4.25 3.2,-9.15 5.61,-12.27 h 0.06"
         style="fill:#088e86;fill-opacity:1;fill-rule:nonzero;stroke:none"
         id="path76" />
      <path
         d="m 2887.66,1517.68 c -2.99,3.63 -14.1,16.11 -30.82,54.33 -5.34,11.95 -10.4,20.88 -14.94,27.48 -0.46,-0.34 -0.99,-0.59 -1.59,-0.59 l -60.57,-2.68 c -0.55,0 -1.13,0.19 -1.57,0.46 -3.92,-6.94 -8.26,-16.26 -12.4,-28.63 -13.41,-39.55 -23.32,-52.87 -25.98,-56.75 -2.63,-3.96 -4.6,-6.86 -1.56,-11.94 3.09,-5.1 21.53,-29.59 77.36,-27.99 55.74,3.24 72.1,29.28 74.66,34.58 2.53,5.38 0.36,8.02 -2.59,11.73"
         style="fill:#088e86;fill-opacity:1;fill-rule:nonzero;stroke:none"
         id="path78" />
      <path
         d="m 2815.96,1471.43 c -0.12,-0.06 -0.25,-0.06 -0.37,-0.06 l -0.4,-0.03 0.77,0.09"
         style="fill:#088e86;fill-opacity:1;fill-rule:nonzero;stroke:none"
         id="path80" />
      <path
         d="m 2779.44,1603.78 60.53,2.62 h 0.06 c 1.04,3.82 0.7,8.98 0.49,13.51 -0.37,8.42 -5.78,16.88 -14.31,16.51 l -35.64,-1.55 c -8.58,-0.37 -13.26,-9.25 -12.86,-17.68 0.22,-4.53 0.3,-9.71 1.66,-13.41 h 0.07"
         style="fill:#088e86;fill-opacity:1;fill-rule:nonzero;stroke:none"
         id="path82" />
      <path
         d="m 2676.62,1497.39 c -2.9,3.69 -14.06,16.1 -30.76,54.34 -5.28,11.94 -10.43,20.83 -14.99,27.43 -0.4,-0.34 -0.95,-0.56 -1.53,-0.59 l -60.58,-2.59 c -0.58,-0.02 -1.11,0.13 -1.53,0.43 -4.01,-7 -8.31,-16.32 -12.44,-28.66 -13.42,-39.54 -23.29,-52.87 -25.97,-56.79 -2.63,-3.91 -4.63,-6.79 -1.62,-11.9 3.07,-5.11 21.59,-29.59 77.44,-27.95 55.74,3.2 72.07,29.2 74.6,34.52 2.59,5.36 0.38,8.01 -2.62,11.76"
         style="fill:#088e86;fill-opacity:1;fill-rule:nonzero;stroke:none"
         id="path84" />
      <path
         d="m 2604.98,1451.13 c -0.09,0 -0.25,0 -0.34,-0.02 h -0.39 l 0.73,0.02"
         style="fill:#088e86;fill-opacity:1;fill-rule:nonzero;stroke:none"
         id="path86" />
      <path
         d="m 2568.41,1583.48 60.56,2.66 h 0.07 c 1.03,3.79 0.65,8.94 0.44,13.48 -0.32,8.41 -5.77,16.88 -14.29,16.5 l -35.65,-1.54 c -8.52,-0.38 -13.19,-9.26 -12.85,-17.71 0.19,-4.54 0.32,-9.72 1.72,-13.39"
         style="fill:#088e86;fill-opacity:1;fill-rule:nonzero;stroke:none"
         id="path88" />
      <path
         d="m 2615.9,1104.45 c -2.77,3.8 -13.29,16.73 -28.13,55.72 -4.72,12.18 -9.44,21.32 -13.64,28.1 -0.4,-0.28 -0.98,-0.49 -1.57,-0.49 l -60.65,0.24 c -0.55,0 -1.12,0.19 -1.52,0.53 -4.28,-6.79 -8.99,-15.83 -13.81,-28.01 -15.24,-38.88 -25.79,-51.77 -28.62,-55.51 -2.85,-3.86 -4.97,-6.63 -2.16,-11.85 2.77,-5.23 20.11,-30.57 75.95,-31.62 55.83,0.62 73.39,25.84 76.19,31.02 2.84,5.2 0.77,8.01 -2.04,11.87"
         style="fill:#088e86;fill-opacity:1;fill-rule:nonzero;stroke:none"
         id="path90" />
      <path
         d="m 2541.46,1061.56 h 0.68 -0.68"
         style="fill:#088e86;fill-opacity:1;fill-rule:nonzero;stroke:none"
         id="path92" />
      <path
         d="m 2511.94,1195.55 60.68,-0.25 h 0.02 c 1.21,3.77 1.13,8.94 1.13,13.48 0.05,8.42 -5.01,17.13 -13.55,17.22 l -35.67,0.08 c -8.5,0.04 -13.59,-8.6 -13.63,-17.05 0,-4.54 -0.15,-9.68 0.99,-13.48 h 0.03"
         style="fill:#088e86;fill-opacity:1;fill-rule:nonzero;stroke:none"
         id="path94" />
      <path
         d="m 2814.29,1112.44 c -2.83,3.8 -13.32,16.73 -28.18,55.74 -4.73,12.19 -9.38,21.32 -13.64,28.14 -0.44,-0.3 -0.93,-0.52 -1.54,-0.52 l -60.65,0.22 c -0.57,0 -1.08,0.21 -1.52,0.55 -4.28,-6.79 -8.99,-15.89 -13.78,-28.05 -15.31,-38.86 -25.81,-51.77 -28.7,-55.49 -2.84,-3.86 -4.93,-6.61 -2.19,-11.86 2.85,-5.2 20.15,-30.57 75.97,-31.58 55.85,0.62 73.4,25.79 76.27,31 2.8,5.25 0.75,7.99 -2.04,11.85"
         style="fill:#088e86;fill-opacity:1;fill-rule:nonzero;stroke:none"
         id="path96" />
      <path
         d="m 2739.74,1069.59 h 0.73 -0.73"
         style="fill:#088e86;fill-opacity:1;fill-rule:nonzero;stroke:none"
         id="path98" />
      <path
         d="m 2710.33,1203.54 60.62,-0.22 h 0.06 c 1.2,3.77 1.12,8.91 1.12,13.45 0.05,8.46 -5,17.16 -13.52,17.22 l -35.72,0.11 c -8.48,0 -13.58,-8.62 -13.64,-17.09 -0.04,-4.52 -0.14,-9.65 1.03,-13.47 h 0.05"
         style="fill:#088e86;fill-opacity:1;fill-rule:nonzero;stroke:none"
         id="path100" />
      <path
         d="m 3044.62,1125.21 c -2.74,3.79 -13.26,16.72 -28.14,55.74 -4.69,12.23 -9.37,21.32 -13.63,28.15 -0.43,-0.32 -0.95,-0.54 -1.54,-0.54 l -60.66,0.22 c -0.58,0.02 -1.11,0.21 -1.51,0.59 -4.28,-6.82 -9.07,-15.93 -13.82,-28.07 -15.27,-38.87 -25.81,-51.74 -28.62,-55.5 -2.84,-3.82 -4.97,-6.6 -2.2,-11.85 2.85,-5.22 20.14,-30.53 75.99,-31.56 55.83,0.59 73.39,25.76 76.2,30.97 2.83,5.25 0.73,8 -2.07,11.85"
         style="fill:#088e86;fill-opacity:1;fill-rule:nonzero;stroke:none"
         id="path102" />
      <path
         d="m 2970.86,1082.36 h -0.37 c -0.13,0 -0.25,0 -0.38,0 h 0.75"
         style="fill:#088e86;fill-opacity:1;fill-rule:nonzero;stroke:none"
         id="path104" />
      <path
         d="m 2940.72,1216.34 60.61,-0.24 c 1.27,3.81 1.14,8.91 1.18,13.51 0,8.41 -4.96,17.09 -13.52,17.15 l -35.73,0.13 c -8.5,0.03 -13.63,-8.59 -13.63,-17.07 -0.02,-4.56 -0.21,-9.69 1.02,-13.48 h 0.07"
         style="fill:#088e86;fill-opacity:1;fill-rule:nonzero;stroke:none"
         id="path106" />
      <path
         d="m 3303.88,1139.84 c -2.78,3.79 -13.27,16.75 -28.15,55.71 -4.72,12.24 -9.37,21.37 -13.63,28.16 -0.43,-0.3 -0.95,-0.49 -1.54,-0.49 l -60.66,0.22 c -0.57,0 -1.1,0.18 -1.5,0.5 -4.29,-6.77 -9.07,-15.87 -13.82,-28.02 -15.31,-38.88 -25.79,-51.74 -28.63,-55.53 -2.83,-3.79 -4.97,-6.57 -2.18,-11.81 2.82,-5.25 20.13,-30.58 75.97,-31.57 55.85,0.55 73.4,25.76 76.2,30.97 2.84,5.22 0.75,8 -2.06,11.86"
         style="fill:#088e86;fill-opacity:1;fill-rule:nonzero;stroke:none"
         id="path108" />
      <path
         d="m 3229.37,1097.01 h 0.75 -0.75"
         style="fill:#088e86;fill-opacity:1;fill-rule:nonzero;stroke:none"
         id="path110" />
      <path
         d="m 3199.94,1230.99 60.66,-0.24 c 1.26,3.76 1.11,8.91 1.15,13.44 0,8.46 -5,17.12 -13.53,17.16 l -35.68,0.15 c -8.49,0.04 -13.64,-8.58 -13.64,-17.02 -0.03,-4.6 -0.22,-9.72 1,-13.49 0,-0.02 0.04,0 0.04,0"
         style="fill:#088e86;fill-opacity:1;fill-rule:nonzero;stroke:none"
         id="path112" />
      <path
         d="m 2655.18,2017.57 -29.29,3.02 22.28,213.56 29.31,-2.99 -22.3,-213.59"
         style="fill:#088e86;fill-opacity:1;fill-rule:nonzero;stroke:none"
         id="path114" />
      <path
         d="m 2826.76,2022.62 -113.99,202.9 25.8,14.22 113.96,-202.86 -25.77,-14.26"
         style="fill:#088e86;fill-opacity:1;fill-rule:nonzero;stroke:none"
         id="path116" />
      <path
         d="m 2612.9,1598.76 -29.36,2.09 21.04,289.34 29.4,-2.07 -21.08,-289.36"
         style="fill:#088e86;fill-opacity:1;fill-rule:nonzero;stroke:none"
         id="path118" />
      <path
         d="m 2796.65,1612.45 -157.52,254.11 25.08,15.3 157.55,-254.08 -25.11,-15.33"
         style="fill:#088e86;fill-opacity:1;fill-rule:nonzero;stroke:none"
         id="path120" />
      <path
         d="m 2823.73,1617.66 -29.02,4.9 51.51,300.27 29.06,-4.94 -51.55,-300.23"
         style="fill:#088e86;fill-opacity:1;fill-rule:nonzero;stroke:none"
         id="path122" />
      <path
         d="m 3035.15,1637.96 -154.83,275.27 25.72,14.26 154.89,-275.32 -25.78,-14.21"
         style="fill:#088e86;fill-opacity:1;fill-rule:nonzero;stroke:none"
         id="path124" />
      <path
         d="m 2555.99,1209.03 -29.28,3.34 32.4,280.57 29.31,-3.34 -32.43,-280.57"
         style="fill:#088e86;fill-opacity:1;fill-rule:nonzero;stroke:none"
         id="path126" />
      <path
         d="m 2727.19,1212.89 -110.95,252.71 27.03,11.66 110.96,-252.72 -27.04,-11.65"
         style="fill:#088e86;fill-opacity:1;fill-rule:nonzero;stroke:none"
         id="path128" />
      <path
         d="m 2754.91,1214.94 -28.5,7.51 76.99,287.7 28.51,-7.5 -77,-287.71"
         style="fill:#088e86;fill-opacity:1;fill-rule:nonzero;stroke:none"
         id="path130" />
      <path
         d="m 2957.22,1227.05 -152.45,272.24 25.75,14.2 152.49,-272.29 -25.79,-14.15"
         style="fill:#088e86;fill-opacity:1;fill-rule:nonzero;stroke:none"
         id="path132" />
      <path
         d="m 2984.18,1229.82 -28.19,8.58 98.8,319.23 28.2,-8.57 -98.81,-319.24"
         style="fill:#088e86;fill-opacity:1;fill-rule:nonzero;stroke:none"
         id="path134" />
      <path
         d="m 3215.96,1240.8 -160.42,347.98 26.76,12.16 160.43,-347.98 -26.77,-12.16"
         style="fill:#088e86;fill-opacity:1;fill-rule:nonzero;stroke:none"
         id="path136" />
      <path
         d="m 917.703,2245.63 c 2.746,3.75 13.293,16.67 28.414,55.62 4.723,12.18 9.469,21.28 13.692,28.04 0.464,-0.28 0.992,-0.5 1.609,-0.5 h 60.622 c 0.53,0 1.11,0.18 1.51,0.5 4.26,-6.76 8.95,-15.89 13.69,-28.04 15.09,-38.95 25.58,-51.87 28.45,-55.62 2.78,-3.85 4.9,-6.65 2.1,-11.86 -2.84,-5.21 -20.24,-30.47 -76.079,-31.31 -55.836,0.84 -73.293,26.1 -76.07,31.31 -2.836,5.21 -0.743,8.01 2.062,11.86"
         style="fill:#088e86;fill-opacity:1;fill-rule:nonzero;stroke:none"
         id="path138" />
      <path
         d="m 991.711,2202.49 h -0.398 0.832 z"
         style="fill:#088e86;fill-opacity:1;fill-rule:nonzero;stroke:none"
         id="path140" />
      <path
         d="m 1022.04,2336.34 h -60.716 c -1.172,3.75 -1.051,8.93 -1.051,13.46 0,8.45 5.063,17.1 13.582,17.1 h 35.715 c 8.49,0 13.58,-8.65 13.58,-17.1 0,-4.53 0.12,-9.71 -1.11,-13.46"
         style="fill:#088e86;fill-opacity:1;fill-rule:nonzero;stroke:none"
         id="path142" />
      <path
         d="m 971.074,1907.78 c 2.781,3.79 13.328,16.71 28.379,55.61 4.747,12.19 9.437,21.32 13.757,28.08 0.41,-0.31 0.93,-0.5 1.55,-0.5 h 60.62 c 0.58,0 1.1,0.19 1.54,0.5 4.25,-6.79 8.97,-15.92 13.63,-28.08 15.15,-38.9 25.67,-51.82 28.54,-55.61 2.77,-3.84 4.81,-6.61 2.07,-11.83 -2.81,-5.21 -20.24,-30.51 -76.09,-31.31 -55.859,0.8 -73.32,26.1 -76.062,31.31 -2.836,5.22 -0.77,7.99 2.066,11.83"
         style="fill:#088e86;fill-opacity:1;fill-rule:nonzero;stroke:none"
         id="path144" />
      <path
         d="m 1044.65,1864.61 c 0.16,0.03 0.3,0.03 0.3,0.03 0.22,0 0.38,0 0.47,-0.03 h -0.77"
         style="fill:#088e86;fill-opacity:1;fill-rule:nonzero;stroke:none"
         id="path146" />
      <path
         d="m 1075.38,1998.5 h -60.68 c -1.21,3.77 -1.05,8.91 -1.05,13.48 0,8.45 5.03,17.09 13.57,17.09 h 35.73 c 8.51,0 13.53,-8.64 13.53,-17.09 0,-4.57 0.13,-9.71 -1.1,-13.48"
         style="fill:#088e86;fill-opacity:1;fill-rule:nonzero;stroke:none"
         id="path148" />
      <path
         d="m 742.301,1954.41 c 3.887,2.63 18.203,11.27 45.656,42.83 8.637,9.89 16.199,16.87 22.492,21.84 0.274,-0.44 0.754,-0.85 1.293,-1.03 l 57.098,-20.32 c 0.523,-0.22 1.078,-0.22 1.574,-0.06 1.727,-7.81 3.051,-17.96 3.359,-31 0.891,-41.72 6.387,-57.35 7.774,-61.86 1.301,-4.57 2.375,-7.87 -2.098,-11.88 -4.441,-3.95 -29.461,-21.9 -82.281,-3.89 -52.273,19.47 -60.078,49.12 -60.863,54.97 -0.867,5.84 2,7.78 5.996,10.4"
         style="fill:#088e86;fill-opacity:1;fill-rule:nonzero;stroke:none"
         id="path150" />
      <path
         d="m 796.813,1889.1 c 0.167,-0.02 0.277,-0.06 0.355,-0.06 0.137,-0.06 0.246,-0.1 0.352,-0.14 l -0.707,0.2"
         style="fill:#088e86;fill-opacity:1;fill-rule:nonzero;stroke:none"
         id="path152" />
      <path
         d="m 871.402,2004.82 -57.07,20.34 h -0.035 c 0.141,3.98 2.039,8.79 3.558,13.04 2.911,7.93 10.657,14.4 18.622,11.57 l 33.656,-12 c 7.961,-2.88 9.777,-12.75 6.906,-20.64 -1.543,-4.32 -3.18,-9.16 -5.609,-12.37 0,0 -0.028,0.03 -0.028,0.06"
         style="fill:#088e86;fill-opacity:1;fill-rule:nonzero;stroke:none"
         id="path154" />
      <path
         d="m 534.141,1571.91 c 3.879,2.6 18.234,11.23 45.648,42.82 8.629,9.83 16.223,16.87 22.559,21.78 0.254,-0.44 0.734,-0.77 1.273,-0.99 l 57.051,-20.33 c 0.57,-0.21 1.109,-0.21 1.625,-0.06 1.676,-7.77 3.019,-17.95 3.293,-31 0.914,-41.67 6.457,-57.35 7.777,-61.85 1.328,-4.54 2.406,-7.87 -2.051,-11.86 -4.457,-3.91 -29.464,-21.9 -82.273,-3.91 -52.277,19.5 -60.082,49.15 -60.914,54.97 -0.832,5.86 2.055,7.78 6.012,10.43"
         style="fill:#088e86;fill-opacity:1;fill-rule:nonzero;stroke:none"
         id="path156" />
      <path
         d="m 588.688,1506.64 c 0.109,-0.04 0.246,-0.09 0.355,-0.13 0.133,-0.03 0.242,-0.13 0.352,-0.13 l -0.707,0.26"
         style="fill:#088e86;fill-opacity:1;fill-rule:nonzero;stroke:none"
         id="path158" />
      <path
         d="m 663.215,1622.29 -57.02,20.33 v 0 c 0.078,3.96 2.02,8.76 3.563,13.05 2.808,7.96 10.613,14.43 18.57,11.54 l 33.598,-11.98 c 8.035,-2.83 9.824,-12.7 6.98,-20.67 -1.582,-4.25 -3.203,-9.15 -5.609,-12.27 h -0.082"
         style="fill:#088e86;fill-opacity:1;fill-rule:nonzero;stroke:none"
         id="path160" />
      <path
         d="m 798.355,1517.68 c 2.942,3.63 14.075,16.11 30.801,54.33 5.246,11.95 10.403,20.88 14.938,27.48 0.469,-0.34 0.961,-0.59 1.574,-0.59 l 60.5,-2.68 c 0.613,0 1.141,0.19 1.598,0.46 3.953,-6.94 8.269,-16.26 12.433,-28.63 13.391,-39.55 23.324,-52.87 25.981,-56.75 2.617,-3.96 4.629,-6.86 1.597,-11.94 -3.105,-5.1 -21.593,-29.59 -77.398,-27.99 -55.801,3.24 -72.098,29.28 -74.695,34.58 -2.547,5.38 -0.325,8.02 2.671,11.73"
         style="fill:#088e86;fill-opacity:1;fill-rule:nonzero;stroke:none"
         id="path162" />
      <path
         d="m 869.98,1471.43 c 0.153,-0.06 0.243,-0.06 0.399,-0.06 l 0.371,-0.03 -0.77,0.09"
         style="fill:#088e86;fill-opacity:1;fill-rule:nonzero;stroke:none"
         id="path164" />
      <path
         d="m 906.535,1603.78 -60.59,2.62 h -0.023 c -1.024,3.82 -0.652,8.98 -0.465,13.51 0.367,8.42 5.828,16.88 14.313,16.51 l 35.656,-1.55 c 8.551,-0.37 13.207,-9.25 12.84,-17.68 -0.215,-4.53 -0.282,-9.71 -1.731,-13.41"
         style="fill:#088e86;fill-opacity:1;fill-rule:nonzero;stroke:none"
         id="path166" />
      <path
         d="m 1009.36,1497.39 c 2.93,3.69 14.03,16.1 30.75,54.34 5.28,11.94 10.4,20.83 15.03,27.43 0.37,-0.34 0.89,-0.56 1.5,-0.59 l 60.57,-2.59 c 0.55,-0.02 1.08,0.13 1.57,0.43 3.95,-7 8.23,-16.32 12.41,-28.66 13.41,-39.54 23.31,-52.87 25.97,-56.79 2.62,-3.91 4.59,-6.79 1.57,-11.9 -3.08,-5.11 -21.53,-29.59 -77.37,-27.95 -55.78,3.2 -72.1,29.2 -74.62,34.52 -2.63,5.36 -0.4,8.01 2.62,11.76"
         style="fill:#088e86;fill-opacity:1;fill-rule:nonzero;stroke:none"
         id="path168" />
      <path
         d="m 1080.99,1451.13 c 0.06,0 0.25,0 0.37,-0.02 h 0.31 l -0.68,0.02"
         style="fill:#088e86;fill-opacity:1;fill-rule:nonzero;stroke:none"
         id="path170" />
      <path
         d="m 1117.52,1583.48 -60.53,2.66 h -0.06 c -1.06,3.79 -0.71,8.94 -0.49,13.48 0.36,8.41 5.86,16.88 14.31,16.5 l 35.63,-1.54 c 8.58,-0.38 13.2,-9.26 12.86,-17.71 -0.21,-4.54 -0.3,-9.72 -1.67,-13.39 h -0.05"
         style="fill:#088e86;fill-opacity:1;fill-rule:nonzero;stroke:none"
         id="path172" />
      <path
         d="m 1070.07,1104.45 c 2.74,3.8 13.23,16.73 28.2,55.72 4.62,12.18 9.31,21.32 13.57,28.1 0.43,-0.28 0.98,-0.49 1.54,-0.49 l 60.62,0.24 c 0.62,0 1.14,0.19 1.58,0.53 4.28,-6.79 9.03,-15.83 13.78,-28.01 15.27,-38.88 25.83,-51.77 28.7,-55.51 2.77,-3.86 4.9,-6.63 2.09,-11.85 -2.81,-5.23 -20.12,-30.57 -75.95,-31.62 -55.84,0.62 -73.39,25.84 -76.17,31.02 -2.84,5.2 -0.77,8.01 2.04,11.87"
         style="fill:#088e86;fill-opacity:1;fill-rule:nonzero;stroke:none"
         id="path174" />
      <path
         d="m 1144.2,1061.56 h -0.37 0.77 z"
         style="fill:#088e86;fill-opacity:1;fill-rule:nonzero;stroke:none"
         id="path176" />
      <path
         d="m 1174.04,1195.55 -60.66,-0.25 h -0.03 c -1.23,3.77 -1.14,8.94 -1.14,13.48 -0.06,8.42 5,17.13 13.48,17.22 l 35.72,0.08 c 8.52,0.04 13.64,-8.6 13.67,-17.05 0,-4.54 0.12,-9.68 -1.04,-13.48"
         style="fill:#088e86;fill-opacity:1;fill-rule:nonzero;stroke:none"
         id="path178" />
      <path
         d="m 871.676,1112.44 c 2.812,3.8 13.265,16.73 28.164,55.74 4.695,12.19 9.344,21.32 13.609,28.14 0.457,-0.3 0.989,-0.52 1.574,-0.52 l 60.614,0.22 c 0.625,0 1.14,0.21 1.605,0.55 4.293,-6.79 8.977,-15.89 13.762,-28.05 15.266,-38.86 25.816,-51.77 28.686,-55.49 2.81,-3.86 4.87,-6.61 2.13,-11.86 -2.81,-5.2 -20.14,-30.57 -75.949,-31.58 -55.871,0.62 -73.426,25.79 -76.199,31 -2.809,5.25 -0.774,7.99 2.004,11.85"
         style="fill:#088e86;fill-opacity:1;fill-rule:nonzero;stroke:none"
         id="path180" />
      <path
         d="m 945.836,1069.59 h -0.336 0.77 z"
         style="fill:#088e86;fill-opacity:1;fill-rule:nonzero;stroke:none"
         id="path182" />
      <path
         d="m 975.605,1203.54 -60.582,-0.22 h -0.062 c -1.238,3.77 -1.082,8.91 -1.082,13.45 -0.066,8.46 4.969,17.16 13.453,17.22 l 35.727,0.11 c 8.539,0 13.593,-8.62 13.66,-17.09 0,-4.52 0.152,-9.65 -1.082,-13.47 h -0.032"
         style="fill:#088e86;fill-opacity:1;fill-rule:nonzero;stroke:none"
         id="path184" />
      <path
         d="m 641.316,1125.21 c 2.77,3.79 13.309,16.72 28.164,55.74 4.719,12.23 9.391,21.32 13.637,28.15 0.403,-0.32 0.946,-0.54 1.543,-0.54 l 60.586,0.22 c 0.613,0.02 1.129,0.21 1.586,0.59 4.289,-6.82 9.023,-15.93 13.824,-28.07 15.258,-38.87 25.793,-51.74 28.625,-55.5 2.856,-3.82 4.938,-6.6 2.133,-11.85 -2.809,-5.22 -20.113,-30.53 -75.914,-31.56 -55.91,0.59 -73.457,25.76 -76.234,30.97 -2.813,5.25 -0.754,8 2.05,11.85"
         style="fill:#088e86;fill-opacity:1;fill-rule:nonzero;stroke:none"
         id="path186" />
      <path
         d="m 715.105,1082.36 h 0.395 c 0.098,0 0.207,0 0.363,0 h -0.758"
         style="fill:#088e86;fill-opacity:1;fill-rule:nonzero;stroke:none"
         id="path188" />
      <path
         d="m 745.246,1216.34 -60.617,-0.24 h -0.063 c -1.183,3.81 -1.078,8.91 -1.078,13.51 -0.074,8.41 4.953,17.09 13.481,17.15 l 35.695,0.13 c 8.527,0.03 13.633,-8.59 13.668,-17.07 0,-4.56 0.148,-9.69 -1,-13.48 h -0.086"
         style="fill:#088e86;fill-opacity:1;fill-rule:nonzero;stroke:none"
         id="path190" />
      <path
         d="m 382.059,1139.84 c 2.804,3.79 13.312,16.75 28.211,55.71 4.668,12.24 9.343,21.37 13.605,28.16 0.383,-0.3 0.969,-0.49 1.543,-0.49 l 60.586,0.22 c 0.601,0 1.141,0.18 1.574,0.5 4.285,-6.77 9.035,-15.87 13.785,-28.02 15.289,-38.88 25.828,-51.74 28.707,-55.53 2.813,-3.79 4.891,-6.57 2.082,-11.81 -2.808,-5.25 -20.113,-30.58 -75.933,-31.57 -55.84,0.55 -73.41,25.76 -76.207,30.97 -2.817,5.22 -0.762,8 2.047,11.86"
         style="fill:#088e86;fill-opacity:1;fill-rule:nonzero;stroke:none"
         id="path192" />
      <path
         d="m 456.219,1097.01 h -0.371 0.754 z"
         style="fill:#088e86;fill-opacity:1;fill-rule:nonzero;stroke:none"
         id="path194" />
      <path
         d="m 486.035,1230.99 -60.652,-0.24 h -0.043 c -1.223,3.76 -1.113,8.91 -1.113,13.44 -0.075,8.46 5,17.12 13.531,17.16 l 35.687,0.15 c 8.481,0.04 13.598,-8.58 13.641,-17.02 0,-4.6 0.141,-9.72 -1.051,-13.49 0,-0.02 0,0 0,0"
         style="fill:#088e86;fill-opacity:1;fill-rule:nonzero;stroke:none"
         id="path196" />
      <path
         d="m 1030.8,2017.57 -22.34,213.59 29.28,2.99 22.37,-213.56 -29.31,-3.02"
         style="fill:#088e86;fill-opacity:1;fill-rule:nonzero;stroke:none"
         id="path198" />
      <path
         d="m 859.184,2022.62 -25.75,14.26 113.914,202.86 25.793,-14.22 -113.957,-202.9"
         style="fill:#088e86;fill-opacity:1;fill-rule:nonzero;stroke:none"
         id="path200" />
      <path
         d="m 1073,1598.76 -21.01,289.36 29.37,2.07 21.07,-289.34 -29.43,-2.09"
         style="fill:#088e86;fill-opacity:1;fill-rule:nonzero;stroke:none"
         id="path202" />
      <path
         d="m 889.285,1612.45 -25.137,15.33 157.552,254.08 25.14,-15.3 -157.555,-254.11"
         style="fill:#088e86;fill-opacity:1;fill-rule:nonzero;stroke:none"
         id="path204" />
      <path
         d="m 862.207,1617.66 -51.512,300.23 29.024,4.94 51.519,-300.27 -29.031,-4.9"
         style="fill:#088e86;fill-opacity:1;fill-rule:nonzero;stroke:none"
         id="path206" />
      <path
         d="m 650.77,1637.96 -25.711,14.21 154.808,275.32 25.719,-14.26 -154.816,-275.27"
         style="fill:#088e86;fill-opacity:1;fill-rule:nonzero;stroke:none"
         id="path208" />
      <path
         d="m 1130,1209.03 -32.44,280.57 29.26,3.34 32.43,-280.57 -29.25,-3.34"
         style="fill:#088e86;fill-opacity:1;fill-rule:nonzero;stroke:none"
         id="path210" />
      <path
         d="m 958.824,1212.89 -27.054,11.65 110.9,252.72 27.05,-11.66 -110.896,-252.71"
         style="fill:#088e86;fill-opacity:1;fill-rule:nonzero;stroke:none"
         id="path212" />
      <path
         d="m 930.996,1214.94 -76.933,287.71 28.472,7.5 76.965,-287.7 -28.504,-7.51"
         style="fill:#088e86;fill-opacity:1;fill-rule:nonzero;stroke:none"
         id="path214" />
      <path
         d="m 728.699,1227.05 -25.715,14.15 152.407,272.29 25.793,-14.2 -152.485,-272.24"
         style="fill:#088e86;fill-opacity:1;fill-rule:nonzero;stroke:none"
         id="path216" />
      <path
         d="m 701.789,1229.82 -98.816,319.24 28.195,8.57 98.77,-319.23 -28.149,-8.58"
         style="fill:#088e86;fill-opacity:1;fill-rule:nonzero;stroke:none"
         id="path218" />
      <path
         d="m 470.023,1240.8 -26.839,12.16 160.5,347.98 26.773,-12.16 -160.434,-347.98"
         style="fill:#088e86;fill-opacity:1;fill-rule:nonzero;stroke:none"
         id="path220" />
      <path
         d="m 1462.98,1888.36 c -2.15,-5.33 -4.15,-10.67 -6.09,-16.16 h 775.31 c -1.97,5.49 -4.01,10.83 -6.11,16.16 -19.99,50.71 -46.18,96.84 -77.28,136.85 h -608.54 c -31.18,-40.01 -57.35,-86.14 -77.29,-136.85"
         style="fill:#088e86;fill-opacity:1;fill-rule:nonzero;stroke:none"
         id="path222" />
      <path
         d="m 1418.91,1651.17 c 0,-23.14 1.18,-46 3.43,-68.41 0.59,-5.42 1.2,-10.82 1.91,-16.15 h 840.59 c 0.71,5.33 1.33,10.73 1.84,16.15 2.3,22.41 3.43,45.27 3.43,68.41 0,23.19 -1.13,46.02 -3.43,68.42 h -844.34 c -2.25,-22.4 -3.43,-45.23 -3.43,-68.42"
         style="fill:#088e86;fill-opacity:1;fill-rule:nonzero;stroke:none"
         id="path224" />
      <path
         d="m 1464.66,1409.67 c 19.75,-49.08 45.39,-93.82 75.74,-132.77 h 608.27 c 30.34,38.95 55.97,83.69 75.76,132.77 2.65,6.63 5.24,13.36 7.64,20.11 h -775.09 c 2.41,-6.75 4.97,-13.48 7.68,-20.11"
         style="fill:#088e86;fill-opacity:1;fill-rule:nonzero;stroke:none"
         id="path226" />
      <path
         d="m 2401.56,2012.97 c -42.44,0 -77.8,-20.7 -103.13,-43.86 h 0.04 c -4.94,-4.49 -11.48,-7.18 -18.65,-7.18 -15.35,0 -27.76,12.34 -27.76,27.53 0,15.17 12.41,27.51 27.76,27.51 2.91,0 5.81,-0.46 8.46,-1.29 l 0.07,-0.06 c 1.63,1.39 54.11,46.56 83.57,75.77 29.95,29.66 5.52,56.63 5.52,56.63 l -68.74,112.41 c -12.36,17.25 -23.59,31.56 -44.6,31.56 -25.66,0 -46.59,-20.11 -46.59,-44.92 0,-19.61 13.05,-36.34 31.35,-42.46 l -0.12,-0.29 c -6.82,-2.63 -18.08,-5.84 -25.89,-5.84 -19.58,0 -36.96,6.52 -46.99,22.93 0,0 -89.02,171 -149.77,171 h -184.2 l -0.31,-0.2 h -184.2 c -60.81,0 -149.77,-171.02 -149.77,-171.02 -10,-16.41 -27.43,-22.89 -47.02,-22.89 -7.8,0 -19.06,3.22 -25.88,5.84 l -0.1,0.31 c 18.26,6.14 31.37,22.79 31.37,42.41 0,24.84 -20.88,44.94 -46.66,44.94 -20.93,0 -32.24,-14.35 -44.58,-31.58 l -68.7,-112.42 c 0,0 -24.44,-26.92 5.52,-56.6 29.22,-29 81.14,-73.63 83.55,-75.74 h 0.11 c 2.63,0.84 5.49,1.31 8.43,1.31 15.37,0 27.79,-12.32 27.79,-27.53 0,-15.17 -12.42,-27.52 -27.79,-27.52 -7.26,0 -13.94,2.8 -18.85,7.39 v 0.01 c -25.33,23.12 -60.53,43.63 -102.95,43.63 -66.91,0 -122.99,-15.64 -121.21,-100.18 0,0 4.05,-78.25 2.16,-88.28 -1.78,-10.02 18.42,-48.4 38.72,-48.4 20.26,0 52.47,0 64.47,5.49 11.95,5.48 32.24,16.44 37.77,-0.93 5.51,-17.33 15.66,-54.72 -13.8,-67.55 -29.49,-12.78 -24.92,3.67 -40.6,6.37 -15.6,2.79 -66.25,4.58 -64.41,-24.64 1.82,-29.21 4.59,-31.93 1.82,-52.01 -2.77,-20.11 -6.44,-72.16 24,-83.08 30.33,-10.99 38.59,-13.73 39.58,-21.96 0.89,-8.21 -28.57,-23.69 -35.01,-26.45 -48.28,-20.5 -50.04,-69.37 -50.04,-69.37 V 1301.8 c 0,-15.27 24.06,-27.64 53.75,-27.64 15.73,0 29.79,3.42 39.61,8.91 2.61,1.48 4.89,3.08 6.88,4.81 l 0.43,0.5 c 16.74,15.67 37.94,25.07 60.89,25.07 54.91,0 99.36,-53.4 99.36,-119.23 0,-29.15 -8.69,-55.84 -23.23,-76.54 l -0.3,0.18 c 3.42,5.01 5.45,11.06 5.45,17.56 0,17.41 -14.22,31.46 -31.73,31.46 -17.49,0 -31.69,-14.05 -31.69,-31.46 v -0.83 h -0.16 c 1.83,-64.16 54.42,-115.66 119.11,-115.66 38.75,0 73.15,18.46 94.96,47.08 h 0.62 c 0.64,-59.17 44.79,-106.862 99.05,-106.862 19.54,0 37.67,6.102 53.01,16.723 h 0.16 c 5.36,-42.832 68.21,-80.391 101.51,-92.922 l 0.04,0.121 c 7.25,-2.09 23.19,-21.808 30.44,-31.09 11.54,17.239 18.79,25.079 23.64,28.622 1.32,1.179 2.49,2.039 3.39,2.418 33.22,12.082 94.59,51.07 101.5,93.058 l 0.21,-0.027 c 15.3,-10.582 33.47,-16.723 52.94,-16.723 54.35,0 98.47,47.732 99.14,106.902 l 0.62,-0.07 c 21.79,-28.56 56.12,-47.01 94.9,-47.01 64.65,0 117.26,51.45 119.13,115.62 h -0.22 v 0.83 c 0,17.44 -14.15,31.44 -31.65,31.44 -17.51,0 -31.71,-14 -31.71,-31.44 0,-6.47 1.98,-12.52 5.4,-17.55 l -0.27,-0.19 c -14.47,20.71 -23.2,47.43 -23.2,76.61 0,65.77 44.45,119.17 99.33,119.17 22.99,0 44.09,-9.38 60.96,-25.08 l 0.34,-0.46 c 1.97,-1.79 4.22,-3.37 6.89,-4.81 9.84,-5.5 23.96,-8.92 39.61,-8.92 29.7,0 53.79,12.37 53.79,27.64 v 139.89 c 0,0 -1.79,48.91 -50.03,69.43 -6.45,2.74 -35.92,18.22 -35.01,26.47 0.95,8.19 9.19,10.94 39.61,21.92 30.38,10.96 26.7,63.01 23.96,83.06 -2.78,20.11 0,22.85 1.85,52.06 1.83,29.21 -48.86,27.37 -64.47,24.66 -15.66,-2.74 -11.11,-19.17 -40.5,-6.42 -29.53,12.8 -19.41,50.22 -13.86,67.56 5.55,17.39 25.79,6.41 37.73,0.9 12,-5.47 44.24,-5.47 64.47,-5.47 20.3,0 40.57,38.35 38.66,48.43 -1.79,10.03 2.21,88.27 2.21,88.27 1.83,84.55 -54.28,100.2 -121.26,100.2 M 1840.84,1095.5 c -244.09,0 -441.98,248.8 -441.98,555.67 0,306.89 197.89,555.62 441.98,555.62 244.12,0 441.96,-248.73 441.96,-555.62 0,-306.87 -197.84,-555.67 -441.96,-555.67"
         style="fill:#088e86;fill-opacity:1;fill-rule:nonzero;stroke:none"
         id="path228" />
      <path
         d="m 1846.52,844.27 -2.65,-4.129 -2.96,3.91 c -9.11,12.148 -20.08,24.929 -26.25,30.14 l 5.74,-104.32 c 0,-2.84 2.31,-5.121 5.26,-5.121 h 3.58 l 8.82,-52.359 c 0,0 0,-4.102 4.63,-4.102 4.66,0 4.66,4.102 4.66,4.102 l 8.7,52.359 h 3.67 c 2.91,0 5.24,2.281 5.24,5.121 l 5.77,104.899 c -3.89,-3.008 -11.23,-10.668 -24.21,-30.5"
         style="fill:#088e86;fill-opacity:1;fill-rule:nonzero;stroke:none"
         id="path230" />
      <path
         d="m 1710.63,2872.3 -0.71,6.72 c 65.64,7.16 73.85,7.36 126.94,8.47 l 3.9,0.05 0.18,-6.75 -3.89,-0.06 c -52.89,-1.14 -61.03,-1.34 -126.42,-8.43"
         style="fill:#088e86;fill-opacity:1;fill-rule:nonzero;stroke:none"
         id="path232" />
      <path
         d="m 1971.06,2872.3 c -65.4,7.09 -73.52,7.29 -126.42,8.43 l -3.88,0.06 0.15,6.75 3.89,-0.05 c 53.11,-1.11 61.29,-1.31 127.03,-8.47 l -0.77,-6.72"
         style="fill:#088e86;fill-opacity:1;fill-rule:nonzero;stroke:none"
         id="path234" />
      <path
         d="m 2014.67,2597.4 c -2.19,8.39 -9.9,14.57 -19.03,14.57 -9.12,0 -16.83,-6.18 -19.06,-14.64 h -116.84 v 56.15 h 90.49 c 2.22,-8.39 9.93,-14.56 19.02,-14.56 9.18,0 16.8,6.17 19.09,14.51 8.36,2.22 14.61,9.83 14.61,18.87 0,9.04 -6.25,16.66 -14.61,18.85 -2.29,8.4 -9.91,14.56 -19.09,14.56 -9.09,0 -16.8,-6.2 -19.02,-14.58 h -90.49 v 46.05 c 8.47,2.16 14.73,9.78 14.73,18.82 0,9.04 -6.26,16.69 -14.69,18.88 -2.21,8.33 -9.87,14.56 -19.02,14.56 -9.13,0 -16.79,-6.23 -18.99,-14.56 -8.46,-2.19 -14.67,-9.84 -14.67,-18.88 0,-9.04 6.21,-16.66 14.71,-18.82 v -46.05 h -90.44 c -2.23,8.38 -9.92,14.58 -19.02,14.58 -9.19,0 -16.88,-6.16 -19.09,-14.56 -8.43,-2.19 -14.68,-9.81 -14.68,-18.85 0,-9.04 6.25,-16.65 14.68,-18.87 2.21,-8.34 9.9,-14.51 19.09,-14.51 9.1,0 16.79,6.17 19.02,14.56 h 90.44 v -56.15 h -116.83 c -2.19,8.46 -9.9,14.64 -19.03,14.64 -9.1,0 -16.82,-6.18 -19.01,-14.57 -8.45,-2.2 -14.71,-9.84 -14.71,-18.83 0,-9.09 6.26,-16.71 14.71,-18.86 2.19,-8.33 9.91,-14.53 19.01,-14.53 9.13,0 16.84,6.2 19.03,14.58 h 116.83 v -56.3 h 37.93 v 56.3 h 116.84 c 2.23,-8.38 9.94,-14.58 19.06,-14.58 9.13,0 16.84,6.2 19.03,14.53 8.43,2.15 14.69,9.77 14.69,18.86 0,8.99 -6.26,16.63 -14.69,18.83"
         style="fill:#088e86;fill-opacity:1;fill-rule:nonzero;stroke:none"
         id="path236" />
      <path
         d="m 2151.84,2765.59 c 0,38.07 -139.25,73.23 -311,73.23 -171.79,0 -311.05,-35.16 -311.05,-73.23 0,-25.98 64.75,-48.54 160.28,-60.34 5.48,6.25 13.53,10.12 22.28,10.12 10.62,0 20.28,-5.73 25.45,-14.62 h 74.29 v 29.99 c -9,5.08 -14.74,14.65 -14.74,25.26 0,11.41 6.68,21.59 16.84,26.41 4.82,10.03 15.08,16.69 26.57,16.69 11.53,0 21.8,-6.66 26.58,-16.69 10.15,-4.82 16.88,-15 16.88,-26.41 0,-10.61 -5.83,-20.18 -14.75,-25.23 v -30.02 h 74.29 c 5.21,8.89 14.8,14.62 25.49,14.62 8.75,0 16.8,-3.87 22.26,-10.12 95.54,11.8 160.33,34.36 160.33,60.34"
         style="fill:#088e86;fill-opacity:1;fill-rule:nonzero;stroke:none"
         id="path238" />
      <path
         d="m 1882.27,2606.96 h 31.11 l 12.45,36.84 h -31.06 l -12.5,-36.84"
         style="fill:#088e86;fill-opacity:1;fill-rule:nonzero;stroke:none"
         id="path240" />
      <path
         d="m 1791.54,2643.8 h -31.03 l 12.46,-36.84 h 31.06 l -12.49,36.84"
         style="fill:#088e86;fill-opacity:1;fill-rule:nonzero;stroke:none"
         id="path242" />
      <path
         d="m 2014.67,2559.71 c -2.19,-8.33 -9.9,-14.53 -19.03,-14.53 -9.12,0 -16.83,6.2 -19.06,14.58 h -116.84 v -56.3 h -37.93 v 56.3 h -116.83 c -2.19,-8.38 -9.9,-14.58 -19.03,-14.58 -9.1,0 -16.82,6.2 -19.01,14.53 -8.45,2.15 -14.71,9.77 -14.71,18.86 0,8.99 6.26,16.63 14.71,18.83 2.19,8.39 9.91,14.57 19.01,14.57 9.13,0 16.84,-6.18 19.03,-14.64 h 116.83 v 56.15 h -90.44 c -2.23,-8.39 -9.92,-14.56 -19.02,-14.56 -9.19,0 -16.88,6.17 -19.09,14.51 -8.43,2.22 -14.68,9.83 -14.68,18.87 0,9.04 6.25,16.66 14.68,18.85 2.21,8.4 9.9,14.56 19.09,14.56 9.1,0 16.79,-6.2 19.02,-14.58 h 90.44 v 46.05 c -8.5,2.16 -14.71,9.78 -14.71,18.82 0,9.04 6.21,16.69 14.67,18.88 2.2,8.33 9.86,14.56 18.99,14.56 9.15,0 16.81,-6.23 19.02,-14.56 8.43,-2.19 14.69,-9.84 14.69,-18.88 0,-9.04 -6.26,-16.66 -14.73,-18.82 v -46.05 h 90.49 c 2.22,8.38 9.93,14.58 19.02,14.58 9.18,0 16.8,-6.16 19.09,-14.56 8.36,-2.19 14.61,-9.81 14.61,-18.85 0,-9.04 -6.25,-16.65 -14.61,-18.87 -2.29,-8.34 -9.91,-14.51 -19.09,-14.51 -9.09,0 -16.8,6.17 -19.02,14.56 h -90.49 v -56.15 h 116.84 c 2.23,8.46 9.94,14.64 19.06,14.64 9.13,0 16.84,-6.18 19.03,-14.57 8.43,-2.2 14.69,-9.84 14.69,-18.83 0,-9.09 -6.26,-16.71 -14.69,-18.86"
         style="fill:#088e86;fill-opacity:1;fill-rule:nonzero;stroke:none"
         id="path244" />
      <path
         d="m 1867.22,2491.43 h -52.82 c -9.81,0 -17.74,-8.57 -17.74,-19.19 v -6.22 c 0,-10.59 7.93,-19.23 17.74,-19.23 h 52.82 c 9.84,0 17.79,8.64 17.79,19.23 v 6.22 c 0,10.62 -7.95,19.19 -17.79,19.19"
         style="fill:#088e86;fill-opacity:1;fill-rule:nonzero;stroke:none"
         id="path246" />
      <path
         d="m 1867.22,2491.43 h -52.82 c -9.81,0 -17.74,-8.57 -17.74,-19.19 v -6.22 c 0,-10.59 7.93,-19.23 17.74,-19.23 h 52.82 c 9.84,0 17.79,8.64 17.79,19.23 v 6.22 c 0,10.62 -7.95,19.19 -17.79,19.19"
         style="fill:#088e86;fill-opacity:1;fill-rule:nonzero;stroke:none"
         id="path248" />
      <path
         d="m 1884.43,2521.67 9.66,28.41 h -24.62 v -49.21 c 2.99,-0.27 5.86,-0.88 8.49,-2.09 1.65,7.15 3.76,14.71 6.47,22.89"
         style="fill:#088e86;fill-opacity:1;fill-rule:nonzero;stroke:none"
         id="path250" />
      <path
         d="m 1812.09,2503.46 v 46.62 h -19.84 l 9.63,-28.41 c 2.59,-7.62 4.53,-14.69 6.14,-21.44 1.32,0.37 2.71,0.49 4.07,0.61 v 2.62"
         style="fill:#088e86;fill-opacity:1;fill-rule:nonzero;stroke:none"
         id="path252" />
      <path
         d="m 2033.99,2056.61 c 17.01,16.85 17.01,44.15 0,60.99 -17,16.81 -44.55,16.81 -61.51,0 -17,-16.84 -17,-44.14 0,-60.99 16.96,-16.8 44.51,-16.8 61.51,0 m -58.74,58.22 c 15.43,15.32 40.51,15.32 55.93,0 15.43,-15.28 15.43,-40.17 0,-55.46 -15.42,-15.32 -40.5,-15.32 -55.93,0 -15.45,15.29 -15.45,40.18 0,55.46"
         style="fill:#088e86;fill-opacity:1;fill-rule:nonzero;stroke:none"
         id="path254" />
      <path
         d="m 1990.74,2074.71 v -21.67 c 8.08,-2.94 16.91,-2.94 24.98,-0.02 v 21.69 h -24.98"
         style="fill:#088e86;fill-opacity:1;fill-rule:nonzero;stroke:none"
         id="path256" />
      <path
         d="m 2015.72,2099.46 v 21.75 c -8.07,2.9 -16.97,2.9 -25.04,0 v -21.75 h 25.04"
         style="fill:#088e86;fill-opacity:1;fill-rule:nonzero;stroke:none"
         id="path258" />
      <path
         d="m 1968.83,2074.71 h 21.91 l -0.03,24.75 h -21.88 c -2.9,-7.99 -2.9,-16.72 0,-24.75"
         style="fill:#088e86;fill-opacity:1;fill-rule:nonzero;stroke:none"
         id="path260" />
      <path
         d="m 2015.72,2074.71 h 21.88 c 2.94,8.03 2.94,16.76 0,24.75 h -21.88 v -24.75"
         style="fill:#088e86;fill-opacity:1;fill-rule:nonzero;stroke:none"
         id="path262" />
      <path
         d="m 1810.39,2100.23 c 16.95,-16.81 44.52,-16.81 61.51,0 16.97,16.88 16.97,44.18 0,61.02 -16.99,16.85 -44.56,16.85 -61.51,0 -16.96,-16.84 -16.96,-44.14 0,-61.02 m 58.71,58.24 c 15.46,-15.3 15.46,-40.2 0,-55.43 -15.42,-15.34 -40.53,-15.34 -55.93,0 -15.42,15.23 -15.42,40.13 0,55.41 15.4,15.32 40.51,15.32 55.93,0.02"
         style="fill:#088e86;fill-opacity:1;fill-rule:nonzero;stroke:none"
         id="path264" />
      <path
         d="m 1828.69,2143.11 h -21.93 c -2.9,-7.99 -2.9,-16.74 0,-24.74 h 21.84 l 0.09,24.74"
         style="fill:#088e86;fill-opacity:1;fill-rule:nonzero;stroke:none"
         id="path266" />
      <path
         d="m 1853.65,2118.37 h 21.87 c 2.89,8 2.89,16.75 0,24.74 h -21.87 v -24.74"
         style="fill:#088e86;fill-opacity:1;fill-rule:nonzero;stroke:none"
         id="path268" />
      <path
         d="m 1828.69,2164.84 v -21.7 h 24.96 v 21.7 c -8.11,2.9 -16.91,2.9 -24.96,0"
         style="fill:#088e86;fill-opacity:1;fill-rule:nonzero;stroke:none"
         id="path270" />
      <path
         d="m 1828.6,2118.37 v -21.74 c 8.11,-2.88 16.94,-2.88 25.05,0 v 21.74 h -25.05"
         style="fill:#088e86;fill-opacity:1;fill-rule:nonzero;stroke:none"
         id="path272" />
      <path
         d="m 1705.02,2117.6 c -17.01,16.83 -44.55,16.83 -61.49,0 -17,-16.84 -17,-44.14 0,-60.99 16.94,-16.87 44.48,-16.87 61.49,0 16.97,16.85 16.97,44.15 0,60.99 m -58.72,-58.21 c -15.42,15.31 -15.42,40.16 0,55.44 15.37,15.32 40.51,15.32 55.93,0 15.42,-15.28 15.42,-40.13 0,-55.44 -15.42,-15.28 -40.56,-15.28 -55.93,0"
         style="fill:#088e86;fill-opacity:1;fill-rule:nonzero;stroke:none"
         id="path274" />
      <path
         d="m 1686.75,2074.71 h 21.91 c 2.89,8.03 2.89,16.76 0,24.75 h -21.91 v -24.75"
         style="fill:#088e86;fill-opacity:1;fill-rule:nonzero;stroke:none"
         id="path276" />
      <path
         d="m 1661.76,2099.46 h -21.91 c -2.85,-7.99 -2.85,-16.72 0.04,-24.75 h 21.84 l 0.03,24.75"
         style="fill:#088e86;fill-opacity:1;fill-rule:nonzero;stroke:none"
         id="path278" />
      <path
         d="m 1686.75,2053.04 v 21.67 h -25.02 v -21.67 c 8.05,-2.91 16.96,-2.91 25.02,0"
         style="fill:#088e86;fill-opacity:1;fill-rule:nonzero;stroke:none"
         id="path280" />
      <path
         d="m 1686.75,2099.46 v 21.75 c -8.06,2.9 -16.87,2.9 -24.99,0.02 v -21.77 h 24.99"
         style="fill:#088e86;fill-opacity:1;fill-rule:nonzero;stroke:none"
         id="path282" />
      <path
         d="m 1580.17,1824.45 c -16.93,16.87 -44.5,16.87 -61.51,0 -16.97,-16.85 -16.97,-44.12 0,-60.99 17.01,-16.81 44.58,-16.81 61.51,0.03 17,16.84 17,44.11 0,60.96 m -58.74,-58.22 c -15.43,15.27 -15.43,40.16 0,55.46 15.42,15.3 40.5,15.3 55.93,0 15.45,-15.3 15.45,-40.19 0,-55.46 -15.43,-15.3 -40.51,-15.3 -55.93,0"
         style="fill:#088e86;fill-opacity:1;fill-rule:nonzero;stroke:none"
         id="path284" />
      <path
         d="m 1561.89,1781.54 h 21.88 c 2.97,8.07 2.97,16.81 0,24.8 h -21.88 v -24.8"
         style="fill:#088e86;fill-opacity:1;fill-rule:nonzero;stroke:none"
         id="path286" />
      <path
         d="M 1536.94,1806.34 H 1515 c -2.89,-7.99 -2.89,-16.76 0,-24.74 h 21.94 v 24.74"
         style="fill:#088e86;fill-opacity:1;fill-rule:nonzero;stroke:none"
         id="path288" />
      <path
         d="m 1561.89,1759.87 v 21.67 h -24.95 v -21.67 c 8.09,-2.89 16.92,-2.89 24.95,0"
         style="fill:#088e86;fill-opacity:1;fill-rule:nonzero;stroke:none"
         id="path290" />
      <path
         d="m 1561.89,1806.34 v 21.68 c -8.03,2.93 -16.86,2.93 -24.95,0 v -21.68 h 24.95"
         style="fill:#088e86;fill-opacity:1;fill-rule:nonzero;stroke:none"
         id="path292" />
      <path
         d="m 2155.85,1824.45 c -16.93,16.87 -44.46,16.87 -61.49,0 -16.94,-16.85 -16.94,-44.12 0,-60.96 17.03,-16.84 44.56,-16.84 61.49,0 17.02,16.84 17.02,44.11 0,60.96 m -58.71,-58.22 c -15.43,15.27 -15.43,40.16 0,55.5 15.42,15.26 40.5,15.26 55.93,0 15.49,-15.34 15.49,-40.23 0,-55.5 -15.43,-15.3 -40.51,-15.3 -55.93,0"
         style="fill:#088e86;fill-opacity:1;fill-rule:nonzero;stroke:none"
         id="path294" />
      <path
         d="m 2137.61,1781.6 h 21.87 c 2.96,7.98 2.96,16.75 0,24.77 h -21.87 v -24.77"
         style="fill:#088e86;fill-opacity:1;fill-rule:nonzero;stroke:none"
         id="path296" />
      <path
         d="m 2112.62,1806.34 h -21.9 c -2.89,-7.99 -2.89,-16.76 0,-24.74 h 21.9 v 24.74"
         style="fill:#088e86;fill-opacity:1;fill-rule:nonzero;stroke:none"
         id="path298" />
      <path
         d="m 2137.61,1759.87 v 21.73 l -25.01,-0.06 v -21.67 c 8.11,-2.89 16.89,-2.89 25.01,0"
         style="fill:#088e86;fill-opacity:1;fill-rule:nonzero;stroke:none"
         id="path300" />
      <path
         d="m 2137.61,1806.37 v 21.65 c -8.12,2.93 -16.9,2.93 -25.01,0 v -21.68 l 25.01,0.03"
         style="fill:#088e86;fill-opacity:1;fill-rule:nonzero;stroke:none"
         id="path302" />
      <path
         d="m 2155.85,1525.32 c -16.93,16.82 -44.46,16.82 -61.49,0 -16.94,-16.79 -16.94,-44.11 0,-60.94 17.03,-16.89 44.56,-16.89 61.49,0 17.02,16.83 17.02,44.15 0,60.94 m -58.71,-58.17 c -15.43,15.24 -15.43,40.13 0,55.43 15.42,15.34 40.5,15.34 55.93,0 15.49,-15.3 15.49,-40.19 0,-55.43 -15.43,-15.31 -40.51,-15.34 -55.93,0"
         style="fill:#088e86;fill-opacity:1;fill-rule:nonzero;stroke:none"
         id="path304" />
      <path
         d="m 2137.61,1482.48 h 21.87 c 2.96,7.99 2.96,16.75 0,24.74 h -21.87 v -24.74"
         style="fill:#088e86;fill-opacity:1;fill-rule:nonzero;stroke:none"
         id="path306" />
      <path
         d="m 2112.62,1507.22 h -21.9 c -2.89,-7.99 -2.89,-16.75 0,-24.74 h 21.9 v 24.74"
         style="fill:#088e86;fill-opacity:1;fill-rule:nonzero;stroke:none"
         id="path308" />
      <path
         d="m 2137.61,1460.76 v 21.72 l -25.01,-0.03 v -21.69 c 8.11,-2.9 16.89,-2.9 25.01,0"
         style="fill:#088e86;fill-opacity:1;fill-rule:nonzero;stroke:none"
         id="path310" />
      <path
         d="m 2137.61,1507.22 v 21.69 c -8.12,2.92 -16.9,2.92 -25.01,0.02 v -21.71 h 25.01"
         style="fill:#088e86;fill-opacity:1;fill-rule:nonzero;stroke:none"
         id="path312" />
      <path
         d="m 1580.32,1525.32 c -17.03,16.88 -44.54,16.88 -61.48,0 -17.03,-16.79 -17.03,-44.11 0,-60.94 16.94,-16.86 44.45,-16.86 61.48,0 17,16.83 17,44.15 0,60.94 m -58.7,-58.17 c -15.49,15.3 -15.49,40.13 0,55.43 15.42,15.34 40.46,15.34 55.89,0 15.49,-15.3 15.49,-40.13 0,-55.43 -15.43,-15.31 -40.47,-15.31 -55.89,0"
         style="fill:#088e86;fill-opacity:1;fill-rule:nonzero;stroke:none"
         id="path314" />
      <path
         d="m 1562.05,1482.48 h 21.91 c 2.9,7.99 2.9,16.78 0,24.74 h -21.91 v -24.74"
         style="fill:#088e86;fill-opacity:1;fill-rule:nonzero;stroke:none"
         id="path316" />
      <path
         d="m 1537.07,1507.22 h -21.88 c -2.93,-7.99 -2.93,-16.75 0,-24.74 h 21.88 v 24.74"
         style="fill:#088e86;fill-opacity:1;fill-rule:nonzero;stroke:none"
         id="path318" />
      <path
         d="m 1562.05,1460.76 v 21.72 h -24.98 v -21.72 c 8.11,-2.87 16.91,-2.9 24.98,0"
         style="fill:#088e86;fill-opacity:1;fill-rule:nonzero;stroke:none"
         id="path320" />
      <path
         d="m 1562.05,1507.22 v 21.71 c -8.07,2.9 -16.87,2.9 -24.98,0 v -21.71 h 24.98"
         style="fill:#088e86;fill-opacity:1;fill-rule:nonzero;stroke:none"
         id="path322" />
      <path
         d="m 1705.64,1242.38 c -17.04,16.88 -44.55,16.88 -61.55,0.06 -16.96,-16.84 -16.96,-44.14 0,-60.99 17,-16.85 44.51,-16.85 61.55,0 16.93,16.85 16.93,44.15 0,60.93 m -58.72,-58.15 c -15.46,15.23 -15.46,40.14 0,55.46 15.4,15.27 40.51,15.3 55.94,0 15.39,-15.32 15.39,-40.23 -0.03,-55.46 -15.4,-15.3 -40.51,-15.3 -55.91,0"
         style="fill:#088e86;fill-opacity:1;fill-rule:nonzero;stroke:none"
         id="path324" />
      <path
         d="m 1687.37,1199.56 h 21.9 c 2.87,7.96 2.87,16.75 0,24.77 h -21.9 v -24.77"
         style="fill:#088e86;fill-opacity:1;fill-rule:nonzero;stroke:none"
         id="path326" />
      <path
         d="m 1662.34,1224.33 h -21.87 c -2.89,-7.99 -2.89,-16.81 0,-24.77 h 21.87 v 24.77"
         style="fill:#088e86;fill-opacity:1;fill-rule:nonzero;stroke:none"
         id="path328" />
      <path
         d="m 1687.37,1177.84 v 21.72 h -25.03 v -21.72 c 8.06,-2.87 16.93,-2.87 25.03,0"
         style="fill:#088e86;fill-opacity:1;fill-rule:nonzero;stroke:none"
         id="path330" />
      <path
         d="m 1687.37,1224.33 v 21.69 c -8.1,2.92 -16.97,2.92 -25.03,0 v -21.69 h 25.03"
         style="fill:#088e86;fill-opacity:1;fill-rule:nonzero;stroke:none"
         id="path332" />
      <path
         d="m 1867.1,1198.76 c -16.97,16.84 -44.56,16.84 -61.5,0 -16.96,-16.81 -16.96,-44.12 0,-60.96 16.94,-16.88 44.53,-16.88 61.5,0 17.03,16.84 17.03,44.15 0,60.96 m -58.71,-58.19 c -15.45,15.31 -15.45,40.17 0,55.45 15.43,15.29 40.51,15.29 55.93,0 15.46,-15.28 15.46,-40.14 0,-55.45 -15.42,-15.34 -40.5,-15.34 -55.93,0"
         style="fill:#088e86;fill-opacity:1;fill-rule:nonzero;stroke:none"
         id="path334" />
      <path
         d="m 1848.86,1155.88 h 21.87 c 2.93,8.01 2.93,16.78 0,24.77 h -21.87 v -24.77"
         style="fill:#088e86;fill-opacity:1;fill-rule:nonzero;stroke:none"
         id="path336" />
      <path
         d="m 1823.88,1180.65 h -21.9 c -2.91,-7.99 -2.91,-16.76 0,-24.74 h 21.9 v 24.74"
         style="fill:#088e86;fill-opacity:1;fill-rule:nonzero;stroke:none"
         id="path338" />
      <path
         d="m 1848.86,1134.22 v 21.66 h -25.02 v -21.66 c 8.13,-2.93 16.92,-2.93 25.02,0"
         style="fill:#088e86;fill-opacity:1;fill-rule:nonzero;stroke:none"
         id="path340" />
      <path
         d="m 1848.86,1180.65 v 21.69 c -8.1,2.93 -16.89,2.93 -25.02,0 v -21.69 h 25.02"
         style="fill:#088e86;fill-opacity:1;fill-rule:nonzero;stroke:none"
         id="path342" />
      <path
         d="m 2033.99,1242.38 c -17,16.88 -44.49,16.88 -61.51,0.06 -17,-16.84 -17,-44.14 0,-60.99 17.02,-16.85 44.51,-16.85 61.51,0 17.01,16.85 17.01,44.15 0,60.93 m -58.74,-58.15 c -15.45,15.23 -15.45,40.14 0,55.46 15.43,15.27 40.51,15.3 55.93,0 15.43,-15.32 15.43,-40.23 0,-55.46 -15.42,-15.3 -40.5,-15.3 -55.93,0"
         style="fill:#088e86;fill-opacity:1;fill-rule:nonzero;stroke:none"
         id="path344" />
      <path
         d="m 2015.72,1199.56 h 21.88 c 2.94,7.96 2.94,16.75 0,24.77 h -21.88 v -24.77"
         style="fill:#088e86;fill-opacity:1;fill-rule:nonzero;stroke:none"
         id="path346" />
      <path
         d="m 1990.74,1224.33 h -21.91 c -2.9,-7.99 -2.9,-16.81 0,-24.77 h 21.91 v 24.77"
         style="fill:#088e86;fill-opacity:1;fill-rule:nonzero;stroke:none"
         id="path348" />
      <path
         d="m 2015.72,1177.84 v 21.72 h -24.98 v -21.72 c 8.12,-2.87 16.91,-2.87 24.98,0"
         style="fill:#088e86;fill-opacity:1;fill-rule:nonzero;stroke:none"
         id="path350" />
      <path
         d="m 2015.72,1224.33 v 21.69 c -8.07,2.92 -16.86,2.92 -24.98,0 v -21.69 h 24.98"
         style="fill:#088e86;fill-opacity:1;fill-rule:nonzero;stroke:none"
         id="path352" />
      <path
         d="m 995.324,2484.65 c -25.23,7.34 -44,34.24 -55.566,80.02 -8.606,33.85 -1.633,71.44 17.68,95.73 13.941,17.49 33.496,26.68 56.672,26.68 h 1.02 c 27.39,-0.3 51.33,-13.95 76.66,-28.45 24.46,-13.97 49.78,-28.45 80.02,-31.7 6.26,-0.65 12.77,-0.47 19.34,0.51 6.33,-6.13 13.18,-11.87 20.42,-17.39 -60.4,-56.15 -156.28,-142.89 -216.246,-125.4 z m 218.106,265.86 c 1.79,0.37 4.29,0.67 7.16,0.67 8.51,0 20.17,-2.84 26.96,-16.59 8.32,-17.12 1.14,-33.35 -6.42,-43.93 -9.74,-13.76 -24.9,-24.84 -40.17,-30.64 -13.73,17.12 -21.44,36.68 -19.49,59.45 1.48,16.78 17.17,28.35 31.96,31.04 z m 589.55,-311.06 c -14.82,-17.48 -50.73,-22.02 -106.74,-13.45 -108.98,16.63 -205.84,67.16 -312.24,126.58 -14.69,8.19 -32.77,16.41 -51.87,25.07 -23.88,10.87 -49.72,22.62 -73.22,36.23 5.63,5.18 10.84,9.81 15.6,13.79 57.32,48.36 148.79,84.42 202.59,60.93 30.72,-13.39 47.16,-45.24 48.96,-94.6 l 29.52,1.06 c -2.81,76.63 -37.79,107.72 -66.57,120.31 -67.59,29.45 -168.66,-10.64 -233.63,-65.5 -6.54,-5.48 -13.95,-12.15 -21.99,-19.62 -3.52,2.54 -6.89,5.09 -10.06,7.71 16.23,8.37 31.19,20.78 41.89,35.86 17.1,24.06 20.24,50.17 8.8,73.54 -12.19,24.93 -37.45,37.12 -66,31.9 -30.47,-5.61 -53.49,-29.21 -55.89,-57.32 -2.13,-24.68 3.76,-46.03 14.96,-64.74 -20.92,4.12 -40.23,15.12 -60.58,26.77 -27.53,15.68 -55.9,31.92 -91.04,32.32 -32.798,0.34 -61.115,-12.65 -81.111,-37.84 -24.832,-31.07 -33.894,-78.52 -23.164,-120.9 14.348,-56.49 39.86,-90.46 75.86,-100.98 77.735,-22.61 180.775,72.72 249.515,136.61 27.09,-16.57 56.94,-30.11 83.29,-42.09 18.51,-8.42 36,-16.39 49.66,-24 108.97,-60.84 208.4,-112.6 322.23,-129.95 19.92,-3.04 37.63,-4.61 53.27,-4.61 25.74,0.06 45.82,4.28 61.18,12.68 v 29.58 3.83 c -1.03,0.36 -2.07,0.62 -3.02,1.09 -0.09,-0.07 -0.13,-0.16 -0.2,-0.26"
         style="fill:#088e86;fill-opacity:1;fill-rule:nonzero;stroke:none"
         id="path354" />
      <path
         d="m 2746.52,2564.67 c -11.54,-45.78 -30.26,-72.68 -55.51,-80.02 -60.09,-17.46 -155.85,69.25 -216.3,125.4 7.31,5.52 14.16,11.26 20.48,17.39 6.57,-0.98 13.08,-1.2 19.34,-0.51 30.23,3.25 55.56,17.73 80.03,31.7 25.32,14.5 49.3,28.15 76.65,28.45 h 1.02 c 23.15,0 42.66,-9.19 56.68,-26.68 19.3,-24.29 26.22,-61.88 17.61,-95.73 z m -301.31,125.99 c -7.56,10.58 -14.77,26.81 -6.36,43.93 6.74,13.75 18.4,16.59 26.91,16.59 2.81,0 5.33,-0.3 7.16,-0.67 14.77,-2.69 30.48,-14.26 31.89,-31.04 2.01,-22.77 -5.73,-42.33 -19.44,-59.45 -15.29,5.8 -30.41,16.88 -40.16,30.64 z m 306.77,-12.21 c -20.01,25.19 -48.12,38.18 -81.1,37.84 -35.14,-0.4 -63.55,-16.64 -91.07,-32.32 -20.32,-11.65 -39.64,-22.65 -60.59,-26.77 11.23,18.71 17.09,40.06 15,64.74 -2.4,28.11 -25.37,51.71 -55.9,57.32 -28.54,5.24 -53.81,-6.97 -66,-31.9 -11.44,-23.37 -8.29,-49.48 8.8,-73.54 10.68,-15.08 25.67,-27.49 41.98,-35.86 -3.26,-2.62 -6.69,-5.17 -10.11,-7.71 -8.17,7.47 -15.49,14.14 -22.05,19.62 -64.98,54.86 -166.01,94.99 -233.6,65.5 -28.81,-12.59 -63.77,-43.68 -66.56,-120.31 l 29.46,-1.06 c 1.84,49.36 18.28,81.21 48.91,94.6 53.84,23.49 145.3,-12.57 202.69,-60.93 4.65,-3.98 9.93,-8.61 15.6,-13.79 -23.49,-13.61 -49.35,-25.36 -73.3,-36.23 -19.06,-8.66 -37.11,-16.88 -51.79,-25.07 -106.4,-59.42 -203.27,-109.95 -312.26,-126.58 -55.93,-8.57 -91.9,-4.03 -106.74,13.45 -0.56,0.65 -0.95,1.48 -1.48,2.19 -1.97,-1.3 -4.16,-2.32 -6.41,-3.09 v -3.76 -26.9 c 15.79,-10.24 37.38,-15.36 65.86,-15.36 15.67,0 33.37,1.57 53.27,4.61 113.84,17.35 213.27,69.11 322.21,129.95 13.62,7.61 31.08,15.58 49.65,24 26.36,11.98 56.19,25.52 83.33,42.09 68.67,-63.89 171.67,-159.19 249.52,-136.61 36,10.52 61.51,44.49 75.85,100.98 10.74,42.38 1.66,89.83 -23.17,120.9"
         style="fill:#088e86;fill-opacity:1;fill-rule:nonzero;stroke:none"
         id="path356" />
      <path
         d="m 1815.94,2404.71 h 49.69 v 30.08 h -49.69 v -30.08"
         style="fill:#088e86;fill-opacity:1;fill-rule:nonzero;stroke:none"
         id="path358" />
    </g>
  </g>
</svg>
