<svg xmlns="http://www.w3.org/2000/svg" width="283" height="263" viewBox="0 0 283 263">
<g>
<path d="M 243.01,0.67 L 243.43,0.69 L 244.38,0.73 L 245.00,0.73 L 245.90,0.71 L 248.20,0.90 L 249.83,1.09 L 252.96,1.80 L 254.50,2.21 L 257.42,3.33 L 258.85,3.94 L 261.55,5.46 L 262.87,6.28 L 265.32,8.20 L 266.52,9.20 L 268.71,11.50 L 269.77,12.70 L 271.68,15.37 L 274.21,19.78 L 274.59,20.54 L 275.21,21.86 L 275.50,22.49 L 275.98,23.63 L 276.43,24.73 L 276.96,26.75 L 277.17,27.79 L 277.35,30.20 L 277.38,30.85 L 277.40,32.36 L 277.39,34.98 L 277.37,36.61 L 277.22,39.30 L 277.13,40.57 L 276.82,42.72 L 276.64,43.75 L 276.12,45.61 L 275.05,48.35 L 274.24,50.11 L 272.19,53.38 L 271.10,54.97 L 268.58,57.84 L 267.26,59.22 L 264.34,61.65 L 262.84,62.80 L 259.61,64.73 L 257.97,65.63 L 254.53,67.02 L 252.79,67.64 L 249.23,68.43 L 247.44,68.75 L 243.84,68.90 L 242.05,68.90 L 238.50,68.36 L 237.05,68.06 L 234.28,67.27 L 232.91,66.85 L 230.31,65.81 L 229.04,65.25 L 226.62,63.96 L 225.44,63.29 L 223.22,61.76 L 222.13,60.96 L 220.11,59.20 L 219.13,58.29 L 217.32,56.30 L 216.45,55.27 L 214.86,53.06 L 212.74,49.50 L 212.36,48.79 L 211.72,46.99 L 211.43,46.05 L 210.94,43.89 L 210.50,41.67 L 210.09,36.65 L 209.98,34.13 L 210.26,29.26 L 210.38,28.10 L 210.75,25.98 L 211.52,23.22 L 212.26,21.23 L 214.32,17.51 L 215.43,15.70 L 218.18,12.40 L 219.63,10.81 L 222.99,8.01 L 228.66,4.44 L 229.44,4.04 L 230.81,3.36 L 231.47,3.04 L 232.65,2.51 L 233.81,2.01 L 235.85,1.38 L 236.87,1.11 L 239.07,0.83 L 242.91,0.66 M 109.93,0.65 L 110.21,0.73 L 110.47,0.75 L 111.09,0.80 L 111.50,0.81 L 112.57,0.78 L 113.10,0.73 L 113.12,0.72 L 114.19,0.78 L 117.33,1.27 L 118.89,1.56 L 121.93,2.47 L 123.43,2.98 L 126.32,4.30 L 127.74,5.00 L 130.42,6.70 L 131.73,7.60 L 134.16,9.67 L 135.33,10.75 L 137.46,13.18 L 138.47,14.43 L 140.24,17.19 L 141.08,18.61 L 142.44,21.69 L 143.07,23.27 L 143.98,26.65 L 144.77,32.04 L 145.27,39.00 L 113.89,39.00 L 110.70,39.00 L 109.16,39.00 L 106.35,39.01 L 104.99,39.01 L 102.54,39.02 L 101.36,39.03 L 99.24,39.04 L 98.21,39.05 L 96.40,39.08 L 95.53,39.09 L 94.00,39.12 L 92.54,39.16 L 90.36,39.27 L 89.38,39.32 L 88.02,39.49 L 87.43,39.58 L 86.71,39.81 L 86.41,39.93 L 86.13,40.24 L 86.00,40.80 L 86.00,41.10 L 86.22,41.92 L 86.36,42.36 L 86.83,43.41 L 87.35,44.51 L 88.93,47.09 L 89.78,48.40 L 91.72,50.96 L 94.62,54.10 L 95.75,55.12 L 98.34,56.77 L 99.68,57.52 L 102.58,58.63 L 104.06,59.11 L 107.15,59.69 L 108.71,59.90 L 111.86,59.94 L 113.43,59.90 L 116.53,59.41 L 118.06,59.10 L 120.97,58.09 L 122.39,57.52 L 125.00,55.99 L 128.44,53.11 L 129.06,52.45 L 130.13,51.51 L 130.65,51.09 L 131.71,50.56 L 132.27,50.34 L 133.60,50.11 L 136.19,50.00 L 136.85,50.00 L 138.06,50.07 L 138.63,50.11 L 139.59,50.25 L 140.02,50.33 L 140.62,50.53 L 141.00,50.86 L 141.00,51.06 L 140.73,51.69 L 140.56,52.04 L 140.00,52.90 L 139.38,53.81 L 137.50,56.04 L 136.50,57.18 L 134.26,59.44 L 131.01,62.22 L 130.05,62.93 L 127.98,64.19 L 126.93,64.79 L 124.70,65.83 L 122.45,66.81 L 117.67,68.07 L 115.27,68.59 L 110.43,68.86 L 109.24,68.86 L 106.90,68.66 L 105.74,68.53 L 103.50,68.06 L 102.21,67.74 L 99.64,66.81 L 98.36,66.30 L 95.85,65.01 L 94.61,64.32 L 92.21,62.72 L 91.03,61.88 L 88.80,60.01 L 87.71,59.05 L 85.70,56.96 L 84.73,55.90 L 82.99,53.64 L 82.16,52.50 L 80.75,50.11 L 79.05,46.45 L 78.51,45.02 L 77.76,42.06 L 77.43,40.57 L 77.10,37.53 L 76.98,36.01 L 77.06,32.94 L 77.14,31.41 L 77.62,28.37 L 77.90,26.87 L 78.76,23.92 L 79.24,22.46 L 80.48,19.66 L 81.14,18.28 L 82.75,15.68 L 85.55,12.07 L 86.82,10.68 L 89.52,8.29 L 90.90,7.16 L 93.81,5.29 L 95.28,4.42 L 98.33,3.06 L 99.87,2.44 L 103.02,1.57 L 104.60,1.19 L 107.80,0.79 L 109.40,0.64 M 36.79,0.60 L 36.90,0.64 L 37.21,0.73 L 37.47,0.75 L 38.09,0.80 L 38.50,0.81 L 39.57,0.78 L 40.10,0.73 L 40.26,0.68 L 40.33,0.66 L 44.01,0.99 L 45.52,1.28 L 48.38,2.05 L 49.78,2.47 L 52.42,3.52 L 53.72,4.07 L 56.14,5.39 L 57.33,6.08 L 59.54,7.67 L 60.62,8.50 L 62.61,10.36 L 63.58,11.33 L 65.35,13.46 L 66.21,14.56 L 67.77,16.97 L 69.86,20.88 L 70.51,22.25 L 71.36,24.45 L 71.55,25.02 L 71.83,26.25 L 71.96,26.90 L 72.15,28.43 L 72.23,29.25 L 72.34,31.26 L 72.39,32.35 L 72.45,35.03 L 72.47,36.48 L 72.49,40.02 L 72.50,40.97 L 72.50,43.06 L 72.50,46.50 L 72.50,66.50 L 64.50,66.50 L 64.00,46.50 L 63.95,44.67 L 63.86,41.41 L 63.80,39.85 L 63.69,37.08 L 63.63,35.75 L 63.51,33.44 L 63.44,32.34 L 63.29,30.46 L 63.22,29.56 L 63.05,28.07 L 62.96,27.37 L 62.77,26.23 L 62.67,25.70 L 62.45,24.89 L 62.09,24.00 L 61.34,22.68 L 59.87,20.45 L 59.12,19.38 L 57.52,17.54 L 56.69,16.66 L 54.83,15.05 L 51.56,12.72 L 50.44,12.00 L 48.67,11.01 L 47.83,10.57 L 46.21,10.04 L 45.38,9.83 L 43.42,9.63 L 42.88,9.60 L 41.65,9.57 L 39.52,9.57 L 38.05,9.58 L 35.30,9.82 L 33.95,9.98 L 31.46,10.51 L 30.24,10.81 L 27.99,11.65 L 26.89,12.10 L 24.87,13.24 L 23.88,13.85 L 22.07,15.31 L 21.19,16.08 L 19.58,17.87 L 18.79,18.80 L 17.36,20.93 L 15.41,24.50 L 14.84,25.68 L 14.08,27.71 L 13.92,28.25 L 13.66,29.42 L 13.54,30.04 L 13.37,31.51 L 13.29,32.29 L 13.18,34.20 L 13.13,35.23 L 13.07,37.74 L 13.05,39.08 L 13.02,42.34 L 13.01,48.25 L 13.00,67.00 L 8.30,67.00 L 7.18,66.90 L 6.65,66.84 L 5.81,66.62 L 5.42,66.50 L 4.87,66.15 L 4.63,65.96 L 4.36,65.50 L 4.32,65.39 L 4.25,64.81 L 4.22,64.47 L 4.17,63.44 L 4.14,62.87 L 4.10,61.45 L 4.09,60.69 L 4.07,58.93 L 4.05,57.09 L 4.06,52.65 L 4.16,45.25 L 4.21,42.98 L 4.30,39.21 L 4.34,37.44 L 4.44,34.54 L 4.49,33.19 L 4.62,30.99 L 4.69,29.96 L 4.88,28.29 L 4.98,27.50 L 5.25,26.18 L 5.39,25.55 L 5.76,24.41 L 7.35,20.83 L 8.22,19.06 L 10.35,15.82 L 11.47,14.24 L 14.03,11.40 L 15.36,10.04 L 18.28,7.65 L 19.78,6.52 L 22.99,4.62 L 24.62,3.74 L 28.03,2.38 L 29.75,1.77 L 33.29,0.99 L 35.07,0.67 L 36.79,0.59 M 190.58,38.22 L 191.01,38.75 L 191.01,38.85 L 191.31,39.36 L 191.50,39.65 L 192.12,40.46 L 194.76,43.52 L 196.74,45.64 L 200.94,50.28 L 203.02,52.59 L 206.84,56.93 L 207.74,57.96 L 209.31,59.79 L 210.06,60.66 L 211.26,62.10 L 211.81,62.76 L 212.54,63.70 L 213.00,64.41 L 213.00,64.49 L 212.57,64.64 L 212.30,64.71 L 211.42,64.83 L 210.93,64.88 L 209.70,64.95 L 207.61,65.00 L 202.23,65.00 L 193.36,54.92 L 192.14,53.53 L 189.90,50.94 L 188.83,49.70 L 187.02,47.58 L 186.61,47.09 L 185.90,46.23 L 185.56,45.83 L 185.03,45.17 L 184.79,44.87 L 184.46,44.44 L 184.22,44.09 L 184.17,43.93 L 184.26,43.47 L 184.33,43.22 L 184.65,42.62 L 185.01,41.99 L 186.15,40.58 L 186.75,39.90 L 188.02,38.78 L 188.33,38.54 L 188.88,38.21 L 189.57,38.00 L 189.97,38.00 M 206.69,3.07 L 207.34,3.11 L 208.41,3.26 L 208.89,3.33 L 209.52,3.53 L 209.83,3.87 L 209.79,3.97 L 209.44,4.47 L 209.21,4.77 L 208.49,5.67 L 208.08,6.17 L 206.98,7.47 L 206.39,8.16 L 204.91,9.86 L 204.13,10.76 L 202.29,12.86 L 201.32,13.96 L 199.09,16.46 L 197.93,17.76 L 195.33,20.67 L 191.00,25.49 L 190.24,26.33 L 188.51,28.26 L 187.62,29.24 L 185.79,31.28 L 184.89,32.29 L 183.18,34.19 L 181.00,36.63 L 180.38,37.32 L 178.62,39.28 L 177.68,40.32 L 175.47,42.77 L 168.50,50.46 L 167.40,51.67 L 165.24,54.11 L 164.18,55.30 L 162.26,57.52 L 161.36,58.58 L 159.91,60.32 L 159.59,60.71 L 159.07,61.37 L 158.50,62.12 L 158.05,62.76 L 157.26,63.64 L 156.85,64.03 L 155.89,64.51 L 155.36,64.70 L 153.89,64.89 L 150.75,64.98 L 149.96,64.99 L 148.52,64.94 L 147.83,64.91 L 146.69,64.81 L 146.17,64.76 L 145.45,64.62 L 145.16,64.55 L 145.00,64.39 L 145.00,64.34 L 145.16,64.08 L 145.27,63.92 L 145.63,63.44 L 145.84,63.17 L 146.41,62.46 L 146.71,62.08 L 147.47,61.17 L 147.88,60.69 L 148.82,59.57 L 149.32,58.99 L 150.45,57.68 L 151.62,56.32 L 154.47,53.05 L 155.98,51.32 L 159.47,47.37 L 161.28,45.31 L 165.36,40.74 L 167.46,38.38 L 172.06,33.24 L 179.50,24.97 L 181.42,22.84 L 185.15,18.69 L 186.96,16.67 L 190.18,13.06 L 190.93,12.21 L 192.29,10.68 L 192.93,9.95 L 194.04,8.70 L 194.55,8.11 L 195.36,7.19 L 196.19,6.22 L 196.80,5.49 L 197.80,4.48 L 198.29,4.04 L 199.34,3.51 L 199.91,3.29 L 201.39,3.09 L 204.52,3.00 L 205.30,3.00 M 241.81,9.24 L 240.20,9.38 L 237.04,10.15 L 235.47,10.61 L 232.44,11.99 L 230.95,12.76 L 228.14,14.76 L 224.25,18.45 L 223.06,19.81 L 221.19,22.67 L 220.35,24.13 L 219.19,27.21 L 218.69,28.79 L 218.22,32.11 L 218.28,37.41 L 218.39,38.49 L 218.81,40.56 L 219.04,41.58 L 219.70,43.54 L 220.41,45.45 L 222.47,48.89 L 223.59,50.53 L 226.35,53.33 L 227.81,54.65 L 231.13,56.76 L 232.85,57.71 L 236.58,59.02 L 238.48,59.57 L 242.45,60.01 L 244.46,60.11 L 248.53,59.58 L 249.55,59.38 L 251.57,58.80 L 252.58,58.47 L 254.58,57.61 L 255.97,56.97 L 258.74,55.03 L 260.10,53.98 L 262.61,51.46 L 263.80,50.15 L 265.78,47.34 L 267.86,43.10 L 268.25,41.92 L 268.75,39.43 L 268.95,38.17 L 269.07,35.59 L 269.08,34.30 L 268.83,31.70 L 268.66,30.40 L 268.07,27.86 L 267.74,26.60 L 266.82,24.18 L 266.33,22.99 L 265.11,20.76 L 264.47,19.68 L 262.96,17.73 L 260.41,15.19 L 259.02,14.04 L 256.06,12.24 L 254.56,11.43 L 251.44,10.28 L 249.86,9.78 L 246.65,9.28 L 245.04,9.11 M 107.88,9.32 L 106.68,9.51 L 104.29,10.17 L 103.09,10.54 L 100.76,11.53 L 99.60,12.07 L 97.38,13.35 L 96.30,14.03 L 94.28,15.56 L 93.30,16.35 L 91.53,18.09 L 90.69,18.98 L 89.26,20.88 L 87.56,23.87 L 87.15,24.77 L 86.52,26.26 L 86.25,26.95 L 86.04,28.04 L 86.00,28.55 L 86.41,29.31 L 86.72,29.66 L 87.95,30.16 L 88.32,30.26 L 89.25,30.44 L 89.74,30.53 L 90.94,30.66 L 91.58,30.72 L 93.07,30.81 L 93.86,30.85 L 95.68,30.91 L 96.63,30.93 L 98.80,30.96 L 99.93,30.98 L 102.47,30.99 L 103.78,31.00 L 106.72,31.00 L 111.59,31.00 L 136.25,31.00 L 135.66,28.03 L 135.41,26.79 L 134.49,24.36 L 133.97,23.17 L 132.56,20.89 L 131.80,19.77 L 129.98,17.69 L 129.02,16.67 L 126.86,14.85 L 125.75,13.98 L 123.34,12.48 L 122.10,11.78 L 119.51,10.66 L 118.20,10.16 L 115.50,9.49 L 111.43,9.04 L 110.26,9.03 M 165.65,10.61 L 166.59,11.65 L 168.37,13.67 L 169.23,14.65 L 170.72,16.39 L 171.42,17.21 L 172.45,18.48 L 173.31,19.62 L 173.41,19.79 L 173.42,20.33 L 173.40,20.63 L 173.21,21.36 L 172.98,22.11 L 172.11,23.83 L 171.64,24.66 L 170.57,26.04 L 170.30,26.33 L 169.80,26.74 L 169.14,27.00 L 169.09,27.00 L 168.79,26.77 L 168.61,26.61 L 168.06,26.10 L 167.75,25.81 L 166.99,25.04 L 166.58,24.62 L 165.63,23.63 L 164.64,22.60 L 162.23,19.99 L 160.98,18.62 L 158.21,15.54 L 156.81,13.97 L 154.25,11.05 L 153.03,9.66 L 151.00,7.29 L 150.54,6.75 L 149.75,5.81 L 149.38,5.37 L 148.81,4.66 L 148.55,4.34 L 148.21,3.89 L 148.00,3.54 L 148.00,3.47 L 148.43,3.33 L 148.70,3.27 L 149.59,3.16 L 150.07,3.11 L 151.30,3.04 L 153.40,3.00 L 158.79,3.00 Z" fill="rgba(172,178,182,1)"/>
<path d="M 127.05,238.02 L 128.56,238.18 L 130.04,238.36 L 130.70,238.50 L 131.94,238.79 L 132.43,238.98 L 133.72,239.61 L 134.31,240.12 L 134.50,240.46 L 134.82,241.20 L 134.89,241.70 L 135.00,242.81 L 135.00,243.54 L 135.32,246.68 L 135.54,247.67 L 135.67,248.10 L 135.94,248.89 L 136.09,249.17 L 136.69,251.00 L 136.49,251.91 L 136.09,252.31 L 135.32,253.74 L 135.00,255.02 L 135.00,255.64 L 134.92,256.85 L 134.78,257.31 L 134.46,258.11 L 134.25,258.19 L 133.29,258.27 L 132.06,258.28 L 131.22,258.26 L 129.41,258.21 L 128.36,258.17 L 126.17,258.07 L 116.50,257.50 L 116.21,249.15 L 116.16,245.52 L 116.22,243.46 L 116.30,242.63 L 116.48,241.10 L 116.61,240.56 L 116.90,239.63 L 117.08,239.40 L 117.97,238.85 L 118.90,238.55 L 119.50,238.43 L 122.20,238.05 L 123.79,238.01 M 72.56,89.08 L 74.44,89.26 L 75.39,89.49 L 77.30,90.07 L 78.35,90.50 L 81.79,91.56 L 82.99,91.81 L 83.55,91.88 L 84.61,92.00 L 85.03,92.00 L 87.43,92.25 L 89.00,92.65 L 89.75,92.96 L 91.22,93.65 L 91.89,94.10 L 93.19,95.05 L 93.76,95.62 L 94.54,96.18 L 95.27,96.55 L 95.70,96.73 L 97.59,97.39 L 98.55,97.57 L 101.65,98.81 L 103.42,100.18 L 104.07,101.10 L 105.71,103.09 L 106.19,103.54 L 106.37,103.68 L 106.71,103.88 L 106.81,103.86 L 108.90,104.00 L 110.33,104.61 L 111.18,105.27 L 112.06,105.99 L 112.55,106.45 L 113.57,107.45 L 114.15,108.06 L 115.35,109.37 L 116.04,110.15 L 117.47,111.79 L 118.29,112.75 L 125.06,121.75 L 127.03,124.81 L 127.92,126.33 L 129.62,129.35 L 130.36,130.83 L 131.76,133.75 L 132.34,135.15 L 133.40,137.91 L 133.80,139.21 L 134.49,141.73 L 134.69,142.88 L 134.99,145.11 L 134.98,146.09 L 134.99,147.03 L 135.01,147.88 L 135.03,148.40 L 135.14,150.73 L 135.22,152.17 L 135.40,155.21 L 135.51,156.88 L 135.74,160.28 L 135.87,162.00 L 136.30,173.40 L 136.28,177.00 L 136.22,178.63 L 136.05,181.73 L 135.92,183.00 L 135.50,188.06 L 135.28,191.71 L 135.21,193.59 L 135.00,201.20 L 135.02,204.69 L 135.06,208.08 L 135.12,209.58 L 135.25,212.44 L 135.34,213.59 L 135.55,215.69 L 135.69,216.37 L 135.83,217.00 L 135.90,217.20 L 136.06,217.54 L 136.15,217.59 L 136.79,218.21 L 136.87,218.62 L 136.75,218.82 L 136.40,219.21 L 136.09,219.40 L 135.36,219.75 L 134.88,219.92 L 133.82,220.23 L 133.18,220.36 L 131.83,220.60 L 131.07,220.70 L 127.76,221.00 L 125.84,221.00 L 122.98,220.97 L 121.41,220.91 L 120.77,220.84 L 119.59,220.67 L 119.12,220.53 L 118.25,220.21 L 117.91,219.97 L 117.29,219.43 L 117.05,219.07 L 116.61,218.28 L 116.43,217.77 L 116.09,216.67 L 115.93,215.99 L 115.63,214.53 L 115.46,213.65 L 114.60,210.82 L 114.24,210.10 L 114.06,209.86 L 113.70,209.44 L 113.53,209.37 L 112.60,209.32 L 111.71,209.46 L 111.15,209.61 L 109.96,209.94 L 109.29,210.17 L 107.90,210.67 L 107.16,210.97 L 104.09,212.29 L 102.59,213.06 L 99.66,214.65 L 98.48,215.45 L 95.02,217.44 L 93.88,217.97 L 93.37,218.17 L 92.43,218.50 L 92.07,218.57 L 89.23,219.21 L 86.96,219.75 L 86.00,220.00 L 84.54,220.33 L 83.65,220.47 L 81.78,220.74 L 80.72,220.85 L 76.25,221.23 L 73.87,221.31 L 69.10,221.41 L 66.95,221.33 L 64.87,221.24 L 63.95,221.16 L 62.20,220.98 L 61.50,220.86 L 59.12,220.47 L 57.30,220.20 L 56.35,220.06 L 54.44,219.80 L 53.53,219.68 L 51.76,219.46 L 51.00,219.37 L 46.67,218.57 L 45.47,218.22 L 45.02,218.04 L 44.21,217.68 L 44.00,217.50 L 43.17,216.89 L 42.44,216.40 L 42.02,216.15 L 40.23,215.09 L 39.37,214.66 L 37.93,213.80 L 36.86,213.06 L 36.31,212.64 L 34.16,210.87 L 33.37,210.04 L 30.89,207.89 L 30.11,207.39 L 29.78,207.24 L 29.17,207.00 L 28.95,207.00 L 27.53,206.67 L 26.59,206.19 L 26.28,205.88 L 24.81,204.76 L 23.48,203.94 L 22.83,203.63 L 21.77,202.86 L 20.99,202.09 L 20.60,201.61 L 19.05,199.49 L 18.50,198.35 L 16.57,194.85 L 15.90,193.79 L 15.59,193.35 L 14.99,192.54 L 14.75,192.27 L 13.51,190.60 L 13.00,189.58 L 13.00,189.29 L 12.56,188.19 L 11.91,187.34 L 11.50,187.00 L 10.44,185.32 L 10.00,183.78 L 10.00,183.03 L 9.46,180.62 L 8.66,179.10 L 8.16,178.64 L 6.78,176.61 L 6.00,174.64 L 5.69,173.40 L 5.11,170.74 L 4.90,169.19 L 4.52,165.97 L 4.42,164.19 L 4.26,160.53 L 4.27,158.58 L 4.33,154.61 L 4.45,152.55 L 5.16,144.17 L 5.87,140.00 L 6.52,137.25 L 7.16,135.22 L 7.56,134.16 L 9.33,129.81 L 10.35,127.76 L 11.39,125.76 L 11.91,124.87 L 12.95,123.15 L 13.44,122.44 L 14.41,121.13 L 14.85,120.68 L 15.68,119.92 L 16.02,119.80 L 17.42,118.74 L 18.00,117.74 L 18.00,117.24 L 18.44,116.04 L 19.12,114.92 L 19.61,114.25 L 20.67,112.85 L 21.30,112.10 L 22.60,110.57 L 23.29,109.81 L 24.70,108.30 L 25.39,107.61 L 26.74,106.29 L 27.36,105.76 L 28.53,104.77 L 29.00,104.46 L 29.85,103.98 L 30.10,103.97 L 30.95,103.73 L 31.76,103.35 L 32.24,103.08 L 34.35,101.79 L 35.43,100.97 L 38.47,98.87 L 39.30,98.39 L 39.61,98.23 L 40.15,98.00 L 40.27,98.00 L 40.84,97.86 L 41.38,97.63 L 41.70,97.46 L 43.12,96.67 L 43.85,96.17 L 45.51,95.32 L 47.10,94.69 L 48.07,94.37 L 52.30,93.09 L 54.50,92.62 L 61.21,91.13 L 63.24,90.66 L 64.08,90.46 L 65.62,90.08 L 66.12,89.95 L 69.57,89.23 L 71.61,89.03 M 210.94,88.80 L 212.57,89.08 L 213.22,89.31 L 214.38,89.81 L 214.57,90.12 L 215.04,90.46 L 215.57,90.66 L 215.91,90.74 L 217.48,91.00 L 218.37,91.00 L 220.28,91.15 L 221.90,91.39 L 222.83,91.56 L 226.86,92.41 L 229.01,92.96 L 233.31,94.13 L 235.17,94.74 L 236.95,95.35 L 237.70,95.64 L 239.08,96.20 L 239.57,96.46 L 242.10,97.54 L 242.89,97.79 L 243.23,97.87 L 243.85,97.99 L 244.07,97.99 L 244.92,98.25 L 245.66,98.66 L 246.08,98.95 L 247.87,100.36 L 248.72,101.25 L 250.41,102.91 L 251.87,104.27 L 252.71,105.01 L 256.27,108.12 L 257.96,109.50 L 260.68,111.86 L 262.15,113.30 L 262.71,113.96 L 263.72,115.22 L 264.05,115.78 L 264.60,116.87 L 264.70,117.34 L 265.58,119.52 L 266.45,120.62 L 266.89,120.79 L 268.32,121.66 L 269.28,122.54 L 269.74,123.12 L 270.66,124.35 L 271.11,125.08 L 271.97,126.61 L 272.37,127.47 L 273.89,131.11 L 274.46,133.16 L 275.46,137.35 L 275.69,139.50 L 276.44,143.47 L 277.21,146.34 L 277.62,147.41 L 278.04,148.82 L 278.27,149.98 L 278.37,150.73 L 278.54,152.35 L 278.61,153.37 L 278.73,155.59 L 278.78,156.97 L 278.85,159.92 L 278.87,161.73 L 278.91,165.58 L 278.91,167.88 L 278.91,170.26 L 278.90,171.55 L 278.90,174.21 L 278.89,175.65 L 278.87,178.61 L 278.86,180.20 L 278.83,183.48 L 278.82,185.24 L 278.75,192.07 L 278.69,196.43 L 278.66,198.48 L 278.60,202.48 L 278.56,204.31 L 278.49,207.87 L 278.46,209.44 L 278.38,212.45 L 278.34,213.71 L 278.27,216.08 L 278.23,216.99 L 278.15,218.62 L 278.12,219.13 L 278.04,219.93 L 278.01,219.98 L 277.12,220.36 L 275.96,220.59 L 275.18,220.68 L 273.49,220.86 L 272.52,220.93 L 270.52,221.05 L 269.48,221.09 L 267.39,221.15 L 266.39,221.16 L 264.45,221.15 L 263.60,221.12 L 262.02,221.03 L 261.44,220.95 L 260.44,220.77 L 260.24,220.65 L 259.36,219.40 L 259.00,218.15 L 259.00,217.49 L 258.66,215.01 L 258.16,213.33 L 257.84,212.62 L 257.16,211.32 L 256.81,210.95 L 256.47,210.63 L 256.31,210.56 L 255.99,210.51 L 255.85,210.59 L 255.25,210.65 L 255.00,210.35 L 255.00,210.06 L 254.76,209.34 L 254.38,209.05 L 254.08,208.99 L 253.42,208.94 L 252.99,209.00 L 252.08,209.19 L 251.54,209.36 L 250.40,209.77 L 249.76,210.06 L 248.43,210.68 L 247.70,211.07 L 244.63,212.83 L 242.90,214.00 L 239.63,216.08 L 237.63,217.22 L 236.75,217.66 L 235.07,218.42 L 234.39,218.65 L 233.13,219.00 L 232.70,219.00 L 230.20,219.25 L 228.65,219.63 L 228.18,219.86 L 226.88,220.35 L 225.87,220.53 L 223.61,220.86 L 222.21,220.98 L 219.25,221.16 L 217.59,221.20 L 214.16,221.24 L 212.35,221.21 L 204.96,220.95 L 201.49,220.62 L 198.10,220.26 L 196.58,220.03 L 193.68,219.54 L 192.50,219.25 L 188.79,218.07 L 187.54,217.59 L 186.98,217.35 L 185.91,216.86 L 185.50,216.64 L 183.09,215.49 L 182.40,215.22 L 182.12,215.14 L 181.64,215.00 L 181.50,215.00 L 180.95,214.71 L 180.48,214.24 L 180.21,213.91 L 179.05,212.30 L 178.50,211.28 L 177.40,209.51 L 176.64,208.60 L 176.22,208.25 L 175.37,207.63 L 174.88,207.41 L 173.86,207.03 L 173.26,206.91 L 169.95,205.69 L 167.64,204.37 L 166.55,203.53 L 164.43,201.77 L 163.55,200.81 L 161.95,198.86 L 161.45,197.91 L 159.64,195.52 L 158.13,194.24 L 157.45,193.98 L 155.66,192.75 L 155.00,191.62 L 155.00,190.99 L 154.56,189.37 L 153.92,188.52 L 153.51,188.36 L 152.59,187.73 L 152.37,187.22 L 152.50,187.00 L 152.57,186.47 L 152.50,185.93 L 152.41,185.60 L 151.91,184.14 L 151.50,183.35 L 150.44,180.75 L 149.98,179.05 L 149.97,178.50 L 149.52,176.52 L 148.87,175.09 L 148.47,174.56 L 147.90,173.44 L 147.56,172.43 L 147.43,171.83 L 147.00,169.28 L 147.00,168.01 L 146.67,164.42 L 146.44,163.44 L 146.30,163.07 L 146.02,162.42 L 145.86,162.26 L 145.41,161.40 L 145.29,160.56 L 145.33,159.97 L 145.46,158.67 L 145.63,157.81 L 146.03,155.93 L 146.33,154.74 L 147.30,149.19 L 147.44,147.44 L 147.46,146.69 L 147.44,145.30 L 147.36,144.81 L 147.26,142.66 L 147.47,141.13 L 147.75,140.20 L 148.42,138.21 L 148.97,136.93 L 149.55,135.60 L 149.90,134.85 L 150.64,133.27 L 151.07,132.38 L 154.79,125.28 L 155.95,123.26 L 156.44,122.47 L 157.36,121.06 L 157.68,120.67 L 159.32,118.38 L 159.70,117.71 L 159.82,117.45 L 160.00,116.97 L 160.00,116.83 L 160.53,115.80 L 161.36,114.77 L 161.95,114.12 L 163.24,112.76 L 164.00,112.01 L 165.58,110.49 L 166.42,109.72 L 168.12,108.18 L 168.95,107.47 L 170.60,106.08 L 171.34,105.50 L 172.77,104.42 L 173.34,104.06 L 174.36,103.44 L 174.67,103.37 L 176.70,102.27 L 178.04,101.07 L 178.47,100.40 L 180.09,98.71 L 181.30,98.00 L 181.77,98.00 L 182.70,97.84 L 183.50,97.59 L 183.95,97.41 L 185.87,96.55 L 186.77,96.00 L 189.76,94.59 L 190.75,94.26 L 191.19,94.16 L 192.02,94.00 L 192.34,94.00 L 193.55,93.84 L 194.59,93.59 L 195.17,93.41 L 197.63,92.55 L 198.76,92.00 L 202.27,90.59 L 203.35,90.26 L 203.79,90.16 L 204.62,90.00 L 204.89,90.00 L 206.45,89.76 L 207.26,89.40 L 207.40,89.17 L 207.86,88.86 L 208.36,88.74 L 208.68,88.71 L 210.13,88.69 M 62.40,110.84 L 61.39,111.02 L 60.84,111.21 L 59.68,111.66 L 59.00,111.99 L 55.51,113.40 L 53.00,114.19 L 52.05,114.37 L 48.96,115.44 L 47.00,116.53 L 46.39,117.10 L 44.04,118.64 L 42.04,119.52 L 41.02,119.83 L 38.99,120.35 L 38.16,120.41 L 37.38,120.44 L 37.07,120.39 L 36.50,120.26 L 36.33,120.13 L 35.96,119.96 L 36.04,120.19 L 36.25,120.45 L 36.91,121.79 L 36.96,122.71 L 36.78,123.21 L 36.28,124.24 L 35.82,124.80 L 34.75,125.99 L 34.00,126.66 L 31.88,129.02 L 31.39,129.78 L 31.24,130.11 L 31.00,130.72 L 31.00,130.94 L 30.60,132.66 L 30.02,133.99 L 29.65,134.53 L 28.39,137.08 L 27.79,138.97 L 27.65,139.85 L 27.48,141.52 L 27.57,142.09 L 27.70,142.60 L 27.82,142.76 L 28.09,143.01 L 28.27,143.01 L 28.56,143.12 L 28.53,143.27 L 28.42,143.39 L 27.73,143.93 L 27.06,144.26 L 25.86,145.13 L 25.16,145.93 L 24.86,146.47 L 24.27,147.63 L 24.00,148.38 L 23.47,150.00 L 23.22,151.00 L 22.53,154.04 L 22.31,155.63 L 22.32,156.33 L 22.41,157.71 L 22.58,158.45 L 23.01,160.02 L 23.34,161.00 L 24.62,165.16 L 25.00,166.57 L 25.16,167.20 L 25.45,168.39 L 25.54,168.85 L 26.53,172.37 L 27.51,175.06 L 28.06,176.34 L 29.16,178.80 L 29.66,179.71 L 30.14,180.55 L 30.35,180.84 L 30.75,181.34 L 30.90,181.44 L 31.68,182.62 L 32.19,183.97 L 32.36,184.73 L 33.46,186.89 L 34.13,187.70 L 34.57,188.14 L 35.52,189.05 L 36.11,189.56 L 37.37,190.60 L 38.12,191.17 L 39.72,192.37 L 40.65,193.03 L 42.61,194.40 L 43.73,195.16 L 46.08,196.74 L 47.42,197.61 L 49.39,198.67 L 51.00,199.37 L 51.88,199.69 L 55.53,200.84 L 57.12,201.10 L 61.83,201.99 L 63.20,202.29 L 63.75,202.44 L 64.73,202.71 L 65.03,202.81 L 66.21,203.16 L 66.94,203.25 L 68.48,203.37 L 69.36,203.36 L 71.17,203.28 L 72.15,203.17 L 74.15,202.90 L 75.19,202.70 L 79.45,201.75 L 81.55,201.05 L 85.66,199.51 L 87.43,198.57 L 90.13,197.23 L 91.78,196.49 L 92.48,196.22 L 93.78,195.75 L 94.24,195.64 L 95.01,195.51 L 95.15,195.59 L 96.55,195.83 L 97.88,195.74 L 98.56,195.58 L 99.72,195.15 L 100.29,194.76 L 100.48,194.50 L 100.80,193.92 L 100.88,193.54 L 101.00,192.71 L 101.00,192.18 L 101.21,190.75 L 101.57,189.77 L 101.86,189.26 L 102.50,188.23 L 102.93,187.70 L 103.86,186.62 L 104.43,186.06 L 107.22,182.80 L 108.03,181.63 L 108.35,181.09 L 108.93,180.05 L 109.09,179.62 L 110.52,176.79 L 111.69,174.97 L 112.21,174.39 L 113.42,172.46 L 113.75,171.61 L 113.89,171.10 L 114.17,170.01 L 114.30,169.35 L 114.54,167.94 L 114.65,167.09 L 114.87,165.29 L 114.98,164.22 L 115.20,161.97 L 115.30,160.65 L 115.52,157.87 L 115.64,156.26 L 115.83,152.49 L 115.80,150.60 L 115.70,149.87 L 115.44,148.53 L 115.20,147.95 L 114.66,146.84 L 114.26,146.26 L 113.10,144.28 L 112.38,142.72 L 112.01,141.73 L 111.27,139.58 L 110.85,138.19 L 110.43,136.73 L 110.19,135.91 L 109.72,134.19 L 109.46,133.22 L 108.84,131.97 L 108.09,130.88 L 107.60,130.25 L 105.34,127.54 L 104.03,126.17 L 102.72,124.82 L 102.08,124.20 L 100.83,123.03 L 100.27,122.56 L 99.21,121.69 L 98.79,121.42 L 98.04,121.00 L 97.82,121.00 L 97.10,120.72 L 96.37,120.29 L 95.92,119.97 L 93.93,118.46 L 92.87,117.50 L 89.53,115.03 L 88.49,114.45 L 88.05,114.28 L 87.23,114.00 L 86.95,114.00 L 84.67,113.57 L 82.86,112.94 L 82.08,112.54 L 79.20,111.74 L 76.90,111.57 L 75.76,111.66 L 73.53,111.94 L 72.64,112.24 L 71.81,112.56 L 71.49,112.75 L 70.91,113.16 L 70.75,113.40 L 70.00,114.00 L 69.52,113.80 L 69.25,113.40 L 68.72,112.89 L 68.18,112.52 L 67.84,112.33 L 66.33,111.57 L 65.50,111.29 L 63.88,110.88 L 62.89,110.79 M 211.50,111.64 L 206.49,111.70 L 203.66,111.79 L 202.44,111.88 L 200.14,112.09 L 199.13,112.25 L 197.19,112.61 L 196.31,112.87 L 194.59,113.44 L 193.76,113.82 L 192.11,114.64 L 191.25,115.16 L 189.51,116.28 L 188.55,116.96 L 186.56,118.41 L 185.42,119.29 L 182.55,121.55 L 180.83,122.98 L 180.06,123.65 L 177.25,126.26 L 176.20,127.44 L 174.33,129.72 L 173.72,130.76 L 172.72,132.80 L 172.52,133.76 L 171.53,136.33 L 171.07,137.05 L 170.83,137.33 L 170.34,137.82 L 170.10,137.94 L 169.54,138.47 L 169.18,139.03 L 169.00,139.40 L 168.30,141.11 L 167.98,142.23 L 167.37,144.64 L 167.11,146.00 L 166.63,148.79 L 166.45,150.22 L 166.13,153.09 L 166.04,154.45 L 165.93,157.09 L 165.96,158.21 L 166.09,160.31 L 166.26,161.05 L 166.45,161.73 L 166.57,161.98 L 166.84,162.40 L 167.00,162.50 L 167.39,163.03 L 167.62,163.63 L 167.71,164.02 L 168.00,165.79 L 168.00,166.81 L 168.15,168.29 L 168.38,169.46 L 168.55,170.10 L 169.38,172.82 L 169.93,174.18 L 171.07,176.84 L 171.66,177.89 L 172.24,178.87 L 172.51,179.24 L 173.05,179.90 L 173.28,180.08 L 173.78,180.65 L 174.25,181.34 L 174.53,181.79 L 175.78,183.87 L 176.43,185.08 L 177.56,186.95 L 178.34,188.00 L 178.72,188.41 L 179.49,189.15 L 179.86,189.38 L 180.58,189.77 L 180.92,189.82 L 181.91,190.17 L 182.66,190.60 L 183.04,190.89 L 184.58,192.22 L 185.17,193.01 L 186.23,194.15 L 187.16,194.94 L 187.71,195.33 L 190.12,196.91 L 191.47,197.60 L 194.22,198.89 L 195.50,199.32 L 196.75,199.70 L 197.31,199.82 L 198.38,200.00 L 198.82,200.00 L 201.04,200.44 L 202.85,201.08 L 203.64,201.49 L 204.56,201.89 L 205.16,202.06 L 206.45,202.37 L 207.18,202.50 L 210.32,202.90 L 211.92,202.95 L 213.50,202.98 L 214.23,202.96 L 215.64,202.88 L 216.23,202.81 L 217.33,202.62 L 217.72,202.49 L 218.38,202.19 L 218.50,202.00 L 219.11,201.61 L 219.83,201.38 L 220.31,201.29 L 222.52,201.00 L 223.81,201.00 L 226.26,200.84 L 227.74,200.58 L 228.46,200.34 L 229.89,199.80 L 230.63,199.42 L 232.15,198.56 L 233.00,198.00 L 236.51,195.89 L 237.48,195.39 L 237.84,195.24 L 238.49,195.00 L 238.64,195.00 L 239.49,194.63 L 240.38,194.04 L 240.94,193.61 L 242.13,192.66 L 242.80,192.09 L 244.16,190.90 L 244.85,190.25 L 249.36,185.26 L 251.76,181.71 L 252.68,179.78 L 254.33,175.80 L 254.90,173.61 L 255.87,169.07 L 256.13,166.54 L 256.86,159.48 L 257.10,157.24 L 257.20,156.27 L 257.40,154.46 L 257.47,153.81 L 257.55,149.74 L 257.25,146.85 L 256.95,145.37 L 256.27,142.39 L 255.80,140.91 L 254.79,138.00 L 254.18,136.61 L 252.91,133.91 L 252.20,132.69 L 250.74,130.36 L 249.96,129.39 L 248.37,127.58 L 247.55,126.92 L 245.91,125.79 L 245.08,125.53 L 243.51,124.54 L 242.67,123.55 L 242.51,123.04 L 241.98,121.99 L 241.40,121.23 L 241.02,120.83 L 239.25,119.17 L 238.08,118.32 L 235.57,116.61 L 234.14,115.82 L 231.19,114.30 L 229.66,113.68 L 226.53,112.62 L 224.37,112.14 L 223.05,111.99 L 221.68,111.86 L 220.90,111.81 L 219.27,111.73 L 218.34,111.70 L 216.37,111.66 L 215.24,111.65 L 212.87,111.64 M 182.90,115.00 L 181.53,115.59 L 180.58,116.45 L 180.23,117.00 L 179.67,118.05 L 179.60,118.41 L 179.60,119.00 L 179.84,119.00 L 180.97,118.41 L 182.00,117.55 L 182.50,117.00 L 183.30,116.04 L 183.60,115.58 L 183.63,115.42 L 183.61,115.16 L 183.49,115.10 L 183.17,115.00 M 213.00,94.00 L 211.59,94.29 L 211.00,94.72 L 211.00,95.00 L 211.22,95.52 L 211.59,95.71 L 212.45,96.00 L 213.00,96.00 L 214.41,95.71 L 215.00,95.27 L 215.00,95.00 L 214.41,94.29 L 213.55,94.00 Z" fill="rgba(188,215,63,1)"/>
<path d="M 138.50,260.50 L 127.50,260.75 L 123.13,260.78 L 120.47,260.74 L 119.35,260.69 L 117.29,260.56 L 116.58,260.48 L 115.93,260.38 L 115.70,260.33 L 115.30,260.23 L 115.22,260.17 L 114.63,259.19 L 114.36,257.95 L 114.28,256.99 L 114.21,255.96 L 114.19,255.35 L 114.15,254.06 L 114.15,253.32 L 114.15,251.75 L 114.16,250.85 L 114.19,248.98 L 114.22,247.92 L 114.50,236.50 L 138.50,236.50 M 122.20,238.05 L 119.50,238.43 L 118.90,238.55 L 117.97,238.85 L 117.08,239.40 L 116.90,239.63 L 116.61,240.56 L 116.48,241.10 L 116.30,242.63 L 116.22,243.46 L 116.16,245.52 L 116.21,249.15 L 116.50,257.50 L 126.17,258.07 L 128.36,258.17 L 129.41,258.21 L 131.22,258.26 L 132.06,258.28 L 133.29,258.27 L 134.25,258.19 L 134.46,258.11 L 134.78,257.31 L 134.92,256.85 L 135.00,255.64 L 135.00,255.02 L 135.32,253.74 L 136.09,252.31 L 136.49,251.91 L 136.69,251.00 L 136.09,249.17 L 135.94,248.89 L 135.67,248.10 L 135.54,247.67 L 135.32,246.68 L 135.00,243.54 L 135.00,242.81 L 134.89,241.70 L 134.82,241.20 L 134.50,240.46 L 134.31,240.12 L 133.72,239.61 L 132.43,238.98 L 131.94,238.79 L 130.70,238.50 L 130.04,238.36 L 128.56,238.18 L 127.05,238.02 L 123.79,238.01 M 72.85,88.49 L 77.19,88.80 L 79.38,89.11 L 83.75,89.83 L 85.94,90.35 L 90.32,91.50 L 92.50,92.23 L 99.18,94.85 L 103.41,96.90 L 105.42,98.07 L 109.35,100.51 L 111.21,101.87 L 114.84,104.69 L 116.53,106.25 L 119.85,109.45 L 121.38,111.18 L 124.37,114.75 L 125.75,116.67 L 128.40,120.60 L 129.61,122.69 L 131.93,126.97 L 132.96,129.24 L 134.80,133.60 L 135.82,136.40 L 136.23,137.86 L 137.00,140.83 L 137.30,142.49 L 137.84,145.94 L 138.05,147.96 L 138.24,150.03 L 138.31,151.15 L 138.46,153.47 L 138.52,154.73 L 138.63,157.33 L 138.67,158.75 L 138.74,161.67 L 138.77,163.27 L 138.81,166.55 L 138.82,168.34 L 138.84,172.03 L 138.84,174.04 L 138.83,178.16 L 138.82,180.40 L 138.80,185.01 L 138.78,187.50 L 138.50,223.50 L 126.25,223.78 L 114.00,224.06 L 114.00,218.50 L 113.92,216.20 L 113.79,214.94 L 113.68,214.44 L 113.42,213.54 L 113.23,213.21 L 112.83,212.65 L 112.56,212.50 L 111.99,212.27 L 111.63,212.27 L 110.87,212.36 L 110.41,212.53 L 109.44,212.93 L 108.87,213.24 L 107.67,213.94 L 106.98,214.39 L 102.24,217.16 L 98.65,218.94 L 96.76,219.74 L 92.92,221.30 L 91.02,221.94 L 87.25,223.13 L 85.50,223.55 L 83.53,223.95 L 82.36,224.12 L 79.91,224.41 L 78.55,224.52 L 72.83,224.85 L 69.84,224.85 L 63.87,224.75 L 61.21,224.54 L 58.63,224.30 L 57.50,224.14 L 55.36,223.80 L 54.50,223.58 L 45.43,220.69 L 39.74,218.20 L 37.05,216.66 L 31.77,213.40 L 29.25,211.46 L 24.32,207.38 L 21.96,205.03 L 16.72,199.27 L 13.69,195.32 L 12.35,193.21 L 9.78,188.86 L 8.59,186.43 L 6.29,181.39 L 5.18,178.51 L 3.67,173.48 L 2.92,169.69 L 2.66,167.64 L 2.23,163.44 L 2.13,161.25 L 2.02,156.83 L 2.09,154.59 L 2.29,150.11 L 2.51,147.91 L 3.02,143.55 L 3.39,141.48 L 4.21,137.43 L 4.73,135.58 L 5.85,132.01 L 6.52,130.46 L 9.52,124.33 L 11.76,120.46 L 12.99,118.63 L 15.53,115.05 L 16.90,113.37 L 19.72,110.09 L 21.22,108.57 L 24.29,105.61 L 25.92,104.25 L 29.22,101.60 L 30.95,100.41 L 34.46,98.10 L 36.29,97.07 L 39.99,95.11 L 41.90,94.26 L 45.77,92.65 L 47.75,91.98 L 51.76,90.73 L 53.81,90.25 L 57.93,89.37 L 60.03,89.08 L 64.25,88.59 L 66.39,88.49 L 70.68,88.39 M 213.01,88.43 L 218.54,88.65 L 221.35,88.99 L 230.90,90.93 L 237.11,92.95 L 240.11,94.28 L 246.01,97.17 L 248.79,98.91 L 254.25,102.56 L 256.77,104.64 L 261.66,108.95 L 263.84,111.32 L 268.03,116.19 L 269.82,118.80 L 273.19,124.12 L 274.52,126.91 L 275.79,129.72 L 276.32,131.15 L 277.34,134.04 L 277.74,135.50 L 278.83,139.53 L 279.62,142.48 L 279.92,143.62 L 280.20,145.48 L 280.36,147.42 L 280.44,148.69 L 280.58,151.42 L 280.64,153.03 L 280.75,156.42 L 280.80,158.32 L 280.88,162.23 L 280.92,164.34 L 280.98,168.65 L 281.00,170.91 L 281.06,180.17 L 281.05,184.88 L 281.01,194.26 L 280.96,198.64 L 280.90,202.94 L 280.86,204.94 L 280.77,208.85 L 280.72,210.60 L 280.60,213.98 L 280.54,215.42 L 280.41,218.13 L 280.33,219.19 L 280.17,221.10 L 280.08,221.71 L 279.90,222.70 L 279.80,222.80 L 278.59,223.32 L 277.18,223.59 L 276.18,223.69 L 273.99,223.87 L 272.61,223.92 L 269.66,224.00 L 267.92,224.00 L 263.95,223.99 L 261.82,223.94 L 260.98,223.88 L 259.44,223.72 L 258.86,223.57 L 257.82,223.22 L 257.46,222.95 L 256.82,222.35 L 256.62,221.92 L 256.28,220.98 L 256.19,220.36 L 256.06,219.02 L 256.04,218.18 L 256.02,216.36 L 256.01,215.25 L 255.94,212.90 L 255.77,211.91 L 255.58,211.63 L 255.13,211.19 L 254.73,211.10 L 253.83,211.00 L 253.17,211.00 L 250.71,211.57 L 249.50,212.56 L 249.06,213.39 L 248.32,214.38 L 247.59,215.08 L 247.12,215.45 L 244.95,216.97 L 243.50,217.77 L 240.37,219.38 L 238.52,220.18 L 234.65,221.77 L 232.50,222.52 L 230.34,223.16 L 229.02,223.42 L 226.23,223.91 L 224.66,224.10 L 221.42,224.43 L 219.70,224.54 L 216.19,224.72 L 214.40,224.75 L 207.20,224.69 L 203.90,224.42 L 200.69,224.10 L 199.25,223.88 L 196.51,223.39 L 195.37,223.08 L 187.16,220.33 L 181.97,218.04 L 179.52,216.68 L 174.71,213.80 L 172.46,212.16 L 168.07,208.72 L 166.03,206.79 L 162.07,202.81 L 160.26,200.62 L 156.74,196.11 L 155.16,193.66 L 152.12,188.64 L 150.78,185.95 L 148.22,180.43 L 147.13,177.50 L 145.74,173.33 L 145.13,170.81 L 144.96,169.37 L 144.80,167.89 L 144.75,167.04 L 144.65,165.27 L 144.63,164.23 L 144.58,162.06 L 144.57,160.78 L 144.57,158.08 L 144.57,156.50 L 144.59,152.06 L 144.63,149.58 L 144.66,148.53 L 144.74,146.54 L 144.81,145.69 L 144.95,144.05 L 145.06,143.32 L 145.57,140.54 L 146.01,139.11 L 146.49,137.64 L 146.78,136.83 L 147.40,135.13 L 147.77,134.14 L 149.35,130.13 L 150.37,127.72 L 150.88,126.62 L 152.94,122.46 L 154.08,120.62 L 156.47,117.03 L 157.91,115.25 L 159.41,113.46 L 160.24,112.53 L 161.96,110.64 L 162.92,109.64 L 168.96,103.99 L 173.20,100.65 L 175.43,99.20 L 179.94,96.44 L 182.29,95.27 L 187.04,93.09 L 189.51,92.22 L 194.49,90.63 L 197.05,90.05 L 202.24,89.06 L 204.90,88.78 L 210.27,88.39 M 69.57,89.23 L 66.12,89.95 L 65.62,90.08 L 64.08,90.46 L 63.24,90.66 L 61.21,91.13 L 54.50,92.62 L 52.30,93.09 L 48.07,94.37 L 47.10,94.69 L 45.51,95.32 L 43.85,96.17 L 43.12,96.67 L 41.70,97.46 L 41.38,97.63 L 40.84,97.86 L 40.27,98.00 L 40.15,98.00 L 39.61,98.23 L 39.30,98.39 L 38.47,98.87 L 35.43,100.97 L 34.35,101.79 L 32.24,103.08 L 31.76,103.35 L 30.95,103.73 L 30.10,103.97 L 29.85,103.98 L 29.00,104.46 L 28.53,104.77 L 27.36,105.76 L 26.74,106.29 L 25.39,107.61 L 24.70,108.30 L 23.29,109.81 L 22.60,110.57 L 21.30,112.10 L 20.67,112.85 L 19.61,114.25 L 19.12,114.92 L 18.44,116.04 L 18.00,117.24 L 18.00,117.74 L 17.42,118.74 L 16.02,119.80 L 15.68,119.92 L 14.85,120.68 L 14.41,121.13 L 13.44,122.44 L 12.95,123.15 L 11.91,124.87 L 11.39,125.76 L 10.35,127.76 L 9.33,129.81 L 7.56,134.16 L 7.16,135.22 L 6.52,137.25 L 5.87,140.00 L 5.16,144.17 L 4.45,152.55 L 4.33,154.61 L 4.27,158.58 L 4.26,160.53 L 4.42,164.19 L 4.52,165.97 L 4.90,169.19 L 5.11,170.74 L 5.69,173.40 L 6.00,174.64 L 6.78,176.61 L 8.16,178.64 L 8.66,179.10 L 9.46,180.62 L 10.00,183.03 L 10.00,183.78 L 10.44,185.32 L 11.50,187.00 L 11.91,187.34 L 12.56,188.19 L 13.00,189.29 L 13.00,189.58 L 13.51,190.60 L 14.75,192.27 L 14.99,192.54 L 15.59,193.35 L 15.90,193.79 L 16.57,194.85 L 18.50,198.35 L 19.05,199.49 L 20.60,201.61 L 20.99,202.09 L 21.77,202.86 L 22.83,203.63 L 23.48,203.94 L 24.81,204.76 L 26.28,205.88 L 26.59,206.19 L 27.53,206.67 L 28.95,207.00 L 29.17,207.00 L 29.78,207.24 L 30.11,207.39 L 30.89,207.89 L 33.37,210.04 L 34.16,210.87 L 36.31,212.64 L 36.86,213.06 L 37.93,213.80 L 39.37,214.66 L 40.23,215.09 L 42.02,216.15 L 42.44,216.40 L 43.17,216.89 L 44.00,217.50 L 44.21,217.68 L 45.02,218.04 L 45.47,218.22 L 46.67,218.57 L 51.00,219.37 L 51.76,219.46 L 53.53,219.68 L 54.44,219.80 L 56.35,220.06 L 57.30,220.20 L 59.12,220.47 L 61.50,220.86 L 62.20,220.98 L 63.95,221.16 L 64.87,221.24 L 66.95,221.33 L 69.10,221.41 L 73.87,221.31 L 76.25,221.23 L 80.72,220.85 L 81.78,220.74 L 83.65,220.47 L 84.54,220.33 L 86.00,220.00 L 86.96,219.75 L 89.23,219.21 L 92.07,218.57 L 92.43,218.50 L 93.37,218.17 L 93.88,217.97 L 95.02,217.44 L 98.48,215.45 L 99.66,214.65 L 102.59,213.06 L 104.09,212.29 L 107.16,210.97 L 107.90,210.67 L 109.29,210.17 L 109.96,209.94 L 111.15,209.61 L 111.71,209.46 L 112.60,209.32 L 113.53,209.37 L 113.70,209.44 L 114.06,209.86 L 114.24,210.10 L 114.60,210.82 L 115.46,213.65 L 115.63,214.53 L 115.93,215.99 L 116.09,216.67 L 116.43,217.77 L 116.61,218.28 L 117.05,219.07 L 117.29,219.43 L 117.91,219.97 L 118.25,220.21 L 119.12,220.53 L 119.59,220.67 L 120.77,220.84 L 121.41,220.91 L 122.98,220.97 L 125.84,221.00 L 127.76,221.00 L 131.07,220.70 L 131.83,220.60 L 133.18,220.36 L 133.82,220.23 L 134.88,219.92 L 135.36,219.75 L 136.09,219.40 L 136.40,219.21 L 136.75,218.82 L 136.87,218.62 L 136.79,218.21 L 136.15,217.59 L 136.06,217.54 L 135.90,217.20 L 135.83,217.00 L 135.69,216.37 L 135.55,215.69 L 135.34,213.59 L 135.25,212.44 L 135.12,209.58 L 135.06,208.08 L 135.02,204.69 L 135.00,201.20 L 135.21,193.59 L 135.28,191.71 L 135.50,188.06 L 135.92,183.00 L 136.05,181.73 L 136.22,178.63 L 136.28,177.00 L 136.30,173.40 L 135.87,162.00 L 135.74,160.28 L 135.51,156.88 L 135.40,155.21 L 135.22,152.17 L 135.14,150.73 L 135.03,148.40 L 135.01,147.88 L 134.99,147.03 L 134.98,146.09 L 134.99,145.11 L 134.69,142.88 L 134.49,141.73 L 133.80,139.21 L 133.40,137.91 L 132.34,135.15 L 131.76,133.75 L 130.36,130.83 L 129.62,129.35 L 127.92,126.33 L 127.03,124.81 L 125.06,121.75 L 118.29,112.75 L 117.47,111.79 L 116.04,110.15 L 115.35,109.37 L 114.15,108.06 L 113.57,107.45 L 112.55,106.45 L 112.06,105.99 L 111.18,105.27 L 110.33,104.61 L 108.90,104.00 L 106.81,103.86 L 106.71,103.88 L 106.37,103.68 L 106.19,103.54 L 105.71,103.09 L 104.07,101.10 L 103.42,100.18 L 101.65,98.81 L 98.55,97.57 L 97.59,97.39 L 95.70,96.73 L 95.27,96.55 L 94.54,96.18 L 93.76,95.62 L 93.19,95.05 L 91.89,94.10 L 91.22,93.65 L 89.75,92.96 L 89.00,92.65 L 87.43,92.25 L 85.03,92.00 L 84.61,92.00 L 83.55,91.88 L 82.99,91.81 L 81.79,91.56 L 78.35,90.50 L 77.30,90.07 L 75.39,89.49 L 74.44,89.26 L 72.56,89.08 L 71.61,89.03 M 208.68,88.71 L 208.36,88.74 L 207.86,88.86 L 207.40,89.17 L 207.26,89.40 L 206.45,89.76 L 204.89,90.00 L 204.62,90.00 L 203.79,90.16 L 203.35,90.26 L 202.27,90.59 L 198.76,92.00 L 197.63,92.55 L 195.17,93.41 L 194.59,93.59 L 193.55,93.84 L 192.34,94.00 L 192.02,94.00 L 191.19,94.16 L 190.75,94.26 L 189.76,94.59 L 186.77,96.00 L 185.87,96.55 L 183.95,97.41 L 183.50,97.59 L 182.70,97.84 L 181.77,98.00 L 181.30,98.00 L 180.09,98.71 L 178.47,100.40 L 178.04,101.07 L 176.70,102.27 L 174.67,103.37 L 174.36,103.44 L 173.34,104.06 L 172.77,104.42 L 171.34,105.50 L 170.60,106.08 L 168.95,107.47 L 168.12,108.18 L 166.42,109.72 L 165.58,110.49 L 164.00,112.01 L 163.24,112.76 L 161.95,114.12 L 161.36,114.77 L 160.53,115.80 L 160.00,116.83 L 160.00,116.97 L 159.82,117.45 L 159.70,117.71 L 159.32,118.38 L 157.68,120.67 L 157.36,121.06 L 156.44,122.47 L 155.95,123.26 L 154.79,125.28 L 151.07,132.38 L 150.64,133.27 L 149.90,134.85 L 149.55,135.60 L 148.97,136.93 L 148.42,138.21 L 147.75,140.20 L 147.47,141.13 L 147.26,142.66 L 147.36,144.81 L 147.44,145.30 L 147.46,146.69 L 147.44,147.44 L 147.30,149.19 L 146.33,154.74 L 146.03,155.93 L 145.63,157.81 L 145.46,158.67 L 145.33,159.97 L 145.29,160.56 L 145.41,161.40 L 145.86,162.26 L 146.02,162.42 L 146.30,163.07 L 146.44,163.44 L 146.67,164.42 L 147.00,168.01 L 147.00,169.28 L 147.43,171.83 L 147.56,172.43 L 147.90,173.44 L 148.47,174.56 L 148.87,175.09 L 149.52,176.52 L 149.97,178.50 L 149.98,179.05 L 150.44,180.75 L 151.50,183.35 L 151.91,184.14 L 152.41,185.60 L 152.50,185.93 L 152.57,186.47 L 152.50,187.00 L 152.37,187.22 L 152.59,187.73 L 153.51,188.36 L 153.92,188.52 L 154.56,189.37 L 155.00,190.99 L 155.00,191.62 L 155.66,192.75 L 157.45,193.98 L 158.13,194.24 L 159.64,195.52 L 161.45,197.91 L 161.95,198.86 L 163.55,200.81 L 164.43,201.77 L 166.55,203.53 L 167.64,204.37 L 169.95,205.69 L 173.26,206.91 L 173.86,207.03 L 174.88,207.41 L 175.37,207.63 L 176.22,208.25 L 176.64,208.60 L 177.40,209.51 L 178.50,211.28 L 179.05,212.30 L 180.21,213.91 L 180.48,214.24 L 180.95,214.71 L 181.50,215.00 L 181.64,215.00 L 182.12,215.14 L 182.40,215.22 L 183.09,215.49 L 185.50,216.64 L 185.91,216.86 L 186.98,217.35 L 187.54,217.59 L 188.79,218.07 L 192.50,219.25 L 193.68,219.54 L 196.58,220.03 L 198.10,220.26 L 201.49,220.62 L 204.96,220.95 L 212.35,221.21 L 214.16,221.24 L 217.59,221.20 L 219.25,221.16 L 222.21,220.98 L 223.61,220.86 L 225.87,220.53 L 226.88,220.35 L 228.18,219.86 L 228.65,219.63 L 230.20,219.25 L 232.70,219.00 L 233.13,219.00 L 234.39,218.65 L 235.07,218.42 L 236.75,217.66 L 237.63,217.22 L 239.63,216.08 L 242.90,214.00 L 244.63,212.83 L 247.70,211.07 L 248.43,210.68 L 249.76,210.06 L 250.40,209.77 L 251.54,209.36 L 252.08,209.19 L 252.99,209.00 L 253.42,208.94 L 254.08,208.99 L 254.38,209.05 L 254.76,209.34 L 255.00,210.06 L 255.00,210.35 L 255.25,210.65 L 255.85,210.59 L 255.99,210.51 L 256.31,210.56 L 256.47,210.63 L 256.81,210.95 L 257.16,211.32 L 257.84,212.62 L 258.16,213.33 L 258.66,215.01 L 259.00,217.49 L 259.00,218.15 L 259.36,219.40 L 260.24,220.65 L 260.44,220.77 L 261.44,220.95 L 262.02,221.03 L 263.60,221.12 L 264.45,221.15 L 266.39,221.16 L 267.39,221.15 L 269.48,221.09 L 270.52,221.05 L 272.52,220.93 L 273.49,220.86 L 275.18,220.68 L 275.96,220.59 L 277.12,220.36 L 278.01,219.98 L 278.04,219.93 L 278.12,219.13 L 278.15,218.62 L 278.23,216.99 L 278.27,216.08 L 278.34,213.71 L 278.38,212.45 L 278.46,209.44 L 278.49,207.87 L 278.56,204.31 L 278.60,202.48 L 278.66,198.48 L 278.69,196.43 L 278.75,192.07 L 278.82,185.24 L 278.83,183.48 L 278.86,180.20 L 278.87,178.61 L 278.89,175.65 L 278.90,174.21 L 278.90,171.55 L 278.91,170.26 L 278.91,167.88 L 278.91,165.58 L 278.87,161.73 L 278.85,159.92 L 278.78,156.97 L 278.73,155.59 L 278.61,153.37 L 278.54,152.35 L 278.37,150.73 L 278.27,149.98 L 278.04,148.82 L 277.62,147.41 L 277.21,146.34 L 276.44,143.47 L 275.69,139.50 L 275.46,137.35 L 274.46,133.16 L 273.89,131.11 L 272.37,127.47 L 271.97,126.61 L 271.11,125.08 L 270.66,124.35 L 269.74,123.12 L 269.28,122.54 L 268.32,121.66 L 266.89,120.79 L 266.45,120.62 L 265.58,119.52 L 264.70,117.34 L 264.60,116.87 L 264.05,115.78 L 263.72,115.22 L 262.71,113.96 L 262.15,113.30 L 260.68,111.86 L 257.96,109.50 L 256.27,108.12 L 252.71,105.01 L 251.87,104.27 L 250.41,102.91 L 248.72,101.25 L 247.87,100.36 L 246.08,98.95 L 245.66,98.66 L 244.92,98.25 L 244.07,97.99 L 243.85,97.99 L 243.23,97.87 L 242.89,97.79 L 242.10,97.54 L 239.57,96.46 L 239.08,96.20 L 237.70,95.64 L 236.95,95.35 L 235.17,94.74 L 233.31,94.13 L 229.01,92.96 L 226.86,92.41 L 222.83,91.56 L 221.90,91.39 L 220.28,91.15 L 218.37,91.00 L 217.48,91.00 L 215.91,90.74 L 215.57,90.66 L 215.04,90.46 L 214.57,90.12 L 214.38,89.81 L 213.22,89.31 L 212.57,89.08 L 210.94,88.80 L 210.13,88.69 M 63.88,110.88 L 65.50,111.29 L 66.33,111.57 L 67.84,112.33 L 68.18,112.52 L 68.72,112.89 L 69.25,113.40 L 69.52,113.80 L 70.00,114.00 L 70.75,113.40 L 70.91,113.16 L 71.49,112.75 L 71.81,112.56 L 72.64,112.24 L 73.53,111.94 L 75.76,111.66 L 76.90,111.57 L 79.20,111.74 L 82.08,112.54 L 82.86,112.94 L 84.67,113.57 L 86.95,114.00 L 87.23,114.00 L 88.05,114.28 L 88.49,114.45 L 89.53,115.03 L 92.87,117.50 L 93.93,118.46 L 95.92,119.97 L 96.37,120.29 L 97.10,120.72 L 97.82,121.00 L 98.04,121.00 L 98.79,121.42 L 99.21,121.69 L 100.27,122.56 L 100.83,123.03 L 102.08,124.20 L 102.72,124.82 L 104.03,126.17 L 105.34,127.54 L 107.60,130.25 L 108.09,130.88 L 108.84,131.97 L 109.46,133.22 L 109.72,134.19 L 110.19,135.91 L 110.43,136.73 L 110.85,138.19 L 111.27,139.58 L 112.01,141.73 L 112.38,142.72 L 113.10,144.28 L 114.26,146.26 L 114.66,146.84 L 115.20,147.95 L 115.44,148.53 L 115.70,149.87 L 115.80,150.60 L 115.83,152.49 L 115.64,156.26 L 115.52,157.87 L 115.30,160.65 L 115.20,161.97 L 114.98,164.22 L 114.87,165.29 L 114.65,167.09 L 114.54,167.94 L 114.30,169.35 L 114.17,170.01 L 113.89,171.10 L 113.75,171.61 L 113.42,172.46 L 112.21,174.39 L 111.69,174.97 L 110.52,176.79 L 109.09,179.62 L 108.93,180.05 L 108.35,181.09 L 108.03,181.63 L 107.22,182.80 L 104.43,186.06 L 103.86,186.62 L 102.93,187.70 L 102.50,188.23 L 101.86,189.26 L 101.57,189.77 L 101.21,190.75 L 101.00,192.18 L 101.00,192.71 L 100.88,193.54 L 100.80,193.92 L 100.48,194.50 L 100.29,194.76 L 99.72,195.15 L 98.56,195.58 L 97.88,195.74 L 96.55,195.83 L 95.15,195.59 L 95.01,195.51 L 94.24,195.64 L 93.78,195.75 L 92.48,196.22 L 91.78,196.49 L 90.13,197.23 L 87.43,198.57 L 85.66,199.51 L 81.55,201.05 L 79.45,201.75 L 75.19,202.70 L 74.15,202.90 L 72.15,203.17 L 71.17,203.28 L 69.36,203.36 L 68.48,203.37 L 66.94,203.25 L 66.21,203.16 L 65.03,202.81 L 64.73,202.71 L 63.75,202.44 L 63.20,202.29 L 61.83,201.99 L 57.12,201.10 L 55.53,200.84 L 51.88,199.69 L 51.00,199.37 L 49.39,198.67 L 47.42,197.61 L 46.08,196.74 L 43.73,195.16 L 42.61,194.40 L 40.65,193.03 L 39.72,192.37 L 38.12,191.17 L 37.37,190.60 L 36.11,189.56 L 35.52,189.05 L 34.57,188.14 L 34.13,187.70 L 33.46,186.89 L 32.36,184.73 L 32.19,183.97 L 31.68,182.62 L 30.90,181.44 L 30.75,181.34 L 30.35,180.84 L 30.14,180.55 L 29.66,179.71 L 29.16,178.80 L 28.06,176.34 L 27.51,175.06 L 26.53,172.37 L 25.54,168.85 L 25.45,168.39 L 25.16,167.20 L 25.00,166.57 L 24.62,165.16 L 23.34,161.00 L 23.01,160.02 L 22.58,158.45 L 22.41,157.71 L 22.32,156.33 L 22.31,155.63 L 22.53,154.04 L 23.22,151.00 L 23.47,150.00 L 24.00,148.38 L 24.27,147.63 L 24.86,146.47 L 25.16,145.93 L 25.86,145.13 L 27.06,144.26 L 27.73,143.93 L 28.42,143.39 L 28.53,143.27 L 28.56,143.12 L 28.27,143.01 L 28.09,143.01 L 27.82,142.76 L 27.70,142.60 L 27.57,142.09 L 27.48,141.52 L 27.65,139.85 L 27.79,138.97 L 28.39,137.08 L 29.65,134.53 L 30.02,133.99 L 30.60,132.66 L 31.00,130.94 L 31.00,130.72 L 31.24,130.11 L 31.39,129.78 L 31.88,129.02 L 34.00,126.66 L 34.75,125.99 L 35.82,124.80 L 36.28,124.24 L 36.78,123.21 L 36.96,122.71 L 36.91,121.79 L 36.25,120.45 L 36.04,120.19 L 35.96,119.96 L 36.33,120.13 L 36.50,120.26 L 37.07,120.39 L 37.38,120.44 L 38.16,120.41 L 38.99,120.35 L 41.02,119.83 L 42.04,119.52 L 44.04,118.64 L 46.39,117.10 L 47.00,116.53 L 48.96,115.44 L 52.05,114.37 L 53.00,114.19 L 55.51,113.40 L 59.00,111.99 L 59.68,111.66 L 60.84,111.21 L 61.39,111.02 L 62.40,110.84 L 62.89,110.79 M 215.24,111.65 L 216.37,111.66 L 218.34,111.70 L 219.27,111.73 L 220.90,111.81 L 221.68,111.86 L 223.05,111.99 L 224.37,112.14 L 226.53,112.62 L 229.66,113.68 L 231.19,114.30 L 234.14,115.82 L 235.57,116.61 L 238.08,118.32 L 239.25,119.17 L 241.02,120.83 L 241.40,121.23 L 241.98,121.99 L 242.51,123.04 L 242.67,123.55 L 243.51,124.54 L 245.08,125.53 L 245.91,125.79 L 247.55,126.92 L 248.37,127.58 L 249.96,129.39 L 250.74,130.36 L 252.20,132.69 L 252.91,133.91 L 254.18,136.61 L 254.79,138.00 L 255.80,140.91 L 256.27,142.39 L 256.95,145.37 L 257.25,146.85 L 257.55,149.74 L 257.47,153.81 L 257.40,154.46 L 257.20,156.27 L 257.10,157.24 L 256.86,159.48 L 256.13,166.54 L 255.87,169.07 L 254.90,173.61 L 254.33,175.80 L 252.68,179.78 L 251.76,181.71 L 249.36,185.26 L 244.85,190.25 L 244.16,190.90 L 242.80,192.09 L 242.13,192.66 L 240.94,193.61 L 240.38,194.04 L 239.49,194.63 L 238.64,195.00 L 238.49,195.00 L 237.84,195.24 L 237.48,195.39 L 236.51,195.89 L 233.00,198.00 L 232.15,198.56 L 230.63,199.42 L 229.89,199.80 L 228.46,200.34 L 227.74,200.58 L 226.26,200.84 L 223.81,201.00 L 222.52,201.00 L 220.31,201.29 L 219.83,201.38 L 219.11,201.61 L 218.50,202.00 L 218.38,202.19 L 217.72,202.49 L 217.33,202.62 L 216.23,202.81 L 215.64,202.88 L 214.23,202.96 L 213.50,202.98 L 211.92,202.95 L 210.32,202.90 L 207.18,202.50 L 206.45,202.37 L 205.16,202.06 L 204.56,201.89 L 203.64,201.49 L 202.85,201.08 L 201.04,200.44 L 198.82,200.00 L 198.38,200.00 L 197.31,199.82 L 196.75,199.70 L 195.50,199.32 L 194.22,198.89 L 191.47,197.60 L 190.12,196.91 L 187.71,195.33 L 187.16,194.94 L 186.23,194.15 L 185.17,193.01 L 184.58,192.22 L 183.04,190.89 L 182.66,190.60 L 181.91,190.17 L 180.92,189.82 L 180.58,189.77 L 179.86,189.38 L 179.49,189.15 L 178.72,188.41 L 178.34,188.00 L 177.56,186.95 L 176.43,185.08 L 175.78,183.87 L 174.53,181.79 L 174.25,181.34 L 173.78,180.65 L 173.28,180.08 L 173.05,179.90 L 172.51,179.24 L 172.24,178.87 L 171.66,177.89 L 171.07,176.84 L 169.93,174.18 L 169.38,172.82 L 168.55,170.10 L 168.38,169.46 L 168.15,168.29 L 168.00,166.81 L 168.00,165.79 L 167.71,164.02 L 167.62,163.63 L 167.39,163.03 L 167.00,162.50 L 166.84,162.40 L 166.57,161.98 L 166.45,161.73 L 166.26,161.05 L 166.09,160.31 L 165.96,158.21 L 165.93,157.09 L 166.04,154.45 L 166.13,153.09 L 166.45,150.22 L 166.63,148.79 L 167.11,146.00 L 167.37,144.64 L 167.98,142.23 L 168.30,141.11 L 169.00,139.40 L 169.18,139.03 L 169.54,138.47 L 170.10,137.94 L 170.34,137.82 L 170.83,137.33 L 171.07,137.05 L 171.53,136.33 L 172.52,133.76 L 172.72,132.80 L 173.72,130.76 L 174.33,129.72 L 176.20,127.44 L 177.25,126.26 L 180.06,123.65 L 180.83,122.98 L 182.55,121.55 L 185.42,119.29 L 186.56,118.41 L 188.55,116.96 L 189.51,116.28 L 191.25,115.16 L 192.11,114.64 L 193.76,113.82 L 194.59,113.44 L 196.31,112.87 L 197.19,112.61 L 199.13,112.25 L 200.14,112.09 L 202.44,111.88 L 203.66,111.79 L 206.49,111.70 L 211.50,111.64 L 212.87,111.64 M 64.53,114.57 L 63.64,114.59 L 61.95,114.66 L 61.23,114.72 L 59.86,114.86 L 59.25,114.96 L 56.96,115.46 L 55.80,115.90 L 54.62,116.38 L 53.96,116.67 L 52.58,117.30 L 51.78,117.68 L 46.18,120.79 L 42.77,123.16 L 41.24,124.48 L 38.30,127.21 L 37.00,128.71 L 34.53,131.78 L 33.48,133.43 L 31.50,136.82 L 30.69,138.63 L 29.22,142.31 L 28.67,144.25 L 27.72,148.20 L 27.44,150.27 L 27.02,154.46 L 27.01,156.64 L 27.11,160.39 L 27.28,162.73 L 27.43,163.84 L 28.18,168.11 L 28.84,170.12 L 30.36,174.09 L 31.45,176.11 L 32.61,178.14 L 33.27,179.19 L 34.67,181.32 L 35.47,182.44 L 40.16,188.06 L 43.58,191.31 L 45.40,192.66 L 49.14,195.17 L 51.10,196.14 L 55.07,197.87 L 57.12,198.42 L 60.60,199.20 L 62.60,199.44 L 66.72,199.83 L 68.86,199.88 L 73.14,199.87 L 75.18,199.72 L 79.13,199.31 L 80.81,198.95 L 85.34,197.55 L 88.39,196.21 L 89.89,195.36 L 92.89,193.54 L 94.34,192.48 L 97.21,190.26 L 98.57,189.02 L 101.23,186.47 L 102.46,185.09 L 104.83,182.27 L 105.89,180.79 L 107.90,177.79 L 108.74,176.24 L 110.31,173.12 L 110.90,171.54 L 111.74,168.76 L 112.19,166.69 L 112.37,165.57 L 112.92,160.88 L 112.98,158.39 L 112.96,153.36 L 112.73,150.95 L 112.45,148.56 L 112.26,147.43 L 111.84,145.22 L 111.57,144.21 L 110.19,140.21 L 108.97,137.54 L 108.22,136.22 L 106.64,133.60 L 105.73,132.33 L 103.84,129.82 L 102.80,128.62 L 100.64,126.26 L 99.49,125.17 L 97.12,123.03 L 95.87,122.06 L 93.33,120.18 L 92.02,119.37 L 89.37,117.82 L 88.01,117.19 L 84.70,115.81 L 82.64,115.21 L 81.43,115.03 L 80.17,114.87 L 79.46,114.81 L 77.95,114.70 L 77.07,114.67 L 75.22,114.61 L 74.13,114.59 L 71.84,114.56 L 70.50,114.56 L 66.67,114.55 M 213.02,114.50 L 208.24,114.58 L 205.43,114.72 L 204.16,114.84 L 201.73,115.14 L 200.62,115.35 L 198.46,115.83 L 197.44,116.15 L 195.45,116.85 L 194.48,117.29 L 192.55,118.24 L 191.57,118.82 L 189.59,120.06 L 188.54,120.80 L 186.41,122.36 L 185.25,123.27 L 179.36,128.85 L 176.10,132.98 L 174.80,135.22 L 172.42,139.80 L 171.57,142.21 L 170.11,147.12 L 169.72,149.65 L 169.18,154.77 L 169.26,157.37 L 169.66,162.59 L 170.22,165.20 L 171.58,170.41 L 172.63,172.97 L 174.97,178.05 L 176.52,180.50 L 178.66,183.54 L 180.29,185.50 L 181.18,186.45 L 184.98,190.09 L 187.11,191.68 L 191.51,194.69 L 193.84,195.88 L 196.18,197.01 L 197.37,197.48 L 199.74,198.36 L 200.93,198.70 L 202.78,199.14 L 203.87,199.29 L 206.16,199.57 L 207.42,199.64 L 212.69,199.78 L 215.43,199.63 L 220.86,199.18 L 223.25,198.75 L 225.55,198.30 L 226.55,198.02 L 228.43,197.44 L 229.16,197.11 L 234.36,194.27 L 237.84,191.94 L 239.48,190.65 L 242.65,187.99 L 244.02,186.62 L 246.57,183.88 L 247.50,182.57 L 250.24,178.25 L 251.80,175.30 L 252.44,173.80 L 253.64,170.77 L 254.10,169.24 L 254.95,166.17 L 255.24,164.63 L 255.75,161.54 L 255.87,159.99 L 256.03,156.90 L 255.99,155.37 L 255.82,152.31 L 255.61,150.79 L 255.11,147.78 L 254.74,146.30 L 253.93,143.37 L 253.40,141.93 L 252.27,139.10 L 251.59,137.72 L 250.14,135.01 L 249.31,133.71 L 247.57,131.15 L 246.58,129.93 L 244.55,127.54 L 243.42,126.41 L 241.09,124.22 L 239.82,123.21 L 237.20,121.23 L 235.79,120.34 L 232.90,118.61 L 231.35,117.85 L 229.14,116.79 L 227.87,116.20 L 227.29,115.97 L 225.07,115.19 L 223.88,114.97 L 222.65,114.78 L 221.95,114.71 L 220.49,114.60 L 219.63,114.57 L 217.80,114.52 L 216.71,114.51 L 214.40,114.50 M 183.49,115.10 L 183.61,115.16 L 183.63,115.42 L 183.60,115.58 L 183.30,116.04 L 182.50,117.00 L 182.00,117.55 L 180.97,118.41 L 179.84,119.00 L 179.60,119.00 L 179.60,118.41 L 179.67,118.05 L 180.23,117.00 L 180.58,116.45 L 181.53,115.59 L 182.90,115.00 L 183.17,115.00 M 214.41,94.29 L 215.00,95.00 L 215.00,95.27 L 214.41,95.71 L 213.00,96.00 L 212.45,96.00 L 211.59,95.71 L 211.22,95.52 L 211.00,95.00 L 211.00,94.72 L 211.59,94.29 L 213.00,94.00 L 213.55,94.00 Z" fill="rgba(189,213,75,1)"/>
<path d="M 234.17,221.95 L 232.50,222.53 L 230.34,223.17 L 229.02,223.43 L 226.22,223.92 L 224.65,224.10 L 221.41,224.44 L 220.14,224.51 L 221.42,224.43 L 224.66,224.10 L 226.23,223.91 L 229.02,223.42 L 230.34,223.16 L 232.50,222.52 L 234.43,221.85 M 254.73,211.10 L 255.13,211.19 L 255.28,211.33 L 255.00,211.19 L 254.19,211.06 L 253.63,211.35 L 252.38,212.16 L 251.56,212.91 L 250.29,213.91 L 249.14,214.67 L 248.45,215.08 L 245.39,216.83 L 243.58,217.74 L 243.13,217.96 L 243.50,217.77 L 244.95,216.97 L 247.12,215.45 L 247.59,215.08 L 248.32,214.38 L 249.06,213.39 L 249.50,212.56 L 250.71,211.57 L 253.17,211.00 L 253.83,211.00 M 255.58,211.63 L 255.77,211.91 L 255.94,212.90 L 256.01,215.25 L 255.77,212.47 L 255.37,211.42 Z" fill="rgba(195,215,99,1)"/>
<path d="M 227.73,223.69 L 226.11,224.00 L 223.91,224.36 L 222.69,224.49 L 220.19,224.73 L 218.87,224.80 L 213.39,224.98 L 210.57,224.89 L 204.96,224.59 L 202.36,224.28 L 201.91,224.22 L 203.89,224.41 L 207.18,224.69 L 214.38,224.74 L 216.17,224.72 L 219.68,224.54 L 221.41,224.44 L 224.65,224.10 L 226.22,223.92 L 228.12,223.59 M 255.00,211.19 L 255.35,211.37 L 255.77,212.47 L 256.01,215.25 L 256.02,216.36 L 256.04,218.18 L 256.06,219.02 L 256.19,220.36 L 256.28,220.98 L 256.62,221.92 L 256.82,222.35 L 257.46,222.95 L 257.82,223.22 L 258.86,223.57 L 259.44,223.72 L 260.98,223.88 L 261.82,223.94 L 263.95,223.99 L 267.92,224.00 L 255.00,224.00 L 255.00,218.50 L 254.96,216.34 L 254.87,215.19 L 254.78,214.75 L 254.57,213.97 L 254.40,213.70 L 254.03,213.27 L 253.76,213.18 L 253.18,213.07 L 252.80,213.14 L 251.97,213.36 L 251.44,213.59 L 250.32,214.11 L 249.63,214.48 L 248.17,215.29 L 247.29,215.80 L 245.88,216.55 L 248.45,215.08 L 249.14,214.67 L 250.29,213.91 L 251.56,212.91 L 252.38,212.16 L 253.63,211.35 L 254.19,211.06 M 242.13,218.53 L 238.51,220.17 L 237.81,220.44 L 237.94,220.39 L 239.84,219.56 L 243.58,217.74 L 244.49,217.28 M 172.46,212.16 L 174.71,213.80 L 179.52,216.68 L 181.97,218.04 L 184.58,219.19 L 182.05,218.09 L 179.60,216.73 L 174.81,213.88 L 172.56,212.23 L 168.16,208.80 L 168.09,208.74 M 148.44,180.90 L 148.22,180.44 L 147.13,177.50 L 148.22,180.43 Z" fill="rgba(231,243,171,1)"/>
<path d="M 112.08,260.76 L 111.99,260.62 L 111.83,260.11 L 111.75,259.83 L 111.60,259.08 L 111.47,258.28 L 111.27,256.10 L 111.18,254.94 L 111.07,252.25 L 111.03,250.86 L 111.01,247.96 L 111.01,246.50 L 111.09,243.66 L 111.14,242.28 L 111.31,239.81 L 111.40,238.64 L 111.66,236.82 L 112.15,235.13 L 112.40,234.73 L 113.05,234.17 L 113.43,233.94 L 114.65,233.68 L 115.01,233.64 L 115.92,233.59 L 116.41,233.57 L 117.61,233.58 L 118.25,233.59 L 119.79,233.65 L 122.55,233.78 L 123.97,233.85 L 126.62,233.90 L 127.91,233.91 L 130.20,233.82 L 131.29,233.76 L 133.09,233.56 L 135.10,233.11 L 135.81,232.87 L 136.84,232.58 L 137.30,232.47 L 137.97,232.47 L 138.28,232.51 L 138.73,232.82 L 139.34,233.64 L 139.42,233.78 L 139.56,234.31 L 139.63,234.61 L 139.76,235.43 L 139.89,236.30 L 140.08,238.73 L 140.17,240.03 L 140.28,243.03 L 140.33,244.56 L 140.37,247.78 L 140.38,249.39 L 140.34,252.48 L 140.31,253.98 L 140.19,256.60 L 140.12,257.82 L 139.91,259.61 L 139.85,259.99 L 139.72,260.53 L 139.50,260.98 L 139.43,261.04 L 139.04,261.16 L 138.81,261.21 L 138.11,261.33 L 137.35,261.44 L 135.07,261.66 L 133.83,261.77 L 130.83,261.95 L 125.83,262.15 L 124.44,262.19 L 122.07,262.24 L 120.96,262.26 L 119.11,262.28 L 118.24,262.28 L 116.82,262.25 L 116.17,262.23 L 115.13,262.15 L 114.65,262.10 L 113.91,261.96 L 113.57,261.88 L 113.06,261.67 L 112.60,261.44 M 138.50,248.50 L 138.50,236.50 L 126.50,236.50 L 114.50,236.50 L 114.22,247.92 L 114.19,248.98 L 114.16,250.85 L 114.15,251.75 L 114.15,253.32 L 114.15,254.06 L 114.19,255.35 L 114.21,255.96 L 114.28,256.99 L 114.36,257.95 L 114.63,259.19 L 115.22,260.17 L 115.30,260.23 L 115.70,260.33 L 115.93,260.38 L 116.58,260.48 L 117.29,260.56 L 119.35,260.69 L 120.47,260.74 L 123.13,260.78 L 127.50,260.75 L 138.50,260.50 L 138.50,248.50 M 66.95,227.62 L 66.87,227.54 L 65.95,227.28 L 65.38,227.13 L 63.65,226.76 L 62.70,226.57 L 60.37,226.13 L 56.48,225.47 L 55.11,225.25 L 52.54,224.79 L 51.30,224.56 L 49.17,224.11 L 48.17,223.90 L 46.71,223.52 L 45.53,223.09 L 45.39,222.98 L 44.69,222.63 L 44.29,222.44 L 43.19,221.97 L 39.00,220.40 L 37.49,219.88 L 34.15,218.10 L 33.36,217.64 L 31.93,216.66 L 30.22,215.25 L 29.31,214.36 L 27.63,212.95 L 27.25,212.66 L 26.63,212.26 L 26.01,212.00 L 25.79,212.00 L 24.99,211.51 L 24.54,211.20 L 23.36,210.18 L 22.73,209.62 L 21.30,208.20 L 20.56,207.46 L 18.98,205.77 L 17.40,204.04 L 14.32,200.32 L 13.60,199.42 L 12.33,197.70 L 10.81,195.41 L 9.56,193.33 L 7.51,189.82 L 6.55,188.15 L 5.01,185.26 L 4.29,183.87 L 3.18,181.33 L 2.67,180.08 L 1.93,177.62 L 1.59,176.38 L 1.14,173.73 L 0.95,172.36 L 0.71,169.27 L 0.62,167.64 L 0.54,163.82 L 0.52,162.81 L 0.51,160.61 L 0.50,157.00 L 0.50,154.74 L 0.55,150.79 L 0.59,148.91 L 0.74,145.63 L 0.83,144.05 L 1.11,141.29 L 1.27,139.96 L 1.70,137.57 L 1.94,136.41 L 2.55,134.26 L 2.89,133.20 L 3.71,131.16 L 4.15,130.14 L 5.22,128.05 L 7.12,124.73 L 7.91,123.42 L 9.15,120.95 L 9.42,120.39 L 9.77,119.47 L 10.00,118.54 L 10.00,118.45 L 10.18,118.09 L 10.29,117.89 L 10.68,117.34 L 11.12,116.74 L 12.52,115.08 L 13.30,114.19 L 15.22,112.09 L 16.22,111.01 L 18.45,108.69 L 20.73,106.36 L 25.33,101.91 L 26.42,100.88 L 28.36,99.15 L 30.71,97.25 L 31.56,96.63 L 33.35,95.66 L 33.77,95.46 L 34.51,95.18 L 35.35,95.00 L 35.77,95.00 L 36.82,94.46 L 38.19,93.15 L 38.55,92.64 L 40.00,91.67 L 42.50,90.71 L 42.91,90.63 L 44.10,90.36 L 44.74,90.21 L 46.23,89.83 L 51.00,88.51 L 53.37,87.82 L 58.63,86.90 L 61.33,86.53 L 67.08,86.26 L 69.99,86.21 L 75.98,86.60 L 85.00,87.93 L 86.39,88.21 L 88.89,88.74 L 90.09,89.00 L 92.21,89.50 L 93.22,89.74 L 94.97,90.20 L 95.79,90.42 L 97.18,90.85 L 97.84,91.05 L 98.88,91.45 L 99.36,91.64 L 100.07,92.01 L 100.38,92.19 L 100.77,92.54 L 101.00,93.04 L 101.00,93.15 L 101.27,93.44 L 101.44,93.59 L 101.99,93.94 L 104.37,94.96 L 104.76,95.09 L 105.93,95.73 L 106.56,96.10 L 108.09,97.14 L 108.89,97.69 L 110.63,99.00 L 111.52,99.68 L 113.34,101.15 L 115.15,102.63 L 118.36,105.56 L 119.08,106.25 L 120.24,107.47 L 121.42,108.95 L 121.54,109.15 L 121.98,109.72 L 122.22,110.02 L 122.84,110.73 L 124.98,112.96 L 125.64,113.60 L 126.97,115.09 L 127.62,115.87 L 128.91,117.60 L 130.18,119.38 L 132.53,123.48 L 133.66,125.60 L 135.57,130.12 L 137.76,137.00 L 137.92,137.66 L 138.20,139.18 L 138.34,139.99 L 138.57,141.93 L 138.68,142.96 L 138.87,145.48 L 138.96,146.82 L 139.11,150.06 L 139.18,151.78 L 139.30,155.90 L 139.33,156.99 L 139.39,159.37 L 139.41,160.59 L 139.46,163.23 L 139.48,164.59 L 139.53,167.53 L 139.55,169.04 L 139.59,172.29 L 139.61,173.96 L 139.65,177.54 L 139.70,183.30 L 139.73,186.24 L 139.76,191.80 L 139.77,194.52 L 139.77,199.58 L 139.77,202.04 L 139.75,206.51 L 139.73,208.67 L 139.69,212.50 L 139.66,214.32 L 139.59,217.43 L 139.56,218.88 L 139.46,221.19 L 139.41,222.23 L 139.30,223.67 L 139.11,224.77 L 138.91,225.13 L 138.20,225.63 L 137.97,225.74 L 137.37,225.91 L 137.04,225.99 L 136.17,226.10 L 135.70,226.15 L 134.52,226.21 L 133.88,226.23 L 132.30,226.25 L 131.46,226.25 L 129.44,226.23 L 125.84,226.15 L 124.10,226.11 L 121.21,226.01 L 119.86,225.96 L 117.66,225.79 L 116.64,225.69 L 115.04,225.41 L 114.30,225.26 L 113.21,224.82 L 112.72,224.57 L 112.03,223.93 L 111.73,223.57 L 111.36,222.68 L 111.21,222.19 L 111.07,220.99 L 111.00,218.81 L 111.00,217.73 L 110.84,216.31 L 110.72,215.72 L 110.22,215.22 L 109.91,215.09 L 108.94,215.46 L 106.81,216.94 L 106.13,217.47 L 104.28,218.50 L 101.67,219.55 L 100.94,219.73 L 99.78,220.28 L 99.00,221.11 L 99.00,221.35 L 98.41,221.74 L 96.99,222.00 L 96.43,222.00 L 95.05,222.29 L 93.24,222.98 L 93.03,223.09 L 92.41,223.34 L 92.07,223.47 L 91.21,223.75 L 90.29,224.03 L 87.90,224.63 L 86.63,224.93 L 83.76,225.54 L 82.30,225.84 L 79.26,226.39 L 77.76,226.66 L 74.87,227.11 L 73.48,227.31 L 71.05,227.60 L 69.92,227.72 L 68.25,227.80 L 67.90,227.80 L 67.38,227.76 L 67.16,227.73 M 85.50,223.55 L 87.25,223.13 L 91.02,221.94 L 92.92,221.30 L 96.76,219.74 L 98.65,218.94 L 102.24,217.16 L 106.98,214.39 L 107.67,213.94 L 108.87,213.24 L 109.44,212.93 L 110.41,212.53 L 110.87,212.36 L 111.63,212.27 L 111.99,212.27 L 112.56,212.50 L 112.83,212.65 L 113.23,213.21 L 113.42,213.54 L 113.68,214.44 L 113.79,214.94 L 113.92,216.20 L 114.00,218.50 L 114.00,224.06 L 126.25,223.78 L 138.50,223.50 L 138.78,187.50 L 138.80,185.01 L 138.82,180.40 L 138.83,178.16 L 138.84,174.04 L 138.84,172.03 L 138.82,168.34 L 138.81,166.55 L 138.77,163.27 L 138.74,161.67 L 138.67,158.75 L 138.63,157.33 L 138.52,154.73 L 138.46,153.47 L 138.31,151.15 L 138.24,150.03 L 138.05,147.96 L 137.84,145.94 L 137.30,142.49 L 137.00,140.83 L 136.23,137.86 L 135.82,136.40 L 134.80,133.60 L 132.96,129.24 L 131.93,126.97 L 129.61,122.69 L 128.40,120.60 L 125.75,116.67 L 124.37,114.75 L 121.38,111.18 L 119.85,109.45 L 116.53,106.25 L 114.84,104.69 L 111.21,101.87 L 109.35,100.51 L 105.42,98.07 L 103.41,96.90 L 99.18,94.85 L 92.50,92.23 L 90.32,91.50 L 85.94,90.35 L 83.75,89.83 L 79.38,89.11 L 77.19,88.80 L 72.85,88.49 L 70.68,88.39 L 66.39,88.49 L 64.25,88.59 L 60.03,89.08 L 57.93,89.37 L 53.81,90.25 L 51.76,90.73 L 47.75,91.98 L 45.77,92.65 L 41.90,94.26 L 39.99,95.11 L 36.29,97.07 L 34.46,98.10 L 30.95,100.41 L 29.22,101.60 L 25.92,104.25 L 24.29,105.61 L 21.22,108.57 L 19.72,110.09 L 16.90,113.37 L 15.53,115.05 L 12.99,118.63 L 11.76,120.46 L 9.52,124.33 L 6.52,130.46 L 5.85,132.01 L 4.73,135.58 L 4.21,137.43 L 3.39,141.48 L 3.02,143.55 L 2.51,147.91 L 2.29,150.11 L 2.09,154.59 L 2.02,156.83 L 2.13,161.25 L 2.23,163.44 L 2.66,167.64 L 2.92,169.69 L 3.67,173.48 L 5.18,178.51 L 6.29,181.39 L 8.59,186.43 L 9.78,188.86 L 12.35,193.21 L 13.69,195.32 L 16.72,199.27 L 21.96,205.03 L 24.32,207.38 L 29.25,211.46 L 31.77,213.40 L 37.05,216.66 L 39.74,218.20 L 45.43,220.69 L 54.50,223.58 L 55.36,223.80 L 57.50,224.14 L 58.63,224.30 L 61.21,224.54 L 63.87,224.75 L 69.84,224.85 L 72.83,224.85 L 78.55,224.52 L 79.91,224.41 L 82.36,224.12 L 83.53,223.95 M 208.00,227.06 L 207.79,226.92 L 207.16,226.66 L 206.81,226.53 L 205.97,226.33 L 203.19,226.02 L 201.84,226.01 L 198.69,225.61 L 197.06,225.36 L 193.60,224.53 L 191.87,224.07 L 188.46,222.91 L 183.76,220.88 L 183.29,220.64 L 182.14,220.26 L 180.66,220.00 L 180.47,220.00 L 179.92,219.81 L 179.63,219.69 L 178.93,219.29 L 176.68,217.58 L 175.96,216.91 L 174.18,215.66 L 173.74,215.38 L 172.91,214.92 L 171.85,214.45 L 171.54,214.35 L 170.73,213.91 L 170.31,213.66 L 169.34,212.96 L 166.45,210.37 L 165.57,209.45 L 163.94,207.98 L 163.57,207.67 L 162.98,207.24 L 162.38,206.96 L 162.23,206.95 L 161.65,206.51 L 161.33,206.24 L 160.48,205.35 L 160.04,204.86 L 159.02,203.65 L 158.50,203.02 L 157.41,201.60 L 156.31,200.16 L 154.28,197.19 L 153.81,196.48 L 153.04,195.19 L 152.21,193.58 L 151.85,192.75 L 151.05,191.29 L 150.85,190.97 L 150.50,190.48 L 150.07,190.03 L 149.96,189.96 L 149.57,189.29 L 149.35,188.87 L 148.79,187.63 L 148.49,186.95 L 147.81,185.28 L 147.46,184.41 L 146.73,182.46 L 145.98,180.48 L 144.56,176.33 L 144.23,175.32 L 143.65,173.45 L 142.96,171.00 L 142.80,170.39 L 142.54,168.45 L 142.42,167.38 L 142.23,164.74 L 142.14,163.37 L 142.02,160.32 L 141.97,158.78 L 141.93,155.62 L 141.92,154.06 L 141.95,151.08 L 141.97,149.64 L 142.08,147.13 L 142.15,145.96 L 142.34,144.21 L 142.40,143.83 L 142.52,143.27 L 142.72,142.75 L 142.86,142.58 L 143.21,141.77 L 143.39,141.30 L 143.80,140.01 L 145.00,135.17 L 145.36,133.43 L 146.32,130.30 L 146.56,129.60 L 147.03,128.51 L 147.65,127.49 L 148.02,127.12 L 148.60,126.07 L 149.00,124.55 L 149.00,124.33 L 149.21,123.63 L 149.35,123.25 L 149.78,122.31 L 150.25,121.33 L 151.57,119.11 L 152.25,118.03 L 153.57,116.24 L 153.87,115.87 L 154.39,115.34 L 154.96,115.00 L 155.06,115.00 L 155.49,114.61 L 155.74,114.35 L 156.41,113.53 L 156.77,113.08 L 157.59,111.94 L 158.90,110.00 L 159.35,109.31 L 160.24,108.06 L 160.68,107.46 L 161.48,106.47 L 161.86,106.02 L 162.49,105.39 L 163.13,105.00 L 163.26,105.00 L 163.76,104.76 L 164.04,104.61 L 164.76,104.12 L 167.30,102.00 L 168.18,101.17 L 170.08,99.71 L 170.53,99.39 L 171.33,98.88 L 172.26,98.43 L 172.75,98.27 L 173.35,97.77 L 173.49,96.98 L 173.41,96.86 L 173.56,96.59 L 173.67,96.45 L 174.14,96.16 L 176.49,95.44 L 177.46,95.25 L 179.20,94.60 L 179.59,94.43 L 180.20,94.07 L 180.76,93.53 L 181.02,93.10 L 182.06,92.20 L 182.65,91.76 L 184.14,90.94 L 184.92,90.55 L 186.59,89.94 L 189.00,89.42 L 189.34,89.38 L 190.59,89.20 L 191.29,89.09 L 193.07,88.78 L 199.34,87.59 L 201.49,87.15 L 206.39,86.47 L 207.57,86.33 L 209.72,86.14 L 212.34,86.02 L 213.21,86.02 L 215.22,86.13 L 216.26,86.20 L 218.52,86.43 L 220.83,86.69 L 225.68,87.46 L 228.07,87.88 L 232.40,88.87 L 233.40,89.12 L 235.14,89.63 L 237.25,90.39 L 238.28,90.84 L 239.90,91.40 L 240.24,91.50 L 240.70,91.58 L 241.00,91.51 L 241.00,91.44 L 241.16,91.47 L 241.26,91.51 L 241.59,91.74 L 243.00,93.00 L 243.55,93.55 L 244.95,94.41 L 246.84,95.00 L 247.42,95.00 L 248.82,95.54 L 249.21,95.74 L 250.11,96.31 L 250.58,96.63 L 251.69,97.49 L 252.27,97.96 L 253.64,99.14 L 254.36,99.77 L 256.03,101.32 L 256.91,102.14 L 258.94,104.08 L 262.44,107.50 L 264.05,109.08 L 266.61,111.80 L 267.81,113.12 L 269.77,115.60 L 270.70,116.85 L 272.35,119.48 L 274.78,124.00 L 275.71,125.87 L 277.23,129.04 L 277.94,130.58 L 279.08,133.44 L 279.61,134.87 L 280.43,137.86 L 280.81,139.41 L 281.36,142.99 L 281.49,143.94 L 281.70,146.03 L 281.80,147.12 L 281.97,149.51 L 282.05,150.75 L 282.18,153.51 L 282.24,154.94 L 282.35,158.11 L 282.39,159.75 L 282.47,163.40 L 282.51,165.29 L 282.58,169.46 L 282.61,171.62 L 282.66,176.38 L 282.75,184.25 L 282.79,187.78 L 282.84,194.07 L 282.86,197.08 L 282.88,202.37 L 282.89,204.90 L 282.88,209.24 L 282.87,211.29 L 282.82,214.71 L 282.80,216.32 L 282.72,218.87 L 282.67,220.04 L 282.56,221.76 L 282.50,222.52 L 282.35,223.45 L 282.09,224.00 L 281.79,224.00 L 281.32,224.37 L 281.00,225.25 L 281.00,225.48 L 280.36,225.84 L 280.14,225.92 L 279.51,226.05 L 279.15,226.11 L 278.24,226.20 L 277.75,226.25 L 276.53,226.31 L 275.89,226.34 L 274.34,226.38 L 273.53,226.40 L 271.63,226.41 L 268.36,226.39 L 266.83,226.38 L 264.30,226.35 L 263.11,226.34 L 261.20,226.29 L 260.30,226.26 L 258.90,226.17 L 258.26,226.12 L 257.27,225.97 L 256.82,225.89 L 256.15,225.68 L 255.85,225.56 L 255.40,225.25 L 254.40,223.89 L 254.03,223.24 L 253.45,221.25 L 253.04,218.25 L 253.03,217.31 L 252.83,216.08 L 252.69,215.56 L 252.21,215.16 L 251.93,215.06 L 251.13,215.48 L 249.50,217.00 L 249.00,217.55 L 247.83,218.41 L 246.37,219.00 L 246.19,219.00 L 245.44,219.19 L 245.02,219.31 L 243.89,219.71 L 239.78,221.41 L 238.33,222.07 L 234.88,223.31 L 234.03,223.59 L 232.47,224.04 L 230.50,224.50 L 229.95,224.60 L 228.59,224.83 L 227.89,224.96 L 226.35,225.23 L 222.00,226.02 L 220.77,226.25 L 218.62,226.63 L 217.60,226.81 L 215.85,227.09 L 215.02,227.22 L 213.61,227.41 L 212.95,227.49 L 211.84,227.59 L 210.80,227.67 L 209.41,227.57 L 208.80,227.47 M 226.11,224.00 L 227.73,223.69 L 231.23,222.74 L 233.01,222.22 L 236.67,220.88 L 238.51,220.17 L 242.13,218.53 L 247.29,215.80 L 248.17,215.29 L 249.63,214.48 L 250.32,214.11 L 251.44,213.59 L 251.97,213.36 L 252.80,213.14 L 253.18,213.07 L 253.76,213.18 L 254.03,213.27 L 254.40,213.70 L 254.57,213.97 L 254.78,214.75 L 254.87,215.19 L 254.96,216.34 L 255.00,218.50 L 255.00,224.00 L 266.80,224.00 L 268.76,224.00 L 272.03,223.92 L 273.55,223.87 L 275.94,223.70 L 277.03,223.60 L 278.54,223.32 L 279.80,222.80 L 279.90,222.70 L 280.08,221.71 L 280.17,221.10 L 280.33,219.19 L 280.41,218.13 L 280.54,215.42 L 280.60,213.98 L 280.72,210.60 L 280.77,208.85 L 280.86,204.94 L 280.90,202.94 L 280.96,198.64 L 281.01,194.26 L 281.05,184.88 L 281.06,180.17 L 281.00,170.91 L 280.98,168.65 L 280.92,164.34 L 280.88,162.23 L 280.80,158.32 L 280.75,156.42 L 280.64,153.03 L 280.58,151.42 L 280.44,148.69 L 280.36,147.42 L 280.20,145.48 L 279.92,143.62 L 279.62,142.48 L 278.83,139.53 L 277.74,135.50 L 277.34,134.04 L 276.32,131.15 L 275.79,129.72 L 274.52,126.91 L 273.19,124.12 L 269.82,118.80 L 268.03,116.19 L 263.84,111.32 L 261.66,108.95 L 256.77,104.64 L 254.25,102.56 L 248.79,98.91 L 246.01,97.17 L 240.11,94.28 L 237.11,92.95 L 230.90,90.93 L 221.35,88.99 L 218.54,88.65 L 213.01,88.43 L 210.27,88.39 L 204.90,88.78 L 202.24,89.06 L 197.05,90.05 L 194.49,90.63 L 189.51,92.22 L 187.04,93.09 L 182.29,95.27 L 179.94,96.44 L 175.43,99.20 L 173.20,100.65 L 168.96,103.99 L 162.92,109.64 L 161.96,110.64 L 160.24,112.53 L 159.41,113.46 L 157.91,115.25 L 156.47,117.03 L 154.08,120.62 L 152.94,122.46 L 150.88,126.62 L 150.37,127.72 L 149.35,130.13 L 147.77,134.14 L 147.40,135.13 L 146.78,136.83 L 146.49,137.64 L 146.01,139.11 L 145.57,140.54 L 145.06,143.32 L 144.95,144.05 L 144.81,145.69 L 144.74,146.54 L 144.66,148.53 L 144.63,149.58 L 144.59,152.06 L 144.57,156.50 L 144.57,158.08 L 144.57,160.78 L 144.58,162.06 L 144.63,164.23 L 144.65,165.27 L 144.75,167.04 L 144.80,167.89 L 144.96,169.37 L 145.13,170.81 L 145.74,173.33 L 147.13,177.50 L 148.22,180.44 L 150.79,185.96 L 152.13,188.66 L 155.20,193.70 L 156.79,196.16 L 160.32,200.68 L 162.14,202.88 L 166.12,206.87 L 168.16,208.80 L 172.56,212.23 L 174.81,213.88 L 179.60,216.73 L 182.05,218.09 L 187.22,220.34 L 195.37,223.02 L 196.37,223.28 L 198.65,223.73 L 199.82,223.94 L 202.36,224.28 L 204.96,224.59 L 210.57,224.89 L 213.39,224.98 L 218.87,224.80 L 220.19,224.73 L 222.69,224.49 L 223.91,224.36 M 37.27,0.31 L 37.76,0.18 L 38.88,0.13 L 40.27,0.34 L 40.44,0.41 L 40.51,0.53 L 40.51,0.59 L 40.26,0.68 L 40.10,0.73 L 39.57,0.78 L 38.50,0.81 L 38.09,0.80 L 37.47,0.75 L 37.21,0.73 L 36.90,0.64 L 36.79,0.60 L 36.82,0.49 L 36.88,0.43 M 110.27,0.31 L 110.76,0.18 L 111.88,0.13 L 113.27,0.34 L 113.44,0.41 L 113.51,0.53 L 113.51,0.59 L 113.26,0.68 L 113.10,0.73 L 112.57,0.78 L 111.50,0.81 L 111.09,0.80 L 110.47,0.75 L 110.21,0.73 L 109.90,0.64 L 109.79,0.60 L 109.82,0.49 L 109.88,0.43 M 242.75,0.29 L 243.37,0.18 L 245.00,0.12 L 247.25,0.29 L 247.56,0.35 L 247.77,0.46 L 247.81,0.51 L 247.52,0.60 L 247.31,0.64 L 246.57,0.69 L 245.00,0.73 L 244.38,0.73 L 243.43,0.69 L 243.01,0.67 L 242.48,0.60 L 242.28,0.56 L 242.23,0.46 L 242.27,0.41 M 57.12,198.42 L 55.07,197.87 L 51.10,196.14 L 49.14,195.17 L 45.40,192.66 L 43.58,191.31 L 40.16,188.06 L 35.47,182.44 L 34.67,181.32 L 33.27,179.19 L 32.61,178.14 L 31.45,176.11 L 30.36,174.09 L 28.84,170.12 L 28.18,168.11 L 27.43,163.84 L 27.28,162.73 L 27.11,160.39 L 27.01,156.64 L 27.02,154.46 L 27.44,150.27 L 27.72,148.20 L 28.67,144.25 L 29.22,142.31 L 30.69,138.63 L 31.50,136.82 L 33.48,133.43 L 34.53,131.78 L 37.00,128.71 L 38.30,127.21 L 41.24,124.48 L 42.77,123.16 L 46.18,120.79 L 51.78,117.68 L 52.58,117.30 L 53.96,116.67 L 54.62,116.38 L 55.80,115.90 L 56.96,115.46 L 59.25,114.96 L 59.86,114.86 L 61.23,114.72 L 61.95,114.66 L 63.64,114.59 L 64.53,114.57 L 66.67,114.55 L 70.50,114.56 L 71.84,114.56 L 74.13,114.59 L 75.22,114.61 L 77.07,114.67 L 77.95,114.70 L 79.46,114.81 L 80.17,114.87 L 81.43,115.03 L 82.64,115.21 L 84.70,115.81 L 88.01,117.19 L 89.37,117.82 L 92.02,119.37 L 93.33,120.18 L 95.87,122.06 L 97.12,123.03 L 99.49,125.17 L 100.64,126.26 L 102.80,128.62 L 103.84,129.82 L 105.73,132.33 L 106.64,133.60 L 108.22,136.22 L 108.97,137.54 L 110.19,140.21 L 111.57,144.21 L 111.84,145.22 L 112.26,147.43 L 112.45,148.56 L 112.73,150.95 L 112.96,153.36 L 112.98,158.39 L 112.92,160.88 L 112.37,165.57 L 112.19,166.69 L 111.74,168.76 L 110.90,171.54 L 110.31,173.12 L 108.74,176.24 L 107.90,177.79 L 105.89,180.79 L 104.83,182.27 L 102.46,185.09 L 101.23,186.47 L 98.57,189.02 L 97.21,190.26 L 94.34,192.48 L 92.89,193.54 L 89.89,195.36 L 88.39,196.21 L 85.34,197.55 L 80.81,198.95 L 79.13,199.31 L 75.18,199.72 L 73.14,199.87 L 68.86,199.88 L 66.72,199.83 L 62.60,199.44 L 60.60,199.20 M 83.62,195.36 L 85.80,194.59 L 90.00,192.52 L 90.98,191.99 L 92.69,190.91 L 94.72,189.36 L 95.73,188.44 L 97.53,186.99 L 97.93,186.68 L 98.55,186.27 L 99.13,186.00 L 99.33,186.00 L 99.84,185.41 L 100.50,184.00 L 100.67,183.45 L 101.37,182.59 L 102.57,182.00 L 102.96,182.00 L 103.58,181.60 L 104.00,180.63 L 104.00,180.26 L 104.54,178.97 L 105.83,176.88 L 106.49,176.03 L 107.63,173.82 L 108.17,172.64 L 109.08,169.92 L 109.50,168.50 L 110.15,165.43 L 110.44,163.86 L 110.81,160.61 L 110.96,158.98 L 111.05,155.72 L 111.06,154.11 L 110.84,151.01 L 110.69,149.50 L 110.16,146.73 L 108.98,143.14 L 108.43,141.94 L 107.58,139.82 L 107.40,139.34 L 107.16,138.61 L 107.00,137.94 L 107.00,137.83 L 106.79,137.40 L 106.66,137.15 L 106.23,136.53 L 104.39,134.30 L 103.67,133.53 L 102.35,131.81 L 102.05,131.40 L 101.58,130.65 L 101.11,129.75 L 101.01,129.48 L 100.36,128.67 L 99.97,128.22 L 98.85,127.16 L 97.65,126.05 L 94.52,123.57 L 93.73,122.97 L 92.16,121.84 L 91.38,121.30 L 89.96,120.39 L 89.28,119.97 L 88.16,119.38 L 87.00,119.00 L 86.79,119.00 L 86.18,118.87 L 85.85,118.79 L 85.06,118.53 L 82.50,117.41 L 81.31,116.78 L 78.43,115.94 L 76.91,115.58 L 73.46,115.28 L 71.68,115.20 L 67.80,115.44 L 61.64,116.44 L 60.60,116.67 L 58.64,117.17 L 57.71,117.42 L 56.10,117.91 L 55.36,118.14 L 54.29,118.57 L 53.46,119.06 L 53.30,119.32 L 52.47,119.73 L 50.90,120.00 L 50.31,120.00 L 49.25,120.24 L 48.71,120.43 L 47.42,121.27 L 47.07,121.53 L 46.25,122.21 L 45.82,122.58 L 44.81,123.52 L 44.27,124.02 L 43.01,125.25 L 40.79,127.45 L 39.35,128.90 L 36.88,131.76 L 35.72,133.20 L 33.76,136.12 L 32.84,137.60 L 31.34,140.68 L 29.51,145.58 L 29.31,146.25 L 28.96,147.90 L 28.80,148.76 L 28.53,150.67 L 28.28,152.62 L 28.06,156.69 L 28.02,157.67 L 28.03,159.49 L 28.05,160.37 L 28.16,161.87 L 28.22,162.56 L 28.44,163.59 L 28.88,164.43 L 29.01,164.50 L 29.28,164.99 L 29.42,165.28 L 29.70,166.11 L 30.43,169.39 L 30.61,170.60 L 31.47,173.17 L 31.71,173.77 L 32.24,174.83 L 33.05,176.05 L 33.58,176.67 L 34.43,177.91 L 35.00,179.20 L 35.00,179.38 L 35.46,180.13 L 35.76,180.56 L 36.70,181.67 L 37.22,182.26 L 38.48,183.59 L 39.13,184.27 L 40.56,185.66 L 41.28,186.35 L 42.72,187.66 L 43.42,188.29 L 44.71,189.37 L 45.32,189.86 L 46.31,190.55 L 47.29,191.00 L 47.69,191.00 L 48.70,191.45 L 50.02,192.52 L 50.19,192.73 L 50.85,193.20 L 51.23,193.44 L 52.19,193.92 L 55.66,195.14 L 56.86,195.45 L 58.91,196.18 L 59.35,196.36 L 60.02,196.70 L 60.58,197.12 L 60.65,197.24 L 61.38,197.46 L 61.83,197.57 L 63.17,197.74 L 63.90,197.82 L 65.68,197.93 L 68.65,198.00 L 70.05,198.00 L 72.57,197.86 L 73.81,197.77 L 76.16,197.42 L 77.34,197.21 L 79.74,196.60 L 80.96,196.26 M 200.93,198.70 L 199.74,198.36 L 197.37,197.48 L 196.18,197.01 L 193.84,195.88 L 191.51,194.69 L 187.11,191.68 L 184.98,190.09 L 181.18,186.45 L 180.29,185.50 L 178.66,183.54 L 176.52,180.50 L 174.97,178.05 L 172.63,172.97 L 171.58,170.41 L 170.22,165.20 L 169.66,162.59 L 169.26,157.37 L 169.18,154.77 L 169.72,149.65 L 170.11,147.12 L 171.57,142.21 L 172.42,139.80 L 174.80,135.22 L 176.10,132.98 L 179.36,128.85 L 185.25,123.27 L 186.41,122.36 L 188.54,120.80 L 189.59,120.06 L 191.57,118.82 L 192.55,118.24 L 194.48,117.29 L 195.45,116.85 L 197.44,116.15 L 198.46,115.83 L 200.62,115.35 L 201.73,115.14 L 204.16,114.84 L 205.43,114.72 L 208.24,114.58 L 213.02,114.50 L 214.40,114.50 L 216.71,114.51 L 217.80,114.52 L 219.63,114.57 L 220.49,114.60 L 221.95,114.71 L 222.65,114.78 L 223.88,114.97 L 225.07,115.19 L 227.29,115.97 L 227.87,116.20 L 229.14,116.79 L 231.35,117.85 L 232.90,118.61 L 235.79,120.34 L 237.20,121.23 L 239.82,123.21 L 241.09,124.22 L 243.42,126.41 L 244.55,127.54 L 246.58,129.93 L 247.57,131.15 L 249.31,133.71 L 250.14,135.01 L 251.59,137.72 L 252.27,139.10 L 253.40,141.93 L 253.93,143.37 L 254.74,146.30 L 255.11,147.78 L 255.61,150.79 L 255.82,152.31 L 255.99,155.37 L 256.03,156.90 L 255.87,159.99 L 255.75,161.54 L 255.24,164.63 L 254.95,166.17 L 254.10,169.24 L 253.64,170.77 L 252.44,173.80 L 251.80,175.30 L 250.24,178.25 L 247.50,182.57 L 246.57,183.88 L 244.02,186.62 L 242.65,187.99 L 239.48,190.65 L 237.84,191.94 L 234.36,194.27 L 229.16,197.11 L 228.43,197.44 L 226.55,198.02 L 225.55,198.30 L 223.25,198.75 L 220.86,199.18 L 215.43,199.63 L 212.69,199.78 L 207.42,199.64 L 206.16,199.57 L 203.87,199.29 L 202.78,199.14 M 222.00,196.50 L 222.17,196.29 L 222.74,195.92 L 223.05,195.74 L 223.83,195.44 L 226.47,195.00 L 227.44,195.00 L 229.30,194.45 L 231.50,193.00 L 232.00,192.45 L 233.04,191.59 L 234.20,191.00 L 234.40,191.00 L 234.95,190.81 L 235.24,190.69 L 235.93,190.30 L 236.65,189.87 L 238.20,188.66 L 238.95,188.03 L 240.16,186.77 L 240.42,186.47 L 240.77,185.94 L 241.00,185.31 L 241.00,184.95 L 241.43,184.39 L 242.45,184.00 L 242.65,184.00 L 243.25,183.54 L 243.58,183.25 L 244.39,182.30 L 244.82,181.78 L 245.76,180.48 L 246.24,179.80 L 247.22,178.27 L 248.20,176.71 L 249.95,173.46 L 250.35,172.68 L 250.98,171.26 L 251.60,169.45 L 251.77,168.77 L 252.30,167.55 L 253.11,166.43 L 253.29,166.32 L 253.55,165.51 L 253.67,165.02 L 253.84,163.58 L 253.90,162.79 L 253.97,160.90 L 253.98,159.92 L 253.95,157.76 L 253.89,155.57 L 253.51,151.17 L 253.40,150.13 L 253.10,148.27 L 252.58,146.00 L 252.14,144.59 L 251.15,141.96 L 250.65,140.69 L 249.59,138.47 L 249.05,137.42 L 247.99,135.74 L 246.48,133.98 L 246.07,133.65 L 245.43,132.73 L 245.00,131.44 L 245.00,131.26 L 244.65,130.65 L 244.42,130.32 L 243.71,129.50 L 242.92,128.63 L 240.73,126.66 L 239.60,125.70 L 237.42,124.11 L 236.92,123.77 L 236.07,123.30 L 235.15,123.00 L 234.83,123.00 L 234.34,122.56 L 234.00,121.50 L 234.00,121.09 L 233.78,120.42 L 233.25,119.92 L 232.94,119.89 L 232.07,119.72 L 231.57,119.62 L 230.10,119.24 L 229.68,119.13 L 228.68,118.85 L 228.15,118.70 L 226.90,118.35 L 226.24,118.16 L 224.70,117.72 L 222.02,116.94 L 220.56,116.51 L 218.08,115.91 L 216.90,115.64 L 214.74,115.33 L 213.67,115.21 L 211.54,115.17 L 208.02,115.36 L 207.13,115.45 L 205.47,115.68 L 204.67,115.80 L 203.32,116.09 L 202.70,116.24 L 201.82,116.54 L 201.17,116.99 L 201.08,117.26 L 200.39,117.70 L 198.98,118.00 L 198.46,118.00 L 197.48,118.29 L 196.50,119.00 L 196.33,119.27 L 195.36,119.71 L 193.48,120.00 L 193.13,120.00 L 192.20,120.29 L 191.71,120.48 L 190.59,121.11 L 190.01,121.46 L 188.77,122.37 L 186.88,124.00 L 186.30,124.55 L 185.18,125.55 L 184.64,126.03 L 183.66,126.82 L 183.21,127.19 L 182.49,127.68 L 181.84,128.00 L 181.61,128.00 L 181.25,128.37 L 181.00,129.26 L 181.00,129.61 L 180.41,130.52 L 179.00,131.77 L 178.45,132.11 L 177.59,133.09 L 177.00,134.51 L 177.00,134.92 L 176.76,135.56 L 176.20,136.00 L 176.08,136.00 L 175.78,136.32 L 175.62,136.53 L 175.24,137.22 L 175.04,137.61 L 174.60,138.63 L 174.38,139.18 L 173.90,140.48 L 173.41,141.84 L 172.38,145.17 L 170.90,150.69 L 170.62,151.84 L 170.31,153.74 L 170.19,154.66 L 170.24,156.55 L 170.31,157.56 L 170.76,160.06 L 170.90,160.75 L 171.26,162.35 L 171.93,165.16 L 172.24,166.44 L 172.97,168.96 L 173.33,170.19 L 174.10,172.43 L 174.48,173.49 L 175.19,175.19 L 176.10,176.86 L 176.63,177.52 L 177.44,178.80 L 177.62,179.10 L 177.85,179.59 L 178.00,180.10 L 178.00,180.21 L 178.37,180.78 L 178.60,181.12 L 179.34,182.03 L 180.15,183.00 L 182.36,185.39 L 183.48,186.57 L 185.54,188.58 L 186.00,189.01 L 186.72,189.61 L 187.37,190.00 L 187.44,190.00 L 187.87,190.20 L 188.12,190.32 L 188.83,190.73 L 191.60,192.50 L 192.61,193.19 L 194.96,194.27 L 195.53,194.50 L 196.59,194.82 L 197.89,195.03 L 198.61,195.04 L 200.30,195.49 L 202.44,196.53 L 202.79,196.79 L 204.00,197.21 L 204.68,197.41 L 206.41,197.70 L 207.33,197.83 L 209.38,197.99 L 210.43,198.05 L 212.60,198.08 L 213.68,198.08 L 215.78,197.98 L 216.79,197.91 L 218.60,197.68 L 219.45,197.55 L 220.77,197.19 L 221.36,196.99 Z" fill="rgba(241,245,219,1)"/>
</g>
</svg>