<svg xmlns="http://www.w3.org/2000/svg" width="240" height="240" viewBox="0 0 240 240">
<g>
<path d="M 141.74,0.04 L 145.44,0.28 L 150.24,0.98 L 150.82,1.11 L 152.64,1.52 L 153.63,1.74 L 156.04,2.27 L 164.00,4.01 L 165.97,4.43 L 169.99,5.56 L 172.01,6.16 L 176.06,7.63 L 178.09,8.39 L 182.12,10.16 L 184.13,11.07 L 188.07,13.11 L 190.03,14.16 L 193.83,16.43 L 195.71,17.59 L 199.31,20.07 L 201.08,21.33 L 204.41,23.99 L 209.05,28.13 L 211.24,30.24 L 215.27,34.68 L 217.23,36.94 L 220.81,41.63 L 222.54,44.01 L 225.66,48.93 L 227.16,51.41 L 229.82,56.52 L 231.09,59.10 L 233.28,64.37 L 234.32,67.03 L 236.04,72.44 L 236.84,75.16 L 238.10,80.67 L 238.66,83.44 L 239.44,89.03 L 239.76,91.83 L 240.06,97.47 L 240.15,100.29 L 239.96,105.94 L 239.81,108.76 L 239.14,114.40 L 238.74,117.21 L 237.58,122.81 L 236.93,125.60 L 235.28,131.11 L 234.39,133.86 L 232.23,139.28 L 231.10,141.97 L 228.44,147.26 L 223.90,155.00 L 222.67,156.90 L 219.79,160.78 L 219.00,161.79 L 217.20,163.97 L 216.25,165.09 L 214.06,167.57 L 212.90,168.86 L 210.22,171.75 L 208.81,173.26 L 205.55,176.66 L 203.84,178.44 L 199.90,182.47 L 198.87,183.53 L 196.66,185.77 L 193.13,189.34 L 189.74,192.76 L 182.95,199.45 L 181.28,201.09 L 178.04,204.22 L 176.45,205.76 L 173.43,208.63 L 171.96,210.02 L 169.26,212.55 L 167.95,213.76 L 165.65,215.85 L 164.55,216.83 L 162.74,218.41 L 160.66,220.11 L 158.31,221.89 L 152.90,225.34 L 150.11,227.03 L 144.16,230.14 L 141.17,231.63 L 135.14,234.17 L 126.50,237.09 L 125.21,237.45 L 121.98,238.06 L 120.28,238.35 L 116.42,238.82 L 114.44,239.04 L 110.18,239.37 L 108.03,239.52 L 103.61,239.69 L 101.41,239.76 L 97.07,239.78 L 94.93,239.77 L 90.90,239.62 L 88.94,239.52 L 85.46,239.20 L 83.81,239.01 L 81.11,238.51 L 77.48,237.69 L 70.26,235.44 L 66.68,234.23 L 59.71,231.25 L 56.28,229.68 L 49.79,226.08 L 40.80,220.07 L 39.90,219.39 L 37.95,217.78 L 36.96,216.94 L 34.88,215.07 L 32.78,213.15 L 28.51,208.86 L 26.41,206.69 L 22.60,202.40 L 21.71,201.35 L 20.12,199.37 L 18.10,196.64 L 17.41,195.64 L 15.99,193.34 L 15.28,192.15 L 13.86,189.55 L 12.43,186.89 L 9.74,181.06 L 8.45,178.13 L 6.27,172.33 L 5.77,170.92 L 4.92,168.23 L 3.93,164.50 L 3.36,162.03 L 2.20,157.24 L 1.93,156.15 L 1.46,154.33 L 0.94,152.43 L 0.79,151.93 L 0.54,150.38 L 0.43,149.53 L 0.26,147.43 L 0.18,146.32 L 0.08,143.87 L 0.05,142.61 L 0.03,140.00 L 0.03,138.69 L 0.08,136.13 L 0.12,134.88 L 0.26,132.57 L 0.33,131.47 L 0.54,129.62 L 0.94,127.57 L 1.07,127.15 L 1.47,125.67 L 1.69,124.84 L 2.22,122.76 L 3.97,115.50 L 4.29,114.15 L 5.13,111.25 L 5.59,109.78 L 6.69,106.69 L 7.85,103.57 L 10.75,97.13 L 12.27,93.94 L 15.64,87.88 L 16.49,86.43 L 18.24,83.71 L 20.86,80.00 L 21.20,79.55 L 22.40,78.15 L 23.08,77.38 L 24.90,75.39 L 25.88,74.32 L 28.23,71.83 L 29.46,70.53 L 32.25,67.62 L 33.69,66.13 L 36.83,62.90 L 38.44,61.26 L 41.84,57.80 L 52.66,47.00 L 54.04,45.63 L 56.63,43.08 L 57.90,41.84 L 60.26,39.53 L 61.41,38.40 L 63.55,36.32 L 64.60,35.30 L 66.54,33.42 L 68.44,31.60 L 71.71,28.51 L 73.27,27.05 L 75.97,24.61 L 77.25,23.46 L 79.50,21.54 L 80.58,20.64 L 82.51,19.14 L 83.45,18.43 L 85.20,17.22 L 87.75,15.61 L 90.29,14.11 L 95.84,11.32 L 98.66,9.97 L 104.44,7.61 L 107.32,6.50 L 112.88,4.75 L 114.24,4.36 L 116.84,3.72 L 120.50,3.00 L 122.42,2.70 L 126.35,1.94 L 127.26,1.75 L 128.83,1.40 L 130.57,0.95 L 131.07,0.79 L 132.34,0.54 L 133.01,0.43 L 134.56,0.26 L 136.17,0.11 L 139.87,0.04 M 107.44,96.00 L 101.62,96.04 L 98.30,96.10 L 96.92,96.15 L 94.36,96.26 L 93.36,96.34 L 91.56,96.50 L 90.95,96.60 L 89.91,96.81 L 89.69,96.93 L 89.42,97.18 L 89.58,97.33 L 90.10,97.63 L 90.65,97.80 L 91.96,98.14 L 92.90,98.33 L 95.85,98.92 L 90.33,113.21 L 85.69,125.30 L 84.28,128.99 L 83.70,130.52 L 83.14,132.00 L 82.90,132.63 L 82.45,133.82 L 82.28,134.29 L 81.25,136.89 L 80.62,138.37 L 80.35,138.94 L 79.84,139.96 L 79.65,140.25 L 79.33,140.67 L 79.27,140.60 L 79.01,140.09 L 78.67,139.36 L 78.43,138.82 L 77.90,137.62 L 77.58,136.86 L 76.89,135.24 L 76.49,134.30 L 75.65,132.33 L 75.19,131.24 L 74.24,128.97 L 73.73,127.74 L 71.60,122.61 L 70.46,119.82 L 68.02,113.85 L 66.68,110.52 L 66.14,109.15 L 65.15,106.58 L 64.77,105.54 L 64.09,103.64 L 63.85,102.90 L 63.45,101.55 L 63.35,101.06 L 63.19,100.17 L 63.20,99.87 L 63.27,99.34 L 63.37,99.18 L 63.62,98.91 L 63.81,98.83 L 65.65,98.10 L 66.62,97.69 L 66.96,97.53 L 67.57,97.23 L 67.73,97.11 L 67.97,96.89 L 67.95,96.81 L 67.83,96.65 L 67.62,96.59 L 67.12,96.49 L 66.73,96.44 L 65.86,96.36 L 65.28,96.33 L 64.02,96.25 L 63.25,96.22 L 56.23,96.05 L 54.07,96.07 L 53.09,96.11 L 51.19,96.18 L 50.37,96.23 L 48.82,96.36 L 48.21,96.43 L 47.11,96.59 L 46.76,96.69 L 46.19,96.88 L 46.14,96.99 L 46.20,97.22 L 46.50,97.34 L 48.35,98.14 L 49.59,98.71 L 50.00,98.92 L 50.49,99.53 L 50.99,100.35 L 51.31,100.95 L 52.01,102.28 L 52.42,103.11 L 53.28,104.88 L 53.77,105.91 L 54.77,108.05 L 55.32,109.25 L 56.43,111.71 L 57.02,113.04 L 59.45,118.59 L 60.72,121.60 L 64.46,130.44 L 65.65,133.23 L 66.21,134.55 L 67.31,137.13 L 67.82,138.32 L 68.81,140.61 L 69.25,141.62 L 70.09,143.56 L 70.45,144.37 L 71.11,145.88 L 71.36,146.45 L 71.82,147.46 L 71.96,147.75 L 72.69,149.23 L 73.04,149.78 L 73.71,150.76 L 74.05,151.09 L 74.74,151.64 L 75.11,151.79 L 75.89,152.00 L 76.34,152.00 L 77.12,151.86 L 77.63,151.56 L 77.91,151.27 L 78.48,150.56 L 78.82,150.00 L 79.53,148.73 L 79.96,147.82 L 80.88,145.82 L 81.45,144.49 L 82.04,143.10 L 82.36,142.32 L 83.03,140.69 L 83.40,139.77 L 84.16,137.88 L 84.58,136.82 L 85.45,134.64 L 85.92,133.44 L 86.90,130.95 L 87.43,129.59 L 88.52,126.78 L 89.12,125.25 L 99.54,98.50 L 107.27,98.21 L 115.00,97.92 L 115.00,122.85 L 115.00,127.56 L 115.00,130.39 L 114.99,131.66 L 114.99,134.11 L 114.98,135.20 L 114.95,137.30 L 114.94,138.23 L 114.90,140.00 L 114.87,140.78 L 114.81,142.25 L 114.76,142.89 L 114.56,145.16 L 114.41,145.96 L 114.06,147.35 L 113.81,147.78 L 113.27,148.50 L 112.91,148.68 L 112.12,148.94 L 111.63,148.97 L 110.57,149.00 L 109.92,149.00 L 108.56,149.29 L 108.00,149.72 L 108.00,150.00 L 108.22,150.22 L 108.59,150.35 L 108.88,150.41 L 110.29,150.64 L 111.38,150.73 L 113.78,150.88 L 115.31,150.93 L 118.58,151.00 L 120.50,151.00 L 124.66,150.95 L 127.04,150.87 L 128.03,150.81 L 129.86,150.67 L 130.56,150.58 L 131.82,150.40 L 132.23,150.29 L 132.89,150.06 L 132.99,149.93 L 133.04,149.66 L 132.82,149.51 L 132.22,149.21 L 131.67,149.06 L 130.39,148.73 L 129.50,148.57 L 126.00,147.91 L 126.00,96.00 M 140.00,96.00 L 140.02,116.75 L 140.04,122.84 L 140.07,126.27 L 140.10,127.72 L 140.16,130.44 L 140.20,131.57 L 140.30,133.69 L 140.36,134.57 L 140.51,136.21 L 140.60,136.89 L 140.80,138.16 L 140.92,138.70 L 141.48,140.63 L 141.88,141.50 L 143.66,144.73 L 144.98,146.48 L 145.76,147.20 L 147.39,148.53 L 148.37,149.08 L 150.44,150.11 L 151.68,150.55 L 155.32,151.58 L 157.19,151.71 L 160.94,151.75 L 162.81,151.40 L 166.54,150.46 L 168.36,149.64 L 171.93,147.76 L 173.61,146.48 L 176.06,144.73 L 176.69,144.32 L 176.92,144.20 L 177.30,144.00 L 177.37,144.00 L 177.59,144.26 L 177.74,144.66 L 177.82,144.95 L 178.10,146.36 L 178.19,147.25 L 178.46,149.10 L 178.81,149.88 L 179.16,150.10 L 180.03,150.47 L 180.76,150.57 L 181.56,150.66 L 182.05,150.69 L 183.11,150.77 L 183.75,150.80 L 189.00,151.10 L 189.00,96.00 L 178.00,96.00 L 178.00,132.59 L 174.25,136.18 L 171.90,138.26 L 170.39,139.42 L 169.66,139.88 L 168.21,140.74 L 167.50,141.05 L 166.10,141.61 L 165.40,141.79 L 164.01,142.05 L 163.31,142.08 L 161.92,142.06 L 161.22,141.95 L 159.80,141.65 L 159.08,141.40 L 157.62,140.82 L 156.87,140.43 L 155.16,139.37 L 154.21,138.55 L 153.81,138.04 L 153.08,136.94 L 152.79,136.25 L 152.24,134.75 L 152.03,133.82 L 151.66,131.81 L 151.52,130.56 L 151.28,127.91 L 151.20,126.30 L 151.08,122.89 L 151.04,120.85 L 151.00,116.55 L 151.00,96.00 M 0.54,133.01 L 0.50,133.31 L 0.48,133.57 L 0.45,134.16 L 0.44,134.57 L 0.42,135.45 L 0.41,135.99 L 0.38,138.42 L 0.38,140.00 L 0.39,142.93 L 0.41,144.01 L 0.43,145.03 L 0.44,145.43 L 0.47,146.17 L 0.48,146.43 L 0.52,146.88 L 0.54,146.99 L 0.58,147.13 L 0.60,147.08 L 0.64,146.89 L 0.67,146.67 L 0.71,146.15 L 0.74,145.75 L 0.85,143.06 L 0.89,141.04 L 0.89,140.00 L 0.88,137.92 L 0.85,136.94 L 0.79,135.04 L 0.74,134.25 L 0.67,133.33 L 0.62,132.98 L 0.60,132.92 L 0.56,132.90 M 121.07,72.00 L 118.97,72.29 L 117.74,72.74 L 117.23,73.07 L 116.28,73.80 L 115.91,74.25 L 115.25,75.18 L 115.04,75.71 L 114.71,76.78 L 114.67,77.34 L 114.69,78.47 L 114.84,79.03 L 115.24,80.16 L 115.60,80.69 L 116.41,81.73 L 116.99,82.19 L 118.40,83.21 L 119.06,83.50 L 120.37,83.92 L 120.98,83.91 L 122.19,83.73 L 122.77,83.42 L 123.92,82.65 L 124.47,82.03 L 125.56,80.46 L 126.04,79.35 L 126.16,78.78 L 126.32,77.65 L 126.29,77.11 L 126.15,76.02 L 125.98,75.52 L 125.58,74.55 L 125.28,74.12 L 124.62,73.32 L 124.20,73.01 L 123.31,72.44 L 122.79,72.27 L 121.69,72.00 M 136.92,0.16 L 135.75,0.27 L 134.85,0.37 L 134.77,0.42 L 134.86,0.50 L 135.25,0.54 L 136.23,0.60 L 137.03,0.62 L 138.83,0.65 L 140.00,0.65 L 142.97,0.62 L 144.37,0.57 L 144.75,0.54 L 145.31,0.46 L 145.23,0.42 L 144.83,0.32 L 144.25,0.27 L 140.00,0.11 Z" fill="rgba(230,80,20,1)"/>
<path d="M 0.74,134.25 L 0.79,135.04 L 0.85,136.94 L 0.88,137.92 L 0.89,140.00 L 0.89,141.04 L 0.85,143.06 L 0.74,145.75 L 0.71,146.15 L 0.70,146.29 L 0.69,146.25 L 0.51,145.85 L 0.46,145.87 L 0.44,145.43 L 0.43,145.03 L 0.41,144.01 L 0.39,142.93 L 0.38,140.00 L 0.38,138.42 L 0.41,135.99 L 0.42,135.45 L 0.44,134.57 L 0.45,134.17 L 0.46,134.18 L 0.51,134.15 L 0.63,133.99 L 0.69,133.75 L 0.70,133.69 Z" fill="rgba(237,152,118,1)"/>
<path d="M 0.69,146.25 L 0.82,146.73 L 0.88,148.00 L 0.77,149.02 L 0.68,148.81 L 0.28,148.38 L 0.24,148.48 L 0.23,148.00 L 0.23,147.52 L 0.27,146.78 L 0.29,146.45 L 0.37,146.04 L 0.41,145.88 L 0.51,145.85 M 0.88,132.00 L 0.69,133.75 L 0.63,133.99 L 0.51,134.15 L 0.46,134.18 L 0.37,133.96 L 0.32,133.80 L 0.27,133.22 L 0.24,132.89 L 0.23,132.00 L 0.23,131.63 L 0.44,131.90 L 0.60,131.73 L 0.83,131.05 Z" fill="rgba(240,169,141,1)"/>
<path d="M 0.68,148.81 L 0.83,149.17 L 0.88,149.92 L 0.60,150.73 L 0.44,150.90 L 0.20,150.59 L 0.11,150.35 L 0.08,149.42 L 0.10,148.83 L 0.28,148.38 M 0.68,129.81 L 0.83,130.17 L 0.88,130.92 L 0.60,131.73 L 0.44,131.90 L 0.20,131.59 L 0.11,131.35 L 0.08,130.42 L 0.10,129.83 L 0.28,129.38 M 144.25,0.27 L 144.83,0.32 L 145.23,0.42 L 145.31,0.46 L 144.75,0.54 L 144.37,0.57 L 142.97,0.62 L 140.00,0.65 L 138.83,0.65 L 137.03,0.62 L 136.23,0.60 L 135.25,0.54 L 134.86,0.50 L 134.77,0.42 L 134.85,0.37 L 135.75,0.27 L 136.92,0.16 L 140.00,0.11 Z" fill="rgba(241,205,191,1)"/>
<path d="M 71.96,147.75 L 71.82,147.46 L 71.36,146.45 L 71.11,145.88 L 70.45,144.37 L 70.09,143.56 L 69.25,141.62 L 68.81,140.61 L 67.82,138.32 L 67.31,137.13 L 66.21,134.55 L 65.65,133.23 L 64.46,130.44 L 60.72,121.60 L 59.45,118.59 L 57.02,113.04 L 56.43,111.71 L 55.32,109.25 L 54.77,108.05 L 53.77,105.91 L 53.28,104.88 L 52.42,103.11 L 52.01,102.28 L 51.31,100.95 L 50.99,100.35 L 50.49,99.53 L 50.00,98.92 L 49.59,98.71 L 48.35,98.14 L 46.50,97.34 L 46.20,97.22 L 46.14,96.99 L 46.19,96.88 L 46.76,96.69 L 47.11,96.59 L 48.21,96.43 L 48.82,96.36 L 50.37,96.23 L 51.19,96.18 L 53.09,96.11 L 54.07,96.07 L 56.23,96.05 L 63.25,96.22 L 64.02,96.25 L 65.28,96.33 L 65.86,96.36 L 66.73,96.44 L 67.12,96.49 L 67.62,96.59 L 67.83,96.65 L 67.95,96.81 L 67.97,96.89 L 67.73,97.11 L 67.57,97.23 L 66.96,97.53 L 66.62,97.69 L 65.65,98.10 L 63.81,98.83 L 63.62,98.91 L 63.37,99.18 L 63.27,99.34 L 63.20,99.87 L 63.19,100.17 L 63.35,101.06 L 63.45,101.55 L 63.85,102.90 L 64.09,103.64 L 64.77,105.54 L 65.15,106.58 L 66.14,109.15 L 66.68,110.52 L 68.02,113.85 L 70.46,119.82 L 71.60,122.61 L 73.73,127.74 L 74.24,128.97 L 75.19,131.24 L 75.65,132.33 L 76.49,134.30 L 76.89,135.24 L 77.58,136.86 L 77.90,137.62 L 78.43,138.82 L 78.67,139.36 L 79.01,140.09 L 79.27,140.60 L 79.33,140.67 L 79.65,140.25 L 79.84,139.96 L 80.35,138.94 L 80.62,138.37 L 81.25,136.89 L 82.28,134.29 L 82.45,133.82 L 82.90,132.63 L 83.14,132.00 L 83.70,130.52 L 84.28,128.99 L 85.69,125.30 L 90.33,113.21 L 95.85,98.92 L 92.90,98.33 L 91.96,98.14 L 90.65,97.80 L 90.10,97.63 L 89.58,97.33 L 89.42,97.18 L 89.69,96.93 L 89.91,96.81 L 90.95,96.60 L 91.56,96.50 L 93.36,96.34 L 94.36,96.26 L 96.92,96.15 L 98.30,96.10 L 101.62,96.04 L 107.44,96.00 L 126.00,96.00 L 126.00,121.95 L 126.00,147.91 L 129.50,148.57 L 130.39,148.73 L 131.67,149.06 L 132.22,149.21 L 132.82,149.51 L 133.04,149.66 L 132.99,149.93 L 132.89,150.06 L 132.23,150.29 L 131.82,150.40 L 130.56,150.58 L 129.86,150.67 L 128.03,150.81 L 127.04,150.87 L 124.66,150.95 L 120.50,151.00 L 118.58,151.00 L 115.31,150.93 L 113.78,150.88 L 111.38,150.73 L 110.29,150.64 L 108.88,150.42 L 108.59,150.35 L 108.22,150.22 L 108.00,150.00 L 108.00,149.72 L 108.56,149.29 L 109.92,149.00 L 110.57,149.00 L 111.63,148.97 L 112.12,148.94 L 112.91,148.68 L 113.27,148.50 L 113.81,147.78 L 114.06,147.35 L 114.41,145.96 L 114.56,145.16 L 114.76,142.89 L 114.81,142.25 L 114.87,140.78 L 114.90,140.00 L 114.94,138.23 L 114.95,137.30 L 114.98,135.20 L 114.99,134.11 L 114.99,131.66 L 115.00,130.39 L 115.00,127.56 L 115.00,122.85 L 115.00,97.92 L 107.27,98.21 L 99.54,98.50 L 89.12,125.25 L 88.52,126.78 L 87.43,129.59 L 86.90,130.95 L 85.92,133.44 L 85.45,134.64 L 84.58,136.82 L 84.16,137.88 L 83.40,139.77 L 83.03,140.69 L 82.36,142.32 L 82.04,143.10 L 81.45,144.49 L 80.88,145.82 L 79.96,147.82 L 79.53,148.73 L 78.82,150.00 L 78.48,150.56 L 77.91,151.27 L 77.63,151.56 L 77.12,151.86 L 76.34,152.00 L 75.89,152.00 L 75.11,151.79 L 74.74,151.64 L 74.05,151.09 L 73.71,150.76 L 73.04,149.78 L 72.69,149.23 M 151.68,150.55 L 150.44,150.11 L 148.37,149.08 L 147.39,148.53 L 145.76,147.20 L 144.98,146.48 L 143.66,144.73 L 141.88,141.50 L 141.48,140.63 L 140.92,138.70 L 140.80,138.16 L 140.60,136.89 L 140.51,136.21 L 140.36,134.57 L 140.30,133.69 L 140.20,131.57 L 140.16,130.44 L 140.10,127.72 L 140.07,126.27 L 140.04,122.84 L 140.02,116.75 L 140.00,96.00 L 145.50,96.00 L 151.00,96.00 L 151.00,114.03 L 151.00,116.55 L 151.04,120.85 L 151.08,122.89 L 151.20,126.30 L 151.28,127.91 L 151.52,130.56 L 151.66,131.81 L 152.03,133.82 L 152.24,134.75 L 152.79,136.25 L 153.08,136.94 L 153.81,138.04 L 154.21,138.55 L 155.16,139.37 L 156.87,140.43 L 157.62,140.82 L 159.08,141.40 L 159.80,141.65 L 161.22,141.95 L 161.92,142.06 L 163.31,142.08 L 164.01,142.05 L 165.40,141.79 L 166.10,141.61 L 167.50,141.05 L 168.21,140.74 L 169.66,139.88 L 170.39,139.42 L 171.90,138.26 L 174.25,136.18 L 178.00,132.59 L 178.00,114.30 L 178.00,96.00 L 183.50,96.00 L 189.00,96.00 L 189.00,123.55 L 189.00,151.10 L 183.75,150.80 L 183.11,150.77 L 182.05,150.69 L 181.56,150.66 L 180.76,150.57 L 180.03,150.47 L 179.16,150.10 L 178.81,149.88 L 178.46,149.10 L 178.19,147.25 L 178.10,146.36 L 177.82,144.95 L 177.74,144.66 L 177.59,144.26 L 177.37,144.00 L 177.30,144.00 L 176.92,144.20 L 176.69,144.32 L 176.06,144.73 L 173.61,146.48 L 171.93,147.76 L 168.36,149.64 L 166.54,150.46 L 162.81,151.40 L 160.94,151.75 L 157.19,151.71 L 155.32,151.58 M 116.99,82.19 L 116.41,81.73 L 115.60,80.69 L 115.24,80.16 L 114.84,79.03 L 114.69,78.47 L 114.67,77.34 L 114.71,76.78 L 115.04,75.71 L 115.25,75.18 L 115.91,74.25 L 116.28,73.80 L 117.23,73.07 L 117.74,72.74 L 118.97,72.29 L 121.07,72.00 L 121.69,72.00 L 122.79,72.27 L 123.31,72.44 L 124.20,73.01 L 124.62,73.32 L 125.28,74.12 L 125.58,74.55 L 125.98,75.52 L 126.15,76.02 L 126.29,77.11 L 126.32,77.65 L 126.16,78.78 L 126.04,79.35 L 125.56,80.46 L 124.47,82.03 L 123.92,82.65 L 122.77,83.42 L 122.19,83.73 L 120.98,83.91 L 120.37,83.92 L 119.06,83.50 L 118.40,83.21 Z" fill="rgba(254,252,251,1)"/>
</g>
</svg>