<?xml version="1.0" encoding="UTF-8" standalone="no"?>
<!DOCTYPE svg PUBLIC "-//W3C//DTD SVG 1.1//EN" "http://www.w3.org/Graphics/SVG/1.1/DTD/svg11.dtd">
<svg xmlns="http://www.w3.org/2000/svg" version="1.1" viewBox="0.00 0.00 804.00 582.00">
<g stroke-width="2.00" fill="none" stroke-linecap="butt">
<path stroke="#80a6cc" vector-effect="non-scaling-stroke" d="
  M 426.96 100.01
  Q 425.97 101.81 425.07 104.13
  C 422.09 111.79 416.51 117.88 409.22 120.99
  Q 398.86 125.43 389.37 122.41
  Q 373.21 117.26 368.94 100.34"
/>
<path stroke="#537eb7" vector-effect="non-scaling-stroke" d="
  M 505.36 108.38
  L 499.85 111.44
  Q 499.53 111.62 499.87 111.48
  Q 502.41 110.47 502.50 110.85"
/>
<path stroke="#537eb7" vector-effect="non-scaling-stroke" d="
  M 219.28 469.08
  Q 239.54 458.05 250.13 438.95
  Q 257.14 426.31 259.24 412.00
  Q 260.84 401.10 261.49 390.09
  Q 261.55 389.21 261.38 388.39
  C 261.11 387.00 261.75 385.64 261.75 384.20
  Q 261.75 306.36 261.75 227.53
  Q 261.75 227.00 261.22 227.00
  L 238.75 227.00
  Q 238.25 227.00 238.25 227.50
  L 238.25 257.50
  Q 238.25 258.42 237.66 257.72
  Q 229.75 248.52 221.18 241.58
  Q 197.82 222.63 166.70 222.47
  Q 153.36 222.40 141.57 225.75
  C 102.60 236.82 74.21 270.82 72.33 311.72
  Q 72.00 319.01 72.65 326.13
  Q 74.56 346.87 84.99 364.43
  C 95.98 382.94 113.54 396.43 133.88 403.64
  Q 150.62 409.58 169.57 408.94
  Q 193.75 408.14 214.98 395.31
  Q 227.57 387.71 237.30 375.92
  Q 238.22 374.81 238.25 376.24
  Q 238.50 388.11 237.50 400.76
  C 236.46 413.87 233.67 426.51 225.11 435.92
  Q 210.56 451.91 188.08 456.35
  Q 169.80 459.97 150.71 457.14
  C 132.05 454.37 116.48 446.12 105.28 430.72
  Q 102.79 427.30 100.51 423.68
  Q 100.08 423.00 99.27 423.00
  L 74.79 423.01
  A 0.16 0.16 0.0 0 0 74.64 423.24
  Q 79.23 433.68 85.57 443.19
  Q 96.56 459.66 115.12 468.93"
/>
<path stroke="#80a6cc" vector-effect="non-scaling-stroke" d="
  M 586.92 100.04
  Q 592.90 102.59 598.82 105.13
  C 613.23 111.32 626.19 119.36 638.62 129.41
  Q 644.76 134.37 650.83 139.69
  A 0.46 0.45 43.7 0 1 650.85 140.36
  L 616.36 174.71
  A 0.58 0.57 43.9 0 1 615.56 174.72
  C 602.62 162.70 587.63 152.10 570.85 147.29
  C 555.14 142.79 538.31 144.39 525.77 155.41
  C 507.69 171.29 514.07 192.34 531.69 205.16
  C 549.15 217.87 569.48 225.51 588.49 235.46
  Q 598.02 240.45 604.92 244.84
  Q 615.69 251.70 621.03 256.18
  Q 654.07 283.93 650.81 325.97
  C 649.48 343.14 643.34 358.98 632.48 372.38
  C 613.05 396.36 586.09 408.35 555.56 409.43
  Q 518.89 410.73 487.35 393.45
  C 473.78 386.01 461.97 375.99 452.33 363.86
  A 0.50 0.49 47.0 0 1 452.35 363.22
  Q 468.67 345.35 485.00 327.53
  Q 485.15 327.37 485.25 327.18
  Q 485.36 326.99 485.40 326.79
  A 0.26 0.26 0.0 0 1 485.84 326.67
  Q 490.89 331.96 496.00 336.76
  C 515.09 354.67 540.48 365.71 566.63 358.00
  C 580.82 353.82 596.73 341.23 598.93 325.46
  C 601.30 308.45 592.46 296.39 578.64 287.86
  Q 567.01 280.69 556.24 275.59
  C 538.31 267.10 520.95 259.43 504.51 248.23
  Q 495.11 241.82 488.92 235.77
  Q 466.48 213.82 465.14 182.19
  Q 464.70 171.80 466.74 161.88
  Q 472.02 136.18 492.71 118.46
  Q 497.42 114.43 502.50 110.85"
/>
<path stroke="#d2d7ea" vector-effect="non-scaling-stroke" d="
  M 502.50 110.85
  Q 504.76 109.67 505.36 108.38"
/>
<path stroke="#80a6cc" vector-effect="non-scaling-stroke" d="
  M 505.36 108.38
  C 511.54 104.75 518.07 102.39 524.91 100.15"
/>
<path stroke="#80a6cc" vector-effect="non-scaling-stroke" d="
  M 317.9622 205.9592
  A 31.20 30.17 90.4 0 0 348.3493 174.9706
  A 31.20 30.17 90.4 0 0 318.3978 143.5608
  A 31.20 30.17 90.4 0 0 288.0107 174.5494
  A 31.20 30.17 90.4 0 0 317.9622 205.9592"
/>
<path stroke="#80a6cc" vector-effect="non-scaling-stroke" d="
  M 420.75 144.02
  A 0.26 0.26 0.0 0 0 420.49 143.76
  L 374.79 143.76
  A 0.26 0.26 0.0 0 0 374.53 144.02
  L 374.53 408.74
  A 0.26 0.26 0.0 0 0 374.79 409.00
  L 420.49 409.00
  A 0.26 0.26 0.0 0 0 420.75 408.74
  L 420.75 144.02"
/>
<path stroke="#537eb7" vector-effect="non-scaling-stroke" d="
  M 329.75 227.45
  A 0.45 0.45 0.0 0 0 329.30 227.00
  L 306.70 227.00
  A 0.45 0.45 0.0 0 0 306.25 227.45
  L 306.25 409.01
  A 0.45 0.45 0.0 0 0 306.70 409.46
  L 329.30 409.46
  A 0.45 0.45 0.0 0 0 329.75 409.01
  L 329.75 227.45"
/>
<path stroke="#537eb7" vector-effect="non-scaling-stroke" d="
  M 173.62 386.29
  Q 173.77 386.32 173.91 386.39
  Q 174.35 386.63 174.84 386.58
  Q 187.86 385.42 197.43 381.66
  C 221.12 372.38 235.87 352.37 238.75 327.18
  C 242.12 297.62 231.60 270.38 205.59 255.06
  C 185.34 243.14 160.47 242.18 139.44 251.43
  C 115.83 261.81 100.85 282.18 96.89 307.54
  C 96.08 312.73 96.15 318.38 96.43 323.49
  Q 97.65 345.79 111.92 362.51
  Q 129.11 382.65 156.49 385.98
  Q 158.37 386.20 160.19 386.52
  Q 160.65 386.60 161.07 386.41
  Q 161.55 386.19 162.02 386.44
  Q 162.42 386.66 162.88 386.66
  Q 167.37 386.70 172.09 386.67
  C 172.55 386.67 172.91 386.45 173.34 386.31
  Q 173.48 386.27 173.62 386.29"
/>
</g>
<path fill="#ffffff" d="
  M 426.96 100.01
  Q 425.97 101.81 425.07 104.13
  C 422.09 111.79 416.51 117.88 409.22 120.99
  Q 398.86 125.43 389.37 122.41
  Q 373.21 117.26 368.94 100.34
  Q 368.36 83.81 379.52 74.81
  Q 389.59 66.68 401.40 68.42
  C 417.53 70.80 427.43 83.48 426.96 100.01
  Z"
/>
<path fill="#ffffff" d="
  M 586.92 100.04
  Q 592.90 102.59 598.82 105.13
  C 613.23 111.32 626.19 119.36 638.62 129.41
  Q 644.76 134.37 650.83 139.69
  A 0.46 0.45 43.7 0 1 650.85 140.36
  L 616.36 174.71
  A 0.58 0.57 43.9 0 1 615.56 174.72
  C 602.62 162.70 587.63 152.10 570.85 147.29
  C 555.14 142.79 538.31 144.39 525.77 155.41
  C 507.69 171.29 514.07 192.34 531.69 205.16
  C 549.15 217.87 569.48 225.51 588.49 235.46
  Q 598.02 240.45 604.92 244.84
  Q 615.69 251.70 621.03 256.18
  Q 654.07 283.93 650.81 325.97
  C 649.48 343.14 643.34 358.98 632.48 372.38
  C 613.05 396.36 586.09 408.35 555.56 409.43
  Q 518.89 410.73 487.35 393.45
  C 473.78 386.01 461.97 375.99 452.33 363.86
  A 0.50 0.49 47.0 0 1 452.35 363.22
  Q 468.67 345.35 485.00 327.53
  Q 485.15 327.37 485.25 327.18
  Q 485.36 326.99 485.40 326.79
  A 0.26 0.26 0.0 0 1 485.84 326.67
  Q 490.89 331.96 496.00 336.76
  C 515.09 354.67 540.48 365.71 566.63 358.00
  C 580.82 353.82 596.73 341.23 598.93 325.46
  C 601.30 308.45 592.46 296.39 578.64 287.86
  Q 567.01 280.69 556.24 275.59
  C 538.31 267.10 520.95 259.43 504.51 248.23
  Q 495.11 241.82 488.92 235.77
  Q 466.48 213.82 465.14 182.19
  Q 464.70 171.80 466.74 161.88
  Q 472.02 136.18 492.71 118.46
  Q 497.42 114.43 502.50 110.85
  Q 504.76 109.67 505.36 108.38
  C 511.54 104.75 518.07 102.39 524.91 100.15
  Q 550.34 93.36 576.20 97.87
  Q 577.32 98.06 581.54 99.04
  Q 584.24 99.67 586.92 100.04
  Z"
/>
<path fill="#004c99" d="
  M 426.96 100.01
  L 524.91 100.15
  C 518.07 102.39 511.54 104.75 505.36 108.38
  L 499.85 111.44
  Q 499.53 111.62 499.87 111.48
  Q 502.41 110.47 502.50 110.85
  Q 497.42 114.43 492.71 118.46
  Q 472.02 136.18 466.74 161.88
  Q 464.70 171.80 465.14 182.19
  Q 466.48 213.82 488.92 235.77
  Q 495.11 241.82 504.51 248.23
  C 520.95 259.43 538.31 267.10 556.24 275.59
  Q 567.01 280.69 578.64 287.86
  C 592.46 296.39 601.30 308.45 598.93 325.46
  C 596.73 341.23 580.82 353.82 566.63 358.00
  C 540.48 365.71 515.09 354.67 496.00 336.76
  Q 490.89 331.96 485.84 326.67
  A 0.26 0.26 0.0 0 0 485.40 326.79
  Q 485.36 326.99 485.25 327.18
  Q 485.15 327.37 485.00 327.53
  Q 468.67 345.35 452.35 363.22
  A 0.50 0.49 47.0 0 0 452.33 363.86
  C 461.97 375.99 473.78 386.01 487.35 393.45
  Q 518.89 410.73 555.56 409.43
  C 586.09 408.35 613.05 396.36 632.48 372.38
  C 643.34 358.98 649.48 343.14 650.81 325.97
  Q 654.07 283.93 621.03 256.18
  Q 615.69 251.70 604.92 244.84
  Q 598.02 240.45 588.49 235.46
  C 569.48 225.51 549.15 217.87 531.69 205.16
  C 514.07 192.34 507.69 171.29 525.77 155.41
  C 538.31 144.39 555.14 142.79 570.85 147.29
  C 587.63 152.10 602.62 162.70 615.56 174.72
  A 0.58 0.57 43.9 0 0 616.36 174.71
  L 650.85 140.36
  A 0.46 0.45 43.7 0 0 650.83 139.69
  Q 644.76 134.37 638.62 129.41
  C 626.19 119.36 613.23 111.32 598.82 105.13
  Q 592.90 102.59 586.92 100.04
  Q 637.62 99.88 658.75 100.05
  Q 664.49 100.09 671.15 101.96
  Q 680.60 104.62 686.73 112.38
  C 687.52 113.37 688.00 114.68 688.00 115.95
  Q 687.99 289.36 687.99 453.42
  Q 687.99 455.16 687.00 456.55
  C 682.22 463.27 672.82 466.78 665.23 468.22
  Q 660.77 469.06 651.23 469.06
  Q 442.78 469.01 244.25 469.06
  Q 232.31 469.06 219.28 469.08
  Q 239.54 458.05 250.13 438.95
  Q 257.14 426.31 259.24 412.00
  Q 260.84 401.10 261.49 390.09
  Q 261.55 389.21 261.38 388.39
  C 261.11 387.00 261.75 385.64 261.75 384.20
  Q 261.75 306.36 261.75 227.53
  Q 261.75 227.00 261.22 227.00
  L 238.75 227.00
  Q 238.25 227.00 238.25 227.50
  L 238.25 257.50
  Q 238.25 258.42 237.66 257.72
  Q 229.75 248.52 221.18 241.58
  Q 197.82 222.63 166.70 222.47
  Q 153.36 222.40 141.57 225.75
  C 102.60 236.82 74.21 270.82 72.33 311.72
  Q 72.00 319.01 72.65 326.13
  Q 74.56 346.87 84.99 364.43
  C 95.98 382.94 113.54 396.43 133.88 403.64
  Q 150.62 409.58 169.57 408.94
  Q 193.75 408.14 214.98 395.31
  Q 227.57 387.71 237.30 375.92
  Q 238.22 374.81 238.25 376.24
  Q 238.50 388.11 237.50 400.76
  C 236.46 413.87 233.67 426.51 225.11 435.92
  Q 210.56 451.91 188.08 456.35
  Q 169.80 459.97 150.71 457.14
  C 132.05 454.37 116.48 446.12 105.28 430.72
  Q 102.79 427.30 100.51 423.68
  Q 100.08 423.00 99.27 423.00
  L 74.79 423.01
  A 0.16 0.16 0.0 0 0 74.64 423.24
  Q 79.23 433.68 85.57 443.19
  Q 96.56 459.66 115.12 468.93
  Q 94.14 469.04 74.13 469.21
  Q 67.40 469.27 59.75 468.82
  Q 54.87 468.53 50.42 466.54
  C 37.20 460.62 30.07 449.55 28.33 435.08
  Q 28.00 432.37 28.00 429.89
  Q 28.00 282.70 28.00 135.50
  C 28.00 124.57 33.53 113.57 42.68 107.43
  Q 53.74 100.02 65.50 100.01
  Q 215.18 99.99 361.50 100.01
  Q 366.25 100.01 368.94 100.34
  Q 373.21 117.26 389.37 122.41
  Q 398.86 125.43 409.22 120.99
  C 416.51 117.88 422.09 111.79 425.07 104.13
  Q 425.97 101.81 426.96 100.01
  Z
  M 317.9622 205.9592
  A 31.20 30.17 90.4 0 0 348.3493 174.9706
  A 31.20 30.17 90.4 0 0 318.3978 143.5608
  A 31.20 30.17 90.4 0 0 288.0107 174.5494
  A 31.20 30.17 90.4 0 0 317.9622 205.9592
  Z
  M 420.75 144.02
  A 0.26 0.26 0.0 0 0 420.49 143.76
  L 374.79 143.76
  A 0.26 0.26 0.0 0 0 374.53 144.02
  L 374.53 408.74
  A 0.26 0.26 0.0 0 0 374.79 409.00
  L 420.49 409.00
  A 0.26 0.26 0.0 0 0 420.75 408.74
  L 420.75 144.02
  Z
  M 329.75 227.45
  A 0.45 0.45 0.0 0 0 329.30 227.00
  L 306.70 227.00
  A 0.45 0.45 0.0 0 0 306.25 227.45
  L 306.25 409.01
  A 0.45 0.45 0.0 0 0 306.70 409.46
  L 329.30 409.46
  A 0.45 0.45 0.0 0 0 329.75 409.01
  L 329.75 227.45
  Z"
/>
<path fill="#a5afd5" d="
  M 505.36 108.38
  Q 504.76 109.67 502.50 110.85
  Q 502.41 110.47 499.87 111.48
  Q 499.53 111.62 499.85 111.44
  L 505.36 108.38
  Z"
/>
<ellipse fill="#ffffff" cx="0.00" cy="0.00" transform="translate(318.18,174.76) rotate(90.4)" rx="31.20" ry="30.17"/>
<rect fill="#ffffff" x="374.53" y="143.76" width="46.22" height="265.24" rx="0.26"/>
<path fill="#a5afd5" d="
  M 219.28 469.08
  Q 211.17 473.29 201.97 476.29
  Q 193.68 479.00 186.49 479.48
  Q 172.72 480.41 159.33 479.83
  Q 158.49 479.80 157.71 479.49
  Q 157.25 479.32 156.76 479.32
  Q 148.47 479.27 140.50 477.02
  Q 140.36 476.98 140.15 477.07
  Q 139.88 477.17 139.60 477.12
  Q 131.60 475.47 124.01 472.46
  Q 119.16 470.53 115.12 468.93
  Q 96.56 459.66 85.57 443.19
  Q 79.23 433.68 74.64 423.24
  A 0.16 0.16 0.0 0 1 74.79 423.01
  L 99.27 423.00
  Q 100.08 423.00 100.51 423.68
  Q 102.79 427.30 105.28 430.72
  C 116.48 446.12 132.05 454.37 150.71 457.14
  Q 169.80 459.97 188.08 456.35
  Q 210.56 451.91 225.11 435.92
  C 233.67 426.51 236.46 413.87 237.50 400.76
  Q 238.50 388.11 238.25 376.24
  Q 238.22 374.81 237.30 375.92
  Q 227.57 387.71 214.98 395.31
  Q 193.75 408.14 169.57 408.94
  Q 150.62 409.58 133.88 403.64
  C 113.54 396.43 95.98 382.94 84.99 364.43
  Q 74.56 346.87 72.65 326.13
  Q 72.00 319.01 72.33 311.72
  C 74.21 270.82 102.60 236.82 141.57 225.75
  Q 153.36 222.40 166.70 222.47
  Q 197.82 222.63 221.18 241.58
  Q 229.75 248.52 237.66 257.72
  Q 238.25 258.42 238.25 257.50
  L 238.25 227.50
  Q 238.25 227.00 238.75 227.00
  L 261.22 227.00
  Q 261.75 227.00 261.75 227.53
  Q 261.75 306.36 261.75 384.20
  C 261.75 385.64 261.11 387.00 261.38 388.39
  Q 261.55 389.21 261.49 390.09
  Q 260.84 401.10 259.24 412.00
  Q 257.14 426.31 250.13 438.95
  Q 239.54 458.05 219.28 469.08
  Z
  M 173.62 386.29
  Q 173.77 386.32 173.91 386.39
  Q 174.35 386.63 174.84 386.58
  Q 187.86 385.42 197.43 381.66
  C 221.12 372.38 235.87 352.37 238.75 327.18
  C 242.12 297.62 231.60 270.38 205.59 255.06
  C 185.34 243.14 160.47 242.18 139.44 251.43
  C 115.83 261.81 100.85 282.18 96.89 307.54
  C 96.08 312.73 96.15 318.38 96.43 323.49
  Q 97.65 345.79 111.92 362.51
  Q 129.11 382.65 156.49 385.98
  Q 158.37 386.20 160.19 386.52
  Q 160.65 386.60 161.07 386.41
  Q 161.55 386.19 162.02 386.44
  Q 162.42 386.66 162.88 386.66
  Q 167.37 386.70 172.09 386.67
  C 172.55 386.67 172.91 386.45 173.34 386.31
  Q 173.48 386.27 173.62 386.29
  Z"
/>
<rect fill="#a5afd5" x="306.25" y="227.00" width="23.50" height="182.46" rx="0.45"/>
<path fill="#004c99" d="
  M 173.34 386.31
  C 172.91 386.45 172.55 386.67 172.09 386.67
  Q 167.37 386.70 162.88 386.66
  Q 162.42 386.66 162.02 386.44
  Q 161.55 386.19 161.07 386.41
  Q 160.65 386.60 160.19 386.52
  Q 158.37 386.20 156.49 385.98
  Q 129.11 382.65 111.92 362.51
  Q 97.65 345.79 96.43 323.49
  C 96.15 318.38 96.08 312.73 96.89 307.54
  C 100.85 282.18 115.83 261.81 139.44 251.43
  C 160.47 242.18 185.34 243.14 205.59 255.06
  C 231.60 270.38 242.12 297.62 238.75 327.18
  C 235.87 352.37 221.12 372.38 197.43 381.66
  Q 187.86 385.42 174.84 386.58
  Q 174.35 386.63 173.91 386.39
  Q 173.77 386.32 173.62 386.29
  Q 173.48 386.27 173.34 386.31
  Z"
/>
</svg>
