<svg xmlns="http://www.w3.org/2000/svg" width="824" height="432" viewBox="0 0 824 432">
<g>
<path d="M 620.18,391.20 L 620.37,391.34 L 620.64,391.83 L 620.76,392.12 L 620.91,392.92 L 621.00,394.50 L 621.00,395.37 L 621.07,396.51 L 621.15,397.00 L 621.56,397.55 L 621.84,397.77 L 622.87,397.94 L 625.39,398.00 L 629.78,398.00 L 632.03,407.25 L 632.34,408.52 L 632.94,410.91 L 633.24,412.07 L 633.77,414.05 L 634.02,414.97 L 634.42,416.33 L 634.80,417.42 L 634.84,417.48 L 634.96,417.39 L 635.02,417.32 L 635.19,416.97 L 635.38,416.56 L 635.88,415.08 L 636.15,414.24 L 636.76,412.04 L 637.75,408.17 L 638.16,406.43 L 638.91,403.64 L 639.27,402.36 L 639.92,400.47 L 640.24,399.64 L 640.81,398.61 L 641.59,398.00 L 642.07,398.00 L 642.63,398.26 L 642.73,398.38 L 642.82,398.84 L 642.84,399.11 L 642.75,399.96 L 642.68,400.44 L 642.40,401.78 L 642.23,402.52 L 641.74,404.48 L 641.46,405.55 L 640.75,408.24 L 639.40,413.22 L 638.82,415.38 L 637.81,419.00 L 637.33,420.70 L 636.50,423.46 L 636.09,424.74 L 635.37,426.76 L 635.01,427.69 L 634.33,429.09 L 633.99,429.72 L 633.29,430.60 L 632.93,430.99 L 632.16,431.48 L 631.76,431.68 L 630.84,431.88 L 629.25,431.98 L 628.58,431.99 L 627.62,431.58 L 627.23,431.32 L 627.00,430.50 L 627.00,430.09 L 627.53,429.44 L 628.80,429.00 L 629.43,429.00 L 630.52,428.65 L 631.03,428.42 L 631.84,427.66 L 632.21,427.23 L 632.70,426.12 L 633.00,424.14 L 633.00,423.56 L 632.73,421.72 L 632.55,420.71 L 632.00,418.25 L 631.39,415.68 L 629.72,409.90 L 629.29,408.51 L 628.43,405.92 L 628.01,404.68 L 627.23,402.64 L 626.86,401.72 L 626.25,400.51 L 626.11,400.28 L 625.88,400.02 L 625.62,399.98 L 625.34,400.26 L 624.37,400.70 L 622.80,401.00 L 622.40,401.00 L 621.85,401.27 L 621.60,401.48 L 621.30,402.42 L 621.24,402.71 L 621.15,403.49 L 621.11,403.91 L 621.06,404.96 L 621.04,405.53 L 621.01,406.92 L 621.00,409.42 L 621.00,410.64 L 621.03,412.73 L 621.05,413.71 L 621.12,415.36 L 621.16,416.13 L 621.30,417.39 L 621.37,417.97 L 621.58,418.88 L 621.70,419.30 L 622.00,419.92 L 622.16,420.19 L 622.55,420.57 L 624.19,421.00 L 624.83,421.00 L 625.52,421.38 L 625.76,421.61 L 625.72,422.25 L 625.62,422.58 L 624.94,423.20 L 623.30,423.80 L 622.78,423.88 L 621.88,423.87 L 621.45,423.83 L 620.72,423.56 L 620.37,423.39 L 619.80,422.82 L 619.53,422.50 L 619.09,421.61 L 618.89,421.12 L 618.58,419.87 L 618.44,419.19 L 618.24,417.54 L 618.16,416.66 L 618.06,414.58 L 618.00,410.93 L 618.00,409.91 L 617.99,408.16 L 617.98,407.33 L 617.94,405.94 L 617.92,405.28 L 617.85,404.20 L 617.81,403.70 L 617.71,402.90 L 617.60,402.17 L 617.25,401.40 L 616.50,401.00 L 616.09,401.00 L 615.44,400.56 L 615.00,399.50 L 615.00,399.09 L 615.44,398.44 L 616.50,398.00 L 616.76,398.00 L 617.18,397.80 L 617.37,397.66 L 617.64,397.17 L 617.76,396.88 L 617.91,396.08 L 618.00,394.50 L 618.00,393.89 L 618.09,392.92 L 618.15,392.48 L 618.36,391.83 L 618.48,391.55 L 618.82,391.20 L 619.50,391.00 L 619.76,391.00 M 542.84,388.44 L 546.27,389.34 L 546.91,389.61 L 548.05,390.32 L 548.59,390.71 L 549.53,391.66 L 549.98,392.17 L 550.74,393.39 L 551.10,394.03 L 551.68,395.52 L 551.94,396.30 L 552.34,398.07 L 552.52,398.99 L 552.75,401.05 L 552.85,402.12 L 552.91,404.49 L 552.81,408.40 L 552.75,409.56 L 552.54,411.80 L 552.43,412.88 L 552.15,414.79 L 552.00,415.69 L 551.67,417.07 L 551.17,418.29 L 550.94,418.58 L 550.66,419.05 L 550.55,419.28 L 550.53,419.70 L 550.55,419.90 L 550.80,420.31 L 551.49,420.99 L 551.90,421.33 L 552.48,422.19 L 552.73,422.63 L 552.95,423.50 L 553.02,423.92 L 552.85,424.56 L 552.12,425.00 L 551.88,425.00 L 551.17,424.60 L 550.81,424.35 L 550.12,423.64 L 549.90,423.38 L 549.39,423.03 L 549.12,422.88 L 548.42,422.78 L 548.04,422.75 L 547.05,422.88 L 545.12,423.31 L 544.12,423.58 L 542.26,423.78 L 541.36,423.83 L 539.72,423.60 L 538.92,423.42 L 537.48,422.75 L 536.79,422.36 L 535.57,421.26 L 534.99,420.66 L 533.99,419.13 L 533.52,418.31 L 532.74,416.36 L 532.38,415.33 L 531.83,412.96 L 531.26,408.93 L 531.09,407.10 L 531.13,403.72 L 531.21,402.08 L 531.71,399.13 L 532.01,397.72 L 532.92,395.25 L 533.42,394.08 L 534.70,392.15 L 535.39,391.26 L 536.99,389.93 L 537.84,389.35 L 539.73,388.67 L 540.71,388.41 M 298.42,397.33 L 299.77,397.68 L 300.43,397.90 L 301.60,398.60 L 302.16,398.99 L 303.13,400.04 L 303.59,400.60 L 304.36,401.97 L 304.72,402.69 L 305.26,404.37 L 305.50,405.25 L 305.81,407.22 L 306.00,410.50 L 306.00,411.85 L 305.69,414.30 L 305.49,415.49 L 304.82,417.58 L 304.44,418.59 L 303.46,420.28 L 302.93,421.07 L 301.70,422.32 L 301.05,422.88 L 299.62,423.63 L 298.88,423.93 L 297.30,424.14 L 296.49,424.16 L 294.82,423.77 L 293.97,423.50 L 292.26,422.47 L 291.72,422.09 L 290.80,421.02 L 290.36,420.44 L 289.64,419.03 L 289.31,418.28 L 288.80,416.60 L 288.58,415.74 L 288.30,413.87 L 288.09,411.97 L 288.37,407.97 L 288.50,406.98 L 288.96,405.05 L 289.95,402.31 L 290.34,401.45 L 291.04,400.18 L 291.40,399.60 L 292.15,398.80 L 292.55,398.44 L 293.50,397.97 L 295.32,397.47 L 296.14,397.31 L 297.67,397.29 M 203.35,397.21 L 204.01,397.33 L 205.20,397.82 L 205.78,398.11 L 206.82,398.93 L 207.31,399.37 L 208.14,400.48 L 208.53,401.07 L 209.15,402.44 L 209.42,403.16 L 209.78,404.78 L 210.00,407.45 L 210.00,411.00 L 195.84,411.00 L 196.54,414.25 L 196.83,415.61 L 197.44,417.62 L 197.76,418.52 L 198.51,419.70 L 198.91,420.20 L 199.91,420.69 L 201.81,420.81 L 202.69,420.71 L 204.14,419.88 L 205.80,417.75 L 206.15,417.01 L 207.05,415.95 L 207.51,415.50 L 208.43,415.09 L 208.87,414.96 L 209.54,415.26 L 210.00,416.58 L 210.00,416.89 L 209.76,417.61 L 209.60,417.99 L 209.09,418.79 L 208.52,419.60 L 206.87,421.22 L 206.00,422.00 L 204.13,423.19 L 203.67,423.44 L 202.80,423.78 L 201.63,424.00 L 201.29,424.00 L 200.44,423.81 L 199.99,423.69 L 199.04,423.30 L 198.08,422.87 L 196.35,421.62 L 195.74,421.10 L 194.87,420.14 L 194.49,419.65 L 193.99,418.48 L 193.77,417.83 L 193.51,416.07 L 193.45,415.58 L 193.36,414.42 L 193.24,412.37 L 193.14,410.36 L 193.40,406.88 L 193.60,405.23 L 194.46,402.52 L 194.95,401.27 L 196.37,399.40 L 196.76,398.99 L 197.64,398.34 L 199.11,397.62 L 199.86,397.36 L 201.31,397.13 L 202.02,397.07 M 697.18,397.70 L 697.93,398.13 L 699.44,399.40 L 700.15,400.07 L 701.25,401.52 L 702.00,403.45 L 702.00,403.77 L 701.84,404.25 L 701.73,404.47 L 701.40,404.77 L 701.03,405.02 L 700.05,405.01 L 699.55,404.93 L 698.63,404.30 L 697.82,402.75 L 697.76,402.31 L 697.53,401.66 L 697.39,401.37 L 696.96,400.97 L 696.71,400.80 L 696.02,400.61 L 694.61,400.50 L 693.82,400.50 L 692.47,400.90 L 691.84,401.16 L 690.90,401.97 L 690.50,402.42 L 690.11,403.51 L 690.28,405.29 L 690.36,405.51 L 690.89,406.06 L 691.21,406.36 L 692.11,407.02 L 695.66,408.97 L 696.97,409.55 L 699.25,410.81 L 699.76,411.11 L 700.52,411.65 L 701.20,412.29 L 701.57,412.87 L 701.92,414.51 L 702.04,415.37 L 701.92,417.26 L 701.80,418.20 L 701.25,419.96 L 700.00,422.00 L 699.37,422.63 L 697.65,423.43 L 696.73,423.76 L 694.69,423.95 L 693.67,423.98 L 691.68,423.57 L 690.73,423.28 L 689.15,422.25 L 688.58,421.77 L 687.50,420.21 L 686.43,417.75 L 686.30,417.17 L 686.18,416.33 L 686.15,415.97 L 686.28,415.50 L 686.39,415.30 L 686.83,415.10 L 687.89,415.00 L 688.57,415.00 L 689.46,415.46 L 690.00,416.80 L 690.00,417.40 L 690.34,418.47 L 690.56,418.98 L 691.28,419.80 L 691.69,420.18 L 692.71,420.68 L 694.50,421.00 L 695.19,421.00 L 696.37,420.67 L 696.92,420.45 L 697.79,419.72 L 698.18,419.30 L 698.69,418.22 L 699.00,416.24 L 699.00,415.77 L 698.76,414.97 L 698.59,414.59 L 697.91,413.88 L 697.50,413.52 L 696.24,412.77 L 693.52,411.47 L 692.52,411.02 L 690.94,410.21 L 690.22,409.80 L 689.14,409.02 L 688.66,408.63 L 688.00,407.83 L 687.42,406.52 L 687.24,405.82 L 687.10,404.50 L 687.06,403.86 L 687.19,402.66 L 687.28,402.09 L 687.66,401.04 L 687.88,400.54 L 688.50,399.65 L 688.84,399.23 L 689.69,398.53 L 690.14,398.20 L 691.20,397.70 L 691.76,397.47 L 693.01,397.18 L 695.11,397.00 L 695.70,397.00 M 405.98,397.99 L 406.79,398.42 L 408.11,399.92 L 408.72,400.75 L 409.65,402.86 L 410.06,403.98 L 410.58,406.49 L 410.79,407.78 L 410.91,410.46 L 410.92,411.81 L 410.63,414.43 L 410.44,415.72 L 409.75,418.06 L 409.36,419.17 L 408.26,421.00 L 406.15,422.92 L 405.33,423.36 L 403.62,423.81 L 402.76,423.97 L 401.06,423.88 L 400.23,423.77 L 398.65,423.15 L 397.88,422.77 L 396.53,421.63 L 396.02,421.11 L 395.17,419.77 L 394.77,419.05 L 394.15,417.37 L 393.87,416.50 L 393.48,414.59 L 393.32,413.62 L 393.18,411.59 L 393.09,409.54 L 393.67,405.51 L 393.87,404.54 L 394.48,402.75 L 395.67,400.38 L 396.13,399.68 L 397.62,398.60 L 398.43,398.12 L 400.35,397.52 L 401.34,397.29 L 403.33,397.27 M 341.38,397.29 L 341.84,397.41 L 342.66,397.86 L 343.88,398.88 L 344.35,399.35 L 345.00,400.32 L 345.29,400.85 L 345.64,402.33 L 345.72,402.75 L 345.82,403.77 L 345.87,404.32 L 345.93,405.64 L 345.96,406.34 L 345.99,408.02 L 346.00,411.00 L 346.00,412.50 L 346.07,415.09 L 346.12,416.31 L 346.27,418.25 L 346.36,419.12 L 346.59,420.28 L 347.00,421.00 L 347.27,421.00 L 347.71,421.44 L 348.00,422.50 L 348.00,422.97 L 347.60,423.57 L 347.34,423.81 L 346.57,423.95 L 346.15,423.96 L 345.20,423.64 L 343.76,422.62 L 343.47,422.33 L 342.99,421.96 L 342.75,421.82 L 342.29,421.74 L 342.06,421.74 L 341.52,421.96 L 340.50,422.62 L 339.88,423.07 L 338.55,423.63 L 337.87,423.85 L 336.46,423.93 L 335.76,423.92 L 334.33,423.54 L 333.62,423.29 L 332.22,422.44 L 331.81,422.16 L 331.19,421.52 L 330.90,421.18 L 330.50,420.39 L 330.32,419.96 L 330.12,418.95 L 330.00,417.10 L 330.00,416.00 L 330.38,414.20 L 330.64,413.36 L 331.63,411.98 L 332.21,411.32 L 333.94,410.21 L 337.51,408.68 L 338.68,408.27 L 340.47,407.34 L 341.27,406.86 L 342.30,405.79 L 342.71,405.24 L 342.95,404.08 L 342.39,402.25 L 341.94,401.54 L 340.57,400.74 L 339.84,400.45 L 338.21,400.46 L 337.40,400.56 L 335.89,401.32 L 334.21,403.25 L 333.81,404.09 L 333.03,405.17 L 332.65,405.62 L 332.00,405.90 L 331.70,405.94 L 331.28,405.41 L 331.00,403.69 L 331.00,402.78 L 331.42,401.24 L 331.70,400.52 L 332.67,399.36 L 333.23,398.83 L 334.76,398.05 L 337.67,397.32 L 338.49,397.21 L 339.79,397.14 L 340.40,397.13 M 589.16,397.44 L 589.71,397.59 L 590.71,398.05 L 592.00,399.00 L 592.43,399.43 L 593.04,400.39 L 593.31,400.92 L 593.65,402.40 L 593.72,402.82 L 593.82,403.85 L 593.87,404.40 L 593.93,405.71 L 593.96,406.41 L 593.99,408.07 L 594.00,411.00 L 594.00,412.50 L 594.07,415.09 L 594.12,416.31 L 594.27,418.25 L 594.36,419.12 L 594.59,420.28 L 595.00,421.00 L 595.27,421.00 L 595.71,421.44 L 596.00,422.50 L 596.00,422.97 L 595.60,423.57 L 595.34,423.81 L 594.57,423.95 L 594.15,423.96 L 593.20,423.64 L 591.76,422.62 L 591.47,422.33 L 590.99,421.96 L 590.75,421.82 L 590.29,421.74 L 590.06,421.74 L 589.52,421.96 L 588.50,422.62 L 587.83,423.11 L 586.37,423.68 L 585.63,423.89 L 584.12,423.92 L 583.37,423.86 L 581.93,423.35 L 581.24,423.03 L 580.00,422.00 L 579.36,421.36 L 578.54,419.62 L 578.21,418.70 L 578.03,416.70 L 578.01,415.71 L 578.46,413.85 L 579.85,411.63 L 580.11,411.40 L 580.92,410.88 L 581.36,410.62 L 582.45,410.08 L 586.10,408.69 L 587.28,408.35 L 589.03,407.40 L 589.80,406.88 L 590.70,405.65 L 591.04,405.02 L 591.03,403.62 L 589.95,401.44 L 589.64,401.07 L 588.90,400.54 L 588.51,400.32 L 587.66,400.07 L 586.80,399.88 L 585.04,400.25 L 584.20,400.54 L 582.89,401.72 L 582.62,402.05 L 582.24,402.85 L 582.00,404.20 L 582.00,404.69 L 581.56,405.47 L 580.50,406.00 L 580.11,406.00 L 579.54,405.40 L 579.29,405.03 L 579.05,403.94 L 578.97,403.36 L 579.10,402.11 L 579.77,400.40 L 580.07,399.95 L 580.86,399.18 L 581.29,398.81 L 582.28,398.23 L 583.30,397.70 L 585.66,397.22 L 586.85,397.08 M 476.38,397.29 L 476.84,397.41 L 477.66,397.86 L 478.88,398.88 L 479.35,399.35 L 480.00,400.32 L 480.29,400.85 L 480.64,402.33 L 480.72,402.75 L 480.82,403.77 L 480.87,404.32 L 480.93,405.64 L 480.96,406.34 L 480.99,408.02 L 481.00,411.00 L 481.00,412.50 L 481.07,415.09 L 481.12,416.31 L 481.27,418.25 L 481.36,419.12 L 481.59,420.28 L 482.00,421.00 L 482.27,421.00 L 482.71,421.44 L 483.00,422.50 L 483.00,422.97 L 482.60,423.57 L 482.34,423.81 L 481.57,423.95 L 481.15,423.96 L 480.20,423.64 L 478.76,422.62 L 478.47,422.33 L 477.99,421.96 L 477.75,421.82 L 477.29,421.74 L 477.06,421.74 L 476.52,421.96 L 475.50,422.62 L 474.88,423.07 L 473.55,423.63 L 472.87,423.85 L 471.46,423.93 L 470.76,423.92 L 469.33,423.54 L 468.62,423.29 L 467.22,422.44 L 466.81,422.16 L 466.19,421.52 L 465.90,421.18 L 465.50,420.39 L 465.32,419.96 L 465.12,418.95 L 465.00,417.10 L 465.00,416.00 L 465.38,414.20 L 465.64,413.36 L 466.63,411.98 L 467.21,411.32 L 468.94,410.21 L 472.51,408.68 L 473.68,408.27 L 475.47,407.34 L 476.27,406.86 L 477.30,405.79 L 477.71,405.24 L 477.95,404.08 L 477.39,402.25 L 476.94,401.54 L 475.57,400.74 L 474.84,400.45 L 473.21,400.46 L 472.40,400.56 L 470.89,401.32 L 469.21,403.25 L 468.81,404.09 L 468.03,405.17 L 467.65,405.62 L 467.00,405.90 L 466.70,405.94 L 466.28,405.41 L 466.00,403.69 L 466.00,402.78 L 466.42,401.24 L 466.70,400.52 L 467.67,399.36 L 468.23,398.83 L 469.76,398.05 L 472.67,397.32 L 473.49,397.21 L 474.79,397.14 L 475.40,397.13 M 730.18,391.20 L 730.37,391.34 L 730.64,391.83 L 730.76,392.12 L 730.91,392.92 L 731.00,394.50 L 731.00,395.21 L 731.08,396.24 L 731.15,396.70 L 731.39,397.31 L 731.54,397.57 L 732.00,397.85 L 733.00,398.00 L 733.56,398.00 L 734.42,398.44 L 735.00,399.50 L 735.00,399.92 L 734.42,400.56 L 733.00,401.00 L 732.53,401.00 L 731.90,401.24 L 731.63,401.45 L 731.30,402.45 L 731.24,402.77 L 731.14,403.64 L 731.10,404.11 L 731.05,405.33 L 731.03,405.99 L 731.01,407.62 L 731.00,410.59 L 731.00,411.69 L 731.01,413.52 L 731.02,414.38 L 731.06,415.80 L 731.08,416.46 L 731.15,417.52 L 731.19,418.00 L 731.32,418.76 L 731.45,419.44 L 731.92,420.16 L 733.00,420.71 L 733.55,420.85 L 734.41,421.49 L 735.00,422.62 L 735.00,423.02 L 734.53,423.55 L 734.24,423.77 L 733.32,423.92 L 732.82,423.95 L 731.63,423.72 L 731.02,423.55 L 729.75,422.92 L 729.38,422.70 L 728.85,422.02 L 728.61,421.60 L 728.32,420.21 L 728.25,419.81 L 728.16,418.79 L 728.12,418.25 L 728.06,416.93 L 728.04,416.22 L 728.01,414.54 L 728.00,411.57 L 728.00,410.38 L 727.99,408.39 L 727.98,407.46 L 727.95,405.93 L 727.92,405.22 L 727.85,404.09 L 727.81,403.56 L 727.69,402.76 L 727.55,402.03 L 727.09,401.27 L 726.00,400.71 L 725.45,400.57 L 724.59,400.02 L 724.00,399.09 L 724.00,398.79 L 724.59,398.32 L 726.00,398.00 L 726.40,398.00 L 727.00,397.85 L 727.26,397.74 L 727.61,397.31 L 727.76,397.05 L 727.92,396.24 L 728.00,394.50 L 728.00,393.89 L 728.09,392.92 L 728.15,392.48 L 728.36,391.83 L 728.48,391.55 L 728.82,391.20 L 729.50,391.00 L 729.76,391.00 M 423.14,389.20 L 423.59,389.33 L 423.90,389.75 L 423.95,389.98 L 423.44,390.55 L 421.75,391.51 L 421.05,391.82 L 420.02,392.97 L 419.18,395.25 L 419.11,395.90 L 419.10,396.78 L 419.14,397.16 L 419.50,397.60 L 419.75,397.78 L 420.68,397.94 L 422.93,398.00 L 423.93,398.00 L 425.25,397.93 L 425.82,397.87 L 426.46,397.53 L 426.72,397.31 L 426.92,396.49 L 427.00,394.50 L 427.00,393.79 L 427.08,392.76 L 427.15,392.30 L 427.39,391.69 L 427.54,391.43 L 428.00,391.15 L 429.00,391.00 L 429.40,391.00 L 430.00,391.15 L 430.26,391.26 L 430.61,391.69 L 430.76,391.95 L 430.92,392.76 L 431.00,394.50 L 431.00,395.21 L 431.08,396.24 L 431.15,396.70 L 431.39,397.31 L 431.54,397.57 L 432.00,397.85 L 433.00,398.00 L 433.56,398.00 L 434.42,398.44 L 435.00,399.50 L 435.00,399.92 L 434.42,400.56 L 433.00,401.00 L 432.53,401.00 L 431.90,401.25 L 431.62,401.46 L 431.30,402.50 L 431.23,402.83 L 431.14,403.73 L 431.10,404.23 L 431.05,405.50 L 431.03,406.19 L 431.01,407.89 L 431.00,411.00 L 431.00,412.17 L 431.01,414.11 L 431.02,415.02 L 431.05,416.50 L 431.07,417.19 L 431.14,418.27 L 431.18,418.76 L 431.30,419.50 L 431.43,420.17 L 431.90,420.75 L 433.00,421.00 L 433.56,421.00 L 434.42,421.44 L 435.00,422.50 L 435.00,423.04 L 434.39,423.66 L 434.01,423.90 L 432.88,423.94 L 432.28,423.89 L 430.93,423.37 L 430.26,423.05 L 429.00,422.00 L 428.57,421.57 L 427.96,420.63 L 427.70,420.11 L 427.36,418.68 L 427.28,418.27 L 427.18,417.29 L 427.13,416.77 L 427.07,415.53 L 427.04,414.87 L 427.02,413.32 L 427.00,410.57 L 427.00,409.30 L 426.97,407.20 L 426.96,406.22 L 426.86,404.63 L 426.80,403.90 L 426.61,402.77 L 426.49,402.26 L 426.15,401.53 L 425.96,401.21 L 425.45,400.81 L 425.16,400.64 L 424.43,400.51 L 424.04,400.47 L 423.05,400.55 L 421.25,400.83 L 420.71,400.93 L 419.98,401.28 L 419.83,401.41 L 419.58,401.80 L 419.47,402.03 L 419.31,402.68 L 419.24,403.05 L 419.14,404.03 L 419.10,404.58 L 419.05,405.98 L 419.03,406.74 L 419.01,408.63 L 419.00,412.12 L 419.00,413.24 L 418.99,415.17 L 418.98,416.08 L 418.94,417.62 L 418.92,418.34 L 418.85,419.52 L 418.82,420.07 L 418.72,420.94 L 418.61,421.73 L 418.26,422.57 L 417.50,423.00 L 417.19,423.00 L 416.74,422.57 L 416.54,422.25 L 416.28,420.94 L 416.23,420.54 L 416.15,419.52 L 416.11,418.97 L 416.06,417.62 L 416.04,416.90 L 416.01,415.17 L 416.00,412.12 L 416.00,410.86 L 415.99,408.76 L 415.98,407.78 L 415.95,406.17 L 415.93,405.41 L 415.85,404.22 L 415.81,403.67 L 415.69,402.83 L 415.56,402.06 L 415.09,401.28 L 414.00,400.71 L 413.45,400.57 L 412.59,400.02 L 412.00,399.09 L 412.00,398.79 L 412.59,398.32 L 414.00,398.00 L 414.40,398.00 L 414.99,397.85 L 415.25,397.75 L 415.60,397.34 L 415.75,397.09 L 415.91,396.33 L 416.00,394.70 L 416.00,393.69 L 416.29,392.11 L 416.49,391.38 L 417.22,390.34 L 417.64,389.88 L 418.83,389.32 L 421.20,389.00 L 422.04,389.00 M 186.00,391.15 L 186.26,391.26 L 186.61,391.69 L 186.76,391.95 L 186.92,392.76 L 187.00,394.50 L 187.00,395.21 L 187.08,396.24 L 187.15,396.70 L 187.39,397.31 L 187.54,397.57 L 188.00,397.85 L 189.00,398.00 L 189.56,398.00 L 190.42,398.44 L 191.00,399.50 L 191.00,399.92 L 190.42,400.56 L 189.00,401.00 L 188.53,401.00 L 187.90,401.24 L 187.63,401.45 L 187.30,402.45 L 187.24,402.77 L 187.14,403.64 L 187.10,404.11 L 187.05,405.33 L 187.03,405.99 L 187.01,407.62 L 187.00,410.59 L 187.00,411.69 L 187.01,413.52 L 187.02,414.38 L 187.06,415.80 L 187.08,416.46 L 187.15,417.52 L 187.19,418.00 L 187.32,418.76 L 187.45,419.44 L 187.92,420.16 L 189.00,420.71 L 189.55,420.85 L 190.41,421.49 L 191.00,422.62 L 191.00,423.13 L 190.38,423.71 L 190.00,423.93 L 188.86,423.94 L 188.25,423.88 L 186.90,423.35 L 186.23,423.03 L 185.00,422.00 L 184.57,421.57 L 183.96,420.63 L 183.69,420.11 L 183.36,418.67 L 183.28,418.26 L 183.18,417.27 L 183.13,416.75 L 183.07,415.50 L 183.04,414.84 L 183.02,413.27 L 183.00,410.50 L 183.00,409.53 L 182.99,407.86 L 182.98,407.07 L 182.94,405.73 L 182.92,405.11 L 182.85,404.08 L 182.81,403.60 L 182.71,402.83 L 182.60,402.13 L 182.25,401.39 L 181.50,401.00 L 181.09,401.00 L 180.44,400.56 L 180.00,399.50 L 180.00,399.09 L 180.44,398.44 L 181.50,398.00 L 181.76,398.00 L 182.18,397.80 L 182.37,397.66 L 182.64,397.17 L 182.76,396.88 L 182.91,396.08 L 183.00,394.50 L 183.00,393.79 L 183.08,392.76 L 183.15,392.30 L 183.39,391.69 L 183.54,391.43 L 184.00,391.15 L 185.00,391.00 L 185.40,391.00 M 257.77,397.34 L 258.45,397.50 L 259.76,398.10 L 261.55,399.45 L 262.11,400.02 L 262.88,401.04 L 263.22,401.59 L 263.62,402.99 L 263.70,403.40 L 263.82,404.37 L 263.87,404.89 L 263.93,406.15 L 263.96,406.83 L 263.99,408.45 L 264.00,411.37 L 264.00,413.04 L 264.07,415.69 L 264.12,416.90 L 264.30,418.71 L 264.40,419.51 L 264.68,420.54 L 265.25,421.29 L 265.70,421.46 L 265.96,421.91 L 265.42,422.91 L 265.12,423.22 L 264.23,423.49 L 263.76,423.57 L 262.77,423.42 L 262.29,423.31 L 261.52,422.83 L 261.00,421.84 L 261.00,421.71 L 260.82,421.59 L 260.71,421.56 L 260.35,421.62 L 258.78,422.44 L 258.04,422.96 L 256.40,423.59 L 255.56,423.84 L 253.88,423.93 L 253.06,423.92 L 251.56,423.49 L 250.85,423.20 L 249.73,422.25 L 249.16,421.61 L 248.32,420.32 L 247.95,419.67 L 247.51,418.37 L 247.34,417.72 L 247.30,416.46 L 247.32,415.83 L 247.65,414.62 L 247.87,414.03 L 248.57,412.92 L 248.97,412.37 L 250.03,411.38 L 250.60,410.90 L 252.01,410.06 L 254.50,409.00 L 255.62,408.63 L 257.17,408.02 L 257.86,407.72 L 258.73,407.09 L 259.09,406.75 L 259.49,405.91 L 259.81,404.16 L 259.90,403.27 L 259.70,401.93 L 259.53,401.33 L 258.81,400.56 L 258.37,400.26 L 257.10,400.06 L 254.57,400.39 L 253.81,400.58 L 252.70,401.44 L 251.82,403.25 L 251.71,404.05 L 251.10,405.01 L 250.77,405.39 L 249.99,405.53 L 249.62,405.50 L 249.03,404.84 L 248.76,403.00 L 248.83,402.28 L 249.30,401.00 L 249.58,400.40 L 250.39,399.38 L 250.83,398.91 L 251.91,398.17 L 252.47,397.84 L 253.72,397.40 L 254.37,397.23 L 255.72,397.11 L 256.40,397.10 M 560.25,398.39 L 560.45,398.68 L 560.71,399.84 L 560.77,400.20 L 560.85,401.10 L 560.89,401.58 L 560.94,402.77 L 560.96,403.40 L 560.99,404.90 L 561.00,407.57 L 561.00,408.90 L 561.05,411.20 L 561.08,412.30 L 561.20,414.16 L 561.27,415.04 L 561.48,416.50 L 561.60,417.19 L 561.91,418.28 L 562.07,418.79 L 562.50,419.56 L 562.73,419.91 L 563.28,420.40 L 563.57,420.61 L 564.27,420.86 L 565.48,421.00 L 566.00,421.00 L 566.91,420.83 L 567.35,420.72 L 568.10,420.31 L 568.45,420.07 L 569.05,419.38 L 569.34,419.00 L 569.80,418.01 L 570.01,417.48 L 570.35,416.16 L 570.50,415.46 L 570.72,413.78 L 570.82,412.90 L 570.93,410.83 L 571.00,407.28 L 571.00,406.33 L 571.01,404.70 L 571.02,403.93 L 571.06,402.63 L 571.08,402.02 L 571.15,401.01 L 571.19,400.54 L 571.29,399.80 L 571.40,399.11 L 571.75,398.38 L 572.50,398.00 L 572.81,398.00 L 573.26,398.48 L 573.36,398.66 L 573.53,399.20 L 573.60,399.51 L 573.72,400.33 L 573.77,400.79 L 573.86,401.96 L 573.89,402.59 L 573.94,404.14 L 573.96,404.97 L 573.99,406.96 L 574.00,410.50 L 574.00,411.81 L 573.99,414.04 L 573.98,415.09 L 573.94,416.86 L 573.92,417.69 L 573.86,419.04 L 573.82,419.68 L 573.72,420.67 L 573.67,421.12 L 573.53,421.80 L 573.45,422.10 L 573.26,422.52 L 572.50,423.00 L 572.09,423.00 L 571.44,422.69 L 571.00,421.94 L 571.00,421.80 L 570.83,421.65 L 570.72,421.60 L 570.36,421.64 L 568.78,422.44 L 568.02,422.97 L 566.46,423.61 L 565.69,423.85 L 564.15,423.92 L 563.39,423.88 L 561.96,423.38 L 561.26,423.06 L 560.00,422.00 L 559.56,421.56 L 558.95,420.59 L 558.68,420.04 L 558.34,418.47 L 558.27,418.01 L 558.17,416.90 L 558.12,416.30 L 558.07,414.86 L 558.04,414.09 L 558.01,412.26 L 558.00,409.00 L 558.00,407.86 L 558.01,405.91 L 558.02,404.99 L 558.06,403.44 L 558.08,402.71 L 558.15,401.52 L 558.18,400.96 L 558.28,400.08 L 558.39,399.28 L 558.74,398.44 L 559.50,398.00 L 559.81,398.00 M 740.25,398.39 L 740.45,398.68 L 740.71,399.84 L 740.77,400.20 L 740.85,401.10 L 740.89,401.58 L 740.94,402.77 L 740.96,403.40 L 740.99,404.90 L 741.00,407.57 L 741.00,408.90 L 741.05,411.20 L 741.08,412.30 L 741.20,414.16 L 741.27,415.04 L 741.48,416.50 L 741.60,417.19 L 741.91,418.28 L 742.07,418.79 L 742.50,419.56 L 742.73,419.91 L 743.28,420.40 L 743.57,420.61 L 744.27,420.86 L 745.48,421.00 L 746.00,421.00 L 746.91,420.83 L 747.35,420.72 L 748.10,420.31 L 748.45,420.07 L 749.05,419.38 L 749.34,419.00 L 749.80,418.01 L 750.01,417.48 L 750.35,416.16 L 750.50,415.46 L 750.72,413.78 L 750.82,412.90 L 750.93,410.83 L 751.00,407.28 L 751.00,406.33 L 751.01,404.70 L 751.02,403.93 L 751.06,402.63 L 751.08,402.02 L 751.15,401.01 L 751.19,400.54 L 751.29,399.80 L 751.40,399.11 L 751.75,398.38 L 752.50,398.00 L 752.81,398.00 L 753.26,398.48 L 753.36,398.66 L 753.53,399.20 L 753.60,399.51 L 753.72,400.33 L 753.77,400.79 L 753.86,401.96 L 753.89,402.59 L 753.94,404.14 L 753.96,404.97 L 753.99,406.96 L 754.00,410.50 L 754.00,411.81 L 753.99,414.04 L 753.98,415.09 L 753.94,416.86 L 753.92,417.69 L 753.86,419.04 L 753.82,419.68 L 753.72,420.67 L 753.67,421.12 L 753.53,421.80 L 753.45,422.10 L 753.26,422.52 L 752.50,423.00 L 752.09,423.00 L 751.44,422.69 L 751.00,421.94 L 751.00,421.80 L 750.83,421.65 L 750.72,421.60 L 750.36,421.64 L 748.78,422.44 L 748.02,422.97 L 746.46,423.61 L 745.69,423.85 L 744.15,423.92 L 743.39,423.88 L 741.96,423.38 L 741.26,423.06 L 740.00,422.00 L 739.56,421.56 L 738.95,420.59 L 738.68,420.04 L 738.34,418.47 L 738.27,418.01 L 738.17,416.90 L 738.12,416.30 L 738.07,414.86 L 738.04,414.09 L 738.01,412.26 L 738.00,409.00 L 738.00,407.86 L 738.01,405.91 L 738.02,404.99 L 738.06,403.44 L 738.08,402.71 L 738.15,401.52 L 738.18,400.96 L 738.28,400.08 L 738.39,399.28 L 738.74,398.44 L 739.50,398.00 L 739.81,398.00 M 273.00,391.15 L 273.26,391.26 L 273.61,391.69 L 273.76,391.95 L 273.92,392.76 L 274.00,394.50 L 274.00,395.21 L 274.08,396.24 L 274.15,396.70 L 274.39,397.31 L 274.54,397.57 L 275.00,397.85 L 276.00,398.00 L 276.56,398.00 L 277.42,398.44 L 278.00,399.50 L 278.00,399.92 L 277.42,400.56 L 276.00,401.00 L 275.53,401.00 L 274.90,401.25 L 274.62,401.46 L 274.30,402.50 L 274.23,402.83 L 274.14,403.73 L 274.10,404.23 L 274.05,405.50 L 274.03,406.19 L 274.01,407.89 L 274.00,411.00 L 274.00,412.18 L 274.01,414.15 L 274.02,415.07 L 274.05,416.56 L 274.07,417.25 L 274.14,418.32 L 274.18,418.82 L 274.30,419.55 L 274.44,420.21 L 274.93,420.77 L 276.08,421.00 L 276.75,421.00 L 277.47,421.38 L 277.74,421.61 L 277.73,422.25 L 277.64,422.57 L 276.96,423.19 L 275.30,423.80 L 274.73,423.89 L 273.37,423.54 L 272.71,423.30 L 271.62,422.48 L 271.30,422.16 L 270.83,421.24 L 270.62,420.71 L 270.33,419.16 L 270.21,418.29 L 270.07,415.86 L 270.05,415.18 L 270.02,413.62 L 270.00,410.93 L 270.00,409.91 L 269.99,408.16 L 269.98,407.33 L 269.94,405.94 L 269.92,405.28 L 269.85,404.20 L 269.81,403.70 L 269.71,402.90 L 269.60,402.17 L 269.25,401.40 L 268.50,401.00 L 268.09,401.00 L 267.44,400.56 L 267.00,399.50 L 267.00,399.09 L 267.44,398.44 L 268.50,398.00 L 268.76,398.00 L 269.18,397.80 L 269.37,397.66 L 269.64,397.17 L 269.76,396.88 L 269.91,396.08 L 270.00,394.50 L 270.00,393.79 L 270.08,392.76 L 270.15,392.30 L 270.39,391.69 L 270.54,391.43 L 271.00,391.15 L 272.00,391.00 L 272.40,391.00 M 710.00,391.15 L 710.26,391.26 L 710.61,391.69 L 710.76,391.95 L 710.92,392.76 L 711.00,394.50 L 711.00,395.21 L 711.08,396.24 L 711.15,396.70 L 711.39,397.31 L 711.54,397.57 L 712.00,397.85 L 713.00,398.00 L 713.56,398.00 L 714.42,398.44 L 715.00,399.50 L 715.00,399.92 L 714.42,400.56 L 713.00,401.00 L 712.53,401.00 L 711.90,401.25 L 711.62,401.46 L 711.30,402.50 L 711.23,402.83 L 711.14,403.73 L 711.10,404.23 L 711.05,405.50 L 711.03,406.19 L 711.01,407.89 L 711.00,411.00 L 711.00,412.18 L 711.01,414.15 L 711.02,415.07 L 711.05,416.56 L 711.07,417.25 L 711.14,418.32 L 711.18,418.82 L 711.30,419.55 L 711.44,420.21 L 711.93,420.77 L 713.08,421.00 L 713.75,421.00 L 714.47,421.38 L 714.74,421.61 L 714.73,422.25 L 714.64,422.57 L 713.96,423.19 L 712.30,423.80 L 711.73,423.89 L 710.37,423.54 L 709.71,423.30 L 708.62,422.48 L 708.30,422.16 L 707.83,421.24 L 707.62,420.71 L 707.33,419.16 L 707.21,418.29 L 707.07,415.86 L 707.05,415.18 L 707.02,413.62 L 707.00,410.93 L 707.00,409.91 L 706.99,408.16 L 706.98,407.33 L 706.94,405.94 L 706.92,405.28 L 706.85,404.20 L 706.81,403.70 L 706.71,402.90 L 706.60,402.17 L 706.25,401.40 L 705.50,401.00 L 705.09,401.00 L 704.44,400.56 L 704.00,399.50 L 704.00,399.09 L 704.44,398.44 L 705.50,398.00 L 705.76,398.00 L 706.18,397.80 L 706.37,397.66 L 706.64,397.17 L 706.76,396.88 L 706.91,396.08 L 707.00,394.50 L 707.00,393.79 L 707.08,392.76 L 707.15,392.30 L 707.39,391.69 L 707.54,391.43 L 708.00,391.15 L 709.00,391.00 L 709.40,391.00 M 763.00,391.15 L 763.26,391.26 L 763.61,391.69 L 763.76,391.95 L 763.92,392.76 L 764.00,394.50 L 764.00,395.21 L 764.08,396.24 L 764.15,396.70 L 764.39,397.31 L 764.54,397.57 L 765.00,397.85 L 766.00,398.00 L 766.56,398.00 L 767.42,398.44 L 768.00,399.50 L 768.00,399.92 L 767.42,400.56 L 766.00,401.00 L 765.53,401.00 L 764.90,401.25 L 764.62,401.46 L 764.30,402.50 L 764.23,402.83 L 764.14,403.73 L 764.10,404.23 L 764.05,405.50 L 764.03,406.19 L 764.01,407.89 L 764.00,411.00 L 764.00,412.18 L 764.01,414.15 L 764.02,415.07 L 764.05,416.56 L 764.07,417.25 L 764.14,418.32 L 764.18,418.82 L 764.30,419.55 L 764.44,420.21 L 764.93,420.77 L 766.08,421.00 L 766.75,421.00 L 767.47,421.38 L 767.74,421.61 L 767.73,422.25 L 767.64,422.57 L 766.96,423.19 L 765.30,423.80 L 764.73,423.89 L 763.37,423.54 L 762.71,423.30 L 761.62,422.48 L 761.30,422.16 L 760.83,421.24 L 760.62,420.71 L 760.33,419.16 L 760.21,418.29 L 760.07,415.86 L 760.05,415.18 L 760.02,413.62 L 760.00,410.93 L 760.00,409.91 L 759.99,408.16 L 759.98,407.33 L 759.94,405.94 L 759.92,405.28 L 759.85,404.20 L 759.81,403.70 L 759.71,402.90 L 759.60,402.17 L 759.25,401.40 L 758.50,401.00 L 758.09,401.00 L 757.44,400.56 L 757.00,399.50 L 757.00,399.09 L 757.44,398.44 L 758.50,398.00 L 758.76,398.00 L 759.18,397.80 L 759.37,397.66 L 759.64,397.17 L 759.76,396.88 L 759.91,396.08 L 760.00,394.50 L 760.00,393.79 L 760.08,392.76 L 760.15,392.30 L 760.39,391.69 L 760.54,391.43 L 761.00,391.15 L 762.00,391.00 L 762.40,391.00 M 508.83,397.23 L 509.52,397.35 L 510.82,397.89 L 511.45,398.22 L 512.58,399.17 L 513.12,399.70 L 514.04,401.03 L 514.47,401.73 L 515.12,403.41 L 515.73,406.28 L 516.26,411.00 L 501.74,411.00 L 502.32,414.59 L 502.51,415.73 L 503.04,417.52 L 503.34,418.34 L 504.13,419.51 L 504.56,420.03 L 505.66,420.64 L 507.71,421.00 L 508.16,421.00 L 508.92,420.84 L 509.28,420.73 L 509.88,420.33 L 510.16,420.09 L 510.65,419.40 L 511.31,418.00 L 511.65,417.08 L 512.69,415.82 L 513.23,415.29 L 514.31,414.88 L 514.56,414.84 L 514.99,414.92 L 515.19,414.99 L 515.47,415.32 L 515.59,415.51 L 515.66,416.09 L 515.49,417.25 L 515.27,417.99 L 514.58,419.32 L 514.19,419.95 L 513.22,421.05 L 512.70,421.56 L 511.51,422.40 L 510.90,422.78 L 509.59,423.33 L 508.92,423.57 L 507.56,423.80 L 506.88,423.88 L 505.54,423.77 L 504.89,423.67 L 503.66,423.19 L 503.07,422.90 L 502.03,422.03 L 501.36,421.36 L 500.39,419.86 L 499.96,419.06 L 499.42,417.12 L 499.20,416.06 L 499.05,413.40 L 499.03,412.68 L 499.06,411.06 L 499.19,408.34 L 499.28,406.92 L 499.51,404.82 L 499.64,403.87 L 500.02,402.48 L 500.25,401.84 L 500.92,400.83 L 502.36,399.37 L 503.07,398.76 L 504.52,397.93 L 505.25,397.57 L 506.71,397.23 L 507.43,397.12 M 779.83,397.23 L 780.52,397.35 L 781.82,397.89 L 782.45,398.22 L 783.58,399.17 L 784.12,399.70 L 785.04,401.03 L 785.47,401.73 L 786.12,403.41 L 786.73,406.28 L 787.26,411.00 L 772.74,411.00 L 773.32,414.59 L 773.51,415.73 L 774.04,417.52 L 774.34,418.34 L 775.13,419.51 L 775.56,420.03 L 776.66,420.64 L 778.71,421.00 L 779.16,421.00 L 779.92,420.84 L 780.28,420.73 L 780.88,420.33 L 781.16,420.09 L 781.65,419.40 L 782.31,418.00 L 782.65,417.08 L 783.69,415.82 L 784.23,415.29 L 785.31,414.88 L 785.56,414.84 L 785.99,414.92 L 786.19,414.99 L 786.47,415.32 L 786.59,415.51 L 786.66,416.09 L 786.49,417.25 L 786.27,417.99 L 785.58,419.32 L 785.19,419.95 L 784.22,421.05 L 783.70,421.56 L 782.51,422.40 L 781.90,422.78 L 780.59,423.33 L 779.92,423.57 L 778.56,423.80 L 777.88,423.88 L 776.54,423.77 L 775.89,423.67 L 774.66,423.19 L 774.07,422.90 L 773.03,422.03 L 772.36,421.36 L 771.39,419.86 L 770.96,419.06 L 770.42,417.12 L 770.20,416.06 L 770.05,413.40 L 770.03,412.68 L 770.06,411.06 L 770.19,408.34 L 770.28,406.92 L 770.51,404.82 L 770.64,403.87 L 771.02,402.48 L 771.25,401.84 L 771.92,400.83 L 773.36,399.37 L 774.07,398.76 L 775.52,397.93 L 776.25,397.57 L 777.71,397.23 L 778.43,397.12 M 382.95,388.65 L 383.65,388.72 L 384.75,389.03 L 385.26,389.22 L 386.17,389.87 L 387.59,391.31 L 388.33,392.18 L 389.31,393.82 L 389.70,394.61 L 389.96,395.96 L 390.00,396.58 L 389.53,397.44 L 388.00,398.00 L 387.34,398.00 L 386.50,397.50 L 386.00,396.02 L 386.00,395.48 L 385.25,394.14 L 383.46,392.38 L 382.68,391.87 L 381.03,391.46 L 380.21,391.36 L 378.62,391.73 L 377.85,392.00 L 376.48,393.08 L 374.84,395.44 L 374.43,396.36 L 374.38,398.12 L 374.49,398.98 L 375.46,400.57 L 376.06,401.34 L 378.00,402.72 L 381.95,404.48 L 383.60,405.03 L 386.20,406.38 L 387.38,407.10 L 389.05,408.81 L 389.77,409.71 L 390.53,411.80 L 390.67,415.40 L 390.53,416.47 L 389.73,418.73 L 389.50,419.26 L 388.99,420.19 L 388.19,421.26 L 387.91,421.53 L 387.15,422.02 L 386.73,422.26 L 385.73,422.67 L 384.69,423.05 L 382.22,423.52 L 380.97,423.71 L 378.51,423.71 L 377.34,423.65 L 375.47,423.10 L 374.69,422.77 L 373.43,421.90 L 372.85,421.44 L 371.96,420.30 L 371.56,419.69 L 371.04,418.26 L 370.65,415.78 L 370.63,415.28 L 370.71,414.44 L 370.77,414.05 L 371.00,413.43 L 371.25,412.86 L 371.98,412.43 L 372.35,412.34 L 373.09,412.92 L 373.26,413.13 L 373.54,413.75 L 373.84,415.00 L 373.97,415.93 L 374.59,417.50 L 374.95,418.24 L 376.01,419.39 L 376.58,419.91 L 378.01,420.58 L 380.50,421.00 L 381.56,421.00 L 383.33,420.49 L 384.16,420.16 L 385.40,419.04 L 385.96,418.42 L 386.60,416.79 L 386.82,413.84 L 386.75,413.09 L 386.46,411.96 L 386.27,411.43 L 385.52,410.54 L 385.06,410.10 L 383.55,409.17 L 383.11,408.92 L 382.04,408.37 L 380.11,407.42 L 378.35,406.57 L 375.20,404.69 L 374.49,404.25 L 373.39,403.44 L 372.36,402.48 L 371.83,401.76 L 371.25,399.96 L 371.04,399.03 L 371.07,397.01 L 371.15,395.99 L 371.77,394.02 L 373.33,391.41 L 373.80,390.86 L 374.69,390.05 L 375.14,389.69 L 376.13,389.21 L 376.66,389.00 L 377.94,388.76 L 380.41,388.60 L 381.42,388.58 M 320.61,397.12 L 322.04,397.62 L 324.00,399.00 L 324.44,399.44 L 325.05,400.41 L 325.32,400.96 L 325.66,402.53 L 325.73,402.99 L 325.83,404.10 L 325.88,404.70 L 325.93,406.14 L 325.96,406.91 L 325.99,408.74 L 326.00,412.00 L 326.00,413.14 L 325.99,415.09 L 325.98,416.01 L 325.94,417.56 L 325.92,418.29 L 325.85,419.48 L 325.82,420.04 L 325.72,420.92 L 325.61,421.72 L 325.26,422.56 L 324.50,423.00 L 324.19,423.00 L 323.75,422.61 L 323.55,422.32 L 323.29,421.16 L 323.23,420.80 L 323.15,419.90 L 323.11,419.42 L 323.06,418.23 L 323.04,417.60 L 323.01,416.10 L 323.00,413.43 L 323.00,412.10 L 322.95,409.80 L 322.92,408.70 L 322.80,406.84 L 322.73,405.96 L 322.52,404.50 L 322.40,403.81 L 322.09,402.72 L 321.93,402.21 L 321.50,401.44 L 321.27,401.09 L 320.72,400.60 L 320.43,400.39 L 319.73,400.14 L 318.52,400.00 L 318.00,400.00 L 317.09,400.17 L 316.65,400.28 L 315.90,400.69 L 315.55,400.93 L 314.95,401.62 L 314.66,402.00 L 314.20,402.99 L 313.99,403.52 L 313.65,404.84 L 313.50,405.54 L 313.28,407.22 L 313.18,408.10 L 313.07,410.17 L 313.00,413.72 L 313.00,414.67 L 312.99,416.30 L 312.98,417.07 L 312.94,418.37 L 312.92,418.98 L 312.85,419.99 L 312.81,420.46 L 312.71,421.20 L 312.60,421.89 L 312.25,422.62 L 311.50,423.00 L 311.19,423.00 L 310.74,422.52 L 310.64,422.34 L 310.47,421.80 L 310.40,421.49 L 310.28,420.67 L 310.23,420.21 L 310.14,419.04 L 310.11,418.41 L 310.06,416.86 L 310.04,416.03 L 310.01,414.04 L 310.00,412.98 L 310.00,410.50 L 310.00,409.19 L 310.01,406.96 L 310.02,405.91 L 310.06,404.14 L 310.08,403.31 L 310.14,401.96 L 310.18,401.32 L 310.28,400.33 L 310.33,399.88 L 310.47,399.20 L 310.55,398.90 L 310.74,398.48 L 311.50,398.00 L 311.91,398.00 L 312.56,398.31 L 313.00,399.06 L 313.00,399.20 L 313.17,399.35 L 313.28,399.40 L 313.64,399.36 L 315.22,398.56 L 315.98,398.03 L 317.54,397.39 L 318.31,397.15 L 319.85,397.08 M 155.27,389.62 L 155.37,389.86 L 155.53,390.57 L 155.61,390.97 L 155.73,392.08 L 155.78,392.69 L 155.86,394.27 L 155.90,395.13 L 155.94,397.25 L 155.97,398.39 L 155.99,401.12 L 156.00,406.00 L 156.00,407.81 L 155.99,410.88 L 155.98,412.33 L 155.94,414.75 L 155.92,415.89 L 155.86,417.73 L 155.83,418.58 L 155.73,419.92 L 155.67,420.53 L 155.53,421.43 L 155.46,421.83 L 155.27,422.38 L 154.50,423.00 L 154.18,423.00 L 153.73,422.38 L 153.63,422.14 L 153.47,421.43 L 153.39,421.03 L 153.27,419.92 L 153.22,419.31 L 153.14,417.73 L 153.10,416.87 L 153.06,414.75 L 153.03,413.61 L 153.01,410.88 L 153.00,409.43 L 153.00,406.00 L 153.00,404.19 L 153.01,401.12 L 153.02,399.67 L 153.06,397.25 L 153.08,396.11 L 153.14,394.27 L 153.17,393.42 L 153.27,392.08 L 153.33,391.47 L 153.47,390.57 L 153.54,390.17 L 153.73,389.62 L 154.50,389.00 L 154.82,389.00 M 172.60,397.46 L 174.78,398.56 L 175.30,398.92 L 176.00,399.70 L 176.31,400.15 L 176.67,401.59 L 176.74,402.03 L 176.84,403.13 L 176.89,403.73 L 176.94,405.22 L 176.97,406.02 L 176.99,407.99 L 177.00,411.56 L 177.00,412.74 L 176.99,414.78 L 176.98,415.74 L 176.94,417.35 L 176.92,418.11 L 176.85,419.35 L 176.82,419.93 L 176.72,420.84 L 176.66,421.26 L 176.52,421.89 L 176.45,422.17 L 176.26,422.55 L 175.50,423.00 L 175.19,423.00 L 174.74,422.58 L 174.55,422.28 L 174.29,421.03 L 174.23,420.65 L 174.15,419.69 L 174.11,419.17 L 174.06,417.89 L 174.04,417.21 L 174.01,415.58 L 174.00,412.70 L 174.00,411.35 L 173.96,409.05 L 173.94,407.96 L 173.84,406.15 L 173.78,405.30 L 173.59,403.92 L 173.48,403.29 L 173.19,402.29 L 173.03,401.83 L 172.61,401.16 L 172.38,400.86 L 171.82,400.46 L 169.50,400.00 L 168.54,400.00 L 167.18,400.46 L 166.88,400.63 L 166.39,401.16 L 166.16,401.46 L 165.81,402.29 L 165.65,402.75 L 165.41,403.92 L 165.31,404.56 L 165.16,406.15 L 165.10,407.00 L 165.04,409.05 L 165.00,412.70 L 165.00,413.90 L 164.99,415.91 L 164.98,416.85 L 164.95,418.37 L 164.93,419.08 L 164.86,420.19 L 164.82,420.70 L 164.70,421.46 L 164.63,421.81 L 164.45,422.28 L 164.36,422.49 L 164.10,422.75 L 163.00,423.00 L 162.53,423.00 L 161.89,422.71 L 161.75,422.59 L 161.54,422.17 L 161.44,421.92 L 161.29,421.19 L 161.22,420.78 L 161.13,419.66 L 161.09,419.04 L 161.05,417.45 L 161.03,416.58 L 161.01,414.43 L 161.00,413.28 L 161.00,410.50 L 161.00,409.19 L 161.01,406.96 L 161.02,405.91 L 161.06,404.14 L 161.08,403.31 L 161.14,401.96 L 161.18,401.32 L 161.28,400.33 L 161.33,399.88 L 161.47,399.20 L 161.55,398.90 L 161.74,398.48 L 162.50,398.00 L 162.91,398.00 L 163.56,398.31 L 164.00,399.06 L 164.00,399.20 L 164.17,399.35 L 164.28,399.40 L 164.64,399.36 L 166.22,398.56 L 166.83,398.13 L 168.40,397.46 L 170.50,397.00 L 171.07,397.00 M 354.27,389.62 L 354.37,389.86 L 354.53,390.57 L 354.61,390.97 L 354.73,392.08 L 354.78,392.69 L 354.86,394.27 L 354.90,395.13 L 354.94,397.25 L 354.97,398.39 L 354.99,401.12 L 355.00,406.00 L 355.00,407.81 L 354.99,410.88 L 354.98,412.33 L 354.94,414.75 L 354.92,415.89 L 354.86,417.73 L 354.83,418.58 L 354.73,419.92 L 354.67,420.53 L 354.53,421.43 L 354.46,421.83 L 354.27,422.38 L 353.50,423.00 L 353.18,423.00 L 352.73,422.38 L 352.63,422.14 L 352.47,421.43 L 352.39,421.03 L 352.27,419.92 L 352.22,419.31 L 352.14,417.73 L 352.10,416.87 L 352.06,414.75 L 352.03,413.61 L 352.01,410.88 L 352.00,409.43 L 352.00,406.00 L 352.00,404.19 L 352.01,401.12 L 352.02,399.67 L 352.06,397.25 L 352.08,396.11 L 352.14,394.27 L 352.17,393.42 L 352.27,392.08 L 352.33,391.47 L 352.47,390.57 L 352.54,390.17 L 352.73,389.62 L 353.50,389.00 L 353.82,389.00 M 438.45,398.28 L 438.73,398.52 L 439.22,399.63 L 439.34,399.99 L 439.59,400.94 L 439.72,401.46 L 440.00,402.79 L 440.14,403.51 L 440.47,405.28 L 441.04,408.50 L 441.21,409.46 L 441.57,411.32 L 441.75,412.22 L 442.10,413.83 L 442.28,414.58 L 442.59,415.75 L 442.95,416.81 L 443.00,416.90 L 443.13,416.87 L 443.20,416.82 L 443.37,416.52 L 443.54,416.17 L 443.98,414.78 L 444.21,413.98 L 444.72,411.86 L 445.49,408.06 L 445.70,406.92 L 446.06,405.02 L 446.23,404.12 L 446.54,402.66 L 446.69,401.97 L 446.98,400.89 L 447.11,400.39 L 447.39,399.62 L 447.66,398.93 L 448.28,398.29 L 449.50,398.00 L 449.99,398.00 L 450.72,398.29 L 451.05,398.53 L 451.61,399.62 L 451.75,399.96 L 452.02,400.87 L 452.16,401.37 L 452.45,402.63 L 452.60,403.31 L 452.93,404.98 L 453.50,408.00 L 453.75,409.37 L 454.24,411.86 L 454.47,413.04 L 454.89,414.97 L 455.08,415.85 L 455.38,417.02 L 455.44,417.26 L 455.54,417.55 L 455.64,417.69 L 455.68,417.65 L 455.88,416.99 L 455.99,416.57 L 456.30,415.29 L 456.47,414.59 L 456.85,412.86 L 457.47,409.94 L 457.77,408.48 L 458.27,406.07 L 458.50,404.94 L 458.89,403.14 L 459.08,402.30 L 459.40,401.02 L 459.55,400.43 L 459.82,399.58 L 459.95,399.20 L 460.21,398.69 L 460.34,398.47 L 460.61,398.22 L 461.63,398.00 L 461.91,398.00 L 462.33,398.13 L 462.51,398.21 L 462.73,398.52 L 462.81,398.70 L 462.84,399.22 L 462.69,400.25 L 462.62,400.56 L 462.31,401.93 L 462.13,402.72 L 461.66,404.85 L 461.41,405.98 L 460.83,408.59 L 459.92,412.75 L 459.69,413.80 L 459.28,415.59 L 459.08,416.44 L 458.72,417.88 L 458.54,418.56 L 458.22,419.67 L 458.06,420.19 L 457.76,421.01 L 457.46,421.77 L 456.87,422.57 L 455.87,423.00 L 455.39,423.00 L 454.60,422.46 L 454.41,422.26 L 454.04,421.66 L 453.86,421.32 L 453.50,420.41 L 453.32,419.90 L 452.95,418.61 L 452.76,417.92 L 452.36,416.21 L 452.15,415.29 L 451.69,413.10 L 450.93,409.22 L 450.76,408.36 L 450.44,406.81 L 450.28,406.07 L 449.98,404.88 L 449.84,404.34 L 449.62,403.64 L 449.39,403.28 L 449.34,403.32 L 449.14,403.99 L 449.02,404.41 L 448.71,405.70 L 448.54,406.41 L 448.15,408.14 L 447.53,411.06 L 447.22,412.56 L 446.71,415.03 L 446.48,416.17 L 446.08,418.00 L 445.89,418.84 L 445.57,420.12 L 445.41,420.71 L 445.13,421.54 L 444.99,421.91 L 444.70,422.39 L 444.56,422.60 L 444.24,422.83 L 442.98,423.00 L 442.44,423.00 L 441.58,422.84 L 441.22,422.73 L 441.00,422.44 L 441.00,422.40 L 440.95,422.10 L 440.92,421.92 L 440.80,421.35 L 440.68,420.72 L 440.27,418.79 L 440.04,417.74 L 439.47,415.15 L 438.50,410.81 L 438.13,409.18 L 437.54,406.53 L 437.26,405.29 L 436.84,403.33 L 436.65,402.42 L 436.39,401.05 L 436.28,400.43 L 436.17,399.53 L 436.14,399.14 L 436.19,398.63 L 436.22,398.41 L 436.41,398.18 L 437.43,398.00 L 437.84,398.00 M 224.62,397.31 L 224.98,398.25 L 224.98,398.42 L 224.72,398.85 L 224.55,399.08 L 224.01,399.57 L 221.73,401.00 L 218.50,402.50 L 218.22,412.75 L 218.18,413.93 L 218.12,415.90 L 218.08,416.82 L 218.01,418.33 L 217.97,419.03 L 217.86,420.14 L 217.81,420.64 L 217.67,421.41 L 217.52,422.10 L 217.04,422.72 L 215.97,423.00 L 215.50,423.00 L 214.88,422.70 L 214.74,422.57 L 214.53,422.15 L 214.43,421.90 L 214.29,421.16 L 214.22,420.75 L 214.13,419.62 L 214.10,419.01 L 214.05,417.41 L 214.03,416.55 L 214.01,414.41 L 214.00,413.27 L 214.00,410.50 L 214.00,409.02 L 214.01,406.57 L 214.01,405.41 L 214.05,403.55 L 214.07,402.69 L 214.13,401.34 L 214.17,400.73 L 214.29,399.81 L 214.36,399.40 L 214.54,398.83 L 214.63,398.59 L 214.89,398.29 L 216.00,398.00 L 216.55,398.00 L 217.41,398.31 L 218.00,399.06 L 218.00,399.20 L 218.17,399.35 L 218.28,399.40 L 218.64,399.36 L 220.22,398.56 L 220.89,398.09 L 222.10,397.48 L 222.67,397.23 L 223.62,397.06 L 224.05,397.03 M 237.92,397.12 L 238.66,397.21 L 240.04,397.89 L 241.93,399.63 L 242.38,400.21 L 243.01,401.37 L 243.29,401.99 L 243.64,403.63 L 243.71,404.09 L 243.82,405.18 L 243.87,405.76 L 243.93,407.14 L 243.96,407.87 L 243.98,409.59 L 244.00,412.63 L 244.00,413.84 L 243.99,415.85 L 243.98,416.79 L 243.95,418.32 L 243.93,419.03 L 243.86,420.15 L 243.82,420.66 L 243.70,421.43 L 243.64,421.78 L 243.46,422.26 L 243.36,422.47 L 243.11,422.74 L 242.03,423.00 L 241.58,423.00 L 240.95,422.71 L 240.81,422.59 L 240.59,422.19 L 240.49,421.96 L 240.32,421.28 L 240.25,420.91 L 240.13,419.89 L 240.07,419.33 L 239.99,417.91 L 239.95,417.13 L 239.88,415.23 L 239.78,411.75 L 239.50,400.50 L 236.88,400.20 L 236.28,400.13 L 235.25,400.14 L 234.76,400.17 L 233.94,400.42 L 233.55,400.58 L 232.92,401.12 L 232.62,401.43 L 232.15,402.29 L 231.93,402.77 L 231.60,404.00 L 231.45,404.67 L 231.25,406.33 L 231.16,407.21 L 231.06,409.33 L 231.00,413.07 L 231.00,414.09 L 230.99,415.84 L 230.98,416.67 L 230.94,418.06 L 230.92,418.72 L 230.85,419.80 L 230.81,420.30 L 230.71,421.10 L 230.60,421.83 L 230.25,422.60 L 229.50,423.00 L 229.19,423.00 L 228.74,422.52 L 228.64,422.34 L 228.47,421.80 L 228.40,421.49 L 228.28,420.67 L 228.23,420.21 L 228.14,419.04 L 228.11,418.41 L 228.06,416.86 L 228.04,416.03 L 228.01,414.04 L 228.00,412.98 L 228.00,410.50 L 228.00,409.19 L 228.01,406.96 L 228.02,405.91 L 228.06,404.14 L 228.08,403.31 L 228.14,401.96 L 228.18,401.32 L 228.28,400.33 L 228.33,399.88 L 228.47,399.20 L 228.55,398.90 L 228.74,398.48 L 229.50,398.00 L 229.91,398.00 L 230.56,398.31 L 231.00,399.06 L 231.00,399.20 L 231.17,399.35 L 231.28,399.40 L 231.64,399.36 L 233.22,398.56 L 234.04,397.98 L 235.63,397.34 L 236.42,397.10 M 283.26,398.48 L 283.36,398.66 L 283.53,399.20 L 283.60,399.51 L 283.72,400.33 L 283.77,400.79 L 283.86,401.96 L 283.89,402.59 L 283.94,404.14 L 283.96,404.97 L 283.99,406.96 L 284.00,410.50 L 284.00,411.81 L 283.99,414.04 L 283.98,415.09 L 283.94,416.86 L 283.92,417.69 L 283.86,419.04 L 283.82,419.68 L 283.72,420.67 L 283.67,421.12 L 283.53,421.80 L 283.45,422.10 L 283.26,422.52 L 282.50,423.00 L 282.19,423.00 L 281.74,422.52 L 281.64,422.34 L 281.47,421.80 L 281.40,421.49 L 281.28,420.67 L 281.23,420.21 L 281.14,419.04 L 281.11,418.41 L 281.06,416.86 L 281.04,416.03 L 281.01,414.04 L 281.00,412.98 L 281.00,410.50 L 281.00,409.19 L 281.01,406.96 L 281.02,405.91 L 281.06,404.14 L 281.08,403.31 L 281.14,401.96 L 281.18,401.32 L 281.28,400.33 L 281.33,399.88 L 281.47,399.20 L 281.55,398.90 L 281.74,398.48 L 282.50,398.00 L 282.81,398.00 M 496.65,397.42 L 497.00,398.50 L 497.00,398.91 L 496.56,399.56 L 495.50,400.00 L 495.09,400.00 L 493.85,400.59 L 492.00,402.00 L 491.57,402.43 L 490.96,403.37 L 490.69,403.89 L 490.36,405.33 L 490.28,405.74 L 490.18,406.73 L 490.13,407.25 L 490.07,408.50 L 490.04,409.16 L 490.02,410.73 L 490.00,413.50 L 490.00,414.60 L 489.99,416.44 L 489.98,417.31 L 489.95,418.71 L 489.93,419.36 L 489.86,420.39 L 489.82,420.86 L 489.70,421.56 L 489.56,422.20 L 489.10,422.76 L 488.00,423.00 L 487.53,423.00 L 486.89,422.71 L 486.75,422.59 L 486.54,422.17 L 486.44,421.92 L 486.29,421.19 L 486.22,420.78 L 486.13,419.66 L 486.09,419.04 L 486.05,417.45 L 486.03,416.58 L 486.01,414.43 L 486.00,413.28 L 486.00,410.50 L 486.00,409.02 L 486.01,406.57 L 486.01,405.41 L 486.05,403.55 L 486.07,402.69 L 486.13,401.34 L 486.17,400.73 L 486.29,399.81 L 486.36,399.40 L 486.54,398.83 L 486.63,398.59 L 486.89,398.29 L 488.00,398.00 L 488.55,398.00 L 489.41,398.31 L 490.00,399.06 L 490.00,399.20 L 490.17,399.35 L 490.28,399.40 L 490.64,399.36 L 492.22,398.56 L 492.93,398.06 L 494.15,397.45 L 494.73,397.20 L 495.67,397.06 L 496.09,397.06 M 677.57,397.47 L 680.04,398.83 L 680.62,399.30 L 681.40,400.20 L 681.75,400.70 L 682.18,402.18 L 682.28,402.61 L 682.42,403.70 L 682.49,404.29 L 682.59,405.75 L 682.64,406.54 L 682.72,408.45 L 682.84,411.91 L 682.88,413.24 L 682.94,415.44 L 682.96,416.47 L 682.98,418.13 L 682.99,418.90 L 682.96,420.09 L 682.93,420.64 L 682.84,421.44 L 682.78,421.80 L 682.62,422.29 L 682.52,422.51 L 682.27,422.76 L 681.12,423.00 L 680.64,423.00 L 679.98,422.73 L 679.83,422.62 L 679.60,422.23 L 679.49,422.01 L 679.33,421.35 L 679.25,420.98 L 679.13,419.96 L 679.07,419.41 L 678.99,417.98 L 678.95,417.20 L 678.88,415.27 L 678.78,411.75 L 678.50,400.50 L 675.88,400.20 L 675.28,400.13 L 674.25,400.14 L 673.76,400.17 L 672.94,400.42 L 672.55,400.58 L 671.92,401.12 L 671.62,401.43 L 671.15,402.29 L 670.93,402.77 L 670.60,404.00 L 670.45,404.67 L 670.25,406.33 L 670.16,407.21 L 670.06,409.33 L 670.00,413.07 L 670.00,414.23 L 669.99,416.16 L 669.98,417.06 L 669.95,418.53 L 669.93,419.21 L 669.86,420.28 L 669.82,420.77 L 669.70,421.51 L 669.57,422.17 L 669.10,422.75 L 668.00,423.00 L 667.53,423.00 L 666.89,422.71 L 666.75,422.59 L 666.54,422.17 L 666.44,421.92 L 666.29,421.19 L 666.22,420.78 L 666.13,419.66 L 666.09,419.04 L 666.05,417.45 L 666.03,416.58 L 666.01,414.43 L 666.00,413.28 L 666.00,410.50 L 666.00,398.00 L 669.25,398.09 L 670.14,398.11 L 672.29,397.95 L 675.04,397.51 L 675.94,397.28 M 720.26,398.48 L 720.36,398.66 L 720.53,399.20 L 720.60,399.51 L 720.72,400.33 L 720.77,400.79 L 720.86,401.96 L 720.89,402.59 L 720.94,404.14 L 720.96,404.97 L 720.99,406.96 L 721.00,410.50 L 721.00,411.81 L 720.99,414.04 L 720.98,415.09 L 720.94,416.86 L 720.92,417.69 L 720.86,419.04 L 720.82,419.68 L 720.72,420.67 L 720.67,421.12 L 720.53,421.80 L 720.45,422.10 L 720.26,422.52 L 719.50,423.00 L 719.19,423.00 L 718.74,422.52 L 718.64,422.34 L 718.47,421.80 L 718.40,421.49 L 718.28,420.67 L 718.23,420.21 L 718.14,419.04 L 718.11,418.41 L 718.06,416.86 L 718.04,416.03 L 718.01,414.04 L 718.00,412.98 L 718.00,410.50 L 718.00,409.19 L 718.01,406.96 L 718.02,405.91 L 718.06,404.14 L 718.08,403.31 L 718.14,401.96 L 718.18,401.32 L 718.28,400.33 L 718.33,399.88 L 718.47,399.20 L 718.55,398.90 L 718.74,398.48 L 719.50,398.00 L 719.81,398.00 M 602.27,389.62 L 602.37,389.86 L 602.53,390.57 L 602.61,390.97 L 602.73,392.08 L 602.78,392.69 L 602.86,394.27 L 602.90,395.13 L 602.94,397.25 L 602.97,398.39 L 602.99,401.12 L 603.00,406.00 L 603.00,407.81 L 602.99,410.88 L 602.98,412.33 L 602.94,414.75 L 602.92,415.89 L 602.86,417.73 L 602.83,418.58 L 602.73,419.92 L 602.67,420.53 L 602.53,421.43 L 602.46,421.83 L 602.27,422.38 L 601.50,423.00 L 601.18,423.00 L 600.73,422.38 L 600.63,422.14 L 600.47,421.43 L 600.39,421.03 L 600.27,419.92 L 600.22,419.31 L 600.14,417.73 L 600.10,416.87 L 600.06,414.75 L 600.03,413.61 L 600.01,410.88 L 600.00,409.43 L 600.00,406.00 L 600.00,404.19 L 600.01,401.12 L 600.02,399.67 L 600.06,397.25 L 600.08,396.11 L 600.14,394.27 L 600.17,393.42 L 600.27,392.08 L 600.33,391.47 L 600.47,390.57 L 600.54,390.17 L 600.73,389.62 L 601.50,389.00 L 601.82,389.00 M 611.11,398.29 L 611.25,398.41 L 611.46,398.83 L 611.56,399.08 L 611.71,399.81 L 611.78,400.22 L 611.87,401.34 L 611.91,401.96 L 611.95,403.55 L 611.97,404.42 L 611.99,406.57 L 612.00,410.50 L 612.00,411.98 L 611.99,414.43 L 611.99,415.59 L 611.95,417.45 L 611.93,418.31 L 611.87,419.66 L 611.83,420.27 L 611.71,421.19 L 611.64,421.60 L 611.46,422.17 L 611.37,422.41 L 611.11,422.71 L 610.00,423.00 L 609.53,423.00 L 608.89,422.71 L 608.75,422.59 L 608.54,422.17 L 608.44,421.92 L 608.29,421.19 L 608.22,420.78 L 608.13,419.66 L 608.09,419.04 L 608.05,417.45 L 608.03,416.58 L 608.01,414.43 L 608.00,413.28 L 608.00,410.50 L 608.00,409.02 L 608.01,406.57 L 608.01,405.41 L 608.05,403.55 L 608.07,402.69 L 608.13,401.34 L 608.17,400.73 L 608.29,399.81 L 608.36,399.40 L 608.54,398.83 L 608.63,398.59 L 608.89,398.29 L 610.00,398.00 L 610.47,398.00 M 660.27,389.62 L 660.37,389.86 L 660.53,390.57 L 660.61,390.97 L 660.73,392.08 L 660.78,392.69 L 660.86,394.27 L 660.90,395.13 L 660.94,397.25 L 660.97,398.39 L 660.99,401.12 L 661.00,406.00 L 661.00,407.81 L 660.99,410.88 L 660.98,412.33 L 660.94,414.75 L 660.92,415.89 L 660.86,417.73 L 660.83,418.58 L 660.73,419.92 L 660.67,420.53 L 660.53,421.43 L 660.46,421.83 L 660.27,422.38 L 659.50,423.00 L 659.18,423.00 L 658.73,422.38 L 658.63,422.14 L 658.47,421.43 L 658.39,421.03 L 658.27,419.92 L 658.22,419.31 L 658.14,417.73 L 658.10,416.87 L 658.06,414.75 L 658.03,413.61 L 658.01,410.88 L 658.00,409.43 L 658.00,406.00 L 658.00,404.19 L 658.01,401.12 L 658.02,399.67 L 658.06,397.25 L 658.08,396.11 L 658.14,394.27 L 658.17,393.42 L 658.27,392.08 L 658.33,391.47 L 658.47,390.57 L 658.54,390.17 L 658.73,389.62 L 659.50,389.00 L 659.82,389.00 M 257.75,410.54 L 256.72,410.85 L 254.95,411.64 L 254.12,412.06 L 252.82,413.03 L 252.24,413.53 L 251.47,414.62 L 251.00,416.32 L 251.00,416.87 L 251.19,417.84 L 251.32,418.30 L 251.73,419.09 L 251.95,419.46 L 252.54,420.04 L 252.85,420.31 L 253.56,420.67 L 254.29,420.98 L 255.97,420.86 L 256.39,420.76 L 257.22,420.36 L 257.64,420.12 L 258.43,419.43 L 258.65,419.20 L 259.06,418.50 L 259.25,418.12 L 259.55,417.17 L 260.00,413.86 L 260.00,412.94 L 259.94,411.70 L 259.89,411.17 L 259.65,410.59 L 259.50,410.36 L 258.97,410.28 M 400.96,400.40 L 398.83,401.96 L 398.53,402.33 L 398.04,403.39 L 397.81,403.97 L 397.46,405.37 L 397.15,406.83 L 396.95,410.25 L 396.92,411.97 L 397.30,415.19 L 397.44,415.94 L 397.82,417.24 L 398.56,418.78 L 399.06,419.50 L 400.37,420.40 L 401.05,420.76 L 402.51,420.95 L 403.23,420.96 L 404.55,420.43 L 405.17,420.08 L 406.09,418.83 L 406.26,418.51 L 406.55,417.62 L 406.69,417.13 L 406.91,415.96 L 407.12,414.74 L 407.32,411.83 L 407.38,410.35 L 407.27,407.43 L 406.72,403.77 L 406.45,402.79 L 405.39,401.41 L 404.79,400.82 L 403.31,400.26 L 402.54,400.08 M 295.96,400.40 L 293.83,401.96 L 293.53,402.33 L 293.04,403.39 L 292.81,403.97 L 292.46,405.37 L 292.15,406.83 L 291.95,410.25 L 291.92,411.97 L 292.30,415.19 L 292.44,415.94 L 292.82,417.24 L 293.56,418.78 L 294.06,419.50 L 295.37,420.40 L 296.05,420.76 L 297.51,420.95 L 298.23,420.96 L 299.55,420.43 L 300.17,420.08 L 301.09,418.83 L 301.26,418.51 L 301.55,417.62 L 301.69,417.13 L 301.91,415.96 L 302.12,414.74 L 302.32,411.83 L 302.38,410.35 L 302.27,407.43 L 301.72,403.77 L 301.45,402.79 L 300.39,401.41 L 299.79,400.82 L 298.31,400.26 L 297.54,400.08 M 475.25,410.60 L 474.27,410.83 L 472.46,411.51 L 471.59,411.88 L 470.15,412.76 L 469.49,413.22 L 468.58,414.18 L 468.00,415.59 L 468.00,416.24 L 468.24,417.38 L 468.40,417.93 L 468.92,418.85 L 469.20,419.28 L 469.91,419.96 L 470.29,420.26 L 471.14,420.67 L 471.58,420.83 L 472.51,420.94 L 472.98,420.95 L 473.91,420.74 L 474.37,420.59 L 475.26,420.03 L 475.68,419.71 L 476.44,418.78 L 476.87,418.17 L 477.54,416.24 L 478.00,413.26 L 478.00,412.49 L 477.93,411.46 L 477.88,411.02 L 477.59,410.55 L 477.41,410.37 L 476.77,410.33 M 340.39,410.57 L 339.58,410.75 L 338.13,411.26 L 337.43,411.53 L 336.22,412.18 L 335.65,412.52 L 334.71,413.29 L 334.28,413.68 L 333.63,414.52 L 333.35,414.95 L 333.01,415.84 L 332.88,416.28 L 332.87,417.19 L 332.91,417.64 L 333.26,418.52 L 334.20,419.80 L 334.61,420.21 L 335.75,420.70 L 336.34,420.89 L 337.65,420.95 L 338.30,420.93 L 339.52,420.56 L 340.10,420.32 L 340.97,419.54 L 341.13,419.34 L 341.48,418.65 L 341.65,418.27 L 341.98,417.31 L 342.73,413.99 L 342.87,412.96 L 343.00,411.63 L 343.03,411.07 L 342.85,410.49 L 342.70,410.28 L 342.05,410.24 M 588.25,410.62 L 587.20,410.87 L 585.51,411.42 L 584.74,411.71 L 583.56,412.36 L 583.02,412.71 L 582.26,413.52 L 581.51,414.96 L 581.31,415.60 L 581.26,416.78 L 581.28,417.35 L 581.63,418.35 L 581.84,418.82 L 582.49,419.60 L 582.84,419.95 L 583.70,420.46 L 584.15,420.68 L 585.14,420.87 L 585.64,420.93 L 586.67,420.77 L 587.17,420.65 L 588.14,420.10 L 588.61,419.77 L 589.44,418.78 L 589.87,418.17 L 590.54,416.24 L 591.00,413.26 L 591.00,412.49 L 590.93,411.46 L 590.88,411.02 L 590.59,410.55 L 590.41,410.37 L 589.77,410.34 M 541.15,391.55 L 540.53,391.65 L 539.35,392.14 L 538.77,392.43 L 537.74,393.30 L 536.47,395.07 L 536.06,395.85 L 535.49,397.88 L 535.24,398.96 L 534.96,401.42 L 534.85,402.68 L 534.84,405.37 L 534.87,406.72 L 535.10,409.42 L 535.25,410.76 L 535.70,413.26 L 535.96,414.47 L 536.62,416.57 L 536.97,417.55 L 537.80,419.03 L 539.23,420.33 L 539.70,420.52 L 540.88,420.76 L 541.48,420.85 L 542.71,420.90 L 543.30,420.90 L 544.33,420.76 L 544.79,420.66 L 545.34,420.33 L 545.52,420.15 L 545.34,419.34 L 544.40,417.89 L 543.84,417.27 L 543.37,416.17 L 543.23,415.66 L 543.48,414.97 L 543.67,414.69 L 544.47,414.65 L 546.08,415.57 L 546.52,415.97 L 547.14,416.47 L 547.41,416.67 L 547.80,416.75 L 547.97,416.74 L 548.26,416.39 L 548.73,415.39 L 548.85,415.08 L 549.06,414.03 L 549.15,413.45 L 549.29,411.95 L 549.41,410.37 L 549.48,406.49 L 549.48,404.54 L 549.29,400.83 L 549.23,399.97 L 549.06,398.48 L 548.73,396.76 L 548.52,395.99 L 547.83,394.69 L 547.45,394.09 L 546.49,393.12 L 545.99,392.68 L 544.85,392.06 L 544.26,391.80 L 543.02,391.53 L 542.40,391.45 M 200.84,400.00 L 199.75,400.28 L 199.24,400.48 L 198.41,401.19 L 198.02,401.61 L 197.40,402.82 L 196.62,405.25 L 195.96,408.00 L 207.22,408.00 L 206.53,405.26 L 206.29,404.31 L 205.72,402.85 L 205.41,402.18 L 204.66,401.22 L 204.25,400.79 L 203.27,400.29 L 201.50,400.00 M 778.06,399.92 L 777.12,400.16 L 776.66,400.33 L 775.77,400.92 L 774.56,402.22 L 774.18,402.76 L 773.62,403.70 L 773.37,404.15 L 773.05,404.93 L 772.93,405.30 L 772.87,405.93 L 772.87,406.23 L 773.08,406.72 L 773.21,406.94 L 773.68,407.30 L 773.95,407.46 L 774.70,407.70 L 775.11,407.80 L 776.14,407.93 L 778.00,408.00 L 778.60,408.00 L 779.60,407.99 L 780.06,407.98 L 780.81,407.94 L 781.50,407.89 L 782.30,407.61 L 782.63,407.43 L 782.90,406.77 L 782.99,406.38 L 783.00,405.20 L 783.00,404.54 L 782.76,403.39 L 782.60,402.84 L 782.10,401.92 L 781.82,401.49 L 781.11,400.83 L 780.74,400.53 L 779.89,400.15 L 779.45,400.00 L 778.53,399.92 M 507.06,399.92 L 506.12,400.16 L 505.66,400.33 L 504.77,400.92 L 503.56,402.22 L 503.18,402.76 L 502.62,403.70 L 502.37,404.15 L 502.05,404.93 L 501.93,405.30 L 501.87,405.93 L 501.87,406.23 L 502.08,406.72 L 502.21,406.94 L 502.68,407.30 L 502.95,407.46 L 503.70,407.70 L 504.11,407.80 L 505.14,407.93 L 507.00,408.00 L 507.60,408.00 L 508.60,407.99 L 509.06,407.98 L 509.81,407.94 L 510.50,407.89 L 511.30,407.61 L 511.63,407.43 L 511.90,406.77 L 511.99,406.38 L 512.00,405.20 L 512.00,404.54 L 511.76,403.39 L 511.60,402.84 L 511.10,401.92 L 510.82,401.49 L 510.11,400.83 L 509.74,400.53 L 508.89,400.15 L 508.45,400.00 L 507.53,399.92 M 283.60,389.67 L 284.00,391.50 L 284.00,392.28 L 283.60,393.33 L 282.50,394.00 L 282.03,394.00 L 281.40,393.33 L 281.14,392.90 L 281.00,391.50 L 281.00,390.72 L 281.40,389.67 L 282.50,389.00 L 282.97,389.00 M 720.60,389.67 L 721.00,391.50 L 721.00,392.28 L 720.60,393.33 L 719.50,394.00 L 719.03,394.00 L 718.40,393.33 L 718.14,392.90 L 718.00,391.50 L 718.00,390.72 L 718.40,389.67 L 719.50,389.00 L 719.97,389.00 M 610.93,389.13 L 611.19,389.22 L 611.55,389.56 L 611.71,389.76 L 611.89,390.34 L 612.00,391.50 L 612.00,391.96 L 611.89,392.66 L 611.82,392.98 L 611.55,393.44 L 611.39,393.64 L 610.93,393.87 L 610.00,394.00 L 609.63,394.00 L 609.07,393.87 L 608.81,393.78 L 608.45,393.44 L 608.29,393.24 L 608.11,392.66 L 608.03,392.34 L 608.00,391.50 L 608.00,391.04 L 608.11,390.34 L 608.18,390.02 L 608.45,389.56 L 608.61,389.36 L 609.07,389.13 L 610.00,389.00 L 610.37,389.00 M 714.23,203.58 L 716.76,203.72 L 721.83,204.39 L 724.36,204.79 L 729.39,205.98 L 731.89,206.64 L 736.84,208.36 L 744.14,211.57 L 746.78,212.90 L 751.72,215.88 L 754.14,217.42 L 758.62,220.82 L 760.81,222.57 L 764.84,226.38 L 766.79,228.33 L 770.34,232.55 L 772.06,234.70 L 775.14,239.31 L 776.61,241.66 L 779.20,246.64 L 780.44,249.18 L 782.54,254.55 L 785.12,263.00 L 785.57,264.78 L 786.19,267.79 L 786.46,269.26 L 786.77,272.18 L 786.89,273.70 L 786.93,277.22 L 786.93,278.18 L 786.89,280.32 L 786.77,283.96 L 786.70,285.67 L 786.48,288.90 L 786.35,290.48 L 785.99,293.49 L 785.60,296.46 L 784.35,301.96 L 783.65,304.67 L 781.70,309.96 L 777.88,318.06 L 776.98,319.76 L 774.98,323.02 L 773.94,324.62 L 771.68,327.71 L 770.52,329.22 L 768.03,332.12 L 766.75,333.54 L 764.04,336.24 L 762.66,337.56 L 759.76,340.06 L 758.28,341.28 L 755.19,343.55 L 753.62,344.66 L 750.37,346.72 L 748.73,347.72 L 745.33,349.53 L 743.62,350.41 L 740.10,351.99 L 738.32,352.75 L 734.70,354.07 L 732.87,354.70 L 729.15,355.77 L 727.28,356.27 L 723.49,357.06 L 721.59,357.42 L 717.75,357.93 L 715.82,358.15 L 711.94,358.38 L 710.00,358.45 L 706.10,358.37 L 704.15,358.30 L 700.26,357.92 L 697.00,357.53 L 690.59,356.07 L 687.41,355.23 L 681.22,352.92 L 678.16,351.67 L 672.27,348.58 L 669.38,346.95 L 663.91,343.15 L 661.23,341.17 L 656.26,336.74 L 653.84,334.45 L 649.47,329.44 L 647.36,326.88 L 643.68,321.37 L 639.04,312.64 L 638.40,311.20 L 637.29,308.53 L 636.77,307.22 L 635.87,304.74 L 635.03,302.30 L 633.89,297.58 L 633.40,295.19 L 632.87,290.03 L 632.77,288.68 L 632.66,285.77 L 632.59,281.00 L 632.60,279.21 L 632.67,275.95 L 632.73,274.37 L 632.92,271.46 L 633.15,268.62 L 634.07,263.54 L 634.62,261.03 L 636.31,255.97 L 636.79,254.67 L 637.92,251.93 L 639.91,247.50 L 641.05,245.07 L 643.66,240.49 L 645.02,238.24 L 648.04,234.02 L 649.60,231.96 L 653.00,228.12 L 654.75,226.25 L 658.48,222.80 L 660.39,221.12 L 664.42,218.08 L 666.48,216.61 L 670.77,213.98 L 672.95,212.73 L 677.47,210.53 L 679.76,209.49 L 684.46,207.74 L 686.84,206.92 L 691.69,205.63 L 694.13,205.04 L 699.10,204.22 L 701.59,203.87 L 706.63,203.53 L 709.15,203.42 M 284.33,207.59 L 285.48,207.60 L 287.47,207.65 L 288.42,207.68 L 290.06,207.77 L 290.85,207.83 L 292.23,207.98 L 293.57,208.14 L 295.83,208.68 L 299.31,209.88 L 300.10,210.19 L 301.87,211.07 L 302.76,211.54 L 304.56,212.61 L 305.45,213.16 L 307.07,214.30 L 309.06,215.94 L 313.00,219.69 L 313.00,209.00 L 336.00,209.00 L 336.00,257.06 L 312.50,256.50 L 311.85,249.97 L 311.65,247.90 L 310.92,244.14 L 310.51,242.33 L 309.36,239.09 L 308.73,237.53 L 307.16,234.80 L 306.33,233.50 L 304.34,231.29 L 303.30,230.25 L 300.89,228.55 L 299.64,227.77 L 296.82,226.59 L 295.36,226.07 L 292.13,225.41 L 286.82,225.01 L 284.95,225.01 L 281.87,225.22 L 280.41,225.37 L 277.99,225.95 L 276.84,226.29 L 274.85,227.28 L 272.12,229.32 L 271.39,229.98 L 270.11,231.60 L 269.50,232.45 L 268.48,234.35 L 268.00,235.32 L 267.24,237.42 L 266.89,238.48 L 266.42,240.67 L 266.23,241.77 L 266.06,243.96 L 266.02,245.04 L 266.17,247.14 L 266.29,248.17 L 266.78,250.08 L 267.92,252.63 L 268.33,253.31 L 269.25,254.55 L 269.74,255.15 L 270.89,256.30 L 271.51,256.86 L 273.02,257.97 L 273.83,258.53 L 275.80,259.68 L 276.86,260.27 L 279.42,261.51 L 280.78,262.15 L 284.04,263.57 L 285.77,264.30 L 289.85,265.94 L 297.02,268.72 L 298.86,269.43 L 302.28,270.76 L 303.94,271.42 L 307.02,272.68 L 308.52,273.30 L 311.29,274.48 L 312.63,275.07 L 315.10,276.21 L 316.30,276.78 L 318.50,277.88 L 319.56,278.43 L 321.51,279.51 L 323.39,280.60 L 326.48,282.78 L 327.93,283.88 L 330.28,286.19 L 331.38,287.38 L 333.16,289.95 L 333.99,291.28 L 335.36,294.24 L 337.14,299.24 L 337.52,300.49 L 338.11,303.15 L 338.37,304.50 L 338.73,307.32 L 339.04,310.17 L 339.00,315.98 L 338.94,317.41 L 338.66,320.21 L 338.49,321.59 L 338.00,324.22 L 337.73,325.50 L 337.03,327.86 L 335.76,331.03 L 335.03,332.52 L 333.40,335.29 L 332.56,336.64 L 330.71,339.14 L 329.76,340.35 L 327.70,342.57 L 326.64,343.65 L 324.37,345.59 L 323.21,346.53 L 320.72,348.19 L 319.45,348.99 L 316.76,350.37 L 315.39,351.03 L 312.49,352.13 L 307.91,353.46 L 306.96,353.68 L 304.83,354.05 L 303.74,354.22 L 301.39,354.48 L 299.01,354.71 L 293.96,354.85 L 291.45,354.86 L 286.65,354.55 L 285.50,354.45 L 283.37,354.15 L 282.33,353.99 L 280.50,353.59 L 278.67,353.14 L 275.34,351.97 L 273.73,351.35 L 270.83,349.83 L 269.43,349.02 L 266.93,347.13 L 263.61,343.85 L 260.00,339.64 L 260.00,353.00 L 238.00,353.00 L 238.00,301.94 L 249.75,302.22 L 261.50,302.50 L 262.08,308.50 L 262.25,310.21 L 262.80,313.44 L 263.12,315.03 L 263.96,317.99 L 264.42,319.44 L 265.53,322.11 L 266.12,323.41 L 267.48,325.75 L 268.19,326.88 L 269.79,328.88 L 270.62,329.84 L 272.44,331.46 L 273.37,332.22 L 275.39,333.43 L 278.62,334.77 L 280.02,335.19 L 282.89,335.72 L 284.32,335.94 L 287.18,336.07 L 288.60,336.08 L 291.39,335.83 L 292.77,335.66 L 295.42,335.05 L 296.72,334.70 L 299.16,333.75 L 300.35,333.23 L 302.51,331.95 L 303.55,331.27 L 305.37,329.69 L 307.63,326.98 L 308.10,326.27 L 308.88,324.66 L 309.25,323.83 L 309.80,322.04 L 310.30,320.22 L 310.63,316.33 L 310.68,314.38 L 310.09,310.63 L 309.88,309.73 L 309.30,308.04 L 308.16,305.74 L 307.76,305.10 L 306.84,303.91 L 306.35,303.32 L 305.16,302.20 L 304.52,301.64 L 302.93,300.52 L 302.07,299.95 L 299.96,298.76 L 298.82,298.15 L 296.06,296.83 L 294.59,296.15 L 291.06,294.63 L 289.18,293.83 L 284.75,292.04 L 283.58,291.58 L 281.06,290.58 L 276.96,288.99 L 275.37,288.37 L 272.38,287.18 L 270.91,286.59 L 268.18,285.46 L 266.84,284.91 L 264.38,283.85 L 263.18,283.33 L 261.00,282.34 L 259.95,281.86 L 258.06,280.95 L 257.16,280.51 L 255.59,279.69 L 254.84,279.29 L 253.59,278.56 L 252.09,277.57 L 250.91,276.70 L 248.76,274.83 L 247.72,273.88 L 245.88,271.86 L 245.00,270.83 L 243.46,268.64 L 242.72,267.53 L 241.48,265.17 L 240.90,263.97 L 239.95,261.43 L 239.52,260.14 L 238.86,257.42 L 238.58,256.04 L 238.22,253.13 L 238.00,248.55 L 238.00,246.33 L 238.43,242.02 L 238.71,239.89 L 239.69,235.81 L 240.24,233.81 L 241.72,230.01 L 242.53,228.15 L 244.49,224.68 L 245.53,223.00 L 247.93,219.92 L 249.19,218.44 L 252.01,215.81 L 253.47,214.55 L 256.66,212.41 L 261.85,209.82 L 263.06,209.34 L 265.24,208.65 L 266.35,208.35 L 268.81,207.97 L 269.48,207.89 L 270.98,207.77 L 271.77,207.72 L 273.57,207.65 L 274.51,207.62 L 276.70,207.59 L 280.50,207.57 L 281.90,207.57 M 430.74,207.02 L 435.20,207.27 L 437.41,207.43 L 441.63,208.00 L 443.72,208.32 L 447.70,209.21 L 449.67,209.69 L 453.42,210.91 L 455.27,211.55 L 458.79,213.09 L 460.53,213.89 L 463.83,215.76 L 465.45,216.73 L 468.53,218.91 L 472.90,222.57 L 474.87,224.40 L 478.27,228.13 L 479.89,230.02 L 482.69,234.05 L 484.03,236.13 L 486.37,240.69 L 489.52,248.37 L 490.65,251.51 L 492.33,257.38 L 493.08,260.28 L 494.06,265.96 L 494.48,268.81 L 494.82,274.72 L 494.70,284.30 L 494.57,286.79 L 494.07,291.54 L 493.78,293.88 L 492.96,298.35 L 492.52,300.55 L 491.39,304.75 L 490.78,306.81 L 489.33,310.73 L 488.57,312.66 L 486.81,316.31 L 485.89,318.10 L 483.81,321.47 L 482.72,323.12 L 480.33,326.22 L 476.37,330.57 L 470.22,336.65 L 474.86,335.88 L 475.18,335.83 L 476.03,335.73 L 476.49,335.68 L 477.59,335.58 L 478.74,335.49 L 481.59,335.33 L 491.25,335.06 L 503.00,335.00 L 503.00,354.00 L 481.25,354.00 L 479.75,354.00 L 476.44,354.01 L 474.74,354.02 L 471.11,354.04 L 467.42,354.06 L 459.57,354.14 L 455.65,354.18 L 448.06,354.29 L 446.23,354.31 L 442.76,354.37 L 438.00,354.46 L 435.04,354.53 L 429.49,354.60 L 428.16,354.62 L 425.66,354.64 L 424.44,354.64 L 422.23,354.64 L 421.16,354.64 L 419.30,354.63 L 418.42,354.62 L 416.97,354.58 L 416.31,354.57 L 415.34,354.52 L 414.92,354.49 L 414.50,354.43 L 414.22,354.36 L 413.37,354.15 L 412.90,354.03 L 411.77,353.75 L 408.00,352.82 L 406.67,352.49 L 403.79,351.48 L 402.32,350.92 L 399.27,349.50 L 397.73,348.74 L 394.62,346.99 L 393.06,346.08 L 389.99,344.08 L 388.48,343.05 L 385.57,340.86 L 384.15,339.76 L 381.51,337.47 L 380.24,336.32 L 377.99,334.01 L 375.18,330.60 L 373.88,328.79 L 371.55,324.88 L 370.44,322.87 L 368.47,318.58 L 367.53,316.40 L 365.94,311.77 L 365.19,309.42 L 363.98,304.51 L 363.42,302.02 L 362.59,296.85 L 362.23,294.24 L 361.80,288.85 L 361.63,286.14 L 361.61,280.58 L 362.04,272.09 L 362.27,269.48 L 362.92,264.57 L 363.27,262.17 L 364.20,257.64 L 364.70,255.42 L 365.92,251.23 L 366.57,249.18 L 368.09,245.29 L 368.90,243.39 L 370.75,239.77 L 371.71,237.99 L 373.91,234.59 L 375.05,232.92 L 377.60,229.72 L 381.84,225.08 L 383.38,223.53 L 386.59,220.75 L 388.21,219.40 L 391.59,217.03 L 393.30,215.89 L 396.87,213.91 L 398.67,212.97 L 402.45,211.39 L 404.36,210.65 L 408.37,209.45 L 410.40,208.90 L 414.65,208.08 L 416.80,207.72 L 421.32,207.28 L 428.41,207.02 M 590.50,208.50 L 590.50,229.50 L 575.00,230.08 L 575.00,333.00 L 591.00,333.00 L 591.00,354.00 L 531.00,354.00 L 531.00,333.00 L 547.00,333.00 L 547.00,230.00 L 531.00,230.00 L 531.00,207.97 M 193.76,292.75 L 194.02,336.00 L 206.00,336.00 L 206.00,353.00 L 153.00,353.00 L 153.00,336.00 L 167.00,336.00 L 167.00,266.00 L 152.92,266.00 L 153.21,257.75 L 153.50,249.50 L 193.50,249.50 M 746.27,241.14 L 745.25,241.78 L 742.99,242.69 L 742.46,242.87 L 741.50,243.09 L 740.36,243.17 L 739.57,243.06 L 738.42,243.31 L 737.93,243.50 L 737.45,244.19 L 737.30,244.58 L 737.56,245.53 L 738.84,247.07 L 739.43,247.55 L 740.37,248.63 L 741.00,249.91 L 741.00,250.48 L 741.46,250.98 L 741.74,251.13 L 742.56,250.89 L 742.98,250.69 L 743.87,249.83 L 745.00,248.00 L 745.41,247.02 L 746.54,245.73 L 747.12,245.20 L 748.26,244.84 L 748.53,244.81 L 748.99,244.94 L 749.20,245.03 L 749.51,245.41 L 749.64,245.63 L 749.74,246.26 L 749.59,247.50 L 749.39,248.29 L 749.43,249.35 L 750.12,250.00 L 750.28,250.00 L 750.29,250.19 L 750.25,250.31 L 749.90,250.70 L 749.69,250.92 L 749.03,251.47 L 747.75,252.40 L 746.89,252.98 L 745.66,253.72 L 745.08,254.03 L 744.06,254.26 L 743.53,254.31 L 742.26,254.08 L 739.57,253.27 L 738.42,252.89 L 736.80,252.44 L 736.05,252.28 L 734.76,252.33 L 734.10,252.43 L 732.50,253.07 L 732.05,253.28 L 730.99,253.81 L 729.07,254.80 L 727.45,255.65 L 724.37,256.82 L 723.67,257.06 L 722.51,257.32 L 721.30,257.37 L 720.96,257.28 L 720.37,257.28 L 720.08,257.31 L 719.57,257.56 L 719.33,257.72 L 718.88,258.23 L 718.27,259.31 L 718.02,259.85 L 717.80,260.81 L 717.73,261.27 L 717.83,262.06 L 717.92,262.43 L 718.30,263.02 L 718.52,263.28 L 719.14,263.65 L 719.47,263.81 L 720.28,263.94 L 720.70,263.97 L 721.65,263.84 L 722.14,263.75 L 723.20,263.34 L 724.85,262.39 L 725.58,261.88 L 727.32,261.39 L 728.22,261.23 L 730.17,261.41 L 731.15,261.58 L 733.10,262.39 L 735.78,264.27 L 738.16,266.50 L 737.50,263.50 L 736.84,260.50 L 738.79,262.90 L 739.32,263.56 L 740.03,265.10 L 740.16,265.48 L 740.30,266.17 L 740.28,267.04 L 740.13,267.61 L 740.28,268.51 L 740.41,268.92 L 740.99,269.43 L 741.32,269.62 L 742.17,269.63 L 743.54,268.96 L 743.84,268.72 L 744.26,268.43 L 744.46,268.32 L 744.71,268.30 L 744.82,268.33 L 744.94,268.59 L 745.00,269.30 L 745.00,269.67 L 745.64,270.74 L 746.03,271.30 L 747.21,272.52 L 747.84,273.12 L 749.23,274.18 L 751.19,275.23 L 751.58,275.36 L 751.73,276.06 L 751.72,276.27 L 751.55,276.84 L 751.05,277.91 L 750.78,278.42 L 750.26,279.11 L 749.99,279.41 L 749.31,279.72 L 748.94,279.84 L 747.89,279.85 L 745.65,279.58 L 744.51,279.40 L 742.37,278.67 L 741.89,278.47 L 741.11,278.03 L 740.32,277.38 L 739.95,276.88 L 738.92,276.40 L 737.12,276.46 L 736.57,276.64 L 735.23,276.34 L 734.55,276.11 L 733.23,275.21 L 732.60,274.71 L 731.64,273.48 L 731.00,271.56 L 731.00,271.02 L 730.63,270.20 L 730.38,269.83 L 729.37,269.29 L 728.77,269.05 L 726.94,268.71 L 726.42,268.64 L 725.21,268.52 L 723.09,268.37 L 721.13,268.26 L 717.40,268.62 L 715.58,268.88 L 712.24,269.91 L 710.63,270.49 L 707.77,272.07 L 706.41,272.91 L 704.16,274.93 L 703.12,275.98 L 701.58,278.33 L 700.91,279.53 L 700.19,282.09 L 699.95,283.39 L 700.17,286.05 L 700.29,286.72 L 700.72,288.05 L 701.68,290.03 L 702.00,290.58 L 702.78,291.49 L 703.21,291.91 L 704.31,292.63 L 704.91,292.98 L 706.49,293.61 L 709.57,294.56 L 710.73,294.87 L 712.55,295.47 L 713.38,295.77 L 714.65,296.39 L 715.22,296.70 L 716.03,297.40 L 716.86,298.58 L 717.24,299.42 L 717.42,300.54 L 716.85,301.59 L 716.68,301.70 L 716.44,302.23 L 716.33,302.55 L 716.20,303.47 L 716.15,303.98 L 716.14,305.22 L 716.27,307.38 L 716.36,308.33 L 716.41,309.98 L 716.40,310.78 L 716.24,312.20 L 714.85,316.27 L 714.40,317.17 L 713.61,319.41 L 713.24,320.58 L 712.64,323.23 L 712.09,325.93 L 711.57,331.68 L 711.49,333.07 L 711.50,335.70 L 711.53,336.96 L 711.77,339.17 L 711.91,340.20 L 712.39,341.78 L 713.38,343.23 L 713.81,343.52 L 715.11,343.83 L 715.82,343.95 L 717.49,343.93 L 718.36,343.88 L 720.18,343.55 L 721.09,343.35 L 722.84,342.71 L 723.27,342.53 L 724.27,341.88 L 724.79,341.52 L 725.89,340.58 L 728.90,337.29 L 729.72,336.16 L 731.61,334.19 L 732.06,333.76 L 732.90,333.10 L 733.92,332.53 L 734.55,332.33 L 735.93,331.26 L 736.62,330.66 L 737.90,329.07 L 738.50,328.25 L 739.40,326.53 L 740.00,324.24 L 740.00,322.99 L 740.43,320.79 L 740.72,319.73 L 741.75,317.87 L 742.35,316.99 L 744.04,315.42 L 747.35,313.32 L 748.37,312.81 L 750.08,311.85 L 750.88,311.38 L 752.17,310.49 L 752.77,310.06 L 753.64,309.24 L 754.03,308.83 L 754.51,308.06 L 754.69,307.67 L 754.77,306.92 L 754.76,306.55 L 754.45,305.81 L 754.25,305.44 L 753.55,304.70 L 752.10,303.56 L 751.28,303.01 L 749.94,301.48 L 749.32,300.64 L 748.38,298.47 L 747.95,297.31 L 747.36,294.44 L 746.87,289.26 L 746.82,288.12 L 746.87,286.30 L 746.91,285.47 L 747.11,284.28 L 747.23,283.76 L 747.55,283.17 L 747.72,282.96 L 748.12,282.96 L 748.33,283.04 L 748.77,283.63 L 748.99,283.99 L 749.43,285.15 L 749.65,285.79 L 750.05,287.49 L 750.56,290.65 L 750.72,291.94 L 751.18,294.18 L 751.43,295.25 L 752.06,297.04 L 752.41,297.88 L 753.23,299.23 L 753.67,299.85 L 754.69,300.76 L 755.22,301.16 L 756.44,301.63 L 757.08,301.81 L 758.51,301.85 L 759.25,301.82 L 760.89,301.44 L 763.60,300.39 L 764.65,299.89 L 765.98,298.83 L 766.52,298.30 L 766.85,297.19 L 766.88,296.63 L 766.18,295.49 L 763.99,293.80 L 763.30,293.40 L 762.19,292.23 L 761.69,291.61 L 761.08,290.31 L 760.85,289.68 L 760.89,288.69 L 760.95,288.47 L 761.22,288.18 L 761.87,288.00 L 762.06,288.00 L 762.92,288.44 L 763.41,288.72 L 764.74,289.62 L 765.44,290.11 L 767.06,291.33 L 767.90,291.97 L 769.65,293.37 L 771.41,294.80 L 774.62,297.65 L 775.34,298.32 L 776.49,299.47 L 777.63,300.81 L 778.12,301.55 L 778.83,303.59 L 779.23,306.50 L 779.06,309.50 L 780.63,306.00 L 781.30,304.51 L 782.41,301.12 L 782.92,299.36 L 783.71,295.53 L 784.07,293.58 L 784.53,289.44 L 784.73,287.34 L 784.88,283.03 L 784.91,280.86 L 784.73,276.49 L 784.61,274.32 L 784.10,270.03 L 783.81,267.91 L 782.99,263.82 L 781.37,258.07 L 780.96,256.87 L 780.29,254.92 L 779.97,254.01 L 779.35,252.58 L 779.04,251.92 L 778.34,250.93 L 777.96,250.48 L 777.01,249.84 L 776.50,249.56 L 775.17,249.21 L 774.44,249.06 L 772.57,248.91 L 771.56,248.85 L 769.01,248.81 L 764.25,248.81 L 762.90,248.81 L 760.84,248.74 L 759.91,248.69 L 758.60,248.51 L 758.03,248.40 L 757.37,248.09 L 757.00,247.46 L 757.00,247.09 L 757.29,246.33 L 758.00,245.50 L 758.47,245.21 L 758.88,244.61 L 758.99,244.30 L 758.64,243.63 L 758.37,243.27 L 757.21,242.46 L 754.51,241.00 L 750.01,238.83 M 427.52,225.55 L 425.83,225.57 L 425.02,225.59 L 423.62,225.66 L 422.27,225.73 L 420.15,226.06 L 419.14,226.25 L 417.28,226.89 L 414.22,228.33 L 412.92,229.00 L 410.51,230.52 L 409.33,231.32 L 407.15,233.11 L 406.09,234.03 L 404.12,236.09 L 403.17,237.16 L 401.41,239.51 L 400.55,240.73 L 398.99,243.39 L 398.23,244.76 L 396.84,247.75 L 396.17,249.28 L 394.96,252.61 L 393.32,258.00 L 393.16,258.59 L 392.87,259.97 L 392.74,260.69 L 392.49,262.33 L 392.25,264.02 L 391.90,268.00 L 391.74,270.07 L 391.54,274.57 L 391.46,276.86 L 391.42,281.57 L 391.42,283.93 L 391.54,288.57 L 391.62,290.85 L 391.89,295.11 L 392.05,297.16 L 392.48,300.73 L 392.59,301.57 L 392.86,303.07 L 393.30,305.00 L 393.90,307.19 L 395.29,311.24 L 396.01,313.20 L 397.64,316.79 L 398.49,318.52 L 400.37,321.65 L 401.34,323.16 L 403.47,325.84 L 404.56,327.13 L 406.95,329.37 L 408.17,330.43 L 410.82,332.23 L 412.17,333.07 L 415.08,334.43 L 419.73,335.97 L 421.31,336.37 L 425.06,336.68 L 426.98,336.75 L 431.04,336.45 L 433.06,336.22 L 436.92,335.37 L 438.78,334.88 L 441.94,333.53 L 443.18,332.90 L 445.52,331.42 L 446.67,330.64 L 448.83,328.84 L 449.89,327.91 L 451.87,325.80 L 452.84,324.71 L 454.65,322.29 L 455.53,321.04 L 457.16,318.30 L 457.96,316.90 L 459.42,313.84 L 460.13,312.27 L 461.42,308.90 L 463.16,303.46 L 463.64,301.79 L 464.32,298.84 L 464.62,297.38 L 465.00,294.29 L 465.08,293.48 L 465.20,291.70 L 465.25,290.78 L 465.32,288.71 L 465.35,287.63 L 465.37,285.19 L 465.38,281.00 L 465.36,278.15 L 465.15,272.87 L 465.02,270.30 L 464.54,265.56 L 464.27,263.24 L 463.51,258.98 L 463.09,256.90 L 462.04,253.06 L 461.48,251.19 L 460.11,247.73 L 459.39,246.04 L 457.69,242.91 L 456.81,241.37 L 454.77,238.51 L 451.31,234.46 L 450.48,233.60 L 448.88,232.09 L 448.08,231.37 L 446.49,230.14 L 444.89,228.98 L 441.52,227.39 L 440.64,227.05 L 438.77,226.52 L 437.82,226.28 L 435.74,225.94 L 434.68,225.79 L 432.35,225.63 L 428.50,225.54 M 653.18,258.51 L 652.62,258.54 L 651.87,258.72 L 651.55,258.83 L 651.19,259.19 L 651.00,260.00 L 651.00,260.22 L 650.80,260.83 L 650.66,261.15 L 650.24,261.88 L 648.40,264.08 L 647.69,264.74 L 646.16,266.58 L 644.40,269.20 L 644.16,269.68 L 643.76,270.96 L 643.58,271.65 L 643.31,273.26 L 643.08,274.92 L 643.00,278.71 L 643.03,280.60 L 643.46,284.11 L 643.60,284.93 L 643.97,286.34 L 644.66,288.01 L 645.05,288.67 L 645.53,289.84 L 645.72,290.46 L 645.76,292.11 L 645.74,292.59 L 645.62,293.76 L 645.55,294.39 L 645.31,295.94 L 645.18,296.77 L 644.82,298.78 L 644.14,302.43 L 643.84,304.00 L 643.37,306.57 L 643.15,307.77 L 642.84,309.73 L 642.71,310.65 L 642.60,312.17 L 642.57,312.90 L 642.68,314.15 L 642.77,314.76 L 643.12,315.92 L 643.32,316.50 L 643.94,317.73 L 644.28,318.37 L 645.18,319.84 L 646.89,322.50 L 647.48,323.41 L 648.29,324.60 L 648.65,325.10 L 649.11,325.51 L 649.31,325.62 L 649.55,325.33 L 649.81,324.19 L 649.90,323.56 L 650.74,322.25 L 651.23,321.64 L 652.50,320.82 L 653.20,320.50 L 654.05,319.66 L 654.30,318.33 L 654.13,317.91 L 654.28,317.39 L 655.13,317.21 L 655.33,317.25 L 655.91,316.88 L 656.21,316.63 L 656.95,315.72 L 657.33,315.20 L 658.17,313.82 L 659.50,311.29 L 659.95,310.35 L 660.84,308.74 L 661.28,307.99 L 662.09,306.81 L 662.48,306.27 L 663.17,305.58 L 664.00,305.19 L 664.73,305.25 L 666.02,305.01 L 666.64,304.83 L 667.70,304.12 L 668.21,303.70 L 669.05,302.50 L 670.08,300.16 L 670.24,299.66 L 670.78,298.35 L 671.08,297.67 L 671.83,296.14 L 674.38,291.61 L 675.24,290.27 L 676.48,287.68 L 676.74,287.09 L 677.05,286.12 L 677.16,285.11 L 677.03,284.45 L 676.22,283.05 L 675.74,282.35 L 674.40,280.99 L 673.68,280.33 L 672.00,279.20 L 669.31,277.94 L 665.92,276.82 L 667.89,273.71 L 669.86,270.60 L 666.93,267.27 L 666.12,266.35 L 664.86,264.49 L 664.59,264.06 L 664.23,263.32 L 664.00,262.50 L 664.00,261.99 L 663.34,261.04 L 662.91,260.59 L 661.50,259.82 L 660.72,259.46 L 658.74,258.94 L 655.29,258.52 L 654.44,258.49 M 647.12,238.78 L 646.68,239.34 L 645.69,240.95 L 645.29,241.63 L 644.80,242.63 L 644.61,243.11 L 644.54,244.02 L 644.56,244.49 L 644.92,245.66 L 645.98,248.15 L 646.52,249.35 L 647.38,251.74 L 647.56,252.29 L 647.81,253.23 L 647.98,254.25 L 647.99,254.96 L 648.33,255.71 L 648.54,255.98 L 649.18,255.88 L 649.52,255.73 L 650.30,254.86 L 650.70,254.33 L 651.46,252.75 L 651.72,252.13 L 652.06,251.13 L 652.19,250.66 L 652.29,249.90 L 651.68,248.11 L 651.45,247.84 L 651.22,247.37 L 651.14,247.14 L 651.22,246.71 L 651.31,246.49 L 651.73,246.03 L 652.76,245.24 L 653.52,244.74 L 654.43,243.86 L 654.79,243.44 L 654.90,242.81 L 654.86,242.53 L 654.18,242.21 L 652.29,242.18 L 651.79,242.24 L 650.96,242.21 L 650.57,242.17 L 649.93,241.93 L 649.63,241.78 L 649.13,241.31 L 648.47,240.30 L 648.19,239.75 L 647.81,239.08 L 647.63,238.82 L 647.30,238.74 M 729.03,244.75 L 729.02,245.09 L 728.59,245.63 L 727.56,246.00 L 727.02,246.00 L 726.24,246.30 L 725.89,246.50 L 725.52,247.10 L 725.39,247.42 L 725.49,248.20 L 726.20,249.45 L 726.67,249.98 L 727.54,250.60 L 727.97,250.84 L 728.72,250.87 L 729.08,250.82 L 729.68,250.28 L 729.95,249.94 L 730.34,248.83 L 730.49,248.23 L 730.47,246.83 L 729.98,245.08 L 729.70,244.58 L 729.30,244.25 M 659.82,241.00 L 659.55,241.20 L 659.45,241.35 L 659.46,241.93 L 659.50,242.29 L 659.82,243.39 L 660.65,245.75 L 660.81,246.16 L 661.03,246.67 L 661.13,246.88 L 661.28,246.97 L 661.35,246.97 L 661.49,246.65 L 661.74,245.69 L 661.86,245.19 L 661.88,243.99 L 661.86,243.40 L 661.62,242.44 L 661.46,242.05 L 660.93,241.42 L 660.06,241.00 M 769.99,241.50 L 769.67,241.70 L 769.27,242.39 L 769.11,242.75 L 769.03,243.55 L 769.03,243.94 L 769.27,244.57 L 770.00,245.00 L 770.27,245.00 L 770.71,244.71 L 770.89,244.52 L 771.00,244.00 L 771.00,243.72 L 771.51,243.28 L 772.75,242.97 L 773.17,242.96 L 773.68,242.93 L 773.89,242.91 L 774.00,242.80 L 773.99,242.73 L 773.68,242.49 L 772.74,241.92 L 772.26,241.63 L 771.21,241.37 M 721.70,236.68 L 721.41,236.87 L 721.48,237.50 L 722.50,238.62 L 722.99,238.98 L 724.06,239.37 L 725.30,239.32 L 725.59,239.13 L 725.52,238.50 L 725.38,238.16 L 724.50,237.38 L 724.01,237.02 L 722.94,236.63 M 698.58,206.69 L 692.01,207.56 L 690.38,207.93 L 686.95,209.01 L 685.22,209.61 L 681.65,211.08 L 679.86,211.86 L 676.26,213.66 L 674.47,214.60 L 670.93,216.66 L 669.19,217.73 L 665.82,220.00 L 664.17,221.16 L 661.07,223.58 L 659.56,224.80 L 656.84,227.31 L 653.27,231.09 L 650.59,234.28 L 653.48,232.76 L 654.13,232.43 L 655.16,232.00 L 655.66,231.83 L 656.63,231.75 L 657.14,231.75 L 658.36,232.00 L 660.82,232.76 L 662.13,233.21 L 664.16,234.37 L 664.59,234.66 L 665.22,235.26 L 665.74,236.11 L 665.85,236.55 L 666.04,237.09 L 666.14,237.31 L 666.39,237.41 L 666.52,237.40 L 666.93,237.04 L 667.86,235.97 L 668.09,235.70 L 669.20,234.97 L 669.85,234.58 L 671.64,233.70 L 672.60,233.25 L 674.84,232.32 L 675.99,231.86 L 678.44,231.00 L 679.67,230.59 L 682.09,229.83 L 683.27,229.48 L 685.41,228.88 L 686.43,228.61 L 688.05,228.24 L 689.63,228.00 L 690.25,228.00 L 691.67,227.37 L 693.39,225.86 L 693.73,225.37 L 694.29,224.73 L 694.56,224.47 L 695.15,224.26 L 695.47,224.20 L 696.29,224.37 L 698.04,225.02 L 699.01,225.42 L 700.45,225.67 L 700.78,225.68 L 701.31,225.54 L 701.56,225.44 L 701.97,225.07 L 702.15,224.86 L 702.44,224.24 L 702.57,223.90 L 702.75,223.02 L 702.83,222.54 L 702.93,221.38 L 702.98,219.31 L 702.99,218.67 L 702.93,217.58 L 702.88,217.06 L 702.73,216.22 L 702.64,215.83 L 702.38,215.24 L 702.24,214.98 L 701.88,214.63 L 701.49,214.34 L 700.38,214.48 L 698.15,215.72 L 697.63,216.11 L 696.73,216.64 L 696.29,216.86 L 695.47,217.09 L 695.06,217.17 L 694.19,217.11 L 692.70,216.74 L 692.23,216.58 L 691.50,216.21 L 691.17,216.02 L 690.70,215.59 L 690.30,215.15 L 690.28,214.12 L 690.39,213.59 L 691.39,212.46 L 694.00,210.75 L 695.07,210.22 L 697.55,209.53 L 698.82,209.25 L 701.39,209.06 L 702.66,209.04 L 704.93,209.37 L 707.56,210.47 L 708.02,210.81 L 708.59,211.28 L 708.82,211.49 L 708.95,211.73 L 708.96,211.83 L 708.64,211.92 L 707.67,211.97 L 707.16,211.98 L 706.49,212.36 L 706.24,213.25 L 706.41,213.76 L 707.36,214.37 L 707.90,214.61 L 709.36,214.70 L 710.12,214.68 L 711.74,214.26 L 714.00,213.05 L 714.59,212.59 L 715.35,211.92 L 715.66,211.62 L 715.89,211.13 L 715.94,210.88 L 715.68,210.37 L 714.78,209.36 L 714.44,209.02 L 713.36,208.43 L 712.76,208.15 L 711.22,207.68 L 710.41,207.46 L 708.52,207.12 L 707.54,206.97 L 705.41,206.76 L 703.23,206.59 M 810.93,207.09 L 812.45,207.31 L 813.20,207.45 L 814.64,207.93 L 816.07,208.47 L 818.58,210.24 L 819.75,211.22 L 821.58,213.69 L 821.98,214.35 L 822.61,215.76 L 822.90,216.47 L 823.27,217.99 L 823.42,218.75 L 823.50,220.35 L 823.51,221.15 L 823.27,222.79 L 823.11,223.62 L 822.51,225.29 L 821.19,227.80 L 820.86,228.32 L 820.00,229.27 L 819.55,229.73 L 818.48,230.55 L 817.38,231.34 L 814.76,232.46 L 813.42,232.94 L 810.61,233.33 L 809.22,233.42 L 806.62,232.94 L 805.45,232.60 L 803.41,231.50 L 802.44,230.89 L 800.83,229.35 L 800.08,228.53 L 798.92,226.65 L 798.41,225.68 L 797.74,223.58 L 797.47,222.52 L 797.32,220.32 L 797.31,219.22 L 797.71,217.03 L 797.97,215.95 L 798.94,213.89 L 801.08,211.08 L 801.78,210.38 L 803.24,209.27 L 803.99,208.77 L 805.51,208.03 L 806.28,207.71 L 807.83,207.32 L 808.61,207.16 L 810.16,207.09 M 194.00,233.00 L 164.94,233.00 L 165.22,221.25 L 165.50,209.50 L 194.00,208.95 M 809.26,209.24 L 808.11,209.34 L 805.89,210.11 L 804.81,210.60 L 802.88,212.19 L 800.54,215.55 L 800.22,216.24 L 799.78,217.60 L 799.60,218.27 L 799.44,219.59 L 799.34,220.90 L 799.85,223.33 L 800.21,224.50 L 801.49,226.56 L 802.20,227.53 L 804.06,229.08 L 805.04,229.77 L 807.28,230.68 L 808.43,231.04 L 810.85,231.16 L 812.07,231.11 L 814.50,230.31 L 815.10,230.04 L 816.26,229.32 L 816.83,228.92 L 817.92,227.92 L 818.55,227.30 L 819.46,226.21 L 819.86,225.67 L 820.40,224.60 L 820.62,224.04 L 820.87,222.79 L 821.00,220.50 L 821.00,219.00 L 820.33,216.41 L 819.90,215.18 L 818.52,213.16 L 817.76,212.23 L 815.87,210.84 L 814.88,210.23 L 812.68,209.51 L 811.56,209.24 M 812.50,212.17 L 813.28,212.28 L 814.61,212.66 L 815.24,212.87 L 816.23,213.42 L 816.69,213.72 L 817.33,214.42 L 817.61,214.78 L 817.88,215.61 L 817.97,216.03 L 817.85,216.94 L 817.73,217.40 L 817.19,218.38 L 815.89,219.89 L 815.40,220.35 L 814.77,221.03 L 814.51,221.34 L 814.34,221.90 L 814.30,222.18 L 814.56,222.83 L 815.39,224.15 L 815.88,224.84 L 816.50,225.92 L 816.76,226.41 L 816.92,227.11 L 816.95,227.42 L 816.66,227.79 L 815.73,228.00 L 815.55,228.00 L 815.08,227.72 L 814.84,227.55 L 814.27,226.97 L 812.57,224.50 L 812.02,223.47 L 810.70,221.98 L 810.37,221.67 L 809.73,221.26 L 808.84,221.00 L 808.48,221.00 L 807.95,221.16 L 807.71,221.28 L 807.38,221.72 L 807.24,221.99 L 807.09,222.80 L 807.00,224.50 L 807.00,225.46 L 806.71,226.97 L 806.62,227.29 L 806.39,227.72 L 806.00,228.00 L 805.85,228.00 L 805.60,227.41 L 805.48,227.02 L 805.28,225.75 L 805.19,225.04 L 805.07,223.22 L 805.03,222.25 L 805.00,220.00 L 805.00,212.00 L 810.86,212.00 M 725.23,207.00 L 725.09,207.71 L 725.00,209.43 L 725.00,209.85 L 724.73,210.74 L 724.55,211.19 L 723.91,212.17 L 723.54,212.67 L 722.51,213.76 L 720.50,215.55 L 719.27,216.56 L 717.54,218.35 L 717.17,218.77 L 716.62,219.53 L 716.38,219.89 L 716.09,220.50 L 715.99,220.78 L 715.98,221.23 L 716.01,221.42 L 716.29,221.67 L 716.47,221.77 L 717.04,221.79 L 718.25,221.55 L 718.56,221.46 L 719.68,221.22 L 720.31,221.10 L 721.91,220.84 L 723.60,220.57 L 727.56,220.08 L 728.78,219.95 L 731.01,219.57 L 732.09,219.36 L 734.07,218.82 L 739.38,216.52 L 744.13,213.74 L 740.00,211.89 L 739.57,211.70 L 738.44,211.24 L 737.83,211.00 L 736.43,210.48 L 734.99,209.95 L 731.82,208.87 L 730.27,208.36 L 727.63,207.55 L 727.05,207.38 L 726.15,207.15 L 725.32,207.00 M 808.19,214.10 L 807.58,214.33 L 807.33,214.49 L 807.10,215.08 L 807.00,216.50 L 807.00,217.10 L 807.10,217.92 L 807.18,218.27 L 807.58,218.67 L 807.83,218.82 L 808.71,218.91 L 810.75,218.81 L 811.49,218.75 L 812.59,218.57 L 813.08,218.46 L 813.74,218.16 L 814.02,217.98 L 814.33,217.50 L 814.45,217.22 L 814.50,216.50 L 814.50,216.10 L 814.33,215.50 L 814.21,215.23 L 813.74,214.84 L 813.46,214.67 L 812.59,214.43 L 810.75,214.19 L 809.89,214.12 L 808.71,214.09 Z" fill="rgba(3,33,67,1)"/>
<path d="M 83.94,399.10 L 81.18,396.72 L 75.86,391.94 L 73.24,389.55 L 68.20,384.76 L 65.71,382.36 L 60.95,377.54 L 58.60,375.12 L 54.11,370.27 L 51.90,367.84 L 47.69,362.97 L 45.62,360.52 L 41.68,355.61 L 39.74,353.15 L 36.07,348.20 L 34.26,345.72 L 30.86,340.74 L 29.19,338.24 L 26.05,333.21 L 24.52,330.69 L 21.64,325.62 L 18.84,320.54 L 14.01,310.23 L 11.72,305.05 L 7.93,294.54 L 3.39,278.50 L 3.07,277.14 L 2.54,274.76 L 2.29,273.60 L 1.88,271.49 L 1.50,269.42 L 1.03,265.38 L 0.93,264.31 L 0.79,262.00 L 0.73,260.80 L 0.65,258.07 L 0.61,256.64 L 0.57,253.32 L 0.54,247.50 L 0.54,244.88 L 0.61,240.12 L 0.66,237.80 L 0.85,233.55 L 0.97,231.48 L 1.32,227.59 L 1.52,225.68 L 2.04,222.01 L 2.61,218.37 L 4.38,211.12 L 4.88,209.26 L 6.07,205.37 L 8.15,199.12 L 9.21,196.07 L 11.66,190.02 L 12.94,187.01 L 15.82,181.03 L 17.31,178.05 L 20.61,172.15 L 22.32,169.21 L 26.03,163.40 L 27.95,160.50 L 32.07,154.78 L 34.19,151.92 L 38.72,146.29 L 41.03,143.49 L 45.96,137.97 L 48.48,135.22 L 53.80,129.80 L 56.50,127.10 L 62.21,121.80 L 65.11,119.16 L 71.19,113.98 L 74.28,111.41 L 80.73,106.36 L 84.00,103.85 L 90.82,98.93 L 94.28,96.49 L 101.45,91.71 L 105.09,89.34 L 112.62,84.71 L 116.43,82.41 L 124.30,77.93 L 136.50,71.40 L 141.28,68.93 L 151.09,64.19 L 156.04,61.86 L 166.20,57.36 L 171.31,55.15 L 181.80,50.90 L 187.08,48.81 L 197.89,44.81 L 203.34,42.84 L 214.46,39.10 L 220.07,37.26 L 231.50,33.77 L 237.26,32.05 L 248.99,28.82 L 254.90,27.23 L 266.93,24.25 L 272.98,22.79 L 285.30,20.07 L 291.49,18.74 L 304.08,16.28 L 310.42,15.08 L 323.28,12.89 L 329.75,11.82 L 342.87,9.89 L 349.47,8.95 L 362.86,7.29 L 369.58,6.49 L 383.21,5.09 L 390.06,4.42 L 403.93,3.29 L 425.00,1.90 L 426.48,1.82 L 430.06,1.68 L 431.95,1.61 L 436.24,1.50 L 438.47,1.44 L 443.37,1.36 L 445.89,1.32 L 451.29,1.27 L 454.04,1.24 L 459.83,1.21 L 462.77,1.20 L 468.84,1.20 L 474.95,1.20 L 487.56,1.29 L 493.85,1.34 L 506.15,1.52 L 509.17,1.56 L 514.99,1.68 L 517.86,1.74 L 523.30,1.87 L 525.97,1.94 L 530.92,2.10 L 533.33,2.18 L 537.69,2.35 L 539.78,2.44 L 543.44,2.63 L 548.00,2.94 L 550.91,3.18 L 556.98,3.71 L 560.04,3.98 L 566.29,4.56 L 572.55,5.15 L 584.84,6.43 L 587.83,6.74 L 593.53,7.38 L 596.32,7.69 L 601.47,8.30 L 603.96,8.60 L 608.38,9.18 L 614.00,9.96 L 626.50,11.85 L 600.00,11.33 L 591.64,11.16 L 574.97,11.18 L 566.64,11.25 L 550.05,11.73 L 541.77,12.03 L 525.29,12.97 L 517.07,13.50 L 500.73,14.90 L 492.57,15.65 L 476.39,17.49 L 468.31,18.47 L 452.31,20.75 L 444.33,21.95 L 428.53,24.67 L 420.66,26.09 L 405.09,29.24 L 397.34,30.87 L 382.03,34.45 L 374.40,36.30 L 359.37,40.30 L 351.89,42.36 L 337.15,46.78 L 329.82,49.04 L 315.42,53.88 L 308.26,56.34 L 294.20,61.59 L 287.21,64.26 L 273.53,69.90 L 266.74,72.77 L 253.45,78.81 L 234.00,88.32 L 229.28,90.73 L 220.08,95.70 L 215.52,98.20 L 206.65,103.32 L 202.26,105.90 L 193.73,111.19 L 189.50,113.84 L 181.32,119.27 L 177.27,122.00 L 169.44,127.57 L 165.57,130.37 L 158.10,136.07 L 154.41,138.94 L 147.32,144.76 L 143.82,147.69 L 137.11,153.63 L 133.80,156.61 L 127.48,162.66 L 124.36,165.70 L 118.44,171.84 L 115.53,174.93 L 110.01,181.17 L 107.31,184.30 L 102.21,190.62 L 99.71,193.79 L 95.04,200.20 L 92.75,203.40 L 88.51,209.87 L 86.45,213.12 L 82.65,219.65 L 77.46,229.50 L 76.59,231.28 L 74.99,234.67 L 74.22,236.34 L 72.80,239.56 L 71.42,242.74 L 69.09,248.88 L 67.99,251.95 L 66.05,258.28 L 63.38,268.58 L 63.06,269.95 L 62.53,272.34 L 62.27,273.50 L 61.86,275.60 L 61.48,277.67 L 61.03,281.75 L 60.93,282.83 L 60.80,285.21 L 60.74,286.45 L 60.67,289.29 L 60.64,290.79 L 60.61,294.30 L 60.60,300.50 L 60.60,302.73 L 60.61,306.56 L 60.63,308.39 L 60.68,311.54 L 60.71,313.05 L 60.82,315.69 L 60.87,316.96 L 61.04,319.27 L 61.23,321.52 L 61.85,325.75 L 62.03,326.84 L 62.47,329.17 L 63.27,333.06 L 63.87,335.90 L 65.28,341.59 L 66.02,344.43 L 67.70,350.08 L 69.44,355.72 L 73.68,366.82 L 75.92,372.32 L 81.11,383.03 L 82.46,385.68 L 85.34,390.87 L 89.89,398.49 L 90.74,399.84 L 92.26,402.32 L 92.97,403.51 L 94.14,405.50 L 94.67,406.42 L 95.36,407.71 L 95.50,407.98 L 95.66,408.35 L 95.72,408.62 L 95.69,408.64 L 95.42,408.48 L 95.24,408.37 L 94.69,407.97 L 94.38,407.74 L 93.57,407.11 L 93.14,406.77 L 92.12,405.96 L 91.06,405.09 L 88.41,402.89 L 87.03,401.73 Z" fill="rgba(212,18,23,1)"/>
</g>
</svg>